<svg xmlns="http://www.w3.org/2000/svg" width="527.574" height="45.28" viewBox="0 0 527.574 45.28"><defs><style>.a{fill:#aca1b1;}</style></defs><g transform="translate(-995 -2586.028)"><g transform="translate(1071.697 2586.028)"><g transform="translate(12.122 18.18)"><path class="a" d="M12.671,24.915a2.32,2.32,0,0,0-1.259-.28l-.474,0a.731.731,0,0,0-.689.549l-.437,1.88a.433.433,0,0,0,.44.553h.354a3.034,3.034,0,0,0,1.831-.481,1.559,1.559,0,0,0,.651-1.361A.957.957,0,0,0,12.671,24.915Z" transform="translate(-9.799 -24.635)"/></g><g transform="translate(19.876 22.792)"><path class="a" d="M18.917,28.364c-.085,0-.74.077-1.071.118a5.471,5.471,0,0,0-.954.215l-.614.418a1.09,1.09,0,0,0-.212.706l.28.542a1.728,1.728,0,0,0,.825.158,2.026,2.026,0,0,0,.757-.166l.569-.293.225-.3c.089-.349.273-1.124.294-1.221Z" transform="translate(-16.067 -28.364)"/></g><g transform="translate(0 0)"><path class="a" d="M68.069,9.939H1.8a1.8,1.8,0,0,0-1.8,1.8V53.419a1.8,1.8,0,0,0,1.8,1.8H68.069a1.8,1.8,0,0,0,1.8-1.8V11.738A1.8,1.8,0,0,0,68.069,9.939ZM16.68,31.9a6.855,6.855,0,0,1-4.127,1.089H12.14a.74.74,0,0,0-.694.549l-.5,2.15a.744.744,0,0,1-.7.552H8.806a.428.428,0,0,1-.437-.552L10.4,26.831a.759.759,0,0,1,.7-.553h3.023a10.223,10.223,0,0,1,1.708.135,3.729,3.729,0,0,1,1.259.463,2.143,2.143,0,0,1,.79.852,2.675,2.675,0,0,1,.278,1.305A3.387,3.387,0,0,1,16.68,31.9Zm8.983-1.131-.054.372-1.056,4.567a.748.748,0,0,1-.622.542l-.02.007H22.565l0,0a.43.43,0,0,1-.387-.542v0l0-.009.054-.233-.007-.009-.546.36-.594.332-.7.24a4.038,4.038,0,0,1-.909.083,2.212,2.212,0,0,1-1.525-.52,1.786,1.786,0,0,1-.589-1.373,2.682,2.682,0,0,1,.413-1.514,2.84,2.84,0,0,1,1.246-.982,6.649,6.649,0,0,1,1.836-.5c.72-.1,1.314-.179,2.136-.231l.208-.129.026-.2a.667.667,0,0,0-.437-.658,3.582,3.582,0,0,0-1.316-.186,6.232,6.232,0,0,0-1.357.182,7.823,7.823,0,0,0-.866.256c-.111.038-.38.057-.28-.408l.177-.729a.85.85,0,0,1,.637-.67c.266-.059.308-.071.742-.137a11.494,11.494,0,0,1,1.752-.136,5.493,5.493,0,0,1,2.588.461,1.53,1.53,0,0,1,.825,1.431Zm2.327,9-1.5,0c-.312,0-.414-.247-.224-.552l1.283-2.237s.1-.127.011-.857c-.2-1.319-1.183-6.925-1.183-6.925a.427.427,0,0,1,.433-.552l1.3,0a.8.8,0,0,1,.788.568l.646,3.888.24,0c.2-.358,2.275-3.915,2.275-3.915a1.258,1.258,0,0,1,.91-.553s1.394,0,1.737,0c.515-.007-.04.826-.04.826L28.9,39.222A1.212,1.212,0,0,1,27.991,39.771ZM42.98,31.942a6.9,6.9,0,0,1-4.137,1.086H38.43a.747.747,0,0,0-.7.548l-.49,2.154a.748.748,0,0,1-.7.544l-1.451,0a.428.428,0,0,1-.437-.549L36.7,26.863a.757.757,0,0,1,.693-.55l3.027,0a10.085,10.085,0,0,1,1.7.134,3.574,3.574,0,0,1,1.261.461,2.221,2.221,0,0,1,.8.856,2.779,2.779,0,0,1,.278,1.3A3.436,3.436,0,0,1,42.98,31.942Zm8.978-1.163-.053.375-1.059,4.563a.746.746,0,0,1-.617.544l-.02.007H48.863l0-.007a.422.422,0,0,1-.386-.542l0,0,.006,0,.048-.233-.009-.011-.542.365-.6.33-.7.236a4.162,4.162,0,0,1-.907.085,2.225,2.225,0,0,1-1.524-.523,1.774,1.774,0,0,1-.593-1.374,2.663,2.663,0,0,1,.414-1.51,2.87,2.87,0,0,1,1.244-.983,6.751,6.751,0,0,1,1.839-.5c.715-.1,1.309-.179,2.138-.23l.208-.131.022-.2a.662.662,0,0,0-.438-.657,3.545,3.545,0,0,0-1.314-.187,6.459,6.459,0,0,0-1.36.182,8.27,8.27,0,0,0-.86.256c-.121.036-.382.057-.283-.408l.177-.727a.841.841,0,0,1,.636-.67c.268-.058.312-.072.745-.135a11.012,11.012,0,0,1,1.752-.14A5.51,5.51,0,0,1,51.164,29a1.526,1.526,0,0,1,.828,1.429ZM56.6,26.936l-1.94,8.784-.068.1a.737.737,0,0,1-.626.448H52.618l-.025-.031a.412.412,0,0,1-.362-.516l0-.006.058-.254L54.1,27.224l.064-.287.073-.113a.736.736,0,0,1,.623-.439h1.3a.428.428,0,0,1,.438.548Zm2.571-.95h-.485v.644l0,.173.033.116.077.074.148.024L59.066,27l.09-.027h.011v.212l-.145.028-.137.011-.329-.118-.113-.371v-.75h-.163v-.2h.163v-.4h.239v.4h.485Zm2.344.3v.912h-.234v-.8l-.015-.172-.031-.136L61.151,26l-.157-.028-.2.051-.2.127,0,.069,0,.074v.9h-.235v-.8l-.01-.174-.033-.135L60.244,26l-.16-.028-.194.048-.2.122V27.2h-.233V25.787h.233v.157l.225-.143.233-.052.245.058.151.168.26-.174.254-.052.343.14.111.393h0Z" transform="translate(0 -9.939)"/></g><g transform="translate(46.176 22.8)"><path class="a" d="M40.173,28.37c-.085,0-.737.075-1.064.118a5.236,5.236,0,0,0-.954.215,1.47,1.47,0,0,0-.62.418,1.12,1.12,0,0,0-.208.708l.283.541a1.655,1.655,0,0,0,.824.16,2.034,2.034,0,0,0,.752-.165l.565-.293.233-.3c.087-.353.275-1.126.289-1.222Z" transform="translate(-37.328 -28.37)"/></g><g transform="translate(38.41 18.212)"><path class="a" d="M33.923,24.942a2.323,2.323,0,0,0-1.257-.281l-.471,0a.74.74,0,0,0-.693.55l-.438,1.879a.433.433,0,0,0,.444.552h.36A3.087,3.087,0,0,0,33.7,27.17a1.593,1.593,0,0,0,.651-1.366A.98.98,0,0,0,33.923,24.942Z" transform="translate(-31.05 -24.661)"/></g></g><g transform="translate(995 2586.028)"><g transform="translate(0 0)"><path class="a" d="M68.069,9.939H1.8a1.8,1.8,0,0,0-1.8,1.8V53.42a1.8,1.8,0,0,0,1.8,1.8H68.069a1.8,1.8,0,0,0,1.8-1.8V11.738A1.8,1.8,0,0,0,68.069,9.939ZM5.41,23.622h7.457a1.935,1.935,0,0,1,2.1,1.434l1.622,7.8c-1.593-4.08-5.433-7.474-11.236-8.879Zm9.023,17.789L10.125,26.695a18.888,18.888,0,0,1,6.663,7.315l.5,1.817L22,23.791h5.1L19.523,41.407Zm16.411.012h-4.81l3.007-17.65h4.812Zm8.37.265a15.225,15.225,0,0,1-5.359-.943l.677-3.95.62.281A10.08,10.08,0,0,0,39.679,38c1.382,0,2.863-.541,2.876-1.723.009-.773-.62-1.325-2.493-2.191-1.826-.844-4.243-2.259-4.213-4.794.026-3.43,3.376-5.824,8.13-5.824a12.415,12.415,0,0,1,4.309.741l-.649,3.826-.434-.2a8.875,8.875,0,0,0-3.6-.675c-1.883,0-2.756.784-2.756,1.518-.01.826,1.019,1.371,2.7,2.19,2.775,1.259,4.057,2.787,4.04,4.795C47.553,39.322,44.271,41.688,39.213,41.688Zm20.844-.257s-.439-2.029-.585-2.645l-6.16-.007c-.187.476-1.011,2.652-1.011,2.652H47.25l7.141-16.174a2.4,2.4,0,0,1,2.52-1.465h3.716L64.52,41.429Z" transform="translate(0 -9.939)"/></g><g transform="translate(54.695 18.613)"><path class="a" d="M47.094,26.507l-.324-1.522c-.245.664-.667,1.732-.64,1.685,0,0-1.52,3.918-1.916,4.933h3.994C48.015,30.719,47.094,26.507,47.094,26.507Z" transform="translate(-44.214 -24.985)"/></g></g><g transform="translate(1377.246 2586.028)"><g transform="translate(0 0)"><path class="a" d="M68.069,9.939H1.8a1.8,1.8,0,0,0-1.8,1.8V53.42a1.8,1.8,0,0,0,1.8,1.8H68.069a1.8,1.8,0,0,0,1.8-1.8V11.738A1.8,1.8,0,0,0,68.069,9.939ZM26.893,43.1h-.026a5.26,5.26,0,0,1-.043.674c-.014.108-.031.212-.052.315-.015.08-.032.16-.051.238s-.032.129-.051.2-.032.114-.051.169-.033.1-.051.152-.033.092-.051.136-.033.087-.052.129-.033.077-.051.119-.033.075-.051.111l-.051.1c-.016.032-.033.067-.051.1s-.033.063-.051.094-.033.061-.051.089-.033.058-.051.085-.033.054-.051.08-.033.053-.052.079-.033.051-.051.077l-.051.073c-.016.024-.033.046-.051.071l-.051.071-.051.066-.051.064c-.017.021-.033.042-.051.062s-.033.041-.051.061-.033.04-.051.058-.033.038-.051.058-.033.036-.052.056-.033.036-.051.053l-.052.052-.051.049-.051.051-.051.048-.051.048c-.017.015-.033.028-.051.046l-.051.043-.051.043-.051.042-.051.042-.051.041c-.017.012-.033.026-.052.038s-.033.026-.051.037-.033.026-.051.037-.033.025-.051.036-.033.025-.051.035l-.051.035-.052.033a.5.5,0,0,1-.051.031c-.017.01-.033.022-.051.031a.428.428,0,0,1-.051.031c-.017.01-.033.022-.051.031s-.033.02-.052.028a.409.409,0,0,1-.051.028.492.492,0,0,1-.051.026.294.294,0,0,1-.051.028l-.051.026-.051.026-.052.026c-.016.009-.033.017-.051.025s-.033.017-.051.025-.033.017-.051.025l-.052.022-.051.024-.051.024a.341.341,0,0,0-.051.021L23.515,48l-.052.02c-.016,0-.033.014-.051.02l-.052.019-.051.019-.051.019-.051.016-.051.017c-.016,0-.035.01-.051.016l-.052.015L23,48.169l-.052.015L22.9,48.2l-.051.012-.051.014-.051.012-.052.011-.051.011-.051.01a.334.334,0,0,1-.051.01l-.052.01-.051.009-.051.009c-.016,0-.033,0-.051.007l-.051.006-.051.009a.387.387,0,0,0-.052,0,.335.335,0,0,1-.051,0c-.017,0-.033,0-.051.006l-.051,0-.051,0-.051,0-.051,0-.051,0H13.891V37.276L14,37.3l.051.014.051.012.051.014.052.012.051.012.051.011.051.011.051.012.052.01.051.012.051.01.051.011.051.011.051.01.052.011.051.011.051.01.051.01.052.01.051.01.051.01.051.009.051.011.052.007.051.01.052.009.051.009.051.009.051.009.051.01.051.007.052.009.051.007.052.007.051.009.051.007.051.007.051.009.052.007.051.006.051.007.051.007.052.007.051,0,.051.007.051.007.051.006.051.006.052.006.051.006.051.007.051,0,.051.007.052.006.051,0,.051,0,.051,0,.051,0,.051.006.052,0,.051,0,.051,0,.051,0,.052,0,.051,0,.051,0,.051,0,.051,0,.052,0,.051,0,.051.006.051,0,.051,0,.051,0,.052,0,.051,0,.051,0,.051,0,.052,0,.051,0,.052,0,.051,0,.051,0,.052,0,.051,0,.051,0h.51l.051,0h.713l.051,0h.306l.051,0,.052,0,.051,0h.051l.051,0,.051,0,.051,0,.051,0,.051,0,.052,0,.051,0,.051,0,.052,0,.051,0,.052,0,.051,0,.051,0,.051,0,.051-.006.051,0,.051,0,.051-.007.051,0,.051-.007.052-.006.051-.007.051-.006.051-.007c.017,0,.033,0,.051-.007l.052-.007.051-.007.051-.01a.4.4,0,0,0,.051-.009l.051-.007.052-.009a.335.335,0,0,1,.051-.01l.051-.01.051-.01L22,37.7a.373.373,0,0,0,.051-.011l.051-.011.051-.01c.017,0,.033-.007.051-.011l.051-.011.052-.011.051-.014.051-.012.051-.014.051-.014.051-.015c.017,0,.033-.007.052-.014l.051-.014.051-.015.051-.015.052-.016.051-.016a.494.494,0,0,0,.051-.017l.051-.017.051-.017a.427.427,0,0,1,.052-.017l.051-.02.052-.019c.016-.006.033-.014.051-.019s.033-.015.051-.021a.44.44,0,0,0,.051-.021l.051-.021.051-.021.052-.022.051-.024.052-.024.051-.025.051-.025c.017-.007.035-.017.051-.025l.051-.026c.017-.007.033-.017.052-.026l.051-.027c.017-.007.035-.019.051-.026l.051-.028.052-.028c.017-.01.033-.02.051-.028a.557.557,0,0,1,.051-.031,3531.159,3531.159,0,0,1,.1-.064l.051-.033c.017-.012.033-.025.052-.036s.033-.025.051-.036l.051-.038.051-.037.051-.041.052-.042c.016-.015.033-.027.051-.043s.033-.028.051-.046.035-.031.051-.048a.328.328,0,0,0,.051-.051.49.49,0,0,0,.051-.051l.052-.053c.017-.017.033-.036.051-.056s.035-.038.051-.058.035-.041.051-.062l.051-.064.051-.068.051-.073c.017-.026.035-.051.051-.077l.051-.082c.017-.027.033-.057.051-.085s.033-.063.051-.093l.052-.1c.017-.037.033-.074.051-.113s.035-.079.052-.121l.051-.135c.019-.053.035-.1.051-.157s.036-.126.051-.188.036-.157.051-.236c.021-.121.038-.241.051-.365a5.185,5.185,0,0,0,.025-.523v-6.1H21.261v6.1q0,.143-.011.282a2.557,2.557,0,0,1-.052.344c-.014.069-.031.136-.051.2s-.032.105-.051.155-.032.087-.051.129-.033.075-.051.111-.033.067-.051.1-.033.058-.051.087-.033.056-.051.08-.033.049-.051.074l-.051.068-.052.063c-.016.02-.033.04-.051.058s-.035.037-.052.054-.033.035-.051.052l-.051.049c-.017.016-.033.03-.052.045s-.033.028-.051.043-.033.026-.051.038l-.051.038c-.017.012-.033.026-.051.036s-.033.025-.051.035-.033.022-.051.032a.409.409,0,0,1-.051.028c-.017.01-.033.02-.052.028s-.033.019-.051.027-.033.019-.051.026a.392.392,0,0,1-.051.026l-.051.024-.051.024L19.721,36a.359.359,0,0,1-.051.02l-.051.02-.051.017-.051.017-.052.016-.051.014-.051.015a.444.444,0,0,0-.051.014l-.051.011-.051.011c-.017,0-.033.009-.052.011l-.051.007a.367.367,0,0,0-.051.01l-.051.007-.051.006-.051.006-.051,0a14023.565,14023.565,0,0,0-.1.01l-.052,0a.34.34,0,0,1-.051,0l-.052,0a.34.34,0,0,1-.051,0h-.3l-.052,0h-.051l-.051,0-.052,0-.051,0-.052-.016-.051,0-.051,0-.051,0-.052,0-.051,0-.051,0-.051,0-.051-.006-.051,0-.052-.007-.051,0-.051-.009-.051-.006-.031,0-.052-.007-.051-.009-.051-.01-.051-.007-.052-.01-.051-.009-.051-.01-.051-.01-.051-.011-.051-.01-.052-.01-.051-.011-.051-.011L16.531,36l-.051-.012-.052-.012-.051-.012-.051-.015-.051-.012-.051-.014-.051-.012-.052-.014-.051-.016-.051-.014-.051-.015-.052-.015-.051-.015-.051-.015-.051-.015-.051-.017-.052-.016-.051-.019-.052-.016-.051-.016-.051-.02-.051-.017-.051-.017-.051-.02-.052-.017L15.2,35.6l-.052-.021-.051-.019-.051-.02L15,35.523,14.95,35.5l-.052-.021-.051-.021-.051-.021-.051-.022-.052-.021-.051-.022-.051-.022-.051-.022-.051-.022-.051-.024-.052-.021-.051-.025-.051-.022-.051-.025-.051-.025-.033-.017-.051-.024L14.05,35.1,14,35.076l-.109-.052V22.058A5.268,5.268,0,0,1,14,20.988c.015-.074.032-.147.051-.22s.033-.125.051-.187.032-.109.051-.163.033-.1.052-.148.032-.09.051-.135.033-.083.051-.125.033-.078.051-.115.033-.073.051-.109.033-.069.052-.1.033-.066.051-.1.033-.062.051-.093l.051-.089.051-.085c.017-.026.033-.054.051-.08s.033-.052.052-.078.033-.051.051-.075.033-.049.051-.073l.051-.069c.017-.024.033-.046.052-.068s.033-.045.051-.066.033-.042.051-.063.033-.042.051-.062l.051-.059.052-.058c.016-.019.033-.038.051-.056l.052-.054.051-.053.051-.052.051-.051.051-.051c.016-.016.033-.031.051-.047l.052-.047.051-.045c.017-.015.033-.03.052-.043s.033-.03.051-.043.035-.028.051-.043l.051-.041.051-.041c.017-.012.033-.026.052-.038l.051-.038.051-.037c.016-.012.033-.025.051-.036s.033-.025.052-.036l.051-.035c.017-.011.033-.024.051-.033s.033-.022.051-.032l.051-.031.051-.031.052-.03.051-.03.051-.027c.016-.009.033-.02.051-.028l.051-.027.052-.026.051-.026.051-.026.051-.025.051-.025.051-.024.052-.022.051-.024.051-.021.051-.021.033-.017.051-.02.051-.019L17.4,17.1l.051-.019.052-.017.051-.017.051-.016.051-.016c.017,0,.033-.01.051-.015s.033-.009.051-.015l.052-.014.051-.012.051-.012.051-.012.052-.011.051-.011.052-.011.051-.01.051-.01.052-.009.051-.009.051-.009.051-.006.051-.007.051-.006.051-.006.051,0c.017,0,.035,0,.052,0l.051,0,.052,0,.051,0,.051,0,.051,0h.051l.051,0h7.865V43.1Zm14.53,0h0a5.494,5.494,0,0,1-.043.674c-.014.108-.03.212-.051.315-.016.079-.032.16-.052.236s-.031.13-.051.2-.033.114-.051.169-.033.1-.051.151-.033.093-.051.139-.033.084-.052.127-.032.078-.051.12-.032.074-.051.109-.032.071-.051.1-.032.068-.051.1-.032.063-.052.094-.031.061-.051.09a.861.861,0,0,1-.051.085l-.051.082c-.016.026-.033.053-.051.078s-.033.052-.051.077-.033.048-.052.074-.032.047-.051.071-.032.047-.049.069l-.051.067c-.019.021-.033.042-.051.063s-.033.042-.051.063-.033.041-.051.062-.033.037-.051.058l-.051.056-.051.056c-.019.019-.033.036-.053.053s-.033.033-.051.051-.033.033-.051.051-.033.033-.051.051l-.051.048-.051.046c-.017.017-.033.03-.051.046l-.051.045-.051.042c-.019.015-.033.028-.053.043l-.051.041-.051.041a.543.543,0,0,1-.051.038c-.019.012-.033.026-.051.038s-.033.025-.051.036a.555.555,0,0,1-.051.036c-.017.012-.033.025-.051.035a.365.365,0,0,1-.053.036.508.508,0,0,1-.051.032.318.318,0,0,1-.051.032.576.576,0,0,1-.051.032.446.446,0,0,1-.051.03l-.051.031c-.019.01-.033.021-.051.03s-.033.019-.051.027l-.051.027-.051.027-.051.026c-.017.01-.035.02-.051.027l-.053.026c-.017.009-.032.019-.051.026s-.032.016-.051.026-.032.016-.051.024l-.051.024-.051.024-.051.021-.051.022-.051.021c-.017.006-.033.014-.051.019s-.033.015-.052.021-.033.011-.051.019l-.051.017-.051.02-.051.016-.052.016-.051.017-.051.015-.051.015-.051.012-.052.015-.051.012c-.019,0-.032.01-.051.012l-.051.012-.051.012-.052.011-.051.01-.051.011-.051.007-.051.01-.051.009c-.017,0-.033,0-.052.007l-.051.006-.051.007-.051,0-.052.007a.352.352,0,0,0-.051,0l-.052,0-.051,0-.051,0-.051,0-.051,0H28.443V36.215c.036.03.072.061.109.09l.051.041.051.04.051.038c.017.012.033.026.051.036s.033.025.051.036.033.025.051.036l.051.032c.017.011.033.024.052.035l.051.033c.017.01.033.021.052.031a.309.309,0,0,0,.051.031l.051.031c.017.01.033.02.051.028s.033.02.051.028l.051.028.051.026.051.027.051.027.051.026.051.026.052.026.051.025c.017.009.033.017.052.025l.051.025.051.024.051.024.051.022.051.022.051.022.051.021.051.021.052.021.051.021a.429.429,0,0,1,.051.02l.051.019c.017.006.033.014.051.019l.051.02.052.017.051.017c.017.007.033.012.051.019l.051.016.051.017.052.016.051.016.051.015.051.015.051.016L31,37.5l.052.015.051.012.051.015.051.012.052.015.051.012.051.012.051.011.051.011.052.012.051.011.051.011.051.01.051.01.051.01.052.011.051.01.051.009.051.01.052.007.051.01.052.009.051.009.051.009.051.009.051.007.051.007.051.006.051.007.051.007.051.006.051.006.051.006.051.007.052,0,.051,0,.051.009.051,0,.051,0,.051,0,.051,0,.051,0,.051,0,.051,0,.052,0,.051,0,.051,0,.051,0,.051,0,.052,0,.051,0,.051,0,.051,0,.051,0,.051,0,.051,0,.051,0h.051l.052,0h.051l.051,0,.051,0H34.2l.051,0h.052l.051,0h.813l.051,0h.1l.052,0h.051l.051,0h.052l.051,0,.051,0h.051l.051,0h.152l.051,0,.051,0,.053,0,.051,0,.051,0,.051,0,.051,0,.051,0,.051,0,.051,0,.051,0,.051,0,.051,0,.051,0,.051,0,.051,0,.051,0,.053,0,.049-.006.051,0,.051-.007.052,0,.051,0,.051-.006.051-.006.051-.006.051-.006.052-.006.051-.006.051-.007.051,0,.051-.009.052-.007.051-.007.051-.006.051-.007.051-.01.052-.007.051-.007.051-.009.051-.007.051-.007.052-.009.051-.007.051-.01.051-.009.051-.009.052-.009.051-.009.051-.01.051-.01.051-.009.052-.009.051-.009.051-.011.051-.01.051-.009.051-.01.051-.011.051-.01.051-.01.051-.01.051-.01.051-.01.053-.012.051-.01.051-.011.051-.011.051-.01.051-.012.051-.01.051-.012.053-.011.051-.011.051-.012.051-.012.051-.012.051-.012.051-.012.051-.012.051-.012V35.056l-.051.026-.051.025-.048.019-.051.025-.051.025-.051.025-.051.025-.051.025-.053.024L39.5,35.3l-.051.025-.051.025-.051.022-.051.022-.051.024-.051.024-.053.021-.051.021-.051.022-.051.021-.051.021-.051.02-.051.02-.051.02-.051.019-.051.02-.051.02-.051.019-.052.019-.051.017-.051.017-.051.017-.051.017-.052.017-.051.016-.051.016-.051.017-.051.015-.052.015-.051.016-.051.014-.051.015-.051.015-.052.014-.051.014-.051.015-.051.012-.051.015L37.515,36l-.051.012-.051.01-.051.012-.051.011-.052.011-.051.01-.051.012-.051.01-.051.01-.051.009-.052.009-.051.01-.051.007-.049.009-.053.007-.051.007-.051.007-.051.009-.051,0-.051.007-.051.007-.051.006-.051,0-.051.006h-.084l-.051,0-.049,0-.051,0-.051,0-.031,0h-.02l-.051,0-.052,0-.051,0-.053-.024-.051,0h-.559l-.051,0-.051,0-.051,0-.051,0-.051,0-.051,0a.352.352,0,0,1-.051,0l-.051,0-.051-.006-.051,0-.051-.007-.051-.007-.051-.009-.052-.007-.051-.007c-.017,0-.033-.007-.051-.011s-.035,0-.051-.01a.389.389,0,0,1-.052-.011.367.367,0,0,1-.051-.01.379.379,0,0,1-.051-.012l-.051-.012-.051-.012c-.017,0-.035-.01-.051-.012l-.052-.015-.051-.015-.051-.015a.409.409,0,0,1-.051-.017l-.051-.016-.051-.017c-.017-.006-.033-.014-.051-.019l-.051-.02-.051-.02c-.017-.007-.033-.015-.052-.021l-.051-.022-.051-.024-.051-.024a.493.493,0,0,1-.051-.026l-.052-.025-.051-.026c-.017-.007-.035-.017-.051-.026a.411.411,0,0,0-.051-.027A.348.348,0,0,0,33,35.655c-.017-.01-.033-.022-.051-.031s-.033-.021-.051-.031-.035-.022-.051-.031a.6.6,0,0,0-.051-.033c-.017-.012-.033-.025-.051-.036s-.035-.026-.052-.037l-.051-.038c-.017-.014-.035-.026-.051-.04s-.035-.027-.051-.043l-.051-.043-.051-.046-.051-.049c-.017-.016-.035-.033-.051-.051l-.051-.053-.051-.056c-.017-.019-.033-.04-.051-.059l-.051-.063-.051-.066-.052-.069-.051-.074-.052-.079c-.017-.026-.033-.057-.051-.085s-.035-.061-.051-.09-.035-.067-.051-.1-.035-.074-.052-.109-.035-.078-.051-.12-.035-.09-.051-.136-.035-.1-.051-.155-.036-.122-.051-.184c-.02-.078-.036-.158-.051-.24-.022-.121-.04-.244-.052-.372-.014-.147-.021-.3-.021-.455s.007-.308.021-.455c.012-.129.028-.252.052-.374.015-.08.031-.161.051-.24.015-.063.032-.125.051-.186s.033-.1.051-.155.032-.092.051-.136.033-.079.051-.119.033-.074.052-.109.032-.067.051-.1.033-.062.051-.092.033-.057.051-.085.033-.052.052-.079.033-.049.051-.074.033-.046.052-.069.033-.045.051-.066.033-.042.051-.062l.051-.059c.017-.02.033-.038.051-.056l.051-.054.051-.049.051-.049.051-.046.051-.045c.016-.015.033-.027.051-.042l.051-.041c.016-.014.033-.026.051-.04s.033-.025.052-.037.033-.025.051-.036l.051-.035c.016-.011.033-.022.051-.032s.033-.022.051-.032L33,29.5l.051-.028c.016-.01.033-.02.051-.028l.051-.026c.017-.009.033-.019.051-.026l.052-.025c.017-.009.033-.016.051-.026l.051-.024c.017-.006.033-.015.051-.022l.051-.022.052-.02.051-.02.051-.019.051-.02.051-.017.051-.016.051-.016.051-.015.051-.015.052-.015.051-.012.051-.012.051-.012.051-.012.051-.01c.017,0,.033-.007.052-.01l.051-.01.051-.01L34.429,29l.052-.009.051-.007.051-.007.051-.007.051,0,.051-.006.051,0,.051,0,.051,0,.051,0,.051,0,.051,0,.051,0,.051,0H35.7l.051,0,.051,0,.051,0,.052,0,.051,0h.02l.031,0,.051,0,.051,0,.051,0,.051,0,.051,0,.049.006.051,0,.051.006.051,0,.051.007.051.006.051.007.053.007.051.007.051.007.051.007.051.01.051.009.053.009.051.01.051.009.051.01.051.01.051.01.051.01.051.011.051.011.051.011.051.012.053.012.051.012.051.012.051.012.051.014.051.014.051.014.051.015.051.015.051.015.053.015.051.016.051.016.051.016.051.016.051.016.051.017.051.016.051.017.051.019.053.017.049.019.051.019.051.019.051.02.051.02.051.02.051.021.051.021.051.021.052.021.051.021.052.022.051.022.051.022.052.03.052.022.051.024.051.024.051.024.052.024.051.025.051.024.051.026.051.025.052.025.051.026.051.025.051.026V27.9l-.051-.012-.051-.012-.051-.011-.052-.012-.051-.012-.051-.011-.051-.011-.051-.011-.052-.011-.051-.011-.071-.027-.051-.011-.051-.01-.051-.011-.051-.01-.051-.01-.053-.011-.049-.01-.052-.01-.051-.01-.051-.01-.051-.01-.051-.011-.051-.01-.051-.009-.051-.01-.051-.009-.051-.009-.052-.01-.051-.009-.051-.009-.051-.01-.051-.009-.052-.009-.051-.009-.051-.009-.051-.009-.051-.007-.052-.007-.051-.007-.051-.009-.051-.007-.051-.007-.052-.006-.051-.009-.051-.007-.051-.007-.051-.007-.052-.006-.051-.007-.051-.006-.051-.006-.051-.006-.052-.006-.051-.006-.051-.006-.051-.006-.051,0-.051-.006-.052,0-.051-.006-.051,0-.049,0-.038-.011-.051,0-.051,0-.051,0-.051,0-.051,0-.051,0-.051,0-.051,0-.051,0-.051,0-.051,0-.051,0-.051,0-.051,0-.053,0-.046,0-.052,0H35.8l-.051,0-.051,0-.049,0h-.409l-.049,0H33.975l-.052,0h-.051l-.051,0-.051,0-.051,0-.051,0-.051,0-.051,0-.051,0-.052,0-.051,0-.051,0-.051,0-.051,0-.052,0-.051,0-.051,0-.051,0-.051,0-.051,0-.051.006-.051,0-.051.006-.051,0-.052.006-.051.006-.051.006-.051.007-.051.006-.051.006-.042.016-.051.006-.051.007-.051.009-.051.006-.051.009-.051.009-.052.009L32,27.447l-.052.009-.051.009-.051.01-.051.01-.052.01-.051.01-.051.01-.051.011-.051.011-.051.011-.052.011-.051.011-.051.012-.051.012-.051.012-.052.012-.043.012-.051.014-.051.014-.052.014-.051.015-.051.015-.051.015-.051.015-.051.015-.052.016-.051.016-.051.016-.051.017-.051.017-.052.019-.051.017-.051.019-.051.019-.051.02c-.017.006-.035.012-.051.02l-.052.02-.051.02L30.019,28l-.051.021-.051.021-.051.022-.051.022-.051.024-.051.024-.052.024-.051.026-.052.026-.051.026-.051.026-.051.027-.051.027-.051.027c-.017.01-.033.02-.051.028s-.033.02-.051.03l-.051.03-.051.031-.051.031L29,28.527l-.051.033-.052.033-.051.035-.051.036-.051.036-.051.038-.051.038-.051.04-.051.041c-.037.03-.074.061-.109.09V22.061a5.247,5.247,0,0,1,.109-1.069c.015-.074.031-.148.051-.22s.033-.125.051-.187.032-.109.051-.163.032-.1.051-.147.033-.09.051-.135.033-.083.051-.125.033-.078.051-.116.033-.073.052-.109.032-.069.051-.1.033-.066.052-.1.033-.062.051-.093l.051-.089.051-.085c.016-.027.033-.054.051-.082l.051-.078c.016-.026.033-.051.051-.077s.033-.048.051-.073.033-.047.051-.069l.051-.068c.016-.024.033-.045.051-.067s.033-.042.052-.063.033-.042.051-.062.033-.04.052-.059.033-.038.051-.058l.051-.056c.016-.019.033-.037.051-.054l.051-.053.051-.052.051-.051.051-.051c.016-.016.033-.031.051-.047l.052-.047.051-.046.051-.045c.016-.015.033-.028.051-.043l.051-.042.051-.041.052-.041.051-.038.051-.038.051-.037c.017-.011.035-.025.051-.036s.033-.024.052-.035l.051-.035.051-.033c.016-.011.033-.022.051-.032s.033-.022.051-.032l.051-.031.052-.03c.016-.01.033-.021.051-.03l.051-.027c.017-.01.033-.02.051-.028s.033-.019.052-.026.033-.019.051-.026l.051-.026.051-.026.051-.025.052-.025.051-.024.051-.022.051-.022.051-.021.051-.021.052-.02.051-.02c.017-.006.033-.014.051-.019l.051-.019.052-.019.051-.017.052-.017c.016,0,.033-.011.051-.015l.051-.016L32.262,17l.051-.014.051-.015.051-.012.051-.012.051-.012.051-.011.051-.011.051-.01.051-.01.052-.01.051-.009.051-.009.051-.009.051-.006.051-.007.051-.006.051,0,.051-.006.051,0,.052,0,.051,0,.051,0,.051,0,.051,0h.052l.051,0h7.839V43.1Zm14.564,0h-.009c0,.156-.009.312-.022.465-.012.135-.028.268-.051.4-.017.089-.032.177-.052.263s-.032.141-.051.212-.033.12-.051.181-.033.108-.051.16-.032.1-.051.142-.032.088-.051.131-.032.08-.052.122-.031.077-.051.114-.033.074-.051.106-.033.071-.051.1-.033.064-.052.094-.032.063-.051.092-.032.058-.051.088-.032.056-.051.083-.032.053-.051.08-.032.052-.051.078-.032.048-.051.074-.032.048-.051.074-.032.046-.052.069-.033.045-.051.067-.033.045-.051.066l-.051.064-.052.061a.758.758,0,0,1-.051.059c-.016.02-.032.038-.051.058a.71.71,0,0,1-.051.056.527.527,0,0,1-.052.053c-.017.02-.033.035-.051.053l-.051.051c-.016.017-.033.032-.051.049l-.051.048-.051.048c-.017.016-.033.031-.052.046s-.032.03-.051.046l-.049.043-.051.042-.051.041c-.019.015-.033.027-.053.041s-.033.026-.051.04l-.051.04c-.017.012-.033.025-.051.036s-.033.026-.051.037-.033.024-.053.035-.033.025-.051.036-.033.022-.051.032-.033.024-.051.033-.033.021-.051.03a.384.384,0,0,1-.051.032c-.017.009-.033.021-.051.03l-.041.036a.431.431,0,0,1-.053.027.281.281,0,0,1-.051.027.4.4,0,0,1-.051.027c-.017.009-.033.019-.051.026l-.051.027c-.017.009-.033.019-.051.026s-.033.019-.051.026-.033.017-.051.025l-.053.025-.051.025-.051.022-.051.022-.051.022c-.017.007-.032.015-.051.021l-.051.021a.429.429,0,0,0-.051.02l-.051.019c-.017.006-.033.014-.051.019s-.033.014-.052.019l-.051.017-.051.016-.052.016-.051.015-.052.016-.051.012a.46.46,0,0,1-.051.015l-.051.014-.051.014-.051.012-.052.011-.051.011-.052.01-.051.012a.367.367,0,0,0-.051.01l-.052.007-.051.007-.051.007-.051.007-.051.007-.052,0a.352.352,0,0,0-.051,0l-.051,0c-.016,0-.032,0-.051,0l-.051,0c-.019,0-.032,0-.051,0l-.052,0-.051,0H43V37.638h8.356l.051,0,.051,0,.051,0,.051,0,.051,0,.053,0,.051,0a.336.336,0,0,1,.051,0l.051-.007.051-.006.053-.007.051-.007.051-.009.051-.01a.406.406,0,0,0,.051-.01c.017,0,.032-.007.051-.01l.026-.011.051-.011L52.3,37.5a.5.5,0,0,0,.051-.012c.019,0,.032-.009.051-.014s.032-.01.052-.014a.41.41,0,0,0,.051-.017l.051-.015.051-.017a.41.41,0,0,1,.051-.017l.052-.02.051-.019a.48.48,0,0,1,.051-.021c.017-.009.032-.015.051-.022s.032-.015.051-.022.032-.016.052-.024.033-.016.051-.026a.477.477,0,0,0,.051-.025l.051-.026c.017-.007.033-.019.051-.026a.522.522,0,0,0,.051-.028c.017-.007.033-.02.052-.027s.032-.021.049-.03l.053-.032c.017-.01.033-.024.051-.033s.033-.024.051-.035.033-.025.051-.036.033-.026.051-.04a.43.43,0,0,0,.051-.041c.019-.014.033-.027.051-.042a.616.616,0,0,0,.051-.043l.053-.048c.016-.017.033-.031.051-.048s.033-.035.051-.053l.051-.056a.732.732,0,0,0,.051-.061c.019-.021.036-.041.053-.064l.051-.069.051-.075c.019-.026.033-.054.051-.079s.033-.061.051-.09.033-.066.051-.1a1.165,1.165,0,0,0,.051-.115,1.389,1.389,0,0,0,.051-.136c.02-.057.036-.115.051-.173a2.127,2.127,0,0,0,.051-.265,2.351,2.351,0,0,0,.024-.339,2.2,2.2,0,0,0-.024-.329,1.953,1.953,0,0,0-.051-.256c-.015-.057-.031-.113-.051-.168s-.031-.087-.051-.13a1.135,1.135,0,0,0-.051-.111c-.015-.032-.032-.066-.051-.1s-.032-.057-.051-.085-.032-.052-.051-.077-.033-.049-.051-.073l-.051-.067c-.017-.021-.033-.041-.053-.061a.372.372,0,0,0-.051-.058.68.68,0,0,0-.051-.054c-.017-.017-.032-.033-.051-.051l-.051-.048-.053-.046a.616.616,0,0,0-.051-.043l-.051-.042a.413.413,0,0,0-.051-.037.484.484,0,0,0-.051-.037.344.344,0,0,0-.051-.036c-.017-.011-.032-.024-.051-.035a.558.558,0,0,0-.051-.031c-.017-.009-.033-.022-.053-.031a.471.471,0,0,0-.049-.028c-.019-.01-.033-.02-.052-.028a.328.328,0,0,0-.051-.026.492.492,0,0,0-.051-.026c-.017-.01-.033-.017-.051-.026s-.033-.016-.051-.025-.033-.016-.051-.025l-.052-.022c-.019-.006-.033-.014-.051-.021l-.051-.021-.051-.021-.051-.019c-.019,0-.033-.012-.052-.019l-.051-.017-.051-.016-.051-.017-.051-.015-.052-.015-.051-.015a.379.379,0,0,1-.051-.012l-.052-.012c-.017,0-.033-.007-.051-.011a.243.243,0,0,0-.052-.011.367.367,0,0,0-.051-.01l-.051-.011-.051-.009-.051-.009-.051-.009-.052-.007-.051-.007-.052,0-.051-.006-.051,0-.052,0-.051,0-.047,0V32.4l.047,0,.051-.01.052-.009.051-.01.051-.011.052-.012.051-.01c.02,0,.033-.01.052-.014l.051-.014c.019,0,.032-.01.051-.015l.051-.015.051-.017c.019,0,.032-.011.051-.017a.366.366,0,0,1,.052-.017l.051-.02.052-.02.051-.021.051-.022c.019-.007.032-.015.052-.022s.033-.016.051-.025.033-.016.051-.026l.051-.026.051-.027.052-.028.051-.03.051-.032c.017-.011.032-.022.051-.033l.051-.035c.017-.012.032-.025.052-.037s.033-.026.051-.04l.051-.041.051-.045.051-.046.051-.049.052-.052.049-.056.053-.058.051-.063c.019-.022.033-.046.051-.068a.881.881,0,0,0,.051-.074c.019-.026.033-.053.051-.08s.036-.059.051-.089a1.108,1.108,0,0,0,.051-.1,1.185,1.185,0,0,0,.051-.116c.02-.047.036-.092.053-.139s.036-.119.051-.179a2.243,2.243,0,0,0,.051-.3,2.285,2.285,0,0,0,.014-.245,2.456,2.456,0,0,0-.014-.255,2.061,2.061,0,0,0-.051-.307c-.015-.062-.031-.122-.051-.181s-.032-.093-.053-.139a.955.955,0,0,0-.051-.115,1.066,1.066,0,0,0-.051-.1.878.878,0,0,0-.051-.087c-.017-.027-.032-.053-.051-.079a.689.689,0,0,0-.051-.072c-.017-.022-.032-.045-.051-.066l-.051-.061c-.017-.02-.033-.037-.053-.057s-.032-.035-.049-.053-.033-.033-.052-.049-.033-.032-.051-.047l-.051-.045-.051-.042-.051-.041-.051-.037c-.017-.012-.033-.025-.052-.036l-.051-.033c-.019-.011-.033-.022-.051-.032l-.051-.031-.051-.03c-.019-.009-.033-.019-.052-.027l-.051-.026-.051-.026c-.017-.007-.033-.017-.051-.025l-.051-.024-.052-.021-.051-.022c-.019-.006-.032-.014-.051-.021l-.052-.019-.051-.019c-.017-.006-.033-.012-.052-.017l-.051-.017-.051-.015c-.016-.006-.032-.01-.051-.016l-.051-.015-.051-.012-.052-.014-.051-.012c-.017,0-.033-.007-.052-.011l-.051-.01c-.019,0-.032-.007-.051-.01l-.052-.01-.051-.009-.051-.009-.051-.007-.046,0-.052-.006-.051-.006-.051,0-.051-.006-.051,0-.051,0-.051,0-.051,0h-.021l-.03,0-.051,0-.053,0-.051,0-.051,0-.051,0H43V22.061a5.283,5.283,0,0,1,.109-1.073c.017-.074.032-.148.053-.221s.031-.125.051-.186.032-.11.051-.163.033-.1.051-.148.033-.09.051-.135l.051-.125c.019-.038.033-.078.051-.116s.033-.073.051-.109.033-.068.053-.1.032-.066.051-.1.032-.062.051-.093.032-.059.051-.089.032-.056.051-.084l.051-.082.051-.078c.017-.025.033-.051.051-.075s.033-.049.053-.073.032-.047.051-.071.032-.046.051-.067a.8.8,0,0,1,.051-.067c.017-.021.032-.042.051-.063s.032-.041.051-.061.032-.041.051-.061.032-.038.051-.057l.051-.057.051-.054.051-.053.051-.052c.017-.017.033-.033.053-.051a.482.482,0,0,1,.051-.049l.051-.047.051-.047.051-.045.053-.045.051-.043.049-.042L45,17.939l.051-.04.051-.04c.019-.012.033-.025.051-.037s.035-.026.051-.037l.051-.036c.019-.012.033-.025.051-.036l.052-.035.051-.032.052-.033.051-.032c.019-.01.033-.021.051-.031l.052-.03c.017-.01.033-.021.051-.03s.033-.019.051-.028l.051-.027.051-.027c.017-.009.033-.019.052-.026l.051-.026.051-.026.051-.025.051-.025c.019-.007.032-.016.051-.024s.032-.015.052-.022l.051-.022.051-.021.051-.021.052-.02.051-.02.051-.019.051-.017.052-.019.051-.017.052-.016.051-.016.052-.015L46.833,17l.051-.015.052-.014.051-.014.051-.012.051-.012c.017,0,.032-.007.051-.011l.052-.011.051-.01.051-.01.051-.01.051-.007.051-.009c.017,0,.033-.006.051-.007l.051-.007.053-.006.051-.006.051,0,.051,0,.051,0,.051,0,.053,0,.051,0,.051,0h.1l.051,0h7.828S55.987,43.1,55.987,43.1ZM45.6,33.221v0h3.054a.332.332,0,0,0,.051,0l.051,0a.336.336,0,0,1,.051,0l.051,0a.419.419,0,0,0,.051.007l.051.007.03,0,.021,0,.052.012.051.015c.017.007.033.012.051.019a.44.44,0,0,1,.051.021l.051.022.052.025c.019.007.032.017.051.026l.051.028c.019.01.035.024.051.033s.035.025.051.036.035.026.052.038l.051.046c.017.015.033.031.052.048a.541.541,0,0,1,.051.056c.019.02.035.04.052.061a.237.237,0,0,0,.038.074c.019.026.033.053.051.08s.033.063.051.094.036.079.051.121a1.536,1.536,0,0,1,.051.172,1.446,1.446,0,0,1,.036.324,1.433,1.433,0,0,1-.087.5c-.015.041-.032.079-.051.121s-.032.066-.051.1-.032.054-.051.08l-.051.069a.613.613,0,0,1-.053.062.69.69,0,0,1-.051.056.474.474,0,0,1-.051.048l-.051.045a.594.594,0,0,1-.053.04.408.408,0,0,1-.051.036.291.291,0,0,1-.051.031.188.188,0,0,1-.051.03c-.017.01-.032.019-.051.027s-.032.015-.051.025l-.051.022a.429.429,0,0,1-.051.02c-.017.006-.033.014-.051.019l-.051.015-.052.014-.021,0a.115.115,0,0,0-.03,0l-.051.009-.051.006-.051,0-.051,0c-.019,0-.035,0-.051,0l-.051,0H45.573V33.221Zm-.025-1.565V29.092H48.4l.051,0,.051,0,.051,0,.051,0,.038,0,.012,0a.336.336,0,0,1,.051.011.378.378,0,0,1,.051.012l.052.014c.019,0,.033.011.051.017l.051.019a.481.481,0,0,1,.051.022.321.321,0,0,1,.051.025c.019.007.035.017.052.026l.051.03a.6.6,0,0,1,.051.033c.017.011.035.025.051.037a.42.42,0,0,1,.052.041.6.6,0,0,1,.051.046.654.654,0,0,1,.051.051.726.726,0,0,1,.051.057c.019.022.035.043.051.066s.035.051.051.077.036.061.052.092.033.077.051.118a1.106,1.106,0,0,1,.051.172,1.268,1.268,0,0,1,.031.3,1.514,1.514,0,0,1-.031.3,1.162,1.162,0,0,1-.051.173.973.973,0,0,1-.051.116c-.016.031-.033.062-.052.092s-.032.052-.051.077-.032.045-.051.066a.555.555,0,0,1-.051.057c-.017.017-.032.035-.051.051s-.032.03-.051.046a.583.583,0,0,1-.052.041c-.016.012-.033.026-.051.037s-.033.022-.051.032-.033.021-.051.03-.033.019-.052.026-.032.017-.051.025l-.051.021c-.016.006-.032.014-.051.02l-.051.016-.052.015-.051.012-.051.01-.012,0-.038,0-.051,0-.051,0-.051,0-.051,0h-2.83Z" transform="translate(0 -9.939)"/></g></g><g transform="translate(1147.156 2586.028)"><g transform="translate(0 0)"><path class="a" d="M68.069,9.939H1.8a1.8,1.8,0,0,0-1.8,1.8V53.419a1.8,1.8,0,0,0,1.8,1.8H68.069a1.8,1.8,0,0,0,1.8-1.8V11.738A1.8,1.8,0,0,0,68.069,9.939ZM17.187,30.627l-.208-.471v.026a1.1,1.1,0,0,1-1.1,1.1H12.656a1.1,1.1,0,0,1-1.014-.679l-.33-.8H9.473l-.335.807a1.094,1.094,0,0,1-1.009.675H6.4A1.095,1.095,0,0,1,5.4,29.751l2.84-6.639a1.1,1.1,0,0,1,1.008-.664H11.6a1.1,1.1,0,0,1,1.008.663l.6,1.388v-.954a1.1,1.1,0,0,1,1.1-1.1h2.592a1.1,1.1,0,0,1,1,.637l1.038,2.254.943-2.222a1.094,1.094,0,0,1,1.007-.669H23.52a1.073,1.073,0,0,1,.591.2,1.067,1.067,0,0,1,.591-.2H30a1.057,1.057,0,0,1,.549.169,1.069,1.069,0,0,1,.55-.169h3.649a4.663,4.663,0,0,1,2.47.464c.075.046.13.1.2.153a1.091,1.091,0,0,1,.976-.617h1.619a1.081,1.081,0,0,1,1.064.931,4.364,4.364,0,0,1,2.979-.931h1.535a1.086,1.086,0,0,1,.654.218,1.09,1.09,0,0,1,.656-.218h2.376a1.1,1.1,0,0,1,1.007.664l.583,1.363v-.931a1.1,1.1,0,0,1,1.1-1.1h2.416a1.092,1.092,0,0,1,.938.529l.755,1.251v-.685a1.1,1.1,0,0,1,1.1-1.1H58.8a1.1,1.1,0,0,1,1.1,1.1v6.639a1.1,1.1,0,0,1-1.1,1.1H56.549a1.1,1.1,0,0,1-.941-.529l-.974-1.614v1.048a1.1,1.1,0,0,1-1.1,1.1h-3.23a1.1,1.1,0,0,1-1.012-.674l-.335-.807H47.133l-.324.8a1.091,1.091,0,0,1-1.012.687H43.938a4.607,4.607,0,0,1-2.872-.883,1.081,1.081,0,0,1-1.054.883H38.392a1.083,1.083,0,0,1-.5-.132,1.056,1.056,0,0,1-.492.132H35.8a1.1,1.1,0,0,1-1.1-1.087l-.006-.837,0-.146c0-.089,0-.223,0-.335-.073,0-.171-.009-.308-.009h-.6v1.319a1.1,1.1,0,0,1-1.1,1.1H31.1a1.072,1.072,0,0,1-.55-.169A1.057,1.057,0,0,1,30,31.28H24.7a1.077,1.077,0,0,1-.591-.2,1.083,1.083,0,0,1-.591.2H21.891a1.1,1.1,0,0,1-1.1-1.095v-.027l-.21.47a1.094,1.094,0,0,1-1,.653H18.188A1.1,1.1,0,0,1,17.187,30.627ZM60.975,42.706h-3.09a1.1,1.1,0,0,1-1.008-.667,4.049,4.049,0,0,1-2.385.667H51.4a1.08,1.08,0,0,1-.476-.119,1.075,1.075,0,0,1-.475.119H45.156a1.049,1.049,0,0,1-.485-.124,1.078,1.078,0,0,1-.482.124H42.6a1.1,1.1,0,0,1-1.1-1.1v-.965c0-.094,0-.238,0-.355-.073,0-.176-.01-.322-.01h-.6v1.33a1.1,1.1,0,0,1-1.1,1.1H37.883a1.1,1.1,0,0,1-1.1-1.1V39.922a4.639,4.639,0,0,1-2.411.555h-.882V41.61a1.1,1.1,0,0,1-1.1,1.1H29.312a1.1,1.1,0,0,1-.82-.367l-1.149-1.294-1.211,1.311a1.1,1.1,0,0,1-.8.353H19.042a1.1,1.1,0,0,1-1.1-1.1V34.972a1.1,1.1,0,0,1,1.1-1.1h6.381a1.087,1.087,0,0,1,.815.364l1.153,1.283,1.2-1.3a1.1,1.1,0,0,1,.8-.35h5.069a4.372,4.372,0,0,1,2.448.61,1.084,1.084,0,0,1,.97-.61h3.664a4.94,4.94,0,0,1,2.426.442c.083.048.136.111.213.163a1.083,1.083,0,0,1,.966-.6h5.295a1.087,1.087,0,0,1,.945.572,3.656,3.656,0,0,1,2.088-.572h3.179a1.088,1.088,0,0,1,1.024.732,3.505,3.505,0,0,1,2.279-.732h3.182a1.1,1.1,0,0,1,1.095,1.1v1.413a1.094,1.094,0,0,1-.5.923c.009.01.021.021.032.032a2.919,2.919,0,0,1,.792,2.177C64.561,41.513,63.221,42.708,60.975,42.706Z" transform="translate(0 -9.939)"/></g><g transform="translate(31.099 13.606)"><path class="a" d="M30.395,24.5a1.866,1.866,0,0,0,1.118-1.769,1.553,1.553,0,0,0-.8-1.471,3.742,3.742,0,0,0-1.922-.318H25.14v6.639h1.588V25.164h1.7a1.555,1.555,0,0,1,1.157.283,1.993,1.993,0,0,1,.25,1.293l.007.837h1.6V26.272a1.9,1.9,0,0,0-.263-1.217A1.834,1.834,0,0,0,30.395,24.5Zm-.955-.836a1.479,1.479,0,0,1-.786.136H26.726V22.322h1.955a1.644,1.644,0,0,1,.752.12.607.607,0,0,1,.333.586A.682.682,0,0,1,29.44,23.659Z" transform="translate(-25.14 -20.938)"/></g><g transform="translate(38.398 13.607)"><rect class="a" width="1.619" height="6.639"/></g><g transform="translate(40.788 13.607)"><path class="a" d="M49.357,20.939v4.624l-2.791-4.624H44.15v6.279l-2.687-6.279H39.087l-2.242,5.22h-.711a1.531,1.531,0,0,1-1.106-.343,2.281,2.281,0,0,1-.437-1.557,2.188,2.188,0,0,1,.455-1.5,1.526,1.526,0,0,1,1.222-.393h1.5V20.939H36.237a3.219,3.219,0,0,0-2.41.773,3.541,3.541,0,0,0-.855,2.6,3.339,3.339,0,0,0,.851,2.535,3.341,3.341,0,0,0,2.3.735h1.858l.6-1.481h3.3l.619,1.481h3.23V22.6l3.011,4.983H50.98V20.939H49.357ZM39.146,24.712l1.09-2.646,1.1,2.646Z" transform="translate(-32.972 -20.939)"/></g><g transform="translate(43.504 16.125)"><path class="a" d="M35.752,22.974c-.374,0-.412.038-.458.082a1.611,1.611,0,0,0-.126.72,1.686,1.686,0,0,0,.126.773,1.256,1.256,0,0,0,.312.032l.688-1.607Z" transform="translate(-35.168 -22.974)"/></g><g transform="translate(45.154 25.032)"><path class="a" d="M41.8,31.547V30.174H36.5v6.64H41.8V35.438l-3.716-.009V34.11H41.7V32.754H38.08V31.547Z" transform="translate(-36.502 -30.174)"/></g><g transform="translate(19.042 25.034)"><path class="a" d="M30.816,30.176H25.747l-2.019,2.175-1.955-2.175H15.393v6.639h6.285l2.031-2.2,1.955,2.2h3.084V34.589h1.979c1.387,0,2.762-.381,2.762-2.225S32.076,30.174,30.816,30.176Zm-9.941,5.257h-3.9V34.112h3.482V32.756H16.976V31.549h3.977l1.736,1.933Zm6.292.778L24.73,33.5l2.437-2.618ZM30.8,33.238H28.748V31.547h2.068c.574,0,.97.234.97.815S31.408,33.24,30.8,33.238Z" transform="translate(-15.393 -30.176)"/></g><g transform="translate(37.888 25.032)"><path class="a" d="M35.889,33.728a1.866,1.866,0,0,0,1.127-1.768,1.558,1.558,0,0,0-.814-1.475,3.942,3.942,0,0,0-1.911-.312H30.628v6.639h1.593V34.389h1.695a1.541,1.541,0,0,1,1.164.294c.294.309.256.9.256,1.3v.83h1.592V35.5a1.906,1.906,0,0,0-.263-1.211A1.72,1.72,0,0,0,35.889,33.728Zm-.956-.825a1.524,1.524,0,0,1-.786.137H32.219V31.548h1.955a1.572,1.572,0,0,1,.757.12.633.633,0,0,1,.328.6A.718.718,0,0,1,34.933,32.9Z" transform="translate(-30.628 -30.174)"/></g><g transform="translate(51.216 25.03)"><path class="a" d="M46.7,33.309a2.593,2.593,0,0,0-1.817-.529l-.852-.025a1.839,1.839,0,0,1-.619-.075.557.557,0,0,1-.106-.974,1.079,1.079,0,0,1,.636-.12h2.91V30.173H43.671c-1.665,0-2.269,1.012-2.269,1.977,0,2.1,1.859,2.005,3.341,2.053a.831.831,0,0,1,.565.147.563.563,0,0,1,.193.439.587.587,0,0,1-.186.433.923.923,0,0,1-.647.165H41.591v1.424h3.09c1.6,0,2.494-.667,2.494-2.1A1.848,1.848,0,0,0,46.7,33.309Z" transform="translate(-41.402 -30.173)"/></g><g transform="translate(6.403 13.605)"><path class="a" d="M19.647,20.937l-1.906,4.5-2.077-4.5h-2.59v6.287l-2.7-6.287H8.017L5.176,27.576H6.9L7.515,26.1h3.3l.61,1.481h3.229v-5.2l2.3,5.2h1.4l2.3-5.2.006,5.2h1.627V20.937H19.647ZM8.081,24.712l1.079-2.646,1.085,2.646Z" transform="translate(-5.176 -20.937)"/></g><g transform="translate(24.699 13.605)"><path class="a" d="M25.265,22.32V20.937h-5.3v6.64h5.3V26.2H21.552V24.877h3.626v-1.36H21.552v-1.2Z" transform="translate(-19.966 -20.937)"/></g><g transform="translate(57.698 25.03)"><path class="a" d="M51.939,33.309a2.585,2.585,0,0,0-1.816-.529l-.854-.025a1.852,1.852,0,0,1-.619-.075.558.558,0,0,1-.106-.974,1.088,1.088,0,0,1,.637-.12h2.911V30.173H48.911c-1.663,0-2.269,1.012-2.269,1.977,0,2.1,1.861,2.005,3.344,2.053a.838.838,0,0,1,.565.147.571.571,0,0,1,.192.439.6.6,0,0,1-.184.433.929.929,0,0,1-.648.165H46.834v1.424h3.09c1.6,0,2.491-.667,2.491-2.1A1.839,1.839,0,0,0,51.939,33.309Z" transform="translate(-46.642 -30.173)"/></g></g><g transform="translate(1452.706 2586.028)"><g transform="translate(14.329 28.595)"><path class="a" d="M12.324,33.055c-.39,0-.569.027-.741.038v5.163c0,.732.523.818.987.818,2.051,0,2.724-1.546,2.724-2.963A2.854,2.854,0,0,0,12.324,33.055Z" transform="translate(-11.583 -33.055)"/></g><g transform="translate(51.278 37.547)"><path class="a" d="M41.99,40.291h-.043L41.452,41.8h1.027Zm-.03.024v0h.01l.478,1.463h-.97Z" transform="translate(-41.452 -40.291)"/></g><g transform="translate(50.193 36.858)"><path class="a" d="M44.148,43.316a.318.318,0,0,1-.336-.209c-.069-.155-.13-.346-.192-.527l-.951-2.7c-.015-.041-.031-.088-.048-.129-.009-.016-.019-.016-.035-.016a.133.133,0,0,0-.042.011,2.63,2.63,0,0,1-.47.221,4.259,4.259,0,0,1-.189.642l-.826,2.37a.473.473,0,0,1-.452.336h-.031v.155c.184-.012.371-.021.558-.021.207,0,.418.009.625.021v-.153H41.7c-.168,0-.386-.025-.386-.181a2.137,2.137,0,0,1,.111-.4l.168-.538h1.17l.2.6a1.617,1.617,0,0,1,.1.371c0,.13-.2.152-.32.152h-.056v.155c.262-.012.521-.021.773-.021s.481.009.714.021v-.155Zm.01.131c-.226-.01-.453-.02-.692-.02s-.5.01-.751.02h0V43.34h.035c.119,0,.334-.016.343-.176a1.583,1.583,0,0,0-.1-.379l-.208-.615H41.573l-.169.553a2.1,2.1,0,0,0-.114.409c0,.184.239.2.408.205h.036v.108c-.2-.01-.4-.02-.6-.02-.181,0-.358.01-.536.02v-.108H40.6a.491.491,0,0,0,.469-.353l.829-2.37a4.338,4.338,0,0,0,.191-.645,1.881,1.881,0,0,0,.461-.208.121.121,0,0,1,.028-.007h.01s0,0,.007.007c.015.036.028.084.043.124l.953,2.7c.062.182.122.372.191.529a.354.354,0,0,0,.362.223h.01v.106Z" transform="translate(-40.575 -39.734)"/></g><g transform="translate(12.515 36.99)"><path class="a" d="M11.621,40h.072v-.155c-.244,0-.553.02-.81.02s-.564-.02-.766-.02V40h.073c.187,0,.382.024.382.293v2.705c0,.27-.2.294-.382.294h-.073v.155c.2,0,.506-.02.76-.02s.568.02.816.02v-.155h-.072c-.187,0-.383-.024-.383-.294V40.289C11.238,40.02,11.436,40,11.621,40Zm0,3.32h.049v.11c-.245,0-.543-.022-.794-.022s-.536.021-.736.022v-.11h.049c.184,0,.4-.033.4-.318V40.291c0-.286-.22-.318-.4-.318h-.049v-.11c.2,0,.5.021.742.021s.55-.021.788-.021v.11H11.62c-.186,0-.406.033-.406.318V43C11.214,43.284,11.436,43.316,11.62,43.316Z" transform="translate(-10.117 -39.841)"/></g><g transform="translate(0 0)"><path class="a" d="M68.069,9.939H1.8a1.8,1.8,0,0,0-1.8,1.8V53.419a1.8,1.8,0,0,0,1.8,1.8H68.069a1.8,1.8,0,0,0,1.8-1.8V11.738A1.8,1.8,0,0,0,68.069,9.939ZM52.2,38.121a5.872,5.872,0,0,0,.979-.408.9.9,0,0,1,.209-.1c.056,0,.077.056.077.132v3.465a2.39,2.39,0,0,1,1.413-.683,1.848,1.848,0,0,1,1.765,1.993A2.4,2.4,0,0,1,54.369,45a2.765,2.765,0,0,1-1.317-.335l-.283.22-.2-.1a11.257,11.257,0,0,0,.132-1.691V39.013c0-.616-.143-.637-.5-.741v-.151ZM49.664,44.49a2.121,2.121,0,0,0,1.148-.578V41.359c0-.191-.458-.294-.8-.388V40.8c.851-.057,1.384-.132,1.478-.132.077,0,.077.067.077.171v3.5c0,.171.1.181.265.181.115,0,.256-.01.381-.01v.2A9.421,9.421,0,0,0,50.849,45l-.047-.027v-.769a2.567,2.567,0,0,1-1.68.8,1.024,1.024,0,0,1-1.044-1.129V41.444c0-.25-.036-.485-.568-.533V40.73c.34-.009,1.1-.066,1.225-.066.1,0,.1.066.1.275v2.447C48.838,43.672,48.838,44.49,49.664,44.49ZM32.122,13.565h5.21A11.313,11.313,0,0,1,48.914,24.738c0,6.042-5.526,11.01-11.581,10.98h-5.21a11.1,11.1,0,0,1-11.17-10.98A10.924,10.924,0,0,1,32.122,13.565ZM45.607,38.272V38.12a5.964,5.964,0,0,0,.979-.408.9.9,0,0,1,.209-.1c.059,0,.077.056.077.132V44.3c0,.314.21.314.476.314h.16v.245c-.322,0-.653-.017-1-.017s-.684.009-1.034.017v-.245h.181c.266,0,.456,0,.456-.314V39.014C46.114,38.4,45.972,38.376,45.607,38.272ZM33.738,41.736a1.305,1.305,0,0,1,1.471-1.215,2.5,2.5,0,0,1,1.082.276l.066.967h-.218a.972.972,0,0,0-1.034-.939.668.668,0,0,0-.74.626c0,1.112,2.2.769,2.2,2.259,0,.626-.5,1.291-1.633,1.291a2.518,2.518,0,0,1-1.158-.323l-.1-1.091.171-.048a1.25,1.25,0,0,0,1.2,1.159.67.67,0,0,0,.767-.674C35.806,42.9,33.738,43.262,33.738,41.736Zm-1.623,2.876h.531v.245c-.522-.009-.918-.017-1.327-.017-.39,0-.788.009-1.129.017v-.245h.256c.265,0,.454,0,.454-.314V41.633c0-.3-.349-.351-.492-.428v-.142c.694-.3,1.074-.542,1.159-.542.056,0,.084.03.084.124V41.5h.02c.236-.37.636-.977,1.214-.977a.518.518,0,0,1,.542.5.461.461,0,0,1-.447.485c-.294,0-.294-.228-.626-.228a.8.8,0,0,0-.693.787V44.3C31.66,44.613,31.85,44.613,32.115,44.612ZM27.209,42.79A1.587,1.587,0,0,0,28.6,44.433a1.819,1.819,0,0,0,1.282-.635l.132.131A2.223,2.223,0,0,1,28.263,45a1.908,1.908,0,0,1-1.814-2.07c0-1.859,1.253-2.41,1.917-2.41a1.505,1.505,0,0,1,1.6,1.488,1.16,1.16,0,0,1-.009.173l-.087.056H27.209A2.162,2.162,0,0,0,27.209,42.79Zm-6.778-4.662a.466.466,0,0,1,.465.459.474.474,0,0,1-.465.474.466.466,0,0,1,0-.933Zm-.872,2.938v-.152c.447-.134.977-.314,1.014-.341a.347.347,0,0,1,.172-.047c.047,0,.067.056.067.132V44.3c0,.314.21.314.475.314h.161v.244c-.324,0-.656-.017-1-.017s-.683.009-1.034.017v-.241H19.6c.265,0,.456,0,.456-.314V41.73C20.052,41.31,19.909,41.252,19.559,41.065ZM12.525,44.61c.569-.056.846-.075.872-.72V39.284h0c0-.852-.447-.8-.873-.8v-.249c.371.02.748.02,1.12.02.4,0,.941-.02,1.643-.02,2.458,0,3.8,1.644,3.8,3.323,0,.94-.549,3.3-3.909,3.3-.484,0-.931-.017-1.376-.017-.427,0-.845.009-1.272.017h0V44.61Zm1.59,2.5h-.1c-.188,0-.361.02-.361.273v2.705c0,.254.173.27.361.273h.1v.2h-.024c-.25,0-.559-.022-.816-.022s-.555.022-.76.022h-.021v-.2h.094c.188,0,.359-.02.36-.273V47.382c0-.254-.173-.271-.36-.273h-.094v-.2h.02c.2,0,.513.021.766.021s.567-.021.81-.021h.024v.2Zm4.353,0h-.1c-.214.006-.433.026-.438.635v2.35a3.408,3.408,0,0,0,.03.516l0,.027h-.026l-.214-.009L15.1,47.706v2.071c.006.45.074.578.463.583h.111v.2h-.024c-.224,0-.447-.022-.667-.022s-.469.022-.7.022h-.022v-.2h.1c.34,0,.439-.223.442-.633V47.552a.442.442,0,0,0-.448-.442h-.09v-.2h.024c.2,0,.4.019.593.019.155,0,.3-.019.479-.011l2.269,2.554v-1.9c0-.411-.277-.461-.427-.464h-.136v-.2h.022c.242,0,.481.02.722.02.21,0,.421-.02.636-.02h.022v.2ZM22.2,46.79c-.021.136-.042.278-.057.417s-.01.277-.01.416v.016l-.014.006-.183.068v-.03c-.014-.194-.035-.475-.361-.475h-.825v2.725c0,.39.16.417.406.422h.125v.2h-.022c-.2,0-.565-.021-.842-.021-.308,0-.67.021-.873.021h-.022v-.2h.121c.283-.006.4-.011.4-.411V47.211h-.825c-.381.007-.374.071-.459.453l0,.019h-.2v-.027c.022-.144.048-.288.063-.438a2.852,2.852,0,0,0,.031-.438v-.022h.165l0,.017c.036.129.131.13.263.131h2.689c.145,0,.25,0,.257-.139l0-.025.024,0,.146.022Zm3.1,2.928c-.067.275-.129.547-.176.819l0,.02H25.1c-.33,0-.925-.022-1.389-.022s-1.077.022-1.372.022h-.022v-.2h.1c.188,0,.358-.02.359-.273V47.376c0-.252-.171-.27-.359-.273h-.1v-.2h.022c.315,0,.852.02,1.285.02s.97-.02,1.321-.02h.024v.025c0,.077,0,.167,0,.266,0,.179,0,.374.016.52v.021l-.016,0-.182.047V47.76c-.031-.336-.074-.578-.607-.584h-.7v1.309h.591c.3,0,.351-.157.386-.435l0-.02h.2v.024c-.01.2-.016.4-.016.6s.006.393.016.589v.02l-.02,0-.179.036,0-.026c-.036-.313-.038-.486-.381-.491h-.6v1.181c0,.314.272.312.609.314.621,0,.871-.033,1.027-.616l0-.02.022,0,.166.043Zm-.844-4.862v-.245h.171c.266,0,.454,0,.454-.314V41.841c0-.541-.332-.807-.873-.807a2.56,2.56,0,0,0-1.1.456V44.3c0,.314.21.314.476.314h.171v.244c-.332,0-.664-.017-1.006-.017s-.683.009-1.024.017v-.244h.169c.266,0,.455,0,.455-.314V41.785h0c0-.351-.105-.445-.55-.626v-.181a12.9,12.9,0,0,0,1.253-.455c.027,0,.054.017.054.094v.617a2.788,2.788,0,0,1,1.644-.711c.807,0,1.091.588,1.091,1.327V44.3c0,.314.208.314.474.314h.172v.245c-.333,0-.664-.017-1.006-.017S24.8,44.851,24.456,44.857Zm4.608,5.522v.181h-.022c-.172,0-.338-.021-.507-.021s-.322.02-.5.012a14.71,14.71,0,0,1-1.069-1.665h-.306v1.082c.006.39.162.386.4.391h.116v.2h-.024c-.294,0-.6-.022-.888-.022-.246,0-.489.022-.747.022h-.022v-.2h.114c.188,0,.343-.082.344-.256V47.478c0-.367-.183-.364-.344-.369h-.114v-.2h.022c.167,0,.486.021.8.021s.555-.021.831-.021c.651,0,1.251.183,1.252.931a.988.988,0,0,1-.706.92l.867,1.3a.552.552,0,0,0,.486.3l.019,0Zm3.779-2.641v2.35a3.165,3.165,0,0,0,.031.518l0,.026h-.026l-.213-.009L30.017,47.7v2.071c0,.45.074.576.464.581h.109v.2h-.022c-.225,0-.445-.021-.667-.021s-.469.021-.7.021h-.024v-.2h.1c.34,0,.438-.221.44-.635V47.548a.439.439,0,0,0-.447-.44h-.089v-.2H29.2c.2,0,.4.021.593.021.151,0,.3-.021.474-.014l2.27,2.554v-1.9c0-.411-.277-.461-.427-.464h-.136v-.2H32c.244,0,.481.02.722.02.21,0,.422-.02.635-.02h.022v.2h-.1C33.064,47.112,32.846,47.128,32.843,47.738Zm4.118,2.641v.184l-.025,0c-.231-.011-.465-.021-.711-.021s-.51.01-.773.021h-.024v-.2h.08c.121,0,.3-.028.3-.127a1.6,1.6,0,0,0-.1-.365l-.2-.584H34.37l-.16.522a2.125,2.125,0,0,0-.115.4c0,.126.194.157.366.157h.078v.2h-.024c-.205-.01-.416-.022-.622-.022-.187,0-.372.012-.557.022h-.025v-.2h.053a.443.443,0,0,0,.427-.322l.828-2.37a5.841,5.841,0,0,0,.205-.654,2.588,2.588,0,0,0,.468-.223.139.139,0,0,1,.051-.012.067.067,0,0,1,.056.031c.016.041.03.087.047.13l.953,2.7c.059.181.121.372.188.525a.3.3,0,0,0,.322.193h.053Zm3.185-3.592c-.021.136-.04.278-.056.417s-.009.277-.009.416v.016l-.017.006-.181.068,0-.027c-.015-.193-.033-.475-.36-.475H38.7v2.725c.006.391.162.417.407.422h.121v.2H39.2c-.2,0-.564-.022-.842-.022-.309,0-.669.022-.872.022h-.025v-.2h.121c.286-.006.4-.01.408-.411l0-2.735h-.824c-.382.006-.374.072-.459.452l0,.02h-.2l0-.026c.021-.145.046-.288.061-.438a3,3,0,0,0,.033-.437v-.025h.162l0,.016c.036.13.13.131.261.132h2.692c.141,0,.245,0,.255-.137l0-.026.025,0,.146.022ZM39.2,41.43a3.488,3.488,0,0,1,3.6-3.341,6.854,6.854,0,0,1,2.242.5l.093,1.358H44.9a1.806,1.806,0,0,0-2.032-1.556A2.7,2.7,0,0,0,40.19,41.4,3.093,3.093,0,0,0,43.019,44.7a1.931,1.931,0,0,0,1.908-1.643l.218.057L44.927,44.5a5.311,5.311,0,0,1-2.1.5A3.379,3.379,0,0,1,39.2,41.43Zm2.71,5.5v.178h-.1c-.189,0-.36.021-.362.273v2.705c0,.254.173.272.362.273h.092v.2h-.022c-.249,0-.558-.022-.815-.022s-.557.022-.76.022H40.29v-.2h.1c.187,0,.356-.02.359-.273V47.382c0-.252-.172-.271-.359-.273h-.1v-.2h.022c.2,0,.512.02.764.02s.568-.02.811-.02h.025Zm2.062,3.707a1.854,1.854,0,0,1-1.955-1.878A1.9,1.9,0,0,1,43.95,46.83a1.836,1.836,0,0,1,2,1.8A1.924,1.924,0,0,1,43.976,50.636Zm5.724-2.9v2.35a3.314,3.314,0,0,0,.027.518l0,.025h-.025l-.213-.007L46.872,47.7v2.071c.007.45.077.576.464.581h.111v.2h-.025c-.224,0-.444-.021-.664-.021s-.469.021-.7.021H46.03v-.2h.094c.34,0,.438-.221.443-.632V47.549a.442.442,0,0,0-.449-.44h-.089v-.2h.022c.2,0,.4.02.593.02.155,0,.3-.02.48-.012l2.269,2.553v-1.9c0-.411-.278-.461-.429-.464h-.136v-.2h.025c.244,0,.484.019.721.019.213,0,.424-.019.64-.019h.022v.2h-.1C49.923,47.112,49.7,47.132,49.7,47.738Zm4.121,2.641v.183h-.026c-.23-.011-.463-.021-.71-.021s-.511.01-.773.021h-.024v-.2h.079c.119,0,.3-.028.3-.127a1.638,1.638,0,0,0-.1-.365l-.2-.584H51.226l-.16.522a2.114,2.114,0,0,0-.111.4c0,.127.192.158.362.158H51.4v.2h-.024c-.207-.01-.418-.022-.623-.022-.184,0-.371.012-.558.022h-.024v-.2h.053a.444.444,0,0,0,.429-.322l.828-2.37a6.473,6.473,0,0,0,.2-.653,2.765,2.765,0,0,0,.471-.224.117.117,0,0,1,.048-.01.059.059,0,0,1,.057.028c.015.041.031.087.047.13l.951,2.7c.062.183.122.372.191.526a.3.3,0,0,0,.319.192h.054v.022Zm3.1-.715c-.058.293-.129.584-.192.877l0,.017H56.7c-.455,0-.909-.022-1.362-.022s-.91.022-1.364.022h-.024v-.2h.1c.187,0,.365-.017.366-.324V47.378c0-.251-.177-.27-.366-.272h-.094v-.2h.024c.273,0,.542.019.816.019s.52-.019.783-.019H55.6v.2h-.152c-.2.006-.325,0-.33.257v2.663c0,.192.129.242.289.268.09.006.186.01.286.01a3.25,3.25,0,0,0,.39-.022.714.714,0,0,0,.481-.268,1.1,1.1,0,0,0,.155-.365l.007-.016h.194Zm-.085-1.795a.544.544,0,1,1,.542-.542A.533.533,0,0,1,56.833,47.869Z" transform="translate(0 -9.939)"/></g><g transform="translate(53.46 31.092)"><path class="a" d="M44.118,35.073a1.465,1.465,0,0,0-.9.448v2.306a1.02,1.02,0,0,0,.977.969c1.017,0,1.445-1,1.445-1.843A1.812,1.812,0,0,0,44.118,35.073Z" transform="translate(-43.216 -35.073)"/></g><g transform="translate(56.398 36.945)"><path class="a" d="M46.025,39.805a.442.442,0,0,0,0,.883.442.442,0,0,0,0-.883Zm.275.73h-.105c-.051,0-.094-.109-.2-.251h-.061v.181c0,.035.011.033.079.042v.026h-.263v-.026c.068-.01.08-.007.08-.049v-.4c0-.056-.006-.075-.078-.073v-.026h.28c.1,0,.182.043.182.142a.169.169,0,0,1-.129.165l.089.126a.592.592,0,0,0,.12.129h0v.019Z" transform="translate(-45.591 -39.805)"/></g><g transform="translate(53.975 36.99)"><path class="a" d="M46.4,42.566a1.056,1.056,0,0,1-.161.371.727.727,0,0,1-.492.281,3.539,3.539,0,0,1-.684.01c-.166-.02-.309-.082-.309-.289V40.275c0-.275.155-.28.35-.28h.13v-.155c-.263,0-.522.02-.786.02s-.543-.02-.816-.02V40H43.7c.187,0,.39.024.39.293v2.655c0,.322-.2.348-.39.348h-.072v.155c.458,0,.909-.021,1.366-.021s.909.021,1.363.021c.062-.294.135-.585.191-.88H46.4Zm-.059.857c-.445,0-.9-.02-1.343-.02s-.9.02-1.342.02v-.109H43.7c.187,0,.411-.035.411-.37V40.29c0-.285-.226-.317-.411-.317h-.049v-.11c.266,0,.528.021.8.021s.507-.019.762-.021v.11h-.108c-.194,0-.375.015-.375.3v2.663c0,.221.163.292.332.312.094,0,.189.011.291.011.125,0,.261-.009.4-.021a.765.765,0,0,0,.51-.287,1.124,1.124,0,0,0,.16-.364h.1C46.47,42.869,46.4,43.143,46.341,43.423Z" transform="translate(-43.632 -39.841)"/></g><g transform="translate(22.011 4.54)"><path class="a" d="M27.931,13.609A10.141,10.141,0,1,0,38.068,23.75,10.141,10.141,0,0,0,27.931,13.609Zm-2.3,16.136a6.424,6.424,0,0,1,0-12Zm4.6.006v-12a6.424,6.424,0,0,1,0,12Z" transform="translate(-17.793 -13.609)"/></g><g transform="translate(27.237 30.885)"><path class="a" d="M23.108,34.906c-.578,0-.976.426-1.09,1.11h1.651c.238,0,.265-.122.265-.235A.805.805,0,0,0,23.108,34.906Z" transform="translate(-22.018 -34.906)"/></g><g transform="translate(56.743 37.132)"><path class="a" d="M45.932,39.956H45.87v.257h.067c.071,0,.1-.052.1-.137S45.988,39.956,45.932,39.956Z" transform="translate(-45.87 -39.956)"/></g><g transform="translate(33.333 36.858)"><path class="a" d="M30.521,43.316a.33.33,0,0,1-.344-.209c-.067-.155-.127-.346-.189-.527l-.95-2.7c-.016-.041-.032-.088-.047-.129a.036.036,0,0,0-.037-.016.125.125,0,0,0-.042.011,2.6,2.6,0,0,1-.468.221,4.278,4.278,0,0,1-.193.642l-.826,2.37a.469.469,0,0,1-.449.336h-.03v.155c.187-.012.371-.021.557-.021.208,0,.418.009.626.021v-.153H28.07c-.169,0-.387-.025-.387-.181a2.116,2.116,0,0,1,.115-.4l.165-.538h1.173l.2.6a1.735,1.735,0,0,1,.1.371c0,.13-.2.152-.319.152h-.058v.155c.262-.012.521-.021.774-.021s.48.009.713.021v-.155Zm.007.132c-.226-.009-.45-.021-.69-.021s-.5.012-.751.021v-.108h.032c.118,0,.336-.015.343-.174a1.607,1.607,0,0,0-.1-.38l-.208-.615h-1.2l-.169.553a2.038,2.038,0,0,0-.116.411c.007.182.244.2.411.2h.033v.105c-.2-.009-.4-.021-.6-.021-.181,0-.359.012-.536.021v-.108h.009a.491.491,0,0,0,.47-.353l.825-2.37a4.412,4.412,0,0,0,.193-.645,1.94,1.94,0,0,0,.46-.205.066.066,0,0,1,.03-.007h.009s0,0,.007,0c.014.036.028.084.045.124l.95,2.7c.063.182.124.372.192.529a.356.356,0,0,0,.364.223h.007v.109Z" transform="translate(-26.946 -39.734)"/></g><g transform="translate(40.315 36.99)"><path class="a" d="M34.092,40h.073v-.155c-.242,0-.553.02-.813.02s-.559-.02-.762-.02V40h.074c.188,0,.382.024.382.293v2.705c0,.27-.2.294-.382.294H32.59v.155c.2,0,.506-.02.76-.02s.568.02.815.02v-.155h-.073c-.187,0-.383-.024-.383-.294V40.289C33.708,40.02,33.906,40,34.092,40Zm0,3.318h.048v.109c-.245,0-.543-.021-.793-.021s-.539.019-.736.021v-.109h.049c.183,0,.4-.035.4-.318V40.289c0-.286-.22-.318-.4-.318h-.049v-.11c.2,0,.5.021.741.021s.549-.016.788-.021v.11h-.048c-.187,0-.406.033-.406.318V43C33.687,43.281,33.906,43.313,34.093,43.313Z" transform="translate(-32.59 -39.841)"/></g><g transform="translate(25.518 36.99)"><path class="a" d="M23.653,42.978l-.882-1.321a.972.972,0,0,0,.719-.908c0-.731-.579-.908-1.23-.908-.273,0-.522.02-.831.02s-.636-.02-.8-.02V40h.092c.161,0,.367.014.367.391v2.625c0,.191-.174.28-.367.28h-.092v.156c.257,0,.5-.021.748-.021.294,0,.593.021.888.021v-.156h-.094c-.239,0-.423-.016-.423-.413V41.77h.34a14.724,14.724,0,0,0,1.075,1.675c.16,0,.327-.021.486-.021s.335.021.5.021v-.153A.572.572,0,0,1,23.653,42.978Zm.476.333v.113c-.161,0-.319-.021-.485-.021s-.327.022-.484.022A16.117,16.117,0,0,1,22.1,41.762l0-.012h-.376v1.128c0,.407.212.438.447.438h.071v.106c-.285,0-.576-.021-.866-.021-.241,0-.477.021-.725.021v-.108h.071c.2,0,.39-.1.39-.3V40.387c0-.387-.229-.414-.39-.414h-.071v-.11c.168,0,.475.021.778.021s.559-.021.831-.021c.649,0,1.207.169,1.207.886a.952.952,0,0,1-.7.889l-.026.011.9,1.343a.591.591,0,0,0,.5.319h0Z" transform="translate(-20.628 -39.841)"/></g><g transform="translate(26.614 37.155)"><path class="a" d="M21.831,39.974a2.355,2.355,0,0,0-.3.02h-.021v1.581h.276c.52,0,.816-.21.818-.826A.727.727,0,0,0,21.831,39.974Zm-.041,1.581h-.252V40.016A2.535,2.535,0,0,1,21.831,40a.7.7,0,0,1,.753.755C22.584,41.358,22.307,41.552,21.79,41.555Z" transform="translate(-21.514 -39.974)"/></g><g transform="translate(29.199 36.99)"><path class="a" d="M27.759,39.841c-.213,0-.424.02-.636.02-.242,0-.48-.02-.722-.02V40h.113a.427.427,0,0,1,.449.487v1.936l0,0,0,.007-2.3-2.588c-.153,0-.306.02-.459.02-.194,0-.4-.02-.593-.02V40h.066a.462.462,0,0,1,.47.464v2.175c0,.413-.106.654-.464.654H23.6v.155c.231,0,.469-.02.7-.02s.443.02.664.02v-.155h-.087c-.4,0-.486-.152-.486-.6V40.558l2.658,2.964h.2a3.345,3.345,0,0,1-.03-.521v-2.35c0-.615.242-.656.459-.656h.078Zm-.075.135c-.223,0-.482.059-.482.679v2.35a3.409,3.409,0,0,0,.027.5h-.171l-2.682-3v2.186c0,.449.1.628.51.63h.064v.108c-.213,0-.427-.02-.644-.02s-.458.02-.68.02v-.109h.051c.37,0,.486-.267.486-.68V40.463a.485.485,0,0,0-.491-.489h-.046v-.11c.188,0,.381.021.573.021.156,0,.306-.021.459-.021l2.3,2.6.016-.017.01-.01.006-1.953a.453.453,0,0,0-.473-.51h-.09v-.11c.234,0,.464.021.7.021.205,0,.408-.019.612-.021v.113h-.054Z" transform="translate(-23.604 -39.841)"/></g><g transform="translate(42.788 37.164)"><path class="a" d="M35.739,39.982c-.887,0-1.148.784-1.15,1.475,0,.919.421,1.784,1.237,1.785.983,0,1.154-.863,1.157-1.617S36.579,39.981,35.739,39.982Z" transform="translate(-34.589 -39.982)"/></g><g transform="translate(36.527 36.829)"><path class="a" d="M33,39.711c-.012.155-.14.161-.282.161H30.054c-.136,0-.267,0-.308-.152H29.62a3.01,3.01,0,0,1-.03.439c-.015.151-.042.294-.062.439h.155c.078-.377.093-.471.48-.471h.85v2.759c0,.409-.146.435-.43.435h-.1v.156c.2,0,.563-.021.872-.021.28,0,.642.021.841.021v-.155h-.1c-.249,0-.429-.046-.429-.444V40.13h.85c.345,0,.37.3.381.495l.155-.058c0-.139,0-.278.012-.418s.036-.278.056-.418Zm.045.437c-.011.135-.011.271-.011.4l-.113.043c-.011-.192-.057-.487-.4-.489h-.871v2.771c0,.406.2.466.45.468h.077v.11c-.205,0-.548-.022-.819-.022-.3,0-.647.021-.851.022v-.11h.08c.282,0,.449-.042.449-.456V40.106h-.87c-.385,0-.43.111-.5.47h-.111c.019-.134.043-.271.058-.413a3.329,3.329,0,0,0,.031-.419h.084c.046.145.178.152.3.15h2.692c.129,0,.272,0,.3-.156l.077.012C33.08,39.882,33.06,40.014,33.046,40.148Z" transform="translate(-29.528 -39.711)"/></g><g transform="translate(34.417 37.547)"><path class="a" d="M28.36,40.291h-.043L27.822,41.8h1.029Zm-.026.024v0h.011l.475,1.463h-.965Z" transform="translate(-27.822 -40.291)"/></g><g transform="translate(34.48 37.623)"><path class="a" d="M28.327,40.353l-.454,1.383h.9Z" transform="translate(-27.873 -40.353)"/></g><g transform="translate(22.341 36.989)"><path class="a" d="M20.854,42.589c-.156.589-.429.631-1.048.628-.332,0-.63,0-.63-.336v-1.2H19.8c.356,0,.372.2.4.512l.155-.032c-.011-.2-.016-.392-.016-.589s.006-.4.016-.6H20.2c-.03.28-.1.455-.406.455h-.615V40.068h.716c.543,0,.6.268.63.6l.157-.041c-.016-.228-.021-.568-.012-.79-.35,0-.886.02-1.32.02s-.972-.02-1.287-.02V40h.073c.187,0,.382.024.382.293V43c0,.27-.2.294-.382.294H18.06v.155c.294,0,.909-.02,1.374-.02s1.056.02,1.389.02c.047-.276.108-.547.176-.821Zm-.049.831c-.333,0-.915-.021-1.372-.021s-1.049.021-1.351.021v-.108h.051c.183,0,.4-.036.4-.319V40.285c0-.286-.22-.318-.4-.318h-.051v-.11c.317,0,.839.021,1.264.021s.948-.019,1.3-.021c0,.073,0,.158,0,.246,0,.171.006.36.016.5l-.111.028c-.022-.323-.113-.6-.649-.6h-.74v1.4h.636c.315,0,.4-.184.428-.454h.111c-.011.2-.016.39-.016.584s.006.381.016.57l-.111.026c-.026-.294-.063-.512-.423-.51h-.642v1.225c0,.36.325.36.651.36.61,0,.91-.046,1.065-.625l.1.024C20.908,42.9,20.85,43.161,20.8,43.42Z" transform="translate(-18.06 -39.84)"/></g><g transform="translate(46.055 36.99)"><path class="a" d="M40.752,39.861c-.24,0-.479-.02-.721-.02V40h.111a.427.427,0,0,1,.45.487v1.936l0,0-.007.007-2.3-2.588c-.155,0-.3.02-.46.02-.2,0-.4-.02-.593-.02V40H37.3a.461.461,0,0,1,.469.464v2.175c0,.413-.108.654-.464.654h-.073v.155c.231,0,.47-.02.7-.02s.442.02.664.02v-.155h-.089c-.4,0-.485-.152-.485-.6V40.558l2.66,2.964h.194a3.5,3.5,0,0,1-.03-.521v-2.35c0-.615.242-.656.46-.656h.077v-.155C41.176,39.841,40.963,39.861,40.752,39.861Zm.612.115h-.056c-.22,0-.481.057-.481.679v2.35a3.412,3.412,0,0,0,.026.5h-.168L38,40.5v2.187c0,.449.1.628.507.63h.067v.108c-.214,0-.429-.02-.645-.02s-.456.02-.682.02v-.109H37.3c.372,0,.489-.267.489-.68V40.463a.487.487,0,0,0-.492-.489h-.046v-.11c.188,0,.382.021.57.021.157,0,.308-.021.46-.021l2.3,2.6.017-.017.012-.01,0-1.953a.456.456,0,0,0-.474-.51H40.05v-.11c.235,0,.466.021.7.021.2,0,.409-.019.614-.021Z" transform="translate(-37.23 -39.841)"/></g><g transform="translate(17.624 39.564)"><path class="a" d="M14.247,41.922h0Z" transform="translate(-14.247 -41.922)"/></g><g transform="translate(14.284 36.99)"><path class="a" d="M15.071,39.861c-.244,0-.48-.02-.726-.02V40h.114a.427.427,0,0,1,.449.487v1.936l-.009.01-.011-.012v0l0-.006L12.6,39.841c-.156,0-.306.02-.46.02-.2,0-.4-.02-.594-.02V40h.067a.465.465,0,0,1,.471.464v2.177c0,.411-.109.654-.465.654h-.072v.153c.233,0,.471-.021.7-.021s.444.021.666.021V43.29H12.83c-.4,0-.486-.155-.486-.6V40.557L15,43.521h.2A3.345,3.345,0,0,1,15.17,43V40.65c0-.615.242-.654.46-.654h.077v-.155C15.494,39.841,15.283,39.861,15.071,39.861Zm.56.113c-.224,0-.482.059-.482.679V43a3.634,3.634,0,0,0,.026.5H15l-2.681-3v2.188c0,.449.1.626.508.628H12.9v.11c-.214,0-.428-.022-.643-.022s-.458.021-.68.022v-.111l.049,0c.372,0,.486-.268.486-.679V40.461a.485.485,0,0,0-.491-.487h-.046v-.11c.187,0,.381.021.569.021.157,0,.307-.021.46-.021l2.3,2.6.017-.016.01-.01.009-1.953a.453.453,0,0,0-.473-.508h-.092v-.11c.234,0,.464.021.7.021.2,0,.408-.019.612-.021v.11Z" transform="translate(-11.547 -39.841)"/></g><g transform="translate(26.659 37.197)"><path class="a" d="M21.822,40.008a1.843,1.843,0,0,0-.271.02v1.5h.23c.511,0,.769-.181.773-.783A.685.685,0,0,0,21.822,40.008Z" transform="translate(-21.551 -40.008)"/></g><g transform="translate(18.582 36.829)"><path class="a" d="M18.492,39.711c-.01.155-.14.161-.281.161H15.547c-.139,0-.267,0-.309-.152h-.125a3.193,3.193,0,0,1-.03.439c-.015.151-.041.294-.062.439h.155c.078-.377.093-.471.48-.471H16.5v2.759c0,.409-.145.435-.429.435h-.1v.156c.2,0,.563-.021.873-.021.277,0,.64.021.841.021v-.155h-.1c-.246,0-.427-.046-.427-.444V40.13h.847c.346,0,.371.3.382.495l.156-.058c0-.139,0-.278.009-.418s.036-.278.057-.418Zm.045.438c-.01.135-.011.271-.011.4l-.11.043c-.012-.192-.056-.487-.4-.489h-.871v2.771c0,.406.2.468.452.469h.075v.108c-.205,0-.549-.021-.819-.021-.3,0-.647.021-.851.021v-.108h.078c.283,0,.45-.043.45-.458V40.107h-.87c-.385,0-.429.111-.5.47h-.111c.021-.134.045-.272.058-.413a3.112,3.112,0,0,0,.031-.419h.084c.047.145.181.15.3.15h2.689c.131,0,.275,0,.3-.156l.079.014C18.571,39.882,18.552,40.014,18.537,40.149Z" transform="translate(-15.021 -39.711)"/></g><g transform="translate(51.337 37.623)"><path class="a" d="M41.954,40.353,41.5,41.736h.9Z" transform="translate(-41.5 -40.353)"/></g><g transform="translate(42.743 37.116)"><path class="a" d="M35.747,39.943c-.919,0-1.191.825-1.194,1.52,0,.928.428,1.828,1.283,1.83,1.022,0,1.2-.907,1.2-1.66S36.626,39.945,35.747,39.943Zm.093,3.328c-.837,0-1.262-.884-1.262-1.807,0-.693.268-1.5,1.171-1.5.857,0,1.264.914,1.264,1.668S36.839,43.271,35.84,43.271Z" transform="translate(-34.553 -39.943)"/></g><g transform="translate(17.622 39.561)"><path class="a" d="M14.245,41.919h0l0,0Z" transform="translate(-14.245 -41.919)"/></g><g transform="translate(42.043 36.912)"><path class="a" d="M35.892,39.778a1.879,1.879,0,0,0-1.905,1.906,1.826,1.826,0,0,0,1.932,1.856,1.9,1.9,0,0,0,1.952-1.981A1.813,1.813,0,0,0,35.892,39.778Zm.027,3.737a1.8,1.8,0,0,1-1.911-1.831A1.861,1.861,0,0,1,35.893,39.8a1.792,1.792,0,0,1,1.957,1.759A1.877,1.877,0,0,1,35.919,43.515Z" transform="translate(-33.987 -39.778)"/></g></g><g transform="translate(1300.549 2586.028)"><g transform="translate(60.036 16.585)"><path class="a" d="M49.031,23.346a.517.517,0,1,0,.5.517A.508.508,0,0,0,49.031,23.346Zm.114.88-.2-.281v.28H48.77V23.5H49c.176,0,.275.079.275.224a.2.2,0,0,1-.157.2l.235.3Z" transform="translate(-48.532 -23.346)"/></g><g transform="translate(60.447 16.876)"><path class="a" d="M48.895,23.581h-.031v.188h.028c.085,0,.131-.031.131-.1S48.98,23.581,48.895,23.581Z" transform="translate(-48.864 -23.581)"/></g><g transform="translate(0 0)"><path class="a" d="M68.069,9.939H1.8a1.8,1.8,0,0,0-1.8,1.8V53.419a1.8,1.8,0,0,0,1.8,1.8H68.069a1.8,1.8,0,0,0,1.8-1.8V11.738A1.8,1.8,0,0,0,68.069,9.939ZM60.542,26.411a.63.63,0,1,1-.632.63A.63.63,0,0,1,60.542,26.411Zm-6,.163h2.378c1.852,0,2.911.888,2.911,2.427a2.187,2.187,0,0,1-1.874,2.331l2.589,3.462H58.569l-2.218-3.3h-.208v3.3h-1.6Zm-5.608,0h4.545v1.393H50.533v1.825H53.37v1.392H50.533V33.4h2.943v1.392H48.931Zm-6.873,0,2.191,5.521,2.22-5.521h1.736L44.653,35h-.859l-3.488-8.429h1.752Zm-9.653,2.439a4.373,4.373,0,0,1,8.4,1.7,4.321,4.321,0,0,1-.089.883c-.012.063-.032.126-.047.191s-.036.152-.062.228a4.372,4.372,0,1,1-8.2-3Zm-2.838-2.62a4.085,4.085,0,0,1,1.972.5v1.885a2.682,2.682,0,0,0-2.01-.925,2.732,2.732,0,0,0-2.684,2.823A2.685,2.685,0,0,0,29.6,33.515a2.563,2.563,0,0,0,1.935-.9V34.5a4.387,4.387,0,0,1-2.01.48,4.255,4.255,0,0,1-4.337-4.288A4.319,4.319,0,0,1,29.568,26.392Zm-15,7.454a4.278,4.278,0,0,1-2.931.95H9.3v-8.22h2.35a4.084,4.084,0,0,1,4.411,4.116A4.131,4.131,0,0,1,14.571,33.846Zm3.831.948H16.8v-8.22h1.6Zm3.449.2a3.194,3.194,0,0,1-2.844-1.566l1.037-1a1.9,1.9,0,0,0,1.749,1.1,1.172,1.172,0,0,0,1.244-1.16.983.983,0,0,0-.481-.851,6.392,6.392,0,0,0-1.108-.468c-1.505-.542-2.02-1.122-2.02-2.254a2.411,2.411,0,0,1,2.561-2.354,3.605,3.605,0,0,1,2.416.91l-.839,1.1a1.66,1.66,0,0,0-1.293-.667c-.692,0-1.2.393-1.2.912,0,.442.283.679,1.247,1.034,1.821.666,2.363,1.257,2.363,2.562A2.654,2.654,0,0,1,21.851,34.994ZM68.613,53.97H24.983C53.205,49.1,68.613,38.231,68.613,38.231Z" transform="translate(0 -9.939)"/></g><g transform="translate(10.9 18.029)"><path class="a" d="M11.432,25.179a2.967,2.967,0,0,0-2.191-.666h-.43v5.436h.43a3.037,3.037,0,0,0,2.191-.653,2.817,2.817,0,0,0,.889-2.071A2.764,2.764,0,0,0,11.432,25.179Z" transform="translate(-8.811 -24.513)"/></g><g transform="translate(56.143 17.928)"><path class="a" d="M45.876,24.432h-.491v2.489h.466c1.024,0,1.566-.444,1.566-1.272C47.417,24.851,46.876,24.432,45.876,24.432Z" transform="translate(-45.385 -24.432)"/></g></g><path class="a" d="M1.8,45.279A1.8,1.8,0,0,1,0,43.48V1.8A1.8,1.8,0,0,1,1.8,0h66.27a1.8,1.8,0,0,1,1.8,1.8V43.48a1.8,1.8,0,0,1-1.8,1.8Zm44.4-5.845A16.787,16.787,0,0,0,62.985,22.641a.025.025,0,0,1,0-.01A16.788,16.788,0,0,0,34.932,10.188,16.734,16.734,0,0,0,23.674,5.852h-.107A16.789,16.789,0,1,0,34.93,35.091,16.73,16.73,0,0,0,46.2,39.434Zm-12.99-6.179h3.467a16.8,16.8,0,0,1-1.7,1.8h0a.331.331,0,0,1-.043.037A16.734,16.734,0,0,1,33.211,33.255Zm-1.248-1.731a16.453,16.453,0,0,1-.992-1.8H38.9a16.768,16.768,0,0,1-.978,1.8ZM45.6,26.207a1.479,1.479,0,0,1-.322-1.227,2.273,2.273,0,0,1,1.313-1.752A4.254,4.254,0,0,1,48.4,22.9c.122,0,.234,0,.334.006l.058,0,.184,0a.8.8,0,0,0,.08,0,.749.749,0,0,0-.063-.625c-.151-.189-.452-.195-.77-.2-.053,0-.109,0-.163,0l-.1,0a13.635,13.635,0,0,0-1.52.141c-.158.02-.294.037-.391.047l.249-1.286a10.051,10.051,0,0,1,1.857-.2l.258-.008a2.465,2.465,0,0,1,2,.707,2.532,2.532,0,0,1,.282,2.052l-.644,3.235H48.538l-.208-.332a2.1,2.1,0,0,1-1.349.353l-.078,0A1.75,1.75,0,0,1,45.6,26.207ZM47.4,24.254a.913.913,0,0,0-.463.786.479.479,0,0,0,.338.4.913.913,0,0,0,.326.057,1.076,1.076,0,0,0,1.063-.743l.125-.642-.1-.018a2.843,2.843,0,0,0-.519-.058A1.318,1.318,0,0,0,47.4,24.254ZM18.222,26.207A1.483,1.483,0,0,1,17.9,24.98a2.271,2.271,0,0,1,1.312-1.752A4.254,4.254,0,0,1,21.02,22.9c.124,0,.234,0,.334.006l.059,0,.183,0a.789.789,0,0,0,.08,0,.745.745,0,0,0-.063-.625c-.151-.189-.452-.195-.77-.2-.053,0-.108,0-.161,0l-.1,0a13.659,13.659,0,0,0-1.52.141c-.158.02-.294.037-.39.047l.248-1.286a10.07,10.07,0,0,1,1.858-.2l.258-.008a2.464,2.464,0,0,1,2,.707,2.532,2.532,0,0,1,.282,2.052l-.644,3.235H21.158l-.208-.332a2.1,2.1,0,0,1-1.348.353l-.078,0A1.755,1.755,0,0,1,18.222,26.207Zm1.795-1.953a.91.91,0,0,0-.462.786.481.481,0,0,0,.337.4.913.913,0,0,0,.326.057,1.078,1.078,0,0,0,1.064-.743l.124-.642-.1-.018a2.831,2.831,0,0,0-.519-.058A1.318,1.318,0,0,0,20.017,24.254Zm8.26,2.061a1.606,1.606,0,0,1-.233-1.376l1.12-5.642h1.618l-.332,1.576h.871l-.289,1.286H30.2l-.458,2.406a.74.74,0,0,0,.068.591.6.6,0,0,0,.487.165,2.182,2.182,0,0,0,.338-.03l-.1,1.2a2.341,2.341,0,0,1-1.2.291A1.446,1.446,0,0,1,28.277,26.315Zm5.367.449a2.589,2.589,0,0,1-2.083-.834,3.054,3.054,0,0,1-.612-2.174c0-.011,0-.024.006-.039a4.411,4.411,0,0,1,.58-1.647,2.686,2.686,0,0,1,2.422-1.279,2.377,2.377,0,0,1,1.929.7,3.243,3.243,0,0,1,.289,2.613H32.649a1.192,1.192,0,0,0,.188.972,1.525,1.525,0,0,0,1.189.335h.116a11.707,11.707,0,0,0,1.827-.145l-.249,1.222a5.055,5.055,0,0,1-1.86.274C33.785,26.767,33.713,26.766,33.644,26.764Zm-.892-3.733h2.012a1.025,1.025,0,0,0-.145-.846.716.716,0,0,0-.581-.233A1.246,1.246,0,0,0,32.752,23.03ZM25.2,26.765h-.061a6.571,6.571,0,0,1-1.909-.207l.228-1.225a4.273,4.273,0,0,0,1.327.175c.243,0,.456-.012.612-.02.087-.006.155-.009.2-.009a.443.443,0,0,0,.456-.343.486.486,0,0,0-.249-.549c-.114-.057-.228-.122-.361-.2A8.9,8.9,0,0,0,24.5,23.9c-.314-.136-.8-.541-.56-1.721a1.639,1.639,0,0,1,1.207-1.226,3.956,3.956,0,0,1,1.235-.185h.027l.1,0c.055,0,.122,0,.2,0A3.6,3.6,0,0,1,28,21l-.373,1.2a4.369,4.369,0,0,0-1.062-.108,5.245,5.245,0,0,0-.536.024c-.286.079-.356.237-.364.355a.576.576,0,0,0,.344.515,9.4,9.4,0,0,1,1.161.644,1.322,1.322,0,0,1,.56,1.452,1.763,1.763,0,0,1-1.074,1.44,3.3,3.3,0,0,1-1.348.242Zm32.71,0-.208-.477a2.839,2.839,0,0,1-1.411.477,1.66,1.66,0,0,1-1.285-.736,2.828,2.828,0,0,1-.505-1.2,3.349,3.349,0,0,1,.09-1.506,3.769,3.769,0,0,1,1.314-2.168,2.45,2.45,0,0,1,1.446-.365h.31a1.27,1.27,0,0,1,1.037.49,1.784,1.784,0,0,0,.229.215l.435-2.281h1.7l-1.411,7.55Zm-1.055-4.2a2.3,2.3,0,0,0-.6,1.069,1.314,1.314,0,0,0,.177,1.149.829.829,0,0,0,.652.345c.542,0,.933-.372,1.265-1.2a1.95,1.95,0,0,0-.1-1.452.69.69,0,0,0-.57-.287A1.218,1.218,0,0,0,56.857,22.563Zm-16.122,3.1a3.748,3.748,0,0,1-.412-3.418,3.912,3.912,0,0,1,3.569-3.008h.081a2.679,2.679,0,0,1,2.22.954l-1.058,1.058a2.067,2.067,0,0,0-1.245-.289,2.224,2.224,0,0,0-1.971,1.969,2.012,2.012,0,0,0,.348,1.66,1.6,1.6,0,0,0,1.265.523,3.013,3.013,0,0,0,.959-.17l.478,1.452A4.348,4.348,0,0,1,43,26.764,2.859,2.859,0,0,1,40.735,25.659Zm-4.513,1.1,1.1-5.891h1.389l.145.581a1.937,1.937,0,0,1,1.535-.581l-.415,1.555c-.393,0-1.162-.124-1.639,1.639l-.5,2.7Zm-20.768,0,.954-5.061-2.261,5.061H12.612l-.436-5.185-1,5.185H9.562l1.391-7.177h2.592l.312,4.356,1.971-4.356h2.654l-1.347,7.177Zm36.86,0H50.68l1.11-5.951h1.4l.146.587a1.943,1.943,0,0,1,1.551-.587l-.44,1.55h-.136c-.338,0-1.044,0-1.5,1.678l-.5,2.723h0ZM30.307,17.282c.09-.175.416-.875.9-1.8h7.654a16.932,16.932,0,0,1,.725,1.8Zm1.9-3.562c.364-.6.767-1.22,1.2-1.8h3.191a16.657,16.657,0,0,1,1.3,1.8Z" transform="translate(1223.853 2586.028)"/></g></svg>