<svg xmlns="http://www.w3.org/2000/svg" xmlns:xlink="http://www.w3.org/1999/xlink" width="207.789" height="39.541" viewBox="0 0 207.789 39.541"><defs><style>.a{fill:#23253b;stroke:#1e1c2c;stroke-width:3px;}.a,.e{stroke-linecap:round;stroke-linejoin:round;}.b{fill:url(#a);}.c{fill:#fff;}.d{fill:url(#e);}.e{fill:none;stroke:#ffff8a;}.f{filter:url(#f);}.g{filter:url(#b);}</style><linearGradient id="a" x1="0.5" x2="0.5" y2="1" gradientUnits="objectBoundingBox"><stop offset="0" stop-color="#fff01c"/><stop offset="1" stop-color="#ffb300"/></linearGradient><filter id="b"><feOffset dy="3" input="SourceAlpha"/><feGaussianBlur stdDeviation="3" result="c"/><feFlood flood-color="#fff" flood-opacity="0.71" result="d"/><feComposite operator="out" in="SourceGraphic" in2="c"/><feComposite operator="in" in="d"/><feComposite operator="in" in2="SourceGraphic"/></filter><linearGradient id="e" x1="0.523" x2="0.589" y2="1.207" gradientUnits="objectBoundingBox"><stop offset="0" stop-color="#ffe600"/><stop offset="0.264" stop-color="#ffd447"/><stop offset="0.423" stop-color="#ffef0f"/><stop offset="1" stop-color="#f60"/></linearGradient><filter id="f"><feOffset dy="3" input="SourceAlpha"/><feGaussianBlur stdDeviation="3" result="g"/><feFlood flood-color="#fff" flood-opacity="0.71" result="h"/><feComposite operator="out" in="SourceGraphic" in2="g"/><feComposite operator="in" in="h"/><feComposite operator="in" in2="SourceGraphic"/></filter></defs><g transform="translate(-959.885 -537.606)"><path class="a" d="M32.666-.364,32.2-.346c-.137.008-.285.014-.445.021s-.314.006-.463,0q.088-.458.193-.887t.205-.888a5.317,5.317,0,0,0,.752-.12,3.453,3.453,0,0,0,.639-.211,1.566,1.566,0,0,0,.443-.283.466.466,0,0,0,.164-.334.648.648,0,0,0-.044-.226.9.9,0,0,0-.179-.273,2.881,2.881,0,0,0-.383-.348,7.247,7.247,0,0,0-.665-.454,2.144,2.144,0,0,1-.738-.685,1.538,1.538,0,0,1-.223-.809,1.278,1.278,0,0,1,.158-.595,2.363,2.363,0,0,1,.408-.556,2.567,2.567,0,0,1,.563-.437,1.948,1.948,0,0,1,.63-.24l.181-1.12c.008-.05.013-.094.015-.129A.771.771,0,0,1,33.422-9a.1.1,0,0,1,.023-.05.116.116,0,0,1,.065-.023q.41-.028.852-.068t.865-.1c.023,0,.038,0,.043.012a.042.042,0,0,1,.009.029c0,.008-.007.052-.023.132s-.036.178-.061.3-.052.245-.079.382-.053.266-.076.386q.423.03.735.058c.21.02.371.038.483.053l.158,1.723c-.007,0-.048,0-.12-.014s-.158-.02-.255-.03l-.3-.029c-.1-.01-.186-.015-.252-.015-.083,0-.189.007-.319.021a1.912,1.912,0,0,0-.387.082.948.948,0,0,0-.325.176.374.374,0,0,0-.135.3.654.654,0,0,0,.144.413,2.316,2.316,0,0,0,.36.364c.145.119.3.242.469.369a3.6,3.6,0,0,1,.469.425,2.168,2.168,0,0,1,.36.53,1.549,1.549,0,0,1,.143.682,1.412,1.412,0,0,1-.134.613,2.02,2.02,0,0,1-.369.527,2.96,2.96,0,0,1-.543.439,4.572,4.572,0,0,1-.647.343c0,.067-.011.164-.021.293s-.021.273-.032.431-.023.321-.035.489-.022.325-.029.469L34,.691c-.05,0-.131,0-.243.009s-.234.013-.369.023-.272.018-.41.023-.263.009-.372.009Z" transform="translate(960 571.23)"/><g data-type="innerShadowGroup"><path class="b" d="M32.666-.364,32.2-.346c-.137.008-.285.014-.445.021s-.314.006-.463,0q.088-.458.193-.887t.205-.888a5.317,5.317,0,0,0,.752-.12,3.453,3.453,0,0,0,.639-.211,1.566,1.566,0,0,0,.443-.283.466.466,0,0,0,.164-.334.648.648,0,0,0-.044-.226.9.9,0,0,0-.179-.273,2.881,2.881,0,0,0-.383-.348,7.247,7.247,0,0,0-.665-.454,2.144,2.144,0,0,1-.738-.685,1.538,1.538,0,0,1-.223-.809,1.278,1.278,0,0,1,.158-.595,2.363,2.363,0,0,1,.408-.556,2.567,2.567,0,0,1,.563-.437,1.948,1.948,0,0,1,.63-.24l.181-1.12c.008-.05.013-.094.015-.129A.771.771,0,0,1,33.422-9a.1.1,0,0,1,.023-.05.116.116,0,0,1,.065-.023q.41-.028.852-.068t.865-.1c.023,0,.038,0,.043.012a.042.042,0,0,1,.009.029c0,.008-.007.052-.023.132s-.036.178-.061.3-.052.245-.079.382-.053.266-.076.386q.423.03.735.058c.21.02.371.038.483.053l.158,1.723c-.007,0-.048,0-.12-.014s-.158-.02-.255-.03l-.3-.029c-.1-.01-.186-.015-.252-.015-.083,0-.189.007-.319.021a1.912,1.912,0,0,0-.387.082.948.948,0,0,0-.325.176.374.374,0,0,0-.135.3.654.654,0,0,0,.144.413,2.316,2.316,0,0,0,.36.364c.145.119.3.242.469.369a3.6,3.6,0,0,1,.469.425,2.168,2.168,0,0,1,.36.53,1.549,1.549,0,0,1,.143.682,1.412,1.412,0,0,1-.134.613,2.02,2.02,0,0,1-.369.527,2.96,2.96,0,0,1-.543.439,4.572,4.572,0,0,1-.647.343c0,.067-.011.164-.021.293s-.021.273-.032.431-.023.321-.035.489-.022.325-.029.469L34,.691c-.05,0-.131,0-.243.009s-.234.013-.369.023-.272.018-.41.023-.263.009-.372.009Z" transform="translate(959 569.422)"/><g class="g" transform="matrix(1, 0, 0, 1, 959.88, 537.61)"><path class="c" d="M32.666-.364,32.2-.346c-.137.008-.285.014-.445.021s-.314.006-.463,0q.088-.458.193-.887t.205-.888a5.317,5.317,0,0,0,.752-.12,3.453,3.453,0,0,0,.639-.211,1.566,1.566,0,0,0,.443-.283.466.466,0,0,0,.164-.334.648.648,0,0,0-.044-.226.9.9,0,0,0-.179-.273,2.881,2.881,0,0,0-.383-.348,7.247,7.247,0,0,0-.665-.454,2.144,2.144,0,0,1-.738-.685,1.538,1.538,0,0,1-.223-.809,1.278,1.278,0,0,1,.158-.595,2.363,2.363,0,0,1,.408-.556,2.567,2.567,0,0,1,.563-.437,1.948,1.948,0,0,1,.63-.24l.181-1.12c.008-.05.013-.094.015-.129A.771.771,0,0,1,33.422-9a.1.1,0,0,1,.023-.05.116.116,0,0,1,.065-.023q.41-.028.852-.068t.865-.1c.023,0,.038,0,.043.012a.042.042,0,0,1,.009.029c0,.008-.007.052-.023.132s-.036.178-.061.3-.052.245-.079.382-.053.266-.076.386q.423.03.735.058c.21.02.371.038.483.053l.158,1.723c-.007,0-.048,0-.12-.014s-.158-.02-.255-.03l-.3-.029c-.1-.01-.186-.015-.252-.015-.083,0-.189.007-.319.021a1.912,1.912,0,0,0-.387.082.948.948,0,0,0-.325.176.374.374,0,0,0-.135.3.654.654,0,0,0,.144.413,2.316,2.316,0,0,0,.36.364c.145.119.3.242.469.369a3.6,3.6,0,0,1,.469.425,2.168,2.168,0,0,1,.36.53,1.549,1.549,0,0,1,.143.682,1.412,1.412,0,0,1-.134.613,2.02,2.02,0,0,1-.369.527,2.96,2.96,0,0,1-.543.439,4.572,4.572,0,0,1-.647.343c0,.067-.011.164-.021.293s-.021.273-.032.431-.023.321-.035.489-.022.325-.029.469L34,.691c-.05,0-.131,0-.243.009s-.234.013-.369.023-.272.018-.41.023-.263.009-.372.009Z" transform="translate(-0.88 31.82)"/></g></g><path d="M3.123-3.779,2.877-.352a.761.761,0,0,1-.021.1.131.131,0,0,1-.079.082c-.035.016-.1.041-.182.074l-.3.114L1.931.149c-.127.045-.247.086-.36.123s-.214.067-.3.091A.867.867,0,0,1,1.09.4.233.233,0,0,1,.943.352.21.21,0,0,1,.885.182q.058-.733.135-1.6t.147-1.773Q1.237-4.1,1.3-5T1.4-6.72a.632.632,0,0,0-.073-.156c-.049-.088-.1-.184-.165-.287s-.115-.2-.164-.293a.58.58,0,0,1-.073-.173A.1.1,0,0,1,.969-7.7,1.312,1.312,0,0,1,1.113-7.8l1.564-.885a.359.359,0,0,0,.05-.006.331.331,0,0,1,.055-.005.289.289,0,0,1,.1.014.181.181,0,0,1,.079.091L5.807-3.463V-7.852a2.326,2.326,0,0,1,.082-.281.2.2,0,0,1,.152-.118l1.517-.357a.5.5,0,0,1,.153-.023.124.124,0,0,1,.111.053.391.391,0,0,1,.035.2,2.984,2.984,0,0,0-.059.431c-.015.193-.027.405-.035.635s-.013.462-.017.694-.006.435-.006.607v.322q0,.363-.005.791c0,.285-.009.574-.015.868s-.013.582-.02.867-.016.553-.023.8l-.035,1a.228.228,0,0,0-.006.052v.135c0,.067,0,.122,0,.166s0,.086,0,.121a.621.621,0,0,1-.009.105.213.213,0,0,1-.044.091.559.559,0,0,1-.1.091c-.041.032-.1.07-.167.117-.039.028-.1.067-.194.121s-.189.112-.3.178L6.493.023c-.118.07-.225.134-.323.191L5.933.352,5.842.4ZM21.545.4A.059.059,0,0,1,21.5.378.111.111,0,0,1,21.475.34q-.065-.252-.147-.627t-.176-.832q-.094-.458-.2-.979T20.736-3.17L19.993-.551a1.092,1.092,0,0,1-.062.173.349.349,0,0,1-.073.105.275.275,0,0,1-.088.056.736.736,0,0,1-.105.03q-.446.088-.9.2T17.813.3a.044.044,0,0,0-.018,0,.029.029,0,0,1-.012,0h-.041a.069.069,0,0,1-.05-.021.059.059,0,0,1-.021-.039c-.054-.172-.117-.39-.187-.653s-.146-.559-.226-.886-.163-.674-.248-1.046-.174-.748-.264-1.13-.179-.763-.266-1.139-.174-.735-.256-1.076a.569.569,0,0,1-.047-.156q-.005-.061-.005-.1c0-.054.031-.089.094-.105l.949-.208a6.377,6.377,0,0,0,.931-.278.181.181,0,0,1,.052-.006c.051,0,.078.02.082.058l.657,4.055.92-3.54a.118.118,0,0,1,.1-.082l.973-.217a7.786,7.786,0,0,0,.955-.275c.055,0,.083.02.083.058l.6,4,1.119-4a.087.087,0,0,1,.088-.058.048.048,0,0,1,.023,0,.064.064,0,0,0,.023,0,6.744,6.744,0,0,0,.9.278q.463.108.921.208a.122.122,0,0,1,.111.129.661.661,0,0,1-.07.235L23.8-.457c-.031.067-.059.122-.082.167a.484.484,0,0,1-.07.105.284.284,0,0,1-.076.059.407.407,0,0,1-.1.032q-.445.093-.9.205t-.949.281A.047.047,0,0,0,21.6.4a.018.018,0,0,1-.012,0ZM10.462.035A3.115,3.115,0,0,1,9.416-.682a2.958,2.958,0,0,1-.633-1.031,3.536,3.536,0,0,1-.211-1.211,3.471,3.471,0,0,1,.205-1.192A3.408,3.408,0,0,1,9.352-5.13a3.268,3.268,0,0,1,.885-.75,3.325,3.325,0,0,1,1.137-.408c.062,0,.094-.017.094-.04a.515.515,0,0,0-.014-.121.384.384,0,0,1-.015-.1.128.128,0,0,1,.023-.088.075.075,0,0,1,.053-.023,6.241,6.241,0,0,1,1.9.255,3.52,3.52,0,0,1,1.277.695A2.574,2.574,0,0,1,15.41-4.67a3.646,3.646,0,0,1,.223,1.283,3.933,3.933,0,0,1-.293,1.559,3.4,3.4,0,0,1-.8,1.16,3.476,3.476,0,0,1-1.184.724,4.156,4.156,0,0,1-1.444.249A3.631,3.631,0,0,1,10.462.035Zm1.022-4.773a1.524,1.524,0,0,0-.383.513,2.7,2.7,0,0,0-.208.642,3.192,3.192,0,0,0-.065.595,2.94,2.94,0,0,0,.068.626,1.761,1.761,0,0,0,.223.563,1.224,1.224,0,0,0,.407.408,1.177,1.177,0,0,0,.627.155,1.083,1.083,0,0,0,.472-.12,1.188,1.188,0,0,0,.348-.282,1.58,1.58,0,0,0,.243-.39,2.58,2.58,0,0,0,.153-.448,3.471,3.471,0,0,0,.078-.454,3.743,3.743,0,0,0,.023-.4,2.013,2.013,0,0,0-.09-.6,1.569,1.569,0,0,0-.267-.516,1.354,1.354,0,0,0-.436-.361,1.265,1.265,0,0,0-.6-.138A.874.874,0,0,0,11.484-4.738Z" transform="translate(959 572.582)"/><path class="a" d="M22.3-22.764q-.176.374-.594,1.1T20.719-20l-1.232,2.013q-.66,1.078-1.331,2.145t-1.3,2.057q-.627.99-1.1,1.749T15-10.827l-.286.451q0,.022.176.022.264,0,.869-.055t1.4-.121q.792-.066,1.705-.165t1.8-.165q.891-.066,1.672-.121t1.309-.055q1.122,0,1.122.484a1.294,1.294,0,0,1-.165.616,1.71,1.71,0,0,0-.165.352L21.269-3.665q-.044,0-.055.1t-.055.1a1.475,1.475,0,0,1-.814.484q-.374.044-.638.088-1.87.022-3.3.044t-2.585.033l-2.09.022L9.9-2.774q-.891.011-1.793.011H6.131a8.917,8.917,0,0,1-2.937-.33q-.825-.33-.825-.968a2.127,2.127,0,0,1,.3-.99q.3-.55.759-1.254,1.408-2,2.86-4.059t2.772-3.949q1.32-1.892,2.42-3.509T13.3-20.563a8.2,8.2,0,0,0,.836-1.727A4.838,4.838,0,0,0,14.4-23.8a3.274,3.274,0,0,0-.363-1.562,3.386,3.386,0,0,0-1.012-1.155,4.7,4.7,0,0,0-1.507-.715,6.784,6.784,0,0,0-1.848-.242,8.947,8.947,0,0,0-2.552.385,9.813,9.813,0,0,0-2.552,1.2,1.433,1.433,0,0,1-.7.286.308.308,0,0,1-.319-.2,1.034,1.034,0,0,1-.077-.374,10.782,10.782,0,0,1,.22-2q.22-1.144.5-2.2t.5-1.826a6.593,6.593,0,0,0,.22-.88,4.168,4.168,0,0,0,.594-.407,8.826,8.826,0,0,1,1.716-.9,18.072,18.072,0,0,1,3.025-.913,21.069,21.069,0,0,1,4.544-.418,8.383,8.383,0,0,1,3.179.649,9.656,9.656,0,0,1,2.86,1.793,9.3,9.3,0,0,1,2.057,2.7,7.225,7.225,0,0,1,.792,3.333,7.663,7.663,0,0,1-.33,2.189A10.286,10.286,0,0,1,22.3-22.764ZM39.4-1.817q-.462.044-.9.066t-.858.022a16.593,16.593,0,0,1-2.321-.154,16.392,16.392,0,0,1-2.145-.451,22.414,22.414,0,0,1-2.145-.726q-1.089-.429-2.343-.957a.681.681,0,0,1-.429-.275,1.3,1.3,0,0,1-.2-.473,3.281,3.281,0,0,1-.066-.539q-.011-.275-.033-.473-.044-.286-.132-1t-.2-1.507q-.11-.792-.22-1.507t-.176-.979a.458.458,0,0,1-.022-.176.605.605,0,0,1,.231-.5.747.747,0,0,1,.473-.187.437.437,0,0,1,.2.044q.77.484,1.584,1.012a14.1,14.1,0,0,0,1.738.957,12.376,12.376,0,0,0,1.98.715,9,9,0,0,0,2.354.286,3.822,3.822,0,0,0,2.486-.693,2.92,2.92,0,0,0,.836-2.365,7.1,7.1,0,0,0-.11-1.177,3.4,3.4,0,0,0-.451-1.21,2.773,2.773,0,0,0-1-.946,3.429,3.429,0,0,0-1.738-.385H31.83q0-.11.066-.616t.165-1.221q.1-.715.209-1.518t.209-1.5q.1-.693.176-1.177a4.439,4.439,0,0,1,.1-.528,3.516,3.516,0,0,1,.275-.957q.143-.253.275-.253a2.855,2.855,0,0,0,.814.187q.418.033.836.033a3.314,3.314,0,0,0,2.376-.814,3.122,3.122,0,0,0,.858-2.376,3.533,3.533,0,0,0-.154-1.034,2.365,2.365,0,0,0-.5-.891,2.6,2.6,0,0,0-.858-.627,2.914,2.914,0,0,0-1.243-.242,13.569,13.569,0,0,0-1.617.1q-.825.1-1.628.264t-1.551.363q-.748.2-1.364.4a7.076,7.076,0,0,0,.066-1.1q0-.308-.011-.66t-.011-.726q0-.682.044-1.386a6.886,6.886,0,0,1,.2-1.3A3.491,3.491,0,0,1,30-34.007,1.4,1.4,0,0,1,30.8-34.6q1.232-.4,2.123-.616t1.661-.33q.77-.11,1.54-.143t1.76-.033a14.5,14.5,0,0,1,3.663.484,10.924,10.924,0,0,1,3.366,1.5,8.3,8.3,0,0,1,2.464,2.563,6.879,6.879,0,0,1,.957,3.685,7.9,7.9,0,0,1-.385,2.53,8.811,8.811,0,0,1-.979,2.046,9.61,9.61,0,0,1-1.276,1.573,14.839,14.839,0,0,1-1.276,1.133,11.659,11.659,0,0,1,1.43.979,6.855,6.855,0,0,1,1.419,1.562,8.986,8.986,0,0,1,1.078,2.277,10.064,10.064,0,0,1,.429,3.1,9.894,9.894,0,0,1-.715,3.674,11.334,11.334,0,0,1-1.969,3.256,10.911,10.911,0,0,1-2.97,2.409A9.2,9.2,0,0,1,39.4-1.817Zm12.08-.22q.044-1.034.066-1.639t.033-.935q.011-.33.011-.462v-.253q0-.121.011-.3t.033-.583q.022-.407.066-1.122t.11-1.9a4.137,4.137,0,0,1,.143-1,.568.568,0,0,1,.5-.341q1.936,0,4.049-.011t3.983-.033a.5.5,0,0,1,.33.11.528.528,0,0,1,.132.418l-.616,6.909a7.845,7.845,0,0,1-.165,1q-.077.275-.5.319l-3.84.044q-1.969.022-4.1.022a.557.557,0,0,1-.187-.022q-.055-.022-.055-.132Zm20.661-.4q-.594-.154-.594-.506a.892.892,0,0,1,.22-.528,20.276,20.276,0,0,0,1.254-2q.594-1.078,1.089-2.222t.9-2.266q.407-1.122.693-2.112a19.6,19.6,0,0,1-2.31.528,14.172,14.172,0,0,1-2.332.2,8.98,8.98,0,0,1-3.972-.891,10.431,10.431,0,0,1-3.19-2.376,11.113,11.113,0,0,1-2.123-3.432,10.883,10.883,0,0,1-.77-4.037,12.147,12.147,0,0,1,.627-3.949,12.282,12.282,0,0,1,1.738-3.344,14.005,14.005,0,0,1,2.618-2.7,16.2,16.2,0,0,1,3.245-1.991,18.255,18.255,0,0,1,3.63-1.232,17.163,17.163,0,0,1,3.806-.429,9.419,9.419,0,0,1,4.654,1.155,11.881,11.881,0,0,1,3.553,3,13.967,13.967,0,0,1,2.277,4.159,14,14,0,0,1,.8,4.621,17.532,17.532,0,0,1-.506,4.225,24.431,24.431,0,0,1-1.364,3.993,31.345,31.345,0,0,1-1.98,3.773q-1.122,1.826-2.376,3.542T79.192-3.94Q77.9-2.345,76.716-.849a1.082,1.082,0,0,1-.165.132.447.447,0,0,1-.253.066.616.616,0,0,1-.308-.088q-.572-.308-1.034-.55t-.9-.44q-.44-.2-.9-.374T72.14-2.433Zm-1.5-21.255a9.173,9.173,0,0,0,.264,2.211,5.689,5.689,0,0,0,.825,1.881A4.2,4.2,0,0,0,73.2-18.286a4.468,4.468,0,0,0,2.178.5,3.959,3.959,0,0,0,.836-.077,8.6,8.6,0,0,0,.924-.275q.242-.99.4-1.694t.231-1.32q.077-.616.11-1.243t.033-1.441q0-.484-.033-1.133a12.276,12.276,0,0,0-.143-1.331,10.463,10.463,0,0,0-.308-1.342,4.264,4.264,0,0,0-.539-1.166,2.889,2.889,0,0,0-.836-.825,2.167,2.167,0,0,0-1.2-.319,3.337,3.337,0,0,0-2.046.605,4.449,4.449,0,0,0-1.3,1.529,6.781,6.781,0,0,0-.671,2.035A12.683,12.683,0,0,0,70.644-23.688ZM101.558-1.729a15.99,15.99,0,0,1-2.7-.231,13.559,13.559,0,0,1-2.607-.715A11.6,11.6,0,0,1,93.9-3.907a8.511,8.511,0,0,1-1.914-1.782A8.1,8.1,0,0,1,90.71-8.044a8.954,8.954,0,0,1-.462-2.97,9.282,9.282,0,0,1,.407-2.849,9.9,9.9,0,0,1,1.111-2.354,13.993,13.993,0,0,1,1.639-2.068q.935-.979,1.969-1.969a7,7,0,0,1-2.4-2.7,7.926,7.926,0,0,1-.748-3.487,8.344,8.344,0,0,1,.5-2.948A7.855,7.855,0,0,1,94.1-31.741a8.879,8.879,0,0,1,2.079-1.782,13.243,13.243,0,0,1,2.6-1.243,16.4,16.4,0,0,1,2.937-.737,20.1,20.1,0,0,1,3.124-.242,10.343,10.343,0,0,1,3.245.539,9.5,9.5,0,0,1,2.948,1.573,8.286,8.286,0,0,1,2.134,2.53,6.944,6.944,0,0,1,.825,3.41,7.337,7.337,0,0,1-.275,2.035,9.733,9.733,0,0,1-.715,1.8,9.51,9.51,0,0,1-1.012,1.562q-.572.715-1.166,1.331a14.432,14.432,0,0,1,1.749,1.474A8.765,8.765,0,0,1,114-17.626a9.672,9.672,0,0,1,.957,2.365,11.635,11.635,0,0,1,.352,2.992,8.492,8.492,0,0,1-.594,3.223,9.341,9.341,0,0,1-1.606,2.629,11.067,11.067,0,0,1-2.376,2.046,15.657,15.657,0,0,1-2.882,1.463,17.587,17.587,0,0,1-3.135.88A17.461,17.461,0,0,1,101.558-1.729Zm-1.408-9.857a16.456,16.456,0,0,0,.11,1.8,7.262,7.262,0,0,0,.451,1.859,3.953,3.953,0,0,0,.957,1.452,2.271,2.271,0,0,0,1.628.583,1.532,1.532,0,0,0,1.023-.363,3.182,3.182,0,0,0,.737-.935,6.2,6.2,0,0,0,.506-1.287,12.612,12.612,0,0,0,.308-1.419q.11-.7.154-1.32t.044-.99a9.015,9.015,0,0,0-.176-1.672,7.513,7.513,0,0,0-.55-1.738,4.25,4.25,0,0,0-.968-1.364,2,2,0,0,0-1.408-.55,1.885,1.885,0,0,0-1.089.308,2.656,2.656,0,0,0-.759.8,4.563,4.563,0,0,0-.5,1.133,11.1,11.1,0,0,0-.3,1.3,11.511,11.511,0,0,0-.143,1.287Q100.149-12.07,100.149-11.586Zm.33-15.358a6.464,6.464,0,0,0,.165,1.386,5.092,5.092,0,0,0,.528,1.4,3.471,3.471,0,0,0,.924,1.078,2.2,2.2,0,0,0,1.375.429,1.566,1.566,0,0,0,1.254-.539,3.433,3.433,0,0,0,.682-1.3,7.434,7.434,0,0,0,.275-1.573q.055-.814.055-1.342a6.67,6.67,0,0,0-.132-1.287,4.455,4.455,0,0,0-.429-1.232,2.744,2.744,0,0,0-.8-.935,2.052,2.052,0,0,0-1.254-.374,1.948,1.948,0,0,0-1.287.429,3,3,0,0,0-.814,1.078,5.421,5.421,0,0,0-.418,1.4A8.719,8.719,0,0,0,100.479-26.944Z" transform="translate(999.804 576.297)"/><g data-type="innerShadowGroup"><path class="d" d="M22.3-22.764q-.176.374-.594,1.1T20.719-20l-1.232,2.013q-.66,1.078-1.331,2.145t-1.3,2.057q-.627.99-1.1,1.749T15-10.827l-.286.451q0,.022.176.022.264,0,.869-.055t1.4-.121q.792-.066,1.705-.165t1.8-.165q.891-.066,1.672-.121t1.309-.055q1.122,0,1.122.484a1.294,1.294,0,0,1-.165.616,1.71,1.71,0,0,0-.165.352L21.269-3.665q-.044,0-.055.1t-.055.1a1.475,1.475,0,0,1-.814.484q-.374.044-.638.088-1.87.022-3.3.044t-2.585.033l-2.09.022L9.9-2.774q-.891.011-1.793.011H6.131a8.917,8.917,0,0,1-2.937-.33q-.825-.33-.825-.968a2.127,2.127,0,0,1,.3-.99q.3-.55.759-1.254,1.408-2,2.86-4.059t2.772-3.949q1.32-1.892,2.42-3.509T13.3-20.563a8.2,8.2,0,0,0,.836-1.727A4.838,4.838,0,0,0,14.4-23.8a3.274,3.274,0,0,0-.363-1.562,3.386,3.386,0,0,0-1.012-1.155,4.7,4.7,0,0,0-1.507-.715,6.784,6.784,0,0,0-1.848-.242,8.947,8.947,0,0,0-2.552.385,9.813,9.813,0,0,0-2.552,1.2,1.433,1.433,0,0,1-.7.286.308.308,0,0,1-.319-.2,1.034,1.034,0,0,1-.077-.374,10.782,10.782,0,0,1,.22-2q.22-1.144.5-2.2t.5-1.826a6.593,6.593,0,0,0,.22-.88,4.168,4.168,0,0,0,.594-.407,8.826,8.826,0,0,1,1.716-.9,18.072,18.072,0,0,1,3.025-.913,21.069,21.069,0,0,1,4.544-.418,8.383,8.383,0,0,1,3.179.649,9.656,9.656,0,0,1,2.86,1.793,9.3,9.3,0,0,1,2.057,2.7,7.225,7.225,0,0,1,.792,3.333,7.663,7.663,0,0,1-.33,2.189A10.286,10.286,0,0,1,22.3-22.764ZM39.4-1.817q-.462.044-.9.066t-.858.022a16.593,16.593,0,0,1-2.321-.154,16.392,16.392,0,0,1-2.145-.451,22.414,22.414,0,0,1-2.145-.726q-1.089-.429-2.343-.957a.681.681,0,0,1-.429-.275,1.3,1.3,0,0,1-.2-.473,3.281,3.281,0,0,1-.066-.539q-.011-.275-.033-.473-.044-.286-.132-1t-.2-1.507q-.11-.792-.22-1.507t-.176-.979a.458.458,0,0,1-.022-.176.605.605,0,0,1,.231-.5.747.747,0,0,1,.473-.187.437.437,0,0,1,.2.044q.77.484,1.584,1.012a14.1,14.1,0,0,0,1.738.957,12.376,12.376,0,0,0,1.98.715,9,9,0,0,0,2.354.286,3.822,3.822,0,0,0,2.486-.693,2.92,2.92,0,0,0,.836-2.365,7.1,7.1,0,0,0-.11-1.177,3.4,3.4,0,0,0-.451-1.21,2.773,2.773,0,0,0-1-.946,3.429,3.429,0,0,0-1.738-.385H31.83q0-.11.066-.616t.165-1.221q.1-.715.209-1.518t.209-1.5q.1-.693.176-1.177a4.439,4.439,0,0,1,.1-.528,3.516,3.516,0,0,1,.275-.957q.143-.253.275-.253a2.855,2.855,0,0,0,.814.187q.418.033.836.033a3.314,3.314,0,0,0,2.376-.814,3.122,3.122,0,0,0,.858-2.376,3.533,3.533,0,0,0-.154-1.034,2.365,2.365,0,0,0-.5-.891,2.6,2.6,0,0,0-.858-.627,2.914,2.914,0,0,0-1.243-.242,13.569,13.569,0,0,0-1.617.1q-.825.1-1.628.264t-1.551.363q-.748.2-1.364.4a7.076,7.076,0,0,0,.066-1.1q0-.308-.011-.66t-.011-.726q0-.682.044-1.386a6.886,6.886,0,0,1,.2-1.3A3.491,3.491,0,0,1,30-34.007,1.4,1.4,0,0,1,30.8-34.6q1.232-.4,2.123-.616t1.661-.33q.77-.11,1.54-.143t1.76-.033a14.5,14.5,0,0,1,3.663.484,10.924,10.924,0,0,1,3.366,1.5,8.3,8.3,0,0,1,2.464,2.563,6.879,6.879,0,0,1,.957,3.685,7.9,7.9,0,0,1-.385,2.53,8.811,8.811,0,0,1-.979,2.046,9.61,9.61,0,0,1-1.276,1.573,14.839,14.839,0,0,1-1.276,1.133,11.659,11.659,0,0,1,1.43.979,6.855,6.855,0,0,1,1.419,1.562,8.986,8.986,0,0,1,1.078,2.277,10.064,10.064,0,0,1,.429,3.1,9.894,9.894,0,0,1-.715,3.674,11.334,11.334,0,0,1-1.969,3.256,10.911,10.911,0,0,1-2.97,2.409A9.2,9.2,0,0,1,39.4-1.817Zm12.08-.22q.044-1.034.066-1.639t.033-.935q.011-.33.011-.462v-.253q0-.121.011-.3t.033-.583q.022-.407.066-1.122t.11-1.9a4.137,4.137,0,0,1,.143-1,.568.568,0,0,1,.5-.341q1.936,0,4.049-.011t3.983-.033a.5.5,0,0,1,.33.11.528.528,0,0,1,.132.418l-.616,6.909a7.845,7.845,0,0,1-.165,1q-.077.275-.5.319l-3.84.044q-1.969.022-4.1.022a.557.557,0,0,1-.187-.022q-.055-.022-.055-.132Zm20.661-.4q-.594-.154-.594-.506a.892.892,0,0,1,.22-.528,20.276,20.276,0,0,0,1.254-2q.594-1.078,1.089-2.222t.9-2.266q.407-1.122.693-2.112a19.6,19.6,0,0,1-2.31.528,14.172,14.172,0,0,1-2.332.2,8.98,8.98,0,0,1-3.972-.891,10.431,10.431,0,0,1-3.19-2.376,11.113,11.113,0,0,1-2.123-3.432,10.883,10.883,0,0,1-.77-4.037,12.147,12.147,0,0,1,.627-3.949,12.282,12.282,0,0,1,1.738-3.344,14.005,14.005,0,0,1,2.618-2.7,16.2,16.2,0,0,1,3.245-1.991,18.255,18.255,0,0,1,3.63-1.232,17.163,17.163,0,0,1,3.806-.429,9.419,9.419,0,0,1,4.654,1.155,11.881,11.881,0,0,1,3.553,3,13.967,13.967,0,0,1,2.277,4.159,14,14,0,0,1,.8,4.621,17.532,17.532,0,0,1-.506,4.225,24.431,24.431,0,0,1-1.364,3.993,31.345,31.345,0,0,1-1.98,3.773q-1.122,1.826-2.376,3.542T79.192-3.94Q77.9-2.345,76.716-.849a1.082,1.082,0,0,1-.165.132.447.447,0,0,1-.253.066.616.616,0,0,1-.308-.088q-.572-.308-1.034-.55t-.9-.44q-.44-.2-.9-.374T72.14-2.433Zm-1.5-21.255a9.173,9.173,0,0,0,.264,2.211,5.689,5.689,0,0,0,.825,1.881A4.2,4.2,0,0,0,73.2-18.286a4.468,4.468,0,0,0,2.178.5,3.959,3.959,0,0,0,.836-.077,8.6,8.6,0,0,0,.924-.275q.242-.99.4-1.694t.231-1.32q.077-.616.11-1.243t.033-1.441q0-.484-.033-1.133a12.276,12.276,0,0,0-.143-1.331,10.463,10.463,0,0,0-.308-1.342,4.264,4.264,0,0,0-.539-1.166,2.889,2.889,0,0,0-.836-.825,2.167,2.167,0,0,0-1.2-.319,3.337,3.337,0,0,0-2.046.605,4.449,4.449,0,0,0-1.3,1.529,6.781,6.781,0,0,0-.671,2.035A12.683,12.683,0,0,0,70.644-23.688ZM101.558-1.729a15.99,15.99,0,0,1-2.7-.231,13.559,13.559,0,0,1-2.607-.715A11.6,11.6,0,0,1,93.9-3.907a8.511,8.511,0,0,1-1.914-1.782A8.1,8.1,0,0,1,90.71-8.044a8.954,8.954,0,0,1-.462-2.97,9.282,9.282,0,0,1,.407-2.849,9.9,9.9,0,0,1,1.111-2.354,13.993,13.993,0,0,1,1.639-2.068q.935-.979,1.969-1.969a7,7,0,0,1-2.4-2.7,7.926,7.926,0,0,1-.748-3.487,8.344,8.344,0,0,1,.5-2.948A7.855,7.855,0,0,1,94.1-31.741a8.879,8.879,0,0,1,2.079-1.782,13.243,13.243,0,0,1,2.6-1.243,16.4,16.4,0,0,1,2.937-.737,20.1,20.1,0,0,1,3.124-.242,10.343,10.343,0,0,1,3.245.539,9.5,9.5,0,0,1,2.948,1.573,8.286,8.286,0,0,1,2.134,2.53,6.944,6.944,0,0,1,.825,3.41,7.337,7.337,0,0,1-.275,2.035,9.733,9.733,0,0,1-.715,1.8,9.51,9.51,0,0,1-1.012,1.562q-.572.715-1.166,1.331a14.432,14.432,0,0,1,1.749,1.474A8.765,8.765,0,0,1,114-17.626a9.672,9.672,0,0,1,.957,2.365,11.635,11.635,0,0,1,.352,2.992,8.492,8.492,0,0,1-.594,3.223,9.341,9.341,0,0,1-1.606,2.629,11.067,11.067,0,0,1-2.376,2.046,15.657,15.657,0,0,1-2.882,1.463,17.587,17.587,0,0,1-3.135.88A17.461,17.461,0,0,1,101.558-1.729Zm-1.408-9.857a16.456,16.456,0,0,0,.11,1.8,7.262,7.262,0,0,0,.451,1.859,3.953,3.953,0,0,0,.957,1.452,2.271,2.271,0,0,0,1.628.583,1.532,1.532,0,0,0,1.023-.363,3.182,3.182,0,0,0,.737-.935,6.2,6.2,0,0,0,.506-1.287,12.612,12.612,0,0,0,.308-1.419q.11-.7.154-1.32t.044-.99a9.015,9.015,0,0,0-.176-1.672,7.513,7.513,0,0,0-.55-1.738,4.25,4.25,0,0,0-.968-1.364,2,2,0,0,0-1.408-.55,1.885,1.885,0,0,0-1.089.308,2.656,2.656,0,0,0-.759.8,4.563,4.563,0,0,0-.5,1.133,11.1,11.1,0,0,0-.3,1.3,11.511,11.511,0,0,0-.143,1.287Q100.149-12.07,100.149-11.586Zm.33-15.358a6.464,6.464,0,0,0,.165,1.386,5.092,5.092,0,0,0,.528,1.4,3.471,3.471,0,0,0,.924,1.078,2.2,2.2,0,0,0,1.375.429,1.566,1.566,0,0,0,1.254-.539,3.433,3.433,0,0,0,.682-1.3,7.434,7.434,0,0,0,.275-1.573q.055-.814.055-1.342a6.67,6.67,0,0,0-.132-1.287,4.455,4.455,0,0,0-.429-1.232,2.744,2.744,0,0,0-.8-.935,2.052,2.052,0,0,0-1.254-.374,1.948,1.948,0,0,0-1.287.429,3,3,0,0,0-.814,1.078,5.421,5.421,0,0,0-.418,1.4A8.719,8.719,0,0,0,100.479-26.944Z" transform="translate(998.885 573.851)"/><g class="f" transform="matrix(1, 0, 0, 1, 959.88, 537.61)"><path class="c" d="M22.3-22.764q-.176.374-.594,1.1T20.719-20l-1.232,2.013q-.66,1.078-1.331,2.145t-1.3,2.057q-.627.99-1.1,1.749T15-10.827l-.286.451q0,.022.176.022.264,0,.869-.055t1.4-.121q.792-.066,1.705-.165t1.8-.165q.891-.066,1.672-.121t1.309-.055q1.122,0,1.122.484a1.294,1.294,0,0,1-.165.616,1.71,1.71,0,0,0-.165.352L21.269-3.665q-.044,0-.055.1t-.055.1a1.475,1.475,0,0,1-.814.484q-.374.044-.638.088-1.87.022-3.3.044t-2.585.033l-2.09.022L9.9-2.774q-.891.011-1.793.011H6.131a8.917,8.917,0,0,1-2.937-.33q-.825-.33-.825-.968a2.127,2.127,0,0,1,.3-.99q.3-.55.759-1.254,1.408-2,2.86-4.059t2.772-3.949q1.32-1.892,2.42-3.509T13.3-20.563a8.2,8.2,0,0,0,.836-1.727A4.838,4.838,0,0,0,14.4-23.8a3.274,3.274,0,0,0-.363-1.562,3.386,3.386,0,0,0-1.012-1.155,4.7,4.7,0,0,0-1.507-.715,6.784,6.784,0,0,0-1.848-.242,8.947,8.947,0,0,0-2.552.385,9.813,9.813,0,0,0-2.552,1.2,1.433,1.433,0,0,1-.7.286.308.308,0,0,1-.319-.2,1.034,1.034,0,0,1-.077-.374,10.782,10.782,0,0,1,.22-2q.22-1.144.5-2.2t.5-1.826a6.593,6.593,0,0,0,.22-.88,4.168,4.168,0,0,0,.594-.407,8.826,8.826,0,0,1,1.716-.9,18.072,18.072,0,0,1,3.025-.913,21.069,21.069,0,0,1,4.544-.418,8.383,8.383,0,0,1,3.179.649,9.656,9.656,0,0,1,2.86,1.793,9.3,9.3,0,0,1,2.057,2.7,7.225,7.225,0,0,1,.792,3.333,7.663,7.663,0,0,1-.33,2.189A10.286,10.286,0,0,1,22.3-22.764ZM39.4-1.817q-.462.044-.9.066t-.858.022a16.593,16.593,0,0,1-2.321-.154,16.392,16.392,0,0,1-2.145-.451,22.414,22.414,0,0,1-2.145-.726q-1.089-.429-2.343-.957a.681.681,0,0,1-.429-.275,1.3,1.3,0,0,1-.2-.473,3.281,3.281,0,0,1-.066-.539q-.011-.275-.033-.473-.044-.286-.132-1t-.2-1.507q-.11-.792-.22-1.507t-.176-.979a.458.458,0,0,1-.022-.176.605.605,0,0,1,.231-.5.747.747,0,0,1,.473-.187.437.437,0,0,1,.2.044q.77.484,1.584,1.012a14.1,14.1,0,0,0,1.738.957,12.376,12.376,0,0,0,1.98.715,9,9,0,0,0,2.354.286,3.822,3.822,0,0,0,2.486-.693,2.92,2.92,0,0,0,.836-2.365,7.1,7.1,0,0,0-.11-1.177,3.4,3.4,0,0,0-.451-1.21,2.773,2.773,0,0,0-1-.946,3.429,3.429,0,0,0-1.738-.385H31.83q0-.11.066-.616t.165-1.221q.1-.715.209-1.518t.209-1.5q.1-.693.176-1.177a4.439,4.439,0,0,1,.1-.528,3.516,3.516,0,0,1,.275-.957q.143-.253.275-.253a2.855,2.855,0,0,0,.814.187q.418.033.836.033a3.314,3.314,0,0,0,2.376-.814,3.122,3.122,0,0,0,.858-2.376,3.533,3.533,0,0,0-.154-1.034,2.365,2.365,0,0,0-.5-.891,2.6,2.6,0,0,0-.858-.627,2.914,2.914,0,0,0-1.243-.242,13.569,13.569,0,0,0-1.617.1q-.825.1-1.628.264t-1.551.363q-.748.2-1.364.4a7.076,7.076,0,0,0,.066-1.1q0-.308-.011-.66t-.011-.726q0-.682.044-1.386a6.886,6.886,0,0,1,.2-1.3A3.491,3.491,0,0,1,30-34.007,1.4,1.4,0,0,1,30.8-34.6q1.232-.4,2.123-.616t1.661-.33q.77-.11,1.54-.143t1.76-.033a14.5,14.5,0,0,1,3.663.484,10.924,10.924,0,0,1,3.366,1.5,8.3,8.3,0,0,1,2.464,2.563,6.879,6.879,0,0,1,.957,3.685,7.9,7.9,0,0,1-.385,2.53,8.811,8.811,0,0,1-.979,2.046,9.61,9.61,0,0,1-1.276,1.573,14.839,14.839,0,0,1-1.276,1.133,11.659,11.659,0,0,1,1.43.979,6.855,6.855,0,0,1,1.419,1.562,8.986,8.986,0,0,1,1.078,2.277,10.064,10.064,0,0,1,.429,3.1,9.894,9.894,0,0,1-.715,3.674,11.334,11.334,0,0,1-1.969,3.256,10.911,10.911,0,0,1-2.97,2.409A9.2,9.2,0,0,1,39.4-1.817Zm12.08-.22q.044-1.034.066-1.639t.033-.935q.011-.33.011-.462v-.253q0-.121.011-.3t.033-.583q.022-.407.066-1.122t.11-1.9a4.137,4.137,0,0,1,.143-1,.568.568,0,0,1,.5-.341q1.936,0,4.049-.011t3.983-.033a.5.5,0,0,1,.33.11.528.528,0,0,1,.132.418l-.616,6.909a7.845,7.845,0,0,1-.165,1q-.077.275-.5.319l-3.84.044q-1.969.022-4.1.022a.557.557,0,0,1-.187-.022q-.055-.022-.055-.132Zm20.661-.4q-.594-.154-.594-.506a.892.892,0,0,1,.22-.528,20.276,20.276,0,0,0,1.254-2q.594-1.078,1.089-2.222t.9-2.266q.407-1.122.693-2.112a19.6,19.6,0,0,1-2.31.528,14.172,14.172,0,0,1-2.332.2,8.98,8.98,0,0,1-3.972-.891,10.431,10.431,0,0,1-3.19-2.376,11.113,11.113,0,0,1-2.123-3.432,10.883,10.883,0,0,1-.77-4.037,12.147,12.147,0,0,1,.627-3.949,12.282,12.282,0,0,1,1.738-3.344,14.005,14.005,0,0,1,2.618-2.7,16.2,16.2,0,0,1,3.245-1.991,18.255,18.255,0,0,1,3.63-1.232,17.163,17.163,0,0,1,3.806-.429,9.419,9.419,0,0,1,4.654,1.155,11.881,11.881,0,0,1,3.553,3,13.967,13.967,0,0,1,2.277,4.159,14,14,0,0,1,.8,4.621,17.532,17.532,0,0,1-.506,4.225,24.431,24.431,0,0,1-1.364,3.993,31.345,31.345,0,0,1-1.98,3.773q-1.122,1.826-2.376,3.542T79.192-3.94Q77.9-2.345,76.716-.849a1.082,1.082,0,0,1-.165.132.447.447,0,0,1-.253.066.616.616,0,0,1-.308-.088q-.572-.308-1.034-.55t-.9-.44q-.44-.2-.9-.374T72.14-2.433Zm-1.5-21.255a9.173,9.173,0,0,0,.264,2.211,5.689,5.689,0,0,0,.825,1.881A4.2,4.2,0,0,0,73.2-18.286a4.468,4.468,0,0,0,2.178.5,3.959,3.959,0,0,0,.836-.077,8.6,8.6,0,0,0,.924-.275q.242-.99.4-1.694t.231-1.32q.077-.616.11-1.243t.033-1.441q0-.484-.033-1.133a12.276,12.276,0,0,0-.143-1.331,10.463,10.463,0,0,0-.308-1.342,4.264,4.264,0,0,0-.539-1.166,2.889,2.889,0,0,0-.836-.825,2.167,2.167,0,0,0-1.2-.319,3.337,3.337,0,0,0-2.046.605,4.449,4.449,0,0,0-1.3,1.529,6.781,6.781,0,0,0-.671,2.035A12.683,12.683,0,0,0,70.644-23.688ZM101.558-1.729a15.99,15.99,0,0,1-2.7-.231,13.559,13.559,0,0,1-2.607-.715A11.6,11.6,0,0,1,93.9-3.907a8.511,8.511,0,0,1-1.914-1.782A8.1,8.1,0,0,1,90.71-8.044a8.954,8.954,0,0,1-.462-2.97,9.282,9.282,0,0,1,.407-2.849,9.9,9.9,0,0,1,1.111-2.354,13.993,13.993,0,0,1,1.639-2.068q.935-.979,1.969-1.969a7,7,0,0,1-2.4-2.7,7.926,7.926,0,0,1-.748-3.487,8.344,8.344,0,0,1,.5-2.948A7.855,7.855,0,0,1,94.1-31.741a8.879,8.879,0,0,1,2.079-1.782,13.243,13.243,0,0,1,2.6-1.243,16.4,16.4,0,0,1,2.937-.737,20.1,20.1,0,0,1,3.124-.242,10.343,10.343,0,0,1,3.245.539,9.5,9.5,0,0,1,2.948,1.573,8.286,8.286,0,0,1,2.134,2.53,6.944,6.944,0,0,1,.825,3.41,7.337,7.337,0,0,1-.275,2.035,9.733,9.733,0,0,1-.715,1.8,9.51,9.51,0,0,1-1.012,1.562q-.572.715-1.166,1.331a14.432,14.432,0,0,1,1.749,1.474A8.765,8.765,0,0,1,114-17.626a9.672,9.672,0,0,1,.957,2.365,11.635,11.635,0,0,1,.352,2.992,8.492,8.492,0,0,1-.594,3.223,9.341,9.341,0,0,1-1.606,2.629,11.067,11.067,0,0,1-2.376,2.046,15.657,15.657,0,0,1-2.882,1.463,17.587,17.587,0,0,1-3.135.88A17.461,17.461,0,0,1,101.558-1.729Zm-1.408-9.857a16.456,16.456,0,0,0,.11,1.8,7.262,7.262,0,0,0,.451,1.859,3.953,3.953,0,0,0,.957,1.452,2.271,2.271,0,0,0,1.628.583,1.532,1.532,0,0,0,1.023-.363,3.182,3.182,0,0,0,.737-.935,6.2,6.2,0,0,0,.506-1.287,12.612,12.612,0,0,0,.308-1.419q.11-.7.154-1.32t.044-.99a9.015,9.015,0,0,0-.176-1.672,7.513,7.513,0,0,0-.55-1.738,4.25,4.25,0,0,0-.968-1.364,2,2,0,0,0-1.408-.55,1.885,1.885,0,0,0-1.089.308,2.656,2.656,0,0,0-.759.8,4.563,4.563,0,0,0-.5,1.133,11.1,11.1,0,0,0-.3,1.3,11.511,11.511,0,0,0-.143,1.287Q100.149-12.07,100.149-11.586Zm.33-15.358a6.464,6.464,0,0,0,.165,1.386,5.092,5.092,0,0,0,.528,1.4,3.471,3.471,0,0,0,.924,1.078,2.2,2.2,0,0,0,1.375.429,1.566,1.566,0,0,0,1.254-.539,3.433,3.433,0,0,0,.682-1.3,7.434,7.434,0,0,0,.275-1.573q.055-.814.055-1.342a6.67,6.67,0,0,0-.132-1.287,4.455,4.455,0,0,0-.429-1.232,2.744,2.744,0,0,0-.8-.935,2.052,2.052,0,0,0-1.254-.374,1.948,1.948,0,0,0-1.287.429,3,3,0,0,0-.814,1.078,5.421,5.421,0,0,0-.418,1.4A8.719,8.719,0,0,0,100.479-26.944Z" transform="translate(39 36.25)"/></g><path class="e" d="M22.3-22.764q-.176.374-.594,1.1T20.719-20l-1.232,2.013q-.66,1.078-1.331,2.145t-1.3,2.057q-.627.99-1.1,1.749T15-10.827l-.286.451q0,.022.176.022.264,0,.869-.055t1.4-.121q.792-.066,1.705-.165t1.8-.165q.891-.066,1.672-.121t1.309-.055q1.122,0,1.122.484a1.294,1.294,0,0,1-.165.616,1.71,1.71,0,0,0-.165.352L21.269-3.665q-.044,0-.055.1t-.055.1a1.475,1.475,0,0,1-.814.484q-.374.044-.638.088-1.87.022-3.3.044t-2.585.033l-2.09.022L9.9-2.774q-.891.011-1.793.011H6.131a8.917,8.917,0,0,1-2.937-.33q-.825-.33-.825-.968a2.127,2.127,0,0,1,.3-.99q.3-.55.759-1.254,1.408-2,2.86-4.059t2.772-3.949q1.32-1.892,2.42-3.509T13.3-20.563a8.2,8.2,0,0,0,.836-1.727A4.838,4.838,0,0,0,14.4-23.8a3.274,3.274,0,0,0-.363-1.562,3.386,3.386,0,0,0-1.012-1.155,4.7,4.7,0,0,0-1.507-.715,6.784,6.784,0,0,0-1.848-.242,8.947,8.947,0,0,0-2.552.385,9.813,9.813,0,0,0-2.552,1.2,1.433,1.433,0,0,1-.7.286.308.308,0,0,1-.319-.2,1.034,1.034,0,0,1-.077-.374,10.782,10.782,0,0,1,.22-2q.22-1.144.5-2.2t.5-1.826a6.593,6.593,0,0,0,.22-.88,4.168,4.168,0,0,0,.594-.407,8.826,8.826,0,0,1,1.716-.9,18.072,18.072,0,0,1,3.025-.913,21.069,21.069,0,0,1,4.544-.418,8.383,8.383,0,0,1,3.179.649,9.656,9.656,0,0,1,2.86,1.793,9.3,9.3,0,0,1,2.057,2.7,7.225,7.225,0,0,1,.792,3.333,7.663,7.663,0,0,1-.33,2.189A10.286,10.286,0,0,1,22.3-22.764ZM39.4-1.817q-.462.044-.9.066t-.858.022a16.593,16.593,0,0,1-2.321-.154,16.392,16.392,0,0,1-2.145-.451,22.414,22.414,0,0,1-2.145-.726q-1.089-.429-2.343-.957a.681.681,0,0,1-.429-.275,1.3,1.3,0,0,1-.2-.473,3.281,3.281,0,0,1-.066-.539q-.011-.275-.033-.473-.044-.286-.132-1t-.2-1.507q-.11-.792-.22-1.507t-.176-.979a.458.458,0,0,1-.022-.176.605.605,0,0,1,.231-.5.747.747,0,0,1,.473-.187.437.437,0,0,1,.2.044q.77.484,1.584,1.012a14.1,14.1,0,0,0,1.738.957,12.376,12.376,0,0,0,1.98.715,9,9,0,0,0,2.354.286,3.822,3.822,0,0,0,2.486-.693,2.92,2.92,0,0,0,.836-2.365,7.1,7.1,0,0,0-.11-1.177,3.4,3.4,0,0,0-.451-1.21,2.773,2.773,0,0,0-1-.946,3.429,3.429,0,0,0-1.738-.385H31.83q0-.11.066-.616t.165-1.221q.1-.715.209-1.518t.209-1.5q.1-.693.176-1.177a4.439,4.439,0,0,1,.1-.528,3.516,3.516,0,0,1,.275-.957q.143-.253.275-.253a2.855,2.855,0,0,0,.814.187q.418.033.836.033a3.314,3.314,0,0,0,2.376-.814,3.122,3.122,0,0,0,.858-2.376,3.533,3.533,0,0,0-.154-1.034,2.365,2.365,0,0,0-.5-.891,2.6,2.6,0,0,0-.858-.627,2.914,2.914,0,0,0-1.243-.242,13.569,13.569,0,0,0-1.617.1q-.825.1-1.628.264t-1.551.363q-.748.2-1.364.4a7.076,7.076,0,0,0,.066-1.1q0-.308-.011-.66t-.011-.726q0-.682.044-1.386a6.886,6.886,0,0,1,.2-1.3A3.491,3.491,0,0,1,30-34.007,1.4,1.4,0,0,1,30.8-34.6q1.232-.4,2.123-.616t1.661-.33q.77-.11,1.54-.143t1.76-.033a14.5,14.5,0,0,1,3.663.484,10.924,10.924,0,0,1,3.366,1.5,8.3,8.3,0,0,1,2.464,2.563,6.879,6.879,0,0,1,.957,3.685,7.9,7.9,0,0,1-.385,2.53,8.811,8.811,0,0,1-.979,2.046,9.61,9.61,0,0,1-1.276,1.573,14.839,14.839,0,0,1-1.276,1.133,11.659,11.659,0,0,1,1.43.979,6.855,6.855,0,0,1,1.419,1.562,8.986,8.986,0,0,1,1.078,2.277,10.064,10.064,0,0,1,.429,3.1,9.894,9.894,0,0,1-.715,3.674,11.334,11.334,0,0,1-1.969,3.256,10.911,10.911,0,0,1-2.97,2.409A9.2,9.2,0,0,1,39.4-1.817Zm12.08-.22q.044-1.034.066-1.639t.033-.935q.011-.33.011-.462v-.253q0-.121.011-.3t.033-.583q.022-.407.066-1.122t.11-1.9a4.137,4.137,0,0,1,.143-1,.568.568,0,0,1,.5-.341q1.936,0,4.049-.011t3.983-.033a.5.5,0,0,1,.33.11.528.528,0,0,1,.132.418l-.616,6.909a7.845,7.845,0,0,1-.165,1q-.077.275-.5.319l-3.84.044q-1.969.022-4.1.022a.557.557,0,0,1-.187-.022q-.055-.022-.055-.132Zm20.661-.4q-.594-.154-.594-.506a.892.892,0,0,1,.22-.528,20.276,20.276,0,0,0,1.254-2q.594-1.078,1.089-2.222t.9-2.266q.407-1.122.693-2.112a19.6,19.6,0,0,1-2.31.528,14.172,14.172,0,0,1-2.332.2,8.98,8.98,0,0,1-3.972-.891,10.431,10.431,0,0,1-3.19-2.376,11.113,11.113,0,0,1-2.123-3.432,10.883,10.883,0,0,1-.77-4.037,12.147,12.147,0,0,1,.627-3.949,12.282,12.282,0,0,1,1.738-3.344,14.005,14.005,0,0,1,2.618-2.7,16.2,16.2,0,0,1,3.245-1.991,18.255,18.255,0,0,1,3.63-1.232,17.163,17.163,0,0,1,3.806-.429,9.419,9.419,0,0,1,4.654,1.155,11.881,11.881,0,0,1,3.553,3,13.967,13.967,0,0,1,2.277,4.159,14,14,0,0,1,.8,4.621,17.532,17.532,0,0,1-.506,4.225,24.431,24.431,0,0,1-1.364,3.993,31.345,31.345,0,0,1-1.98,3.773q-1.122,1.826-2.376,3.542T79.192-3.94Q77.9-2.345,76.716-.849a1.082,1.082,0,0,1-.165.132.447.447,0,0,1-.253.066.616.616,0,0,1-.308-.088q-.572-.308-1.034-.55t-.9-.44q-.44-.2-.9-.374T72.14-2.433Zm-1.5-21.255a9.173,9.173,0,0,0,.264,2.211,5.689,5.689,0,0,0,.825,1.881A4.2,4.2,0,0,0,73.2-18.286a4.468,4.468,0,0,0,2.178.5,3.959,3.959,0,0,0,.836-.077,8.6,8.6,0,0,0,.924-.275q.242-.99.4-1.694t.231-1.32q.077-.616.11-1.243t.033-1.441q0-.484-.033-1.133a12.276,12.276,0,0,0-.143-1.331,10.463,10.463,0,0,0-.308-1.342,4.264,4.264,0,0,0-.539-1.166,2.889,2.889,0,0,0-.836-.825,2.167,2.167,0,0,0-1.2-.319,3.337,3.337,0,0,0-2.046.605,4.449,4.449,0,0,0-1.3,1.529,6.781,6.781,0,0,0-.671,2.035A12.683,12.683,0,0,0,70.644-23.688ZM101.558-1.729a15.99,15.99,0,0,1-2.7-.231,13.559,13.559,0,0,1-2.607-.715A11.6,11.6,0,0,1,93.9-3.907a8.511,8.511,0,0,1-1.914-1.782A8.1,8.1,0,0,1,90.71-8.044a8.954,8.954,0,0,1-.462-2.97,9.282,9.282,0,0,1,.407-2.849,9.9,9.9,0,0,1,1.111-2.354,13.993,13.993,0,0,1,1.639-2.068q.935-.979,1.969-1.969a7,7,0,0,1-2.4-2.7,7.926,7.926,0,0,1-.748-3.487,8.344,8.344,0,0,1,.5-2.948A7.855,7.855,0,0,1,94.1-31.741a8.879,8.879,0,0,1,2.079-1.782,13.243,13.243,0,0,1,2.6-1.243,16.4,16.4,0,0,1,2.937-.737,20.1,20.1,0,0,1,3.124-.242,10.343,10.343,0,0,1,3.245.539,9.5,9.5,0,0,1,2.948,1.573,8.286,8.286,0,0,1,2.134,2.53,6.944,6.944,0,0,1,.825,3.41,7.337,7.337,0,0,1-.275,2.035,9.733,9.733,0,0,1-.715,1.8,9.51,9.51,0,0,1-1.012,1.562q-.572.715-1.166,1.331a14.432,14.432,0,0,1,1.749,1.474A8.765,8.765,0,0,1,114-17.626a9.672,9.672,0,0,1,.957,2.365,11.635,11.635,0,0,1,.352,2.992,8.492,8.492,0,0,1-.594,3.223,9.341,9.341,0,0,1-1.606,2.629,11.067,11.067,0,0,1-2.376,2.046,15.657,15.657,0,0,1-2.882,1.463,17.587,17.587,0,0,1-3.135.88A17.461,17.461,0,0,1,101.558-1.729Zm-1.408-9.857a16.456,16.456,0,0,0,.11,1.8,7.262,7.262,0,0,0,.451,1.859,3.953,3.953,0,0,0,.957,1.452,2.271,2.271,0,0,0,1.628.583,1.532,1.532,0,0,0,1.023-.363,3.182,3.182,0,0,0,.737-.935,6.2,6.2,0,0,0,.506-1.287,12.612,12.612,0,0,0,.308-1.419q.11-.7.154-1.32t.044-.99a9.015,9.015,0,0,0-.176-1.672,7.513,7.513,0,0,0-.55-1.738,4.25,4.25,0,0,0-.968-1.364,2,2,0,0,0-1.408-.55,1.885,1.885,0,0,0-1.089.308,2.656,2.656,0,0,0-.759.8,4.563,4.563,0,0,0-.5,1.133,11.1,11.1,0,0,0-.3,1.3,11.511,11.511,0,0,0-.143,1.287Q100.149-12.07,100.149-11.586Zm.33-15.358a6.464,6.464,0,0,0,.165,1.386,5.092,5.092,0,0,0,.528,1.4,3.471,3.471,0,0,0,.924,1.078,2.2,2.2,0,0,0,1.375.429,1.566,1.566,0,0,0,1.254-.539,3.433,3.433,0,0,0,.682-1.3,7.434,7.434,0,0,0,.275-1.573q.055-.814.055-1.342a6.67,6.67,0,0,0-.132-1.287,4.455,4.455,0,0,0-.429-1.232,2.744,2.744,0,0,0-.8-.935,2.052,2.052,0,0,0-1.254-.374,1.948,1.948,0,0,0-1.287.429,3,3,0,0,0-.814,1.078,5.421,5.421,0,0,0-.418,1.4A8.719,8.719,0,0,0,100.479-26.944Z" transform="translate(998.885 573.851)"/></g><path d="M2.789-.484l-.617.023c-.182.01-.38.02-.594.027s-.418.009-.617,0Q1.017-.719,1.078-1H0V-2H1.311q.092-.391.181-.8a7.015,7.015,0,0,0,1-.16,4.709,4.709,0,0,0,.852-.281,2.089,2.089,0,0,0,.589-.379.618.618,0,0,0,.219-.446.887.887,0,0,0-.058-.3,1.207,1.207,0,0,0-.239-.364,4.027,4.027,0,0,0-.511-.464A9.92,9.92,0,0,0,2.461-5.8a2.854,2.854,0,0,1-.984-.914,2.045,2.045,0,0,1-.3-1.078,1.7,1.7,0,0,1,.211-.793,3.132,3.132,0,0,1,.543-.742,3.465,3.465,0,0,1,.751-.582,2.63,2.63,0,0,1,.84-.32l.242-1.492c.011-.067.017-.125.02-.172A.944.944,0,0,1,3.8-12a.121.121,0,0,1,.031-.066.15.15,0,0,1,.086-.031q.547-.039,1.137-.09T6.2-12.328c.031,0,.051.005.058.015a.063.063,0,0,1,.012.04c0,.01-.01.069-.031.175s-.049.238-.082.4-.069.325-.106.508-.07.354-.1.516q.562.039.98.077c.279.026.493.049.644.071l.212,2.3c-.011,0-.064-.007-.16-.02s-.21-.026-.34-.039l-.4-.04c-.135-.013-.247-.02-.336-.02-.11,0-.251.01-.426.028a2.555,2.555,0,0,0-.516.109,1.264,1.264,0,0,0-.434.235.5.5,0,0,0-.179.4.872.872,0,0,0,.191.551,3.118,3.118,0,0,0,.481.484q.289.239.626.492a4.821,4.821,0,0,1,.625.566,2.92,2.92,0,0,1,.481.707,2.056,2.056,0,0,1,.191.91,1.88,1.88,0,0,1-.179.816,2.645,2.645,0,0,1-.492.7A3.76,3.76,0,0,1,6.536-2H9.128q.014-.3.032-.672.035-.71.085-1.75T9.364-6.86q.066-1.4.152-3.234a2.331,2.331,0,0,1,.043-.387c.018-.076.079-.123.184-.145l2.7-.648a.814.814,0,0,1,.2-.031.164.164,0,0,1,.152.07.562.562,0,0,1,.043.266L12.416-2h2.045q-.081-.191-.145-.4a5.856,5.856,0,0,1-.262-1.769,5.2,5.2,0,0,1,.188-1.406,7.036,7.036,0,0,1,.5-1.3,9.523,9.523,0,0,1,.734-1.215q.417-.59.867-1.157t.91-1.113q.462-.547.868-1.094c.041-.052.085-.108.129-.168a1.265,1.265,0,0,1,.145-.164.92.92,0,0,1,.164-.125.383.383,0,0,1,.2-.05h1.961a.914.914,0,0,1,.336.055.183.183,0,0,1,.14.171.429.429,0,0,1-.125.258,14.844,14.844,0,0,0-1.254,1.7A21.565,21.565,0,0,0,18.758-7.89,3.63,3.63,0,0,1,19.3-8a4.572,4.572,0,0,1,.547-.031,3.162,3.162,0,0,1,1.5.337,3.215,3.215,0,0,1,1.055.871,3.734,3.734,0,0,1,.625,1.2,4.461,4.461,0,0,1,.207,1.332,5.586,5.586,0,0,1-.312,1.918q-.069.192-.154.372h6.076q.106-.26.2-.516.144-.4.247-.75a7.072,7.072,0,0,1-.821.187,5.034,5.034,0,0,1-.828.07,3.185,3.185,0,0,1-1.41-.317,3.692,3.692,0,0,1-1.132-.843,3.941,3.941,0,0,1-.754-1.219,3.855,3.855,0,0,1-.274-1.434,4.308,4.308,0,0,1,.223-1.4A4.343,4.343,0,0,1,24.9-9.41a5,5,0,0,1,.93-.957,5.763,5.763,0,0,1,1.153-.707,6.491,6.491,0,0,1,1.289-.437,6.086,6.086,0,0,1,1.352-.152,3.343,3.343,0,0,1,1.652.41,4.209,4.209,0,0,1,1.262,1.066,4.971,4.971,0,0,1,.808,1.476,4.975,4.975,0,0,1,.285,1.641,6.23,6.23,0,0,1-.18,1.5,8.636,8.636,0,0,1-.484,1.418,11.176,11.176,0,0,1-.7,1.34q-.254.414-.529.813h2.2l.015-.258A1.455,1.455,0,0,1,34-2.614a.2.2,0,0,1,.176-.121q.688,0,1.438,0t1.414-.012a.177.177,0,0,1,.117.04.187.187,0,0,1,.047.149L37.145-2h4.847q.106-.26.2-.516c.1-.266.179-.516.247-.75a7.072,7.072,0,0,1-.821.187,5.034,5.034,0,0,1-.828.07,3.185,3.185,0,0,1-1.41-.317,3.692,3.692,0,0,1-1.132-.843,3.958,3.958,0,0,1-.754-1.219,3.855,3.855,0,0,1-.274-1.434,4.308,4.308,0,0,1,.223-1.4,4.343,4.343,0,0,1,.617-1.188,5,5,0,0,1,.93-.957,5.789,5.789,0,0,1,1.153-.707,6.491,6.491,0,0,1,1.289-.437,6.086,6.086,0,0,1,1.352-.152,3.343,3.343,0,0,1,1.652.41A4.2,4.2,0,0,1,45.7-10.187,4.971,4.971,0,0,1,46.5-8.711a4.975,4.975,0,0,1,.285,1.641,6.23,6.23,0,0,1-.18,1.5,8.636,8.636,0,0,1-.484,1.418,11.176,11.176,0,0,1-.7,1.34q-.254.414-.529.813h1.833v1H44.163q-.242.316-.487.621-.458.567-.879,1.1a.428.428,0,0,1-.059.047.161.161,0,0,1-.09.023.219.219,0,0,1-.109-.031l-.367-.2c-.11-.058-.217-.11-.32-.157s-.212-.091-.32-.132S41.3.193,41.172.157s-.212-.1-.212-.18a.314.314,0,0,1,.078-.187,7.318,7.318,0,0,0,.445-.711L41.527-1H37.056l-.079.89a2.8,2.8,0,0,1-.059.356q-.027.1-.175.113L35.379.375q-.7.007-1.457.007a.226.226,0,0,1-.067-.007c-.013-.005-.02-.021-.02-.047V.3q.016-.367.024-.582c0-.143.009-.254.012-.332s0-.132,0-.164v-.09c0-.029,0-.064,0-.105V-1H31.007q-.242.316-.487.621-.458.567-.879,1.1a.428.428,0,0,1-.059.047.161.161,0,0,1-.09.023.219.219,0,0,1-.109-.031l-.367-.2C28.906.5,28.8.453,28.7.406s-.212-.091-.32-.132-.229-.081-.36-.117S27.8.06,27.8-.023a.314.314,0,0,1,.078-.187,7.318,7.318,0,0,0,.446-.711L28.371-1H22.086q-.05.054-.1.105a4.227,4.227,0,0,1-1.535.953,6.083,6.083,0,0,1-2.12.34,4.543,4.543,0,0,1-1.879-.36,3.769,3.769,0,0,1-1.336-.98L15.064-1H12.35a.609.609,0,0,1-.065.184.329.329,0,0,1-.113.117.838.838,0,0,1-.164.075L9.563.094a.712.712,0,0,1-.18.023A.385.385,0,0,1,9.149.043a.325.325,0,0,1-.1-.277V-.257c0-.016,0-.064.008-.145s.012-.206.019-.375q0-.1.01-.222H5.315l-.007.086q-.019.258-.042.574c-.016.212-.031.428-.047.653S5.19.745,5.18.938L4.562.922c-.067,0-.175,0-.324.012s-.312.019-.492.031S3.384.988,3.2,1s-.35.012-.5.012ZM18.242-5.875a1.574,1.574,0,0,0-.406.6,2.953,2.953,0,0,0-.184.773,7.349,7.349,0,0,0-.043.758,3.96,3.96,0,0,0,.039.519,2.142,2.142,0,0,0,.153.559,1.338,1.338,0,0,0,.3.449.688.688,0,0,0,.5.184,1,1,0,0,0,.512-.125,1.182,1.182,0,0,0,.364-.328,1.672,1.672,0,0,0,.234-.465,3.686,3.686,0,0,0,.133-.539,4.614,4.614,0,0,0,.059-.551c.007-.182.012-.346.012-.492q0-.265-.023-.551a1.645,1.645,0,0,0-.122-.511.93.93,0,0,0-.289-.375.841.841,0,0,0-.527-.148A1.016,1.016,0,0,0,18.242-5.875ZM41.406-9.4a1.576,1.576,0,0,0-.461.543,2.388,2.388,0,0,0-.238.723,4.525,4.525,0,0,0-.067.746,3.283,3.283,0,0,0,.094.786,2.027,2.027,0,0,0,.293.668,1.5,1.5,0,0,0,.519.464,1.589,1.589,0,0,0,.774.176,1.408,1.408,0,0,0,.3-.028,2.95,2.95,0,0,0,.328-.1q.086-.352.14-.6t.082-.469c.019-.146.031-.293.04-.441s.012-.319.012-.512c0-.114,0-.248-.012-.4a4.453,4.453,0,0,0-.051-.473,3.723,3.723,0,0,0-.109-.476,1.5,1.5,0,0,0-.192-.414,1.025,1.025,0,0,0-.3-.293.768.768,0,0,0-.426-.113A1.185,1.185,0,0,0,41.406-9.4ZM28.25-9.4a1.576,1.576,0,0,0-.461.543,2.388,2.388,0,0,0-.239.723,4.525,4.525,0,0,0-.067.746,3.283,3.283,0,0,0,.094.786,2.027,2.027,0,0,0,.293.668,1.487,1.487,0,0,0,.519.464,1.589,1.589,0,0,0,.774.176,1.408,1.408,0,0,0,.3-.028,3.008,3.008,0,0,0,.329-.1q.086-.352.14-.6t.082-.469c.019-.146.031-.293.04-.441s.012-.319.012-.512c0-.114,0-.248-.012-.4A4.451,4.451,0,0,0,30-8.321a3.722,3.722,0,0,0-.109-.476,1.5,1.5,0,0,0-.192-.414,1.036,1.036,0,0,0-.3-.293.768.768,0,0,0-.426-.113A1.185,1.185,0,0,0,28.25-9.4Z" transform="translate(1120.885 573.23)"/></g></svg>