<svg xmlns="http://www.w3.org/2000/svg" xmlns:xlink="http://www.w3.org/1999/xlink" width="74" height="74.056" viewBox="0 0 74 74.056"><defs><style>.a{stroke-linecap:round;stroke-linejoin:round;fill:url(#a);}.b,.c{fill:#682d00;fill-rule:evenodd;}.b{opacity:0.302;}.d{fill:#672f05;}.e,.f{stroke:none;}.f{fill:#3d2419;}</style><linearGradient id="a" x1="0.707" x2="0" y2="0.707" gradientUnits="objectBoundingBox"><stop offset="0" stop-color="#ffe896"/><stop offset="0.18" stop-color="#ffd372"/><stop offset="0.69" stop-color="#ffbd4e"/></linearGradient></defs><g transform="translate(-498.5 -2612.5)"><g class="a" transform="translate(496 2609.966)"><path class="e" d="M 44.37886047363281 76.09024810791016 C 43.4658088684082 76.09037780761719 42.57463073730469 75.54836273193359 41.71279144287109 75.02417755126953 C 40.95199966430664 74.56147003173828 40.16530990600586 74.08300018310547 39.5 74.08300018310547 C 38.83478927612305 74.08300018310547 38.04832077026367 74.56137084960938 37.2877311706543 75.02398681640625 C 36.42591857910156 75.54818725585938 35.53475952148438 76.09023284912109 34.62136077880859 76.09024810791016 C 34.51464080810547 76.09024810791016 34.40837860107422 76.08271789550781 34.30551910400391 76.06786346435547 C 33.2513313293457 75.91671752929688 32.45064926147461 75.03778076171875 31.67633056640625 74.18778228759766 C 31.0875301361084 73.54142761230469 30.47867965698242 72.87306976318359 29.86894989013672 72.69239807128906 C 29.71360015869141 72.6463623046875 29.5405101776123 72.62399291992188 29.33979034423828 72.62399291992188 C 28.7933292388916 72.62399291992188 28.13817977905273 72.79696655273438 27.50460052490234 72.96427154541016 C 26.81410026550293 73.14659118652344 26.10009956359863 73.33511352539062 25.43247985839844 73.33518218994141 C 25.0139102935791 73.33522033691406 24.65370941162109 73.26284027099609 24.33131980895996 73.11390686035156 C 23.37173080444336 72.66989898681641 22.85284996032715 71.60343170166016 22.35106086730957 70.57206726074219 C 21.96501922607422 69.77861022949219 21.56583023071289 68.95813751220703 21.02446937561035 68.606201171875 C 20.47727966308594 68.25002288818359 19.56904983520508 68.22190856933594 18.69072914123535 68.19474029541016 C 17.55760955810547 68.15966796875 16.38590049743652 68.12342071533203 15.59451007843018 67.43007659912109 C 14.80315971374512 66.73661804199219 14.60206031799316 65.57034301757812 14.40756988525391 64.44245147705078 C 14.2567195892334 63.56760025024414 14.10074043273926 62.66297149658203 13.67465019226074 62.16672134399414 C 13.25102043151855 61.67319869995117 12.38974952697754 61.39007949829102 11.55683040618896 61.11627960205078 C 10.47628974914551 60.76108169555664 9.358949661254883 60.39379119873047 8.790229797363281 59.50053024291992 C 8.22605037689209 58.61550140380859 8.356659889221191 57.44178009033203 8.482959747314453 56.30670928955078 C 8.581480026245117 55.42142105102539 8.683340072631836 54.5059814453125 8.410490036010742 53.90317916870117 C 8.143819808959961 53.31378173828125 7.399459838867188 52.79888153076172 6.679599761962891 52.30094146728516 C 5.73891019821167 51.65023040771484 4.766200065612793 50.97737884521484 4.468800067901611 49.95232009887695 C 4.177979946136475 48.95018005371094 4.63070011138916 47.86637115478516 5.068510055541992 46.81826019287109 C 5.413040161132812 45.99345016479492 5.769309997558594 45.14056015014648 5.675879955291748 44.47668075561523 C 5.586349964141846 43.84223937988281 5.019000053405762 43.13959121704102 4.470330238342285 42.4600715637207 C 3.747469902038574 41.5648307800293 3 40.63909912109375 3 39.5629997253418 C 3 38.48625946044922 3.747610092163086 37.56023025512695 4.470600128173828 36.66469955444336 C 5.019149780273438 35.9852409362793 5.58636999130249 35.28264999389648 5.675909996032715 34.64813995361328 C 5.769269943237305 33.98466873168945 5.413269996643066 33.13204956054688 5.06898021697998 32.30749893188477 C 4.631120204925537 31.25882911682129 4.17834997177124 30.17445945739746 4.469870090484619 29.17144966125488 C 4.767230033874512 28.14649963378906 5.739940166473389 27.47356033325195 6.680610179901123 26.82278060913086 C 7.400320053100586 26.32488059997559 8.144519805908203 25.81002044677734 8.411569595336914 25.22064018249512 C 8.683779716491699 24.61838912963867 8.581809997558594 23.70323944091797 8.483200073242188 22.8182201385498 C 8.356710433959961 21.68297958374023 8.225910186767578 20.50909996032715 8.790470123291016 19.62409973144531 C 9.358960151672363 18.73119926452637 10.47657012939453 18.36391067504883 11.55737972259521 18.00871086120605 C 12.3905200958252 17.73490905761719 13.25203037261963 17.45178985595703 13.67560005187988 16.95833015441895 C 14.10109043121338 16.46232032775879 14.25712966918945 15.55774021148682 14.40802955627441 14.68295001983643 C 14.60270023345947 13.55445003509521 14.80399036407471 12.38753032684326 15.5954704284668 11.69394969940186 C 16.38647079467773 11.00041007995605 17.55841064453125 10.96430015563965 18.69175910949707 10.92938041687012 C 19.56974983215332 10.90233039855957 20.47764015197754 10.87436008453369 21.02444076538086 10.51881980895996 C 21.56561088562012 10.16660976409912 21.96475028991699 9.346209526062012 22.35074996948242 8.552820205688477 C 22.85264015197754 7.521230220794678 23.37162017822266 6.454520225524902 24.33127975463867 6.011109828948975 C 24.65399932861328 5.862130165100098 25.0144100189209 5.789740085601807 25.43325996398926 5.789740085601807 C 26.10124015808105 5.789740085601807 26.81539916992188 5.978270053863525 27.50605010986328 6.160600185394287 C 28.13945007324219 6.327809810638428 28.79442024230957 6.500710010528564 29.34075927734375 6.500710010528564 C 29.54117965698242 6.500710010528564 29.71404075622559 6.478409767150879 29.86922073364258 6.432519912719727 C 30.47879028320312 6.251900196075439 31.08773994445801 5.583330154418945 31.67663955688477 4.936769962310791 C 32.45080947875977 4.086810111999512 33.2513313293457 3.207910060882568 34.30575180053711 3.056099891662598 C 34.40824127197266 3.041359901428223 34.51406097412109 3.033890008926392 34.6203498840332 3.033890008926392 C 35.53393936157227 3.033890008926392 36.42525863647461 3.576169967651367 37.2872314453125 4.100590229034424 C 38.04796981811523 4.563409805297852 38.83460998535156 5.041999816894531 39.5 5.041999816894531 C 40.16534042358398 5.041999816894531 40.95199966430664 4.563409805297852 41.71274948120117 4.100590229034424 C 42.57474899291992 3.576169967651367 43.46609878540039 3.033890008926392 44.3796501159668 3.033890008926392 C 44.48593902587891 3.033890008926392 44.59175872802734 3.041359901428223 44.69417953491211 3.056090116500854 C 45.7486686706543 3.207910060882568 46.54919052124023 4.086810111999512 47.32336044311523 4.936769962310791 C 47.91225814819336 5.583330154418945 48.52120971679688 6.251900196075439 49.13105010986328 6.432600021362305 C 49.28596115112305 6.478409767150879 49.45883178710938 6.500710010528564 49.65927886962891 6.500710010528564 C 50.20573043823242 6.500710010528564 50.86085891723633 6.327789783477783 51.49441146850586 6.160560131072998 C 52.18508911132812 5.978250026702881 52.8992805480957 5.789740085601807 53.56710815429688 5.789740085601807 C 53.98593139648438 5.789740085601807 54.34624862670898 5.862150192260742 54.66867828369141 6.01108980178833 C 55.62837982177734 6.454520225524902 56.14736175537109 7.521230220794678 56.64925003051758 8.552820205688477 C 57.03525161743164 9.346209526062012 57.43439102172852 10.16660976409912 57.97573852539062 10.51893997192383 C 58.52230072021484 10.87497043609619 59.4305305480957 10.90283966064453 60.30886077880859 10.92980003356934 C 61.44216918945312 10.96459007263184 62.61407089233398 11.00055027008057 63.40549087524414 11.69392013549805 C 64.19683837890625 12.38801002502441 64.39792633056641 13.55436992645264 64.59239959716797 14.68233013153076 C 64.74326324462891 15.55727005004883 64.89923858642578 16.46199989318848 65.32534790039062 16.95828056335449 C 65.74897766113281 17.4517993927002 66.61025238037109 17.73492050170898 67.44316864013672 18.00872039794922 C 68.52371215820312 18.36392021179199 69.64105224609375 18.73121070861816 70.20977020263672 19.62446975708008 C 70.77394866943359 20.50950050354004 70.64334106445312 21.68321990966797 70.51703643798828 22.81829071044922 C 70.41851806640625 23.70358085632324 70.31665802001953 24.61902046203613 70.58950805664062 25.22182083129883 C 70.85597991943359 25.81038093566895 71.59989166259766 26.3249397277832 72.31931304931641 26.82255935668945 C 73.260498046875 27.47357940673828 74.23374176025391 28.14677047729492 74.53121948242188 29.17276000976562 C 74.82138061523438 30.17477989196777 74.36894226074219 31.25827026367188 73.931396484375 32.30609893798828 C 73.58689880371094 33.13111877441406 73.23066711425781 33.98423004150391 73.32411956787109 34.64831924438477 C 73.41362762451172 35.28264999389648 73.98085021972656 35.9852409362793 74.52940368652344 36.66469955444336 C 75.25238800048828 37.56023025512695 76 38.48625946044922 76 39.5629997253418 C 76 40.63909912109375 75.25253295898438 41.5648307800293 74.52967071533203 42.4600715637207 C 73.98100280761719 43.13959121704102 73.41365051269531 43.84223937988281 73.32408905029297 44.47686004638672 C 73.23072814941406 45.14033126831055 73.58673095703125 45.99295043945312 73.93102264404297 46.81750106811523 C 74.36888122558594 47.86616897583008 74.82164764404297 48.95053863525391 74.53012847900391 49.95354843139648 C 74.23278045654297 50.97782135009766 73.26032257080078 51.65074920654297 72.31987762451172 52.30152130126953 C 71.59996795654297 52.79969024658203 70.85555267333984 53.3148193359375 70.58843231201172 53.90436172485352 C 70.31623077392578 54.506591796875 70.41819000244141 55.42153167724609 70.51679229736328 56.30633926391602 C 70.64328765869141 57.44147872924805 70.77410125732422 58.61526870727539 70.20961761474609 59.50077056884766 C 69.64103698730469 60.393798828125 68.52342987060547 60.76108932495117 67.44261932373047 61.11629104614258 C 66.60948181152344 61.39009094238281 65.74797058105469 61.67321014404297 65.32440185546875 62.16667175292969 C 64.89890289306641 62.66268920898438 64.74285888671875 63.56703186035156 64.59197235107422 64.44159698486328 C 64.39730072021484 65.56983184814453 64.19599914550781 66.73648071289062 63.4045295715332 67.4300537109375 C 62.61352920532227 68.12422943115234 61.4410514831543 68.16047668457031 60.30717849731445 68.19553375244141 C 59.42945098876953 68.22267150878906 58.52183151245117 68.250732421875 57.97568893432617 68.60608673095703 C 57.43431091308594 68.95844268798828 57.03514099121094 69.77877807617188 56.64910888671875 70.57212066650391 C 56.14728164672852 71.60343170166016 55.62836074829102 72.66986083984375 54.66896820068359 73.11377716064453 C 54.34611892700195 73.2628173828125 53.98585891723633 73.33518218994141 53.56719970703125 73.33518218994141 C 52.89934921264648 73.33518218994141 52.1852912902832 73.14659118652344 51.4947395324707 72.96421813964844 C 50.86138916015625 72.79695129394531 50.20647048950195 72.62399291992188 49.66016006469727 72.62399291992188 C 49.45946884155273 72.62399291992188 49.28639984130859 72.6463623046875 49.13105010986328 72.69239807128906 C 48.52132034301758 72.87306976318359 47.91247177124023 73.54142761230469 47.32366943359375 74.18778228759766 C 46.54935073852539 75.03778076171875 45.7486686706543 75.91671752929688 44.6939582824707 76.06793975830078 C 44.59183120727539 76.08270263671875 44.48561859130859 76.09024047851562 44.37886047363281 76.09024810791016 Z"/><path class="f" d="M 44.37878799438477 75.59024810791016 C 44.4605827331543 75.59024047851562 44.54216766357422 75.58468627929688 44.62300109863281 75.572998046875 C 46.28300094604492 75.33499908447266 47.41299819946289 72.68000030517578 48.98899841308594 72.21299743652344 C 50.30124664306641 71.82418823242188 52.12605285644531 72.83517456054688 53.56720352172852 72.83517456054688 C 53.88655090332031 72.83517456054688 54.18708801269531 72.78553009033203 54.45899963378906 72.66000366210938 C 55.9739990234375 71.95899963378906 56.31399917602539 69.09100341796875 57.70299911499023 68.18699645996094 C 59.09999847412109 67.27799987792969 61.82500076293945 68.1510009765625 63.07500076293945 67.05400085449219 C 64.3280029296875 65.95600128173828 63.85900115966797 63.10699844360352 64.94499969482422 61.84099960327148 C 66.02999877929688 60.57699966430664 68.88899993896484 60.64400100708008 69.78800201416016 59.23199844360352 C 70.68299865722656 57.82799911499023 69.44100189208984 55.22900009155273 70.13300323486328 53.69800186157227 C 70.81900024414062 52.18399810791016 73.58000183105469 51.43299865722656 74.05000305175781 49.81399917602539 C 74.51300048828125 48.22100067138672 72.59300231933594 46.08399963378906 72.82900238037109 44.40700149536133 C 73.05999755859375 42.77000045776367 75.5 41.26399993896484 75.5 39.5629997253418 C 75.5 37.86100006103516 73.05999755859375 36.35499954223633 72.82900238037109 34.71799850463867 C 72.59300231933594 33.04100036621094 74.51200103759766 30.90399932861328 74.05100250244141 29.3120002746582 C 73.58100128173828 27.69099998474121 70.81900024414062 26.94099998474121 70.13400268554688 25.42799949645996 C 69.44100189208984 23.89699935913086 70.68299865722656 21.29700088500977 69.78800201416016 19.89299964904785 C 68.88899993896484 18.48100090026855 66.03099822998047 18.54800033569336 64.94599914550781 17.28400039672852 C 63.85900115966797 16.01799964904785 64.32900238037109 13.16899967193604 63.07600021362305 12.06999969482422 C 61.82500076293945 10.97399997711182 59.09999847412109 11.84799957275391 57.70299911499023 10.9379997253418 C 56.31399917602539 10.03400039672852 55.9739990234375 7.164999961853027 54.45899963378906 6.465000152587891 C 53.15848541259766 5.864232063293457 51.20159912109375 7.00071382522583 49.65928268432617 7.00071382522583 C 49.42507171630859 7.00071382522583 49.20033264160156 6.974490165710449 48.98899841308594 6.912000179290771 C 47.41299819946289 6.445000171661377 46.28300094604492 3.789999961853027 44.62300109863281 3.551000118255615 C 43.00290679931641 3.317991495132446 41.18399429321289 5.541999816894531 39.5 5.541999816894531 C 37.81600189208984 5.541999816894531 35.99704360961914 3.317995309829712 34.37699890136719 3.551000118255615 C 32.71699905395508 3.789999961853027 31.58699989318848 6.445000171661377 30.01099967956543 6.912000179290771 C 28.69887924194336 7.299989223480225 26.87436103820801 6.289741992950439 25.43325996398926 6.289741992950439 C 25.11379051208496 6.289741992950439 24.8130054473877 6.339431285858154 24.54100036621094 6.465000152587891 C 23.02599906921387 7.164999961853027 22.68600082397461 10.03400039672852 21.29700088500977 10.9379997253418 C 19.89900016784668 11.84700012207031 17.17499923706055 10.97399997711182 15.92500019073486 12.06999969482422 C 14.67199993133545 13.16800022125244 15.14099979400635 16.01799964904785 14.05500030517578 17.28400039672852 C 12.97000026702881 18.54800033569336 10.11100006103516 18.48100090026855 9.211999893188477 19.89299964904785 C 8.317000389099121 21.29599952697754 9.559000015258789 23.89599990844727 8.866999626159668 25.42700004577637 C 8.180999755859375 26.94099998474121 5.420000076293945 27.69099998474121 4.949999809265137 29.31100082397461 C 4.486999988555908 30.90399932861328 6.407000064849854 33.04100036621094 6.171000003814697 34.71799850463867 C 5.940000057220459 36.35499954223633 3.5 37.86100006103516 3.5 39.5629997253418 C 3.5 41.26399993896484 5.940000057220459 42.77000045776367 6.171000003814697 44.40700149536133 C 6.407000064849854 46.08399963378906 4.486999988555908 48.22100067138672 4.948999881744385 49.8129997253418 C 5.419000148773193 51.43299865722656 8.180999755859375 52.18299865722656 8.866000175476074 53.69699859619141 C 9.559000015258789 55.22800064086914 8.317000389099121 57.82799911499023 9.211999893188477 59.23199844360352 C 10.11100006103516 60.64400100708008 12.9689998626709 60.57699966430664 14.05399990081787 61.84099960327148 C 15.14099979400635 63.10699844360352 14.67099952697754 65.95600128173828 15.92399978637695 67.05400085449219 C 17.17499923706055 68.15000152587891 19.89900016784668 67.27700042724609 21.29700088500977 68.18699645996094 C 22.68600082397461 69.08999633789062 23.02599906921387 71.95899963378906 24.54100036621094 72.66000366210938 C 25.84123039245605 73.26061248779297 27.79763031005859 72.12397766113281 29.33979034423828 72.12398529052734 C 29.5743522644043 72.12398529052734 29.79937362670898 72.15029144287109 30.01099967956543 72.21299743652344 C 31.58699989318848 72.68000030517578 32.71699905395508 75.33499908447266 34.37699890136719 75.572998046875 C 35.9970703125 75.80691528320312 37.81600189208984 73.58300018310547 39.5 73.58300018310547 C 41.09992218017578 73.58300018310547 42.82234954833984 75.59046936035156 44.37878799438477 75.59024810791016 M 44.37892913818359 76.59024810791016 C 44.37891006469727 76.59024810791016 44.37891006469727 76.59024810791016 44.37891006469727 76.59024810791016 C 43.32572937011719 76.59040069580078 42.3736686706543 76.0113525390625 41.45296096801758 75.45137023925781 C 40.75102996826172 75.02445220947266 40.02519989013672 74.58300018310547 39.5 74.58300018310547 C 38.97491073608398 74.58300018310547 38.24929046630859 75.02435302734375 37.54756164550781 75.45117950439453 C 36.62689971923828 76.01116943359375 35.67488861083984 76.59021759033203 34.62137985229492 76.59024810791016 C 34.49074935913086 76.59024810791016 34.36043167114258 76.58099365234375 34.23400115966797 76.56272125244141 C 33.00262069702148 76.38617706298828 32.10163116455078 75.39711761474609 31.30669975280762 74.52449798583984 C 30.76405906677246 73.92881774902344 30.20293998718262 73.31285858154297 29.72689056396484 73.17179107666016 C 29.61985015869141 73.14006805419922 29.48961067199707 73.12399291992188 29.33979034423828 73.12399291992188 C 28.85821914672852 73.12399291992188 28.26272010803223 73.28122711181641 27.63224029541016 73.44770050048828 C 26.91090965270996 73.63816070556641 26.16501998901367 73.83511352539062 25.43252944946289 73.83518218994141 C 24.93997001647949 73.83522796630859 24.51118087768555 73.74777221679688 24.12162971496582 73.56781005859375 C 23.00005912780762 73.04885864257812 22.41640090942383 71.84922790527344 21.90144920349121 70.79081726074219 C 21.54525947570801 70.05872344970703 21.17695045471191 69.30169677734375 20.75194931030273 69.02539825439453 C 20.32185935974121 68.74545288085938 19.48477935791016 68.71955108642578 18.67527008056641 68.69450378417969 C 17.51094055175781 68.65847015380859 16.19125938415527 68.61763763427734 15.26502990722656 67.80616760253906 C 14.34051036834717 66.99601745605469 14.11437034606934 65.68451690673828 13.91485023498535 64.52741241455078 C 13.7755298614502 63.71944046020508 13.63146018981934 62.88396072387695 13.29528999328613 62.492431640625 C 12.96243000030518 62.10466003417969 12.16849040985107 61.84366989135742 11.40069007873535 61.59128189086914 C 10.290940284729 61.22647857666016 9.033120155334473 60.8129997253418 8.368459701538086 59.76906967163086 C 7.709609985351562 58.73551940917969 7.856460094451904 57.41579055786133 7.986030101776123 56.25141906738281 C 8.077079772949219 55.43318939208984 8.171230316162109 54.58710861206055 7.95497989654541 54.10937118530273 C 7.745399951934814 53.64614868164062 7.058979988098145 53.17132949829102 6.39516019821167 52.71213912963867 C 5.429749965667725 52.04433822631836 4.335529804229736 51.28744125366211 3.988600015640259 50.09162902832031 C 3.648639917373657 48.92016983032227 4.157869815826416 47.70109939575195 4.607140064239502 46.62554168701172 C 4.925680160522461 45.86296081542969 5.255070209503174 45.07440948486328 5.180759906768799 44.54634857177734 C 5.110559940338135 44.04888153076172 4.587319850921631 43.40085983276367 4.081309795379639 42.7741813659668 C 3.340100049972534 41.85620880126953 2.5 40.81576156616211 2.5 39.5629997253418 C 2.5 38.30960845947266 3.340240001678467 37.26885986328125 4.081560134887695 36.35060882568359 C 4.58745002746582 35.72399139404297 5.110569953918457 35.07603073120117 5.18080997467041 34.57826995849609 C 5.255040168762207 34.05078887939453 4.925899982452393 33.26248931884766 4.607590198516846 32.50014877319336 C 4.158259868621826 31.42403030395508 3.648979902267456 30.20432090759277 3.989739894866943 29.03190040588379 C 4.336569786071777 27.83645057678223 5.430759906768799 27.07946968078613 6.396140098571777 26.41159057617188 C 7.059879779815674 25.95240020751953 7.746220111846924 25.47757911682129 7.956140041351318 25.01428985595703 C 8.171669960021973 24.53743934631348 8.077420234680176 23.69158935546875 7.986279964447021 22.87359046936035 C 7.856510162353516 21.70899963378906 7.70943021774292 20.3890209197998 8.368929862976074 19.35519027709961 C 9.033140182495117 18.31196975708008 10.291259765625 17.89850044250488 11.40128040313721 17.53371047973633 C 12.16928958892822 17.28130912780762 12.96345043182373 17.02032089233398 13.29621028900146 16.63265991210938 C 13.63181018829346 16.24143981933594 13.77593040466309 15.40594005584717 13.91530990600586 14.59794998168945 C 14.11501026153564 13.44027042388916 14.34134960174561 12.12812042236328 15.26593971252441 11.31791019439697 C 16.19174003601074 10.50617027282715 17.51173973083496 10.46549987792969 18.67635917663574 10.42961978912354 C 19.48559951782227 10.4046802520752 20.32238960266113 10.37889957427979 20.75189018249512 10.09963989257812 C 21.17666053771973 9.823180198669434 21.54496002197266 9.066169738769531 21.9011402130127 8.334079742431641 C 22.41621971130371 7.27538013458252 23.00001907348633 6.075419902801514 24.12155914306641 5.557219982147217 C 24.51152038574219 5.377190113067627 24.94049072265625 5.289740085601807 25.43325996398926 5.289740085601807 C 26.16613006591797 5.289740085601807 26.91217994689941 5.486690044403076 27.63367080688477 5.677159786224365 C 28.26395988464355 5.843550205230713 28.85930061340332 6.000710010528564 29.34075927734375 6.000710010528564 C 29.49037933349609 6.000710010528564 29.62047958374023 5.984670162200928 29.72743988037109 5.953050136566162 C 30.20303916931152 5.812119960784912 30.76424980163574 5.19596004486084 31.3069896697998 4.600080013275146 C 32.10173034667969 3.727540016174316 33.00249862670898 2.738579988479614 34.23448944091797 2.561209917068481 C 34.36056137084961 2.543070077896118 34.49032974243164 2.533890008926392 34.6203498840332 2.533890008926392 C 35.67409133911133 2.533890008926392 36.62628173828125 3.113199949264526 37.54711151123047 3.6734299659729 C 38.24898910522461 4.10044002532959 38.97475814819336 4.541999816894531 39.5 4.541999816894531 C 40.02518844604492 4.541999816894531 40.75099182128906 4.10044002532959 41.452880859375 3.6734299659729 C 42.37374114990234 3.113189935684204 43.32595062255859 2.533890008926392 44.3796501159668 2.533890008926392 C 44.50962066650391 2.533890008926392 44.63936996459961 2.543070077896118 44.76530838012695 2.561180114746094 C 45.99750137329102 2.738579988479614 46.89826965332031 3.727540016174316 47.69300842285156 4.600080013275146 C 48.23574829101562 5.19596004486084 48.79695892333984 5.812119960784912 49.27310943603516 5.95320987701416 C 49.37952041625977 5.984670162200928 49.50962829589844 6.000710010528564 49.65927886962891 6.000710010528564 C 50.14085006713867 6.000710010528564 50.73635101318359 5.843530178070068 51.3668098449707 5.677110195159912 C 52.08832931518555 5.486670017242432 52.83440017700195 5.289740085601807 53.56710815429688 5.289740085601807 C 54.05987930297852 5.289740085601807 54.48880004882812 5.377220153808594 54.87836837768555 5.557179927825928 C 55.99998092651367 6.075419902801514 56.58377838134766 7.27538013458252 57.09886169433594 8.334079742431641 C 57.45503997802734 9.066169738769531 57.82334136962891 9.823180198669434 58.24848175048828 10.09986972808838 C 58.67774963378906 10.37950038909912 59.51475143432617 10.40519046783447 60.32419967651367 10.43004035949707 C 61.48873901367188 10.46578025817871 62.80865859985352 10.50629043579102 63.73497009277344 11.31783008575439 C 64.65950775146484 12.12874031066895 64.88562774658203 13.44025039672852 65.08513641357422 14.59737014770508 C 65.22445678710938 15.40544033050537 65.36852264404297 16.24102020263672 65.7047119140625 16.63257026672363 C 66.03756713867188 17.02033996582031 66.83151245117188 17.28133010864258 67.59931182861328 17.53372001647949 C 68.70906066894531 17.89851951599121 69.96688079833984 18.3120002746582 70.63153839111328 19.35593032836914 C 71.29039001464844 20.38948059082031 71.14353942871094 21.70920944213867 71.01396942138672 22.87358093261719 C 70.92292022705078 23.69181060791016 70.82877349853516 24.53788948059082 71.04502105712891 25.0156307220459 C 71.25434112548828 25.47796058654785 71.94033050537109 25.95247077941895 72.60375213623047 26.41135025024414 C 73.56964874267578 27.07946014404297 74.66443634033203 27.83671951293945 75.01143646240234 29.03351974487305 C 75.35063934326172 30.20490074157715 74.84175872802734 31.42355918884277 74.39279174804688 32.49876022338867 C 74.07427215576172 33.26156997680664 73.74490356445312 34.05035018920898 73.81923675537109 34.57865142822266 C 73.88942718505859 35.07603073120117 74.41255187988281 35.72399139404297 74.91844177246094 36.35060882568359 C 75.65975952148438 37.26885986328125 76.5 38.30960845947266 76.5 39.5629997253418 C 76.5 40.81576156616211 75.65989685058594 41.85620880126953 74.91869354248047 42.7741813659668 C 74.41268157958984 43.40085983276367 73.88944244384766 44.04888153076172 73.81919097900391 44.54673004150391 C 73.74495697021484 45.07421112060547 74.0740966796875 45.86251068115234 74.39241027832031 46.62485122680664 C 74.84174346923828 47.70096969604492 75.35102081298828 48.92068099975586 75.01026153564453 50.09310150146484 C 74.66342163085938 51.28786849975586 73.56951904296875 52.04483032226562 72.60440063476562 52.71268081665039 C 71.94043731689453 53.1721305847168 71.25386810302734 53.6472282409668 71.04386138916016 54.11071014404297 C 70.82833862304688 54.58753967285156 70.92257690429688 55.43317031860352 71.01371002197266 56.25096893310547 C 71.14347839355469 57.41542053222656 71.29055786132812 58.73524856567383 70.63124084472656 59.76953887939453 C 69.96685791015625 60.81303024291992 68.708740234375 61.22650146484375 67.59871673583984 61.59128952026367 C 66.83071136474609 61.84368896484375 66.03655242919922 62.10467910766602 65.70378875732422 62.49234008789062 C 65.36817932128906 62.88357925415039 65.22406005859375 63.71884155273438 65.08467864990234 64.526611328125 C 64.88497924804688 65.68403625488281 64.65863037109375 66.99588775634766 63.73405838012695 67.80609130859375 C 62.80841064453125 68.61843872070312 61.48778915405273 68.65927124023438 60.3226318359375 68.69528961181641 C 59.51367950439453 68.72030639648438 58.67718887329102 68.74617004394531 58.24839019775391 69.02517700195312 C 57.82323837280273 69.3018798828125 57.45491027832031 70.058837890625 57.09870910644531 70.7908935546875 C 56.58372116088867 71.84925079345703 56.0000114440918 73.04882049560547 54.87892913818359 73.56755828857422 C 54.48860168457031 73.74775695800781 54.05978012084961 73.83518218994141 53.56719970703125 73.83518218994141 C 52.83443832397461 73.83518218994141 52.08848190307617 73.63816833496094 51.36706924438477 73.44764709472656 C 50.73683929443359 73.28119659423828 50.14155960083008 73.12399291992188 49.66016006469727 73.12399291992188 C 49.51036834716797 73.12399291992188 49.38014984130859 73.14006805419922 49.27312088012695 73.17179107666016 C 48.79705810546875 73.31285858154297 48.23593902587891 73.92881774902344 47.69329833984375 74.52449798583984 C 46.89836883544922 75.39711761474609 45.99737930297852 76.38617706298828 44.76491928100586 76.56288146972656 C 44.63971710205078 76.58097076416016 44.50948333740234 76.59022521972656 44.37892913818359 76.59024810791016 L 44.37892913818359 76.59024810791016 Z"/></g><path class="b" d="M57.2,20.011a28.959,28.959,0,0,0-54.394,0H1.71a30,30,0,0,1,56.58,0ZM2.8,39.989a28.959,28.959,0,0,0,54.394,0H58.29a30,30,0,0,1-56.58,0Z" transform="translate(505.29 2620)"/><path class="c" d="M32.009,8.212a16.544,16.544,0,0,0-26.018,0H3.84a18.1,18.1,0,0,1,30.32,0ZM5.283,27.839a16.573,16.573,0,0,0,27.434,0h2.011a18.082,18.082,0,0,1-31.456,0Z" transform="translate(516.728 2631)"/><path class="c" d="M3.224,25.849l-.411-.06a.581.581,0,0,1-.389-.287l-.183-.378c-.067-.135-.175-.135-.241,0l-.184.378a.581.581,0,0,1-.388.287l-.411.06c-.148.022-.181.126-.075.232l.3.294a.6.6,0,0,1,.148.464l-.07.415c-.025.15.063.214.194.144l.368-.2a.575.575,0,0,1,.48,0l.368.2c.132.07.22.006.194-.144l-.07-.415A.6.6,0,0,1,3,26.375l.3-.294C3.4,25.975,3.372,25.871,3.224,25.849Zm0-22.427-.411-.06a.581.581,0,0,1-.389-.287L2.241,2.7c-.067-.136-.175-.136-.241,0l-.184.378a.581.581,0,0,1-.388.287l-.411.06c-.148.022-.181.126-.075.232l.3.294a.6.6,0,0,1,.148.464l-.07.415c-.025.149.063.214.194.143l.368-.2a.575.575,0,0,1,.48,0l.368.2c.132.071.22.006.194-.143l-.07-.415A.6.6,0,0,1,3,3.948l.3-.294C3.4,3.548,3.372,3.444,3.224,3.422ZM14.981,25.849l-.411-.06a.581.581,0,0,1-.389-.287L14,25.124c-.066-.135-.174-.135-.24,0l-.184.378a.581.581,0,0,1-.389.287l-.41.06c-.148.022-.181.126-.075.232l.3.294a.6.6,0,0,1,.148.464l-.07.415c-.025.15.062.214.194.144l.368-.2a.575.575,0,0,1,.48,0l.368.2c.132.07.22.006.194-.144l-.07-.415a.6.6,0,0,1,.148-.464l.3-.294C15.162,25.975,15.128,25.871,14.981,25.849ZM13,3.948a.6.6,0,0,1,.148.464l-.07.415c-.025.149.062.214.194.143l.368-.2a.575.575,0,0,1,.48,0l.368.2c.132.071.22.006.194-.143l-.07-.415a.6.6,0,0,1,.148-.464l.3-.294c.107-.106.073-.21-.074-.232l-.411-.06a.581.581,0,0,1-.389-.287L14,2.7c-.066-.136-.174-.136-.24,0l-.184.378a.581.581,0,0,1-.389.287l-.41.06c-.148.022-.181.126-.075.232ZM9.561,1.974,8.98,1.888a.821.821,0,0,1-.551-.406L8.169.947c-.094-.192-.247-.192-.341,0l-.26.535a.819.819,0,0,1-.55.406l-.582.086c-.209.031-.257.179-.105.328l.421.417a.84.84,0,0,1,.21.656l-.1.588c-.036.212.088.3.275.2l.52-.277a.81.81,0,0,1,.681,0l.52.277c.187.1.311.009.276-.2l-.1-.588a.843.843,0,0,1,.21-.656L9.667,2.3C9.818,2.153,9.771,2.005,9.561,1.974Zm0,25.046-.581-.086a.821.821,0,0,1-.551-.406l-.26-.535c-.094-.192-.247-.192-.341,0l-.26.535a.819.819,0,0,1-.55.406l-.582.086c-.209.031-.257.179-.105.328l.421.417a.842.842,0,0,1,.21.657l-.1.587c-.036.212.088.3.275.2l.52-.277a.81.81,0,0,1,.681,0l.52.277c.187.1.311.009.276-.2l-.1-.587a.846.846,0,0,1,.21-.657l.422-.417C9.818,27.2,9.771,27.051,9.561,27.02Z" transform="translate(527.12 2634.197)"/><path class="c" d="M45.755,13.452a.618.618,0,0,1-.49.09l-2.087-.354-.4,2.306a.578.578,0,0,1-.234.4.592.592,0,0,1-.455.1.6.6,0,0,1-.405-.244.689.689,0,0,1-.1-.544l.513-2.958-1.41,1.018a.657.657,0,0,1-.506.138.687.687,0,0,1-.44-.3.62.62,0,0,1,.15-.935l3.2-2.308a.624.624,0,0,1,.932.154.68.68,0,0,1,.147.511.643.643,0,0,1-.283.432l-1.314.949,2.906.454a.585.585,0,0,1,.521.686A.573.573,0,0,1,45.755,13.452ZM41.712,9.3a.388.388,0,0,1-.339-.09.574.574,0,0,1-.127-.157,1.225,1.225,0,0,1-.083-.217,2.087,2.087,0,0,0-.215-.488,1.715,1.715,0,0,0-.308-.363,1.189,1.189,0,0,0-.992-.355,1.878,1.878,0,0,0-1.038.679,1.876,1.876,0,0,0-.563,1.11,1.179,1.179,0,0,0,.466.943,1.327,1.327,0,0,0,.366.232c.134.057.314.12.541.191.113.028.194.051.244.069a.479.479,0,0,1,.152.1.392.392,0,0,1,.128.326.591.591,0,0,1-.161.374.506.506,0,0,1-.481.184,2.807,2.807,0,0,1-1.556-.725,2.779,2.779,0,0,1-.8-1.15,2.23,2.23,0,0,1-.058-1.3,2.968,2.968,0,0,1,.7-1.266,2.963,2.963,0,0,1,1.177-.836,2.246,2.246,0,0,1,1.3-.089A3.011,3.011,0,0,1,42.195,8.6a.489.489,0,0,1-.129.5A.59.59,0,0,1,41.712,9.3ZM39.7,39.907l-1.673,1.622,1,1.064,1.319-1.278.514.549-1.318,1.278,1.017,1.085L42.228,42.6l.535.571-2.382,2.308-3.6-3.837,2.381-2.308Zm-2.3,7.76-.828.515-2.3-3.832-1.345.835-.415-.691,3.512-2.182L36.44,43l-1.339.832ZM36.084,8.738a.528.528,0,0,1-.37.268.667.667,0,0,1-.473-.066.575.575,0,0,1-.229-.227.6.6,0,0,1-.066-.338l.068-.811L32.92,6.417l-.656.488a.6.6,0,0,1-.325.124.587.587,0,0,1-.318-.073.692.692,0,0,1-.316-.366.516.516,0,0,1,.022-.459.633.633,0,0,1,.189-.207l3.632-2.559a.678.678,0,0,1,.4-.131.854.854,0,0,1,.727.4.675.675,0,0,1,.1.406l-.218,4.43A.635.635,0,0,1,36.084,8.738ZM33.811,5.746l1.292.709.146-1.792ZM31.579,3.557a1.22,1.22,0,0,1-.695.269A1.246,1.246,0,0,1,31.452,5.3a1.271,1.271,0,0,1-.418.66,1.466,1.466,0,0,1-.751.307,2.51,2.51,0,0,1-.989-.091L27.4,5.655a.628.628,0,0,1-.4-.28.627.627,0,0,1-.032-.49l1.058-3.792a.623.623,0,0,1,.281-.4A.629.629,0,0,1,28.8.658l1.819.5a2.109,2.109,0,0,1,1.156.7,1.164,1.164,0,0,1,.2,1.075A1.2,1.2,0,0,1,31.579,3.557Zm-2.936.235-.3,1.063,1.059.294A.994.994,0,0,0,30,5.18a.5.5,0,0,0,.281-.362.49.49,0,0,0-.053-.453.992.992,0,0,0-.524-.279Zm1.984-1.435a.98.98,0,0,0-.506-.27l-.931-.258-.273.978.931.258a1.031,1.031,0,0,0,.572.036.416.416,0,0,0,.271-.314A.45.45,0,0,0,30.627,2.357ZM25.7,51.746a.355.355,0,0,1-.123-.154l-.428-1.067-2.159.082-.35,1.1a.341.341,0,0,1-.108.158.314.314,0,0,1-.2.078l-.753.028,1.857-5.375.991-.038,2.237,5.222-.75.028A.321.321,0,0,1,25.7,51.746ZM24.18,48.1q-.048-.115-.1-.273c-.039-.1-.077-.219-.116-.342-.029.125-.058.243-.086.351s-.057.2-.086.286L23.216,49.9l1.661-.063Zm-1-45.27.038,1.794a.644.644,0,0,1-.178.5.685.685,0,0,1-.479.183.709.709,0,0,1-.5-.163.631.631,0,0,1-.2-.492l-.038-1.795L20.252,1.1a.608.608,0,0,1-.178-.408.57.57,0,0,1,.183-.431.611.611,0,0,1,.431-.193.579.579,0,0,1,.454.211L22.48,1.8,23.753.227A.579.579,0,0,1,24.2,0a.622.622,0,0,1,.443.178.585.585,0,0,1,.2.427.616.616,0,0,1-.154.408Zm-3.62,1.6q.627-.135.74.383a.466.466,0,0,1-.078.408.741.741,0,0,1-.44.23l-2.494.539a.636.636,0,0,1-.489-.06.627.627,0,0,1-.257-.419l-.835-3.847a.627.627,0,0,1,.061-.487.624.624,0,0,1,.419-.256l2.5-.539a.744.744,0,0,1,.5.028.465.465,0,0,1,.24.34q.112.518-.515.653l-1.816.392.209.964,1.672-.361c.418-.091.664.035.738.375a.466.466,0,0,1-.077.408.747.747,0,0,1-.441.231l-1.672.361.228,1.05ZM15.869,6.193a.6.6,0,0,1-.339.356.593.593,0,0,1-.548.007l-3.2-1.61.973,2.129a.69.69,0,0,1,.047.512.59.59,0,0,1-.339.356.6.6,0,0,1-.493.022.671.671,0,0,1-.363-.368L9.971,4.015a.655.655,0,0,1-.038-.508.66.66,0,0,1,.881-.36l3.2,1.6-.972-2.129a.664.664,0,0,1-.043-.51.6.6,0,0,1,.338-.352.619.619,0,0,1,.5-.023.653.653,0,0,1,.363.36l1.636,3.582A.666.666,0,0,1,15.869,6.193ZM10.347,8.93a2.75,2.75,0,0,1-.869,1.112,2.784,2.784,0,0,1-1.285.606,2.233,2.233,0,0,1-1.286-.161,2.986,2.986,0,0,1-1.13-.9,2.968,2.968,0,0,1-.634-1.3A2.2,2.2,0,0,1,5.27,7a2.8,2.8,0,0,1,.877-1.114A2.818,2.818,0,0,1,7.43,5.28a2.2,2.2,0,0,1,1.281.16,3.022,3.022,0,0,1,1.127.9,2.968,2.968,0,0,1,.634,1.3A2.219,2.219,0,0,1,10.347,8.93ZM8.79,7.181a1.885,1.885,0,0,0-1.018-.733A1.122,1.122,0,0,0,6.8,6.7a1.117,1.117,0,0,0-.464.893,1.888,1.888,0,0,0,.5,1.152,1.915,1.915,0,0,0,1.02.741,1.12,1.12,0,0,0,.978-.253,1.107,1.107,0,0,0,.459-.9A1.906,1.906,0,0,0,8.79,7.181ZM6.872,12.023a.639.639,0,0,1-.507.683.588.588,0,0,1-.454-.129L4.167,11.292l.746,1.592a.95.95,0,0,1,.112.412.556.556,0,0,1-.117.326.566.566,0,0,1-.277.207.953.953,0,0,1-.428.014L2.5,13.62l1.709,1.259a.592.592,0,0,1,.254.393.639.639,0,0,1-.505.689.6.6,0,0,1-.455-.129L.273,13.453A.651.651,0,0,1,0,13.024a.617.617,0,0,1,.126-.479.615.615,0,0,1,.306-.222A.882.882,0,0,1,.853,12.3l2.859.423-1.25-2.6a.686.686,0,0,1,.012-.759.607.607,0,0,1,.42-.258.667.667,0,0,1,.491.142L6.612,11.63A.6.6,0,0,1,6.872,12.023ZM1.178,37.406a2.9,2.9,0,0,1,.772-.782,2.934,2.934,0,0,1,1-.46,2.339,2.339,0,0,1,1.937.369,3.113,3.113,0,0,1,.8.831A3,3,0,0,1,6.15,38.4a2.639,2.639,0,0,1,.042.947l-.522.018a.25.25,0,0,1-.234-.108.333.333,0,0,1-.053-.181c-.006-.091-.012-.183-.02-.277a1.713,1.713,0,0,0-.053-.293,2.2,2.2,0,0,0-.117-.322,2.472,2.472,0,0,0-.211-.371,1.8,1.8,0,0,0-.5-.51,1.449,1.449,0,0,0-.607-.232,1.625,1.625,0,0,0-.67.05,2.239,2.239,0,0,0-.692.336,2.376,2.376,0,0,0-.59.567,1.723,1.723,0,0,0-.29.638,1.574,1.574,0,0,0,0,.666,1.851,1.851,0,0,0,.282.648,2.494,2.494,0,0,0,.372.445,2.432,2.432,0,0,0,.4.294l.782-.546L3.1,39.621a.21.21,0,0,1-.041-.154.18.18,0,0,1,.075-.119l.452-.315.981,1.453L2.824,41.7a2.785,2.785,0,0,1-.44-.2,2.611,2.611,0,0,1-.4-.284,3.457,3.457,0,0,1-.38-.377,5.092,5.092,0,0,1-.366-.482,2.794,2.794,0,0,1-.43-.994,2.537,2.537,0,0,1,.373-1.956Zm4.337,4.932,2.033-2.411.737.642L6.254,42.977a1.751,1.751,0,0,0-.291.472,1.224,1.224,0,0,0-.092.473,1.055,1.055,0,0,0,.11.451,1.31,1.31,0,0,0,.321.4,1.291,1.291,0,0,0,.443.261,1.05,1.05,0,0,0,.456.045,1.141,1.141,0,0,0,.446-.163,1.711,1.711,0,0,0,.413-.364l2.033-2.411.737.641L8.8,45.2a2.409,2.409,0,0,1-.673.565,1.887,1.887,0,0,1-1.579.135,2.384,2.384,0,0,1-.789-.472,2.428,2.428,0,0,1-.579-.72,1.969,1.969,0,0,1-.225-.8,2.013,2.013,0,0,1,.118-.81A2.456,2.456,0,0,1,5.515,42.338Zm8.6,2.245-.47,5.677-.672-.337a.328.328,0,0,1-.158-.151.37.37,0,0,1-.036-.2l.121-1.145-1.937-.97-.82.8a.33.33,0,0,1-.169.088.314.314,0,0,1-.216-.031l-.676-.338,4.143-3.837Zm-1.293,1.074-1.333,1.291,1.491.746.2-1.867c.008-.083.02-.18.035-.291s.034-.23.058-.357c-.084.1-.164.186-.24.268S12.882,45.6,12.818,45.657Zm5.631.414a3.263,3.263,0,0,1,.871.3,1.775,1.775,0,0,1,.547.438,1.223,1.223,0,0,1,.25.547,1.634,1.634,0,0,1-.015.629,1.612,1.612,0,0,1-.179.478,1.441,1.441,0,0,1-.307.376,1.462,1.462,0,0,1-.422.258,1.851,1.851,0,0,1-.526.127.985.985,0,0,1,.248.364l.878,2.191L18.94,51.6a.421.421,0,0,1-.2-.1.439.439,0,0,1-.117-.176L17.9,49.434a.4.4,0,0,0-.1-.161.469.469,0,0,0-.206-.085l-.4-.087-.423,2.026-.949-.2,1.083-5.187Zm-.529,2.465a1.482,1.482,0,0,0,.481.032.912.912,0,0,0,.368-.118.77.77,0,0,0,.251-.244,1.015,1.015,0,0,0,.14-.349.765.765,0,0,0-.129-.661,1.249,1.249,0,0,0-.738-.379l-.606-.131-.36,1.722Zm10.068-2.449a.247.247,0,0,1,.081,0,.266.266,0,0,1,.077.025.907.907,0,0,1,.093.057l3.65,2.555c-.034-.078-.065-.156-.092-.233s-.052-.15-.072-.218l-.943-3.076.816-.259L33.148,50l-.478.152a.443.443,0,0,1-.193.023.422.422,0,0,1-.18-.081l-3.635-2.545c.029.073.057.145.083.218s.049.138.067.2l.952,3.108-.816.259L27.4,46.269l.485-.154C27.925,46.1,27.96,46.093,27.988,46.087ZM41.8,35.618l.636.442L41.131,38l1.193.83L43.352,37.3l.617.428L42.94,39.259l1.216.846,1.306-1.94.64.445-1.858,2.76-4.3-2.992Z" transform="translate(512.013 2624.003)"/><path class="d" d="M5.32-6.669A3.351,3.351,0,0,0,6.9-9.557a2.907,2.907,0,0,0-3.04-3.059,4.313,4.313,0,0,0-3.249,1.71L1.9-9.215a1.807,1.807,0,0,1,1.425-.969,1.03,1.03,0,0,1,.969,1.159A1.53,1.53,0,0,1,2.812-7.372h-.3v1.786h.551A1.582,1.582,0,0,1,4.731-3.8,1.5,1.5,0,0,1,3.42-2.166c-.551,0-.95-.247-1.406-.969L.323-1.653A3.6,3.6,0,0,0,3.61.228,3.633,3.633,0,0,0,7.334-3.648,2.984,2.984,0,0,0,5.32-6.669Zm7.372,6.9C15.01.228,16.226-2,16.226-6.213c0-4.18-1.216-6.4-3.534-6.4-2.375,0-3.61,2.223-3.61,6.4C9.082-2,10.317.228,12.692.228Zm0-2.47c-.608,0-.931-1.368-.931-3.971,0-2.584.323-3.952.931-3.952.532,0,.855,1.368.855,3.952C13.547-3.61,13.224-2.242,12.692-2.242Zm9.2-10.849V0H25.8c2.869,0,4.522-2.831,4.522-6.517,0-3.705-1.653-6.574-4.522-6.574ZM24.7-2.47v-8.151h1.1c1.14,0,1.672,1.995,1.672,4.1,0,2.09-.532,4.047-1.672,4.047ZM41.1,0,37.544-13.091H34.466L30.875,0h3.04l.646-3.078h2.907L38.133,0ZM35.986-9.785l.931,4.256H35.093Zm9.291,1.406-1.919-4.712H40.014L43.89-5.928V0h2.831V-5.871l3.876-7.22H47.253ZM54.967.228c2.489,0,3.914-1.482,3.914-3.686,0-1.8-.95-3.04-2.964-4.2l-.874-.494A1.772,1.772,0,0,1,53.96-9.766c0-.551.228-1.083.779-1.083s.893.513.893,1.672h2.907c0-2.717-1.292-4.142-3.648-4.142a3.43,3.43,0,0,0-3.762,3.591c0,1.957,1.2,3.135,2.7,4.009l1.064.627A1.881,1.881,0,0,1,56.05-3.42c0,.665-.3,1.216-.988,1.216C54.359-2.2,54-2.755,54-3.952H51.072C51.072-1.273,52.44.228,54.967.228Z" transform="translate(506 2656)"/></g></svg>