<svg xmlns="http://www.w3.org/2000/svg" width="34.526" height="32.292" viewBox="0 0 34.526 32.292"><defs><style>.a{fill:#ef75ff;}</style></defs><path class="a" d="M10.308,31.148a6.55,6.55,0,0,1,1.213-2.671l.214-.366c.3-.511.7-1.172,1.128-1.865.638-1.038,1.322-2.149,1.623-2.721,1.548-2.665,1.911-3.289,2.813-3.289s1.645.927,2.765,2.44c.014.019.188.256.2.276.135.214.615.907,1.148,1.678.6.867,1.266,1.83,1.608,2.349.863,1.33,1.2,1.865,1.2,2.413A1.2,1.2,0,0,1,23,30.607a1.813,1.813,0,0,1-1.4-.861c-.291-.341-1.43-1.959-2.213-3.075l-.665-.945c-.495-.7-.9-1.22-1.193-1.566l-.013.021-.192.3c-.548.88-2.512,4.009-3.046,4.785l-.324.482C12.73,31.6,12.2,32.292,11.428,32.292A1.264,1.264,0,0,1,10.308,31.148ZM0,27.088c0-1.35.929-3.137,3.011-6.631l.532-.908c.735-1.27,1.743-2.911,2.8-4.63,1.584-2.577,3.282-5.334,4.028-6.755C14.214,1.55,15.115,0,17.353,0c2.266,0,4.084,2.3,6.863,6.057.035.048.468.636.5.686.336.532,1.527,2.25,2.851,4.164,1.489,2.152,3.143,4.542,3.992,5.832,2.142,3.3,2.967,4.628,2.967,5.991a2.986,2.986,0,0,1-3.019,3.018c-1.59,0-2.554-1.01-3.482-2.136-.721-.848-3.548-4.864-5.491-7.634l-1.653-2.346c-1.227-1.748-2.229-3.026-2.959-3.886L17.89,9.8l-.479.753c-1.358,2.186-6.235,9.952-7.56,11.878l-.8,1.2c-3.036,4.573-4.364,6.3-6.268,6.3A3.138,3.138,0,0,1,0,27.088Z"/></svg>