<svg xmlns="http://www.w3.org/2000/svg" xmlns:xlink="http://www.w3.org/1999/xlink" width="1920" height="830" viewBox="0 0 1920 830"><defs><style>.a,.d{fill:#fff;}.a{stroke:#707070;}.b{clip-path:url(#a);}.c{fill:url(#b);}.e{fill:url(#c);}.f,.g,.h,.i{fill:none;stroke:#0054ff;}.f{opacity:0.416;}.g{opacity:0.093;}.h{opacity:0.301;}.i{opacity:0.154;}</style><clipPath id="a"><rect class="a" width="1920" height="830" transform="translate(3979)"/></clipPath><linearGradient id="b" x1="0.5" x2="0.5" y2="1" gradientUnits="objectBoundingBox"><stop offset="0" stop-color="#f7f7ff"/><stop offset="1" stop-color="#e8e7ff"/></linearGradient><linearGradient id="c" x1="0.5" x2="0.5" y2="1" gradientUnits="objectBoundingBox"><stop offset="0" stop-color="#e9e8ff"/><stop offset="1" stop-color="#dbd9ff"/></linearGradient></defs><g class="b" transform="translate(-3979)"><g data-type="innerShadowGroup"><rect class="c" width="1920" height="830" transform="translate(3979)"/><rect class="d" width="1920" height="830" transform="translate(3979)"/></g><rect class="e" width="1920" height="88" transform="translate(3979 742)"/><g transform="translate(5042.498 2917.801) rotate(-155)"><path class="f" d="M40.619,290.357c67.855-69.505,82.162-228.944,205.636-279.97S352.574,116.615,546.307,46.639s361.351,59.109,173.872,260.527-254.157-49.616-348.063-9.911-50.282,151.219-222.292,160S-27.235,359.862,40.619,290.357Z" transform="matrix(0.966, -0.259, 0.259, 0.966, 501.72, 2596.858)"/><path class="g" d="M49.035,350.515C130.948,266.609,148.22,74.137,297.275,12.539S425.623,140.776,659.493,56.3s436.218,71.355,209.9,314.5-306.815-59.9-420.176-11.965-60.7,182.55-268.347,193.144S-32.878,434.42,49.035,350.515Z" transform="matrix(0.966, -0.259, 0.259, 0.966, 567.345, 2485.43)"/><path class="h" d="M34.31,245.26c57.316-58.71,69.4-193.386,173.7-236.486S297.814,98.5,461.456,39.4,766.683,89.324,608.323,259.458s-214.683-41.91-294-8.372S271.848,378.819,126.554,386.232-23.005,303.969,34.31,245.26Z" transform="matrix(0.966, -0.259, 0.259, 0.966, 531.122, 2633.708)"/><path class="i" d="M29.991,214.387c50.1-51.32,60.665-169.042,151.832-206.717s78.5,78.434,221.544,26.767S670.173,78.08,531.748,226.8s-187.658-36.634-256.994-7.318-37.126,111.653-164.13,118.133S-20.109,265.706,29.991,214.387Z" transform="matrix(0.966, -0.259, 0.259, 0.966, 554.601, 2666.128)"/></g></g></svg>