<svg xmlns="http://www.w3.org/2000/svg" xmlns:xlink="http://www.w3.org/1999/xlink" width="77.316" height="77.316" viewBox="0 0 77.316 77.316"><defs><style>.a,.b{fill:url(#a);}.b{opacity:0.503;}.c{fill:rgba(255,255,255,0.57);stroke:#fff;stroke-width:0.5px;}.d{fill:#fff;}.e{stroke:none;}.f{fill:none;}.g{filter:url(#e);}.h{filter:url(#c);}</style><linearGradient id="a" x1="0.065" y1="0.083" x2="0.931" y2="0.91" gradientUnits="objectBoundingBox"><stop offset="0" stop-color="#c37cff"/><stop offset="1" stop-color="#ff6464"/></linearGradient><filter id="c" x="16.336" y="18.892" width="32.644" height="33.531" filterUnits="userSpaceOnUse"><feOffset dy="3" input="SourceAlpha"/><feGaussianBlur stdDeviation="3" result="d"/><feFlood flood-color="#d375d1"/><feComposite operator="in" in2="d"/><feComposite in="SourceGraphic"/></filter><filter id="e" x="20.773" y="25.549" width="23.769" height="23.769" filterUnits="userSpaceOnUse"><feOffset dy="3" input="SourceAlpha"/><feGaussianBlur stdDeviation="3" result="f"/><feFlood flood-color="#d375d1"/><feComposite operator="in" in2="f"/><feComposite in="SourceGraphic"/></filter></defs><g transform="translate(-676.842 -1195.842)"><rect class="a" width="27" height="43" rx="7" transform="translate(685 1207)"/><rect class="b" width="39" height="39" rx="14" transform="translate(696 1215)"/><g class="c" transform="translate(694 1213)"><rect class="e" width="31" height="31" rx="9"/><rect class="f" x="0.25" y="0.25" width="30.5" height="30.5" rx="8.75"/></g><g transform="translate(701.678 1220.734)"><g transform="translate(0.5 0)"><g transform="translate(0 0)"><g transform="translate(0 0)"><g transform="translate(0 0)"><g class="h" transform="matrix(1, 0, 0, 1, -25.34, -24.89)"><path class="d" d="M7.436,0A2.944,2.944,0,0,0,4.483,2.835H.753a.747.747,0,1,0,0,1.493h.831v8.353a2.656,2.656,0,0,0,2.4,2.85h6.756a2.653,2.653,0,0,0,2.4-2.85V4.333h.753a.747.747,0,1,0,0-1.493H10.385A2.935,2.935,0,0,0,7.436,0ZM5.894,2.835a1.545,1.545,0,0,1,3.081,0Zm-1.914,11.3c-.47,0-.987-.6-.987-1.454V4.333h8.73v8.356c0,.854-.517,1.454-.987,1.454H3.981Z" transform="translate(25.34 24.89)"/></g><g class="g" transform="matrix(1, 0, 0, 1, -25.34, -24.89)"><path class="d" d="M4.854,12.132a.69.69,0,0,0,.612-.749V7.112a.689.689,0,0,0-.612-.749.69.69,0,0,0-.612.749v4.271A.687.687,0,0,0,4.854,12.132Zm2.215,0a.69.69,0,0,0,.612-.749V7.112a.689.689,0,0,0-.612-.749.69.69,0,0,0-.612.749v4.271a.692.692,0,0,0,.612.749Zm2.33,0a.69.69,0,0,0,.612-.749V7.112A.689.689,0,0,0,9.4,6.364a.69.69,0,0,0-.612.749v4.271A.685.685,0,0,0,9.4,12.132Z" transform="translate(25.53 25.18)"/></g></g></g></g></g></g></g></svg>