<svg xmlns="http://www.w3.org/2000/svg" width="60.529" height="20" viewBox="0 0 60.529 20"><defs><style>.a{fill:#1264fc;fill-rule:evenodd;}</style></defs><path class="a" d="M18.954.007A9.976,9.976,0,1,0,28.971,9.984,10,10,0,0,0,18.954.007Zm0,16.619a6.643,6.643,0,1,1,6.671-6.642A6.656,6.656,0,0,1,18.954,16.626ZM0,3.333H2.147v13.3H0v3.325H7.632V16.634H5.485V3.333H7.632V.007H0V3.333ZM38,5.614a7.23,7.23,0,0,0-3.646.924V.007H31.01v13.6c0,3.926,3.438,6.4,7.116,6.4a7.109,7.109,0,0,0,7.064-7.2A7.214,7.214,0,0,0,38,5.614Zm.1,10.963a3.767,3.767,0,1,1,3.73-3.767A3.749,3.749,0,0,1,38.106,16.577ZM60.529,8.8V5.462H58.387V2.5H55.041V5.462H52.9V8.8h2.142v7.987c0,2.613,1.68,3.184,3.254,3.184h2.232V16.634H58.387V8.8h2.142ZM47.384,3.34H50.73V.007H47.384Zm0,16.627H50.73V5.462H47.384Z" transform="translate(0 -0.007)"/></svg>