<svg xmlns="http://www.w3.org/2000/svg" xmlns:xlink="http://www.w3.org/1999/xlink" width="267.359" height="379.398" viewBox="0 0 267.359 379.398"><defs><style>.a,.b{fill:none;}.b{clip-rule:evenodd;}.c{isolation:isolate;}.d{clip-path:url(#a);}.e{clip-path:url(#b);}.f{clip-path:url(#c);}.g{fill:#81d0c7;}.h{clip-path:url(#d);}.i{fill:#e7782e;}.j{clip-path:url(#f);}.k{fill:#cd8bee;}.l{fill-rule:evenodd;fill:url(#h);}.m{fill:url(#i);}.n{fill:url(#l);}.o{filter:url(#m);}.p{filter:url(#j);}</style><clipPath id="a"><rect class="a" width="39" height="96" transform="translate(0 0.176)"/></clipPath><clipPath id="b"><path class="b" d="M.55-5.328,9.858,8.758,17.471-5.328l-4.844-4.728Z" transform="translate(-0.55 10.056)"/></clipPath><clipPath id="c"><path class="a" d="M0,76.843H39.928V-11H0Z" transform="translate(0 11)"/></clipPath><clipPath id="d"><path class="b" d="M8.156-1.97,10.07,4.157,1.609,14.387V4.157Z" transform="translate(-1.609 1.97)"/></clipPath><clipPath id="f"><path class="b" d="M3.8-3.614l6.63,11.851,2.641-6.282-2.641-5.57Z" transform="translate(-3.797 3.614)"/></clipPath><linearGradient id="h" x1="0.953" y1="0.143" x2="0.389" y2="1" gradientUnits="objectBoundingBox"><stop offset="0" stop-color="#8362ff"/><stop offset="1" stop-color="#d679ff"/></linearGradient><linearGradient id="i" x1="0.741" y1="1.097" x2="0" y2="0.155" gradientUnits="objectBoundingBox"><stop offset="0" stop-color="#fc79a6"/><stop offset="1" stop-color="#8753fd"/></linearGradient><filter id="j" x="139.359" y="225.072" width="96" height="96" filterUnits="userSpaceOnUse"><feOffset dx="13" dy="18" input="SourceAlpha"/><feGaussianBlur stdDeviation="10" result="k"/><feFlood flood-color="#9366fc" flood-opacity="0.231"/><feComposite operator="in" in2="k"/><feComposite in="SourceGraphic"/></filter><linearGradient id="l" x1="0.191" y1="0.058" x2="0.907" y2="1" gradientUnits="objectBoundingBox"><stop offset="0" stop-color="#3e61f4"/><stop offset="1" stop-color="#8ebeff"/></linearGradient><filter id="m" x="199.359" y="265.072" width="68" height="68" filterUnits="userSpaceOnUse"><feOffset dx="12" dy="8" input="SourceAlpha"/><feGaussianBlur stdDeviation="8" result="n"/><feFlood flood-color="#5379f7" flood-opacity="0.149"/><feComposite operator="in" in2="n"/><feComposite in="SourceGraphic"/></filter></defs><g transform="translate(-1392.641 -308.928)"><g transform="translate(952.305 411.119)"><g transform="translate(-43 -14)"><g class="c" transform="translate(546.12 -58.318) rotate(-50)"><g class="d" transform="translate(0.047 -0.118)"><g class="e" transform="translate(4.313 7.729)"><g class="f" transform="translate(-4.39 -7.538)"><path class="g" d="M-.45-11.056H32.443V23.729H-.45Z" transform="translate(-3.145 10.608)"/></g></g><g class="h" transform="translate(12.774 72.299)"><g class="f" transform="translate(-12.851 -72.108)"><path class="i" d="M.609-2.97H25.041V29.359H.609Z" transform="translate(4.256 67.093)"/></g></g><g class="j" transform="translate(30.241 59.174)"><g class="f" transform="translate(-30.318 -58.982)"><path class="k" d="M2.8-4.614H28.039V23.209H2.8Z" transform="translate(19.536 55.611)"/></g></g></g></g></g></g><g transform="translate(1392.406 628.143)"><path class="l" d="M173.541-33a19.025,19.025,0,0,1,19.014,18.371l.011.654c1.058,28.155-27.933,48.086-54.358,59.793q-11.579,5.13-28.168,7.263l-2.582.31q-9.14,1.024-19.732,1.179L84.67,54.6h-1.55l-3.145-.027q-3.175-.044-6.468-.16l-3.323-.133q-.838-.038-1.684-.08l-3.412-.186-3.471-.222-3.53-.257q-.89-.069-1.787-.142l-3.619-.31q-.912-.082-1.832-.168l-3.708-.364-3.767-.4q-.949-.1-1.906-.213l-3.856-.452L33.695,51l-3.975-.523-4.034-.559-4.094-.594-4.153-.63-4.212-.665q-1.06-.171-2.128-.346l-4.3-.718-4.36-.754q-1.1-.193-2.2-.39C91.3,50.094,153.591,30.6,154.5-12.657l.025-1.972A19.025,19.025,0,0,1,173.541-33Z" transform="translate(0 5.584)"/></g><g class="p" transform="matrix(1, 0, 0, 1, 1392.64, 308.93)"><circle class="m" cx="18" cy="18" r="18" transform="translate(156.36 237.07)"/></g><g class="o" transform="matrix(1, 0, 0, 1, 1392.64, 308.93)"><circle class="n" cx="10" cy="10" r="10" transform="translate(211.36 281.07)"/></g></g></svg>