<svg xmlns="http://www.w3.org/2000/svg" width="74" height="64" viewBox="0 0 74 64"><defs><style>.a{fill:rgba(135,103,252,0.13);}.b{fill:#8767fc;}</style></defs><g transform="translate(-791 -880)"><path class="a" d="M28.343,14.975a10,10,0,0,1,17.315,0l19.668,34.02A10,10,0,0,1,56.668,64H17.332A10,10,0,0,1,8.675,48.995Z" transform="translate(791 880)"/><path class="b" d="M137.7,163.872V146.444a1.552,1.552,0,0,1,.731-1.3c4.022-2.438,11.172-8.572,11.172-13.772,0-.244-.284-3.372,2.072-3.372,0,0,6.013,1.422,2.275,16.25h10.563a2.222,2.222,0,0,1,2.4,2.478s.122,3.372-3.413,16.494c0,0-1.1,3.778-2.478,3.778,0,0-17.266-1.625-21.9-1.625A1.485,1.485,0,0,1,137.7,163.872Zm-8.816,1.747,4.875-.2a.826.826,0,0,0,.691-.812v-18a.826.826,0,0,0-.691-.812l-4.875-.162a.8.8,0,0,0-.934.813v18.363A.77.77,0,0,0,128.886,165.619Z" transform="translate(691.197 774)"/></g></svg>