<svg xmlns="http://www.w3.org/2000/svg" width="74" height="64" viewBox="0 0 74 64"><defs><style>.a{fill:rgba(135,103,252,0.13);}.b{fill:#8767fc;}</style></defs><g transform="translate(-1361 -880)"><path class="a" d="M28.343,14.975a10,10,0,0,1,17.315,0l19.668,34.02A10,10,0,0,1,56.668,64H17.332A10,10,0,0,1,8.675,48.995Z" transform="translate(1361 880)"/><path class="b" d="M99.383,3.162V22.268a7.846,7.846,0,0,1-.815,3.418,16.14,16.14,0,0,1-2.135,3.3,23.68,23.68,0,0,1-3.016,3.024,32.78,32.78,0,0,1-3.439,2.543,26.286,26.286,0,0,1-3.39,1.857A15.433,15.433,0,0,1,83.7,37.422l-.391.068-.359-.068A15.911,15.911,0,0,1,80,36.408a28.525,28.525,0,0,1-3.488-1.857,32.778,32.778,0,0,1-3.553-2.543,24.6,24.6,0,0,1-3.113-3.024,16.067,16.067,0,0,1-2.215-3.3,7.567,7.567,0,0,1-.849-3.418V3.162l1.337-.207L83.115,0,98.4,2.955l.978.207Zm-16.263-.4-.181-.037L70.069,5.035V17.089H83.12V2.766ZM96.1,17.089H83.12V34.247a17.779,17.779,0,0,0,2.724-.926,24.182,24.182,0,0,0,2.9-1.474,25.922,25.922,0,0,0,2.761-1.889,16.5,16.5,0,0,0,2.349-2.231,11.049,11.049,0,0,0,1.63-2.474,6.011,6.011,0,0,0,.61-2.608V17.089Z" transform="translate(1327.397 904.51)"/></g></svg>