<svg xmlns="http://www.w3.org/2000/svg" width="74" height="64" viewBox="0 0 74 64"><defs><style>.a{fill:rgba(135,103,252,0.13);}.b{fill:#8767fc;}</style></defs><g transform="translate(-344 -880)"><path class="a" d="M28.343,14.975a10,10,0,0,1,17.315,0l19.668,34.02A10,10,0,0,1,56.668,64H17.332A10,10,0,0,1,8.675,48.995Z" transform="translate(344 880)"/><path class="b" d="M39.615,14.185q-.3-.952-.689-1.864a20.263,20.263,0,0,0-1.864-3.445q-.588-.77-1.155-1.5A20.261,20.261,0,0,0,1.6,12.381q-.385.912-.689,1.8a20.719,20.719,0,0,0,0,12.158q.3.952.689,1.864a20.263,20.263,0,0,0,3.04,5.005q.628.75,1.317,1.439a20.263,20.263,0,0,0,4.661,3.485A20.363,20.363,0,0,0,38.924,28.15c.259-.612.488-1.234.691-1.869a20.517,20.517,0,0,0,0-12.1ZM20.264,36.474h-.486a16.616,16.616,0,0,1,0-2.715,13.273,13.273,0,0,1,3.283-5.674,6.363,6.363,0,0,1,2.269-.507,5.431,5.431,0,0,0,3.039-.952,1.9,1.9,0,0,0,.527-1.783,6.788,6.788,0,0,0-3.161-4.174,9.341,9.341,0,0,0-2.837-.446,12.158,12.158,0,0,1-4.134-.77A5.958,5.958,0,0,1,17.71,18.5,6.363,6.363,0,0,0,15.2,16.677a2.918,2.918,0,0,0-2.33.608,7.457,7.457,0,0,1-4.762,1.236,28.753,28.753,0,0,1-3.891-.79A16.211,16.211,0,0,1,20.264,4.053h1.358A11.631,11.631,0,0,0,21.9,8.329a4.053,4.053,0,0,0,2.411,1.8l.608.284a4.823,4.823,0,0,1,0,2.513,2.614,2.614,0,0,0,0,1.662,9.929,9.929,0,0,0,4.863,2.715h.466a1.337,1.337,0,0,0,.973-.365,4.377,4.377,0,0,0,.892-2.026,2.594,2.594,0,0,0,2.33-.324,2.209,2.209,0,0,0,.507-1.337A16.211,16.211,0,0,1,20.264,36.474Z" transform="translate(373.07 902.053)"/></g></svg>