<svg xmlns="http://www.w3.org/2000/svg" xmlns:xlink="http://www.w3.org/1999/xlink" width="69.158" height="66.158" viewBox="0 0 69.158 66.158"><defs><style>.a{fill:url(#a);}.b{opacity:0.503;fill:url(#b);}.c{fill:rgba(255,255,255,0.57);stroke:#fff;stroke-width:0.5px;}.d{fill:#fff;}.e{stroke:none;}.f{fill:none;}.g{filter:url(#c);}</style><linearGradient id="a" x1="0.065" y1="0.083" x2="0.931" y2="0.91" gradientUnits="objectBoundingBox"><stop offset="0" stop-color="#4e74f4"/><stop offset="1" stop-color="#64e7ff"/></linearGradient><linearGradient id="b" x1="0.065" y1="0.083" x2="0.931" y2="0.91" gradientUnits="objectBoundingBox"><stop offset="0" stop-color="#3d6fe8"/><stop offset="1" stop-color="#64c3ff"/></linearGradient><filter id="c" x="9.729" y="10.734" width="33.542" height="33.531" filterUnits="userSpaceOnUse"><feOffset dy="3" input="SourceAlpha"/><feGaussianBlur stdDeviation="3" result="d"/><feFlood flood-color="#5493f7"/><feComposite operator="in" in2="d"/><feComposite in="SourceGraphic"/></filter></defs><g transform="translate(-683 -1204)"><rect class="a" width="34" height="34" rx="17" transform="translate(683 1204)"/><rect class="b" width="27" height="27" rx="13.5" transform="translate(706 1224)"/><g class="c" transform="translate(694 1213)"><rect class="e" width="31" height="31" rx="9"/><rect class="f" x="0.25" y="0.25" width="30.5" height="30.5" rx="8.75"/></g><g class="g" transform="matrix(1, 0, 0, 1, 683, 1204)"><path class="d" d="M50.432,58.156a7.756,7.756,0,0,1-6-12.682,1.338,1.338,0,0,1,.957-.491,1.384,1.384,0,0,1,1.034.4l4.507,4.511a.706.706,0,0,1-1,1l-4.465-4.461a6.361,6.361,0,1,0,4.963-2.39,6.523,6.523,0,0,0-1.648.215.706.706,0,0,1-.353-1.362,7.77,7.77,0,1,1,2.418,15.266ZM45.522,46.36Z" transform="translate(-23.94 -25.89)"/></g></g></svg>