<svg xmlns="http://www.w3.org/2000/svg" xmlns:xlink="http://www.w3.org/1999/xlink" width="75.839" height="64.316" viewBox="0 0 75.839 64.316"><defs><style>.a{fill:url(#a);}.b{opacity:0.503;fill:url(#b);}.c{fill:rgba(255,255,255,0.57);stroke:#fff;stroke-width:0.5px;}.d{fill:#fff;}.e{stroke:none;}.f{fill:none;}.g{filter:url(#e);}.h{filter:url(#c);}</style><linearGradient id="a" x1="0.809" y1="0.142" x2="0.18" y2="1.052" gradientUnits="objectBoundingBox"><stop offset="0" stop-color="#c6ffd3"/><stop offset="1" stop-color="#4ed842"/></linearGradient><linearGradient id="b" x1="0.065" y1="0.083" x2="0.931" y2="0.91" gradientUnits="objectBoundingBox"><stop offset="0" stop-color="#abf6b2"/><stop offset="1" stop-color="#54e554"/></linearGradient><filter id="c" x="13.299" y="15.974" width="33.763" height="33.868" filterUnits="userSpaceOnUse"><feOffset dy="3" input="SourceAlpha"/><feGaussianBlur stdDeviation="3" result="d"/><feFlood flood-color="#62e05b"/><feComposite operator="in" in2="d"/><feComposite in="SourceGraphic"/></filter><filter id="e" x="13.793" y="26.163" width="23.092" height="23.086" filterUnits="userSpaceOnUse"><feOffset dy="3" input="SourceAlpha"/><feGaussianBlur stdDeviation="3" result="f"/><feFlood flood-color="#62e05b"/><feComposite operator="in" in2="f"/><feComposite in="SourceGraphic"/></filter></defs><g transform="translate(-679.319 -1198.842)"><path class="a" d="M17.409,7.6a5,5,0,0,1,8.682,0L39.225,30.582a5,5,0,0,1-4.341,7.481H8.616a5,5,0,0,1-4.341-7.481Z" transform="translate(679.319 1250.5) rotate(-90)"/><rect class="b" width="26" height="26" rx="9" transform="translate(710 1218)"/><g class="c" transform="translate(694 1213)"><rect class="e" width="31" height="31" rx="9"/><rect class="f" x="0.25" y="0.25" width="30.5" height="30.5" rx="8.75"/></g><g transform="translate(701.582 1220.816)"><g class="h" transform="matrix(1, 0, 0, 1, -22.26, -21.97)"><path class="d" d="M15.733.423c-.045-.286-.06-.3-.354-.353A4.448,4.448,0,0,0,14.56,0a7.758,7.758,0,0,0-.8.046,13.22,13.22,0,0,0-3.127.714A11.19,11.19,0,0,0,5.974,3.8a.24.24,0,0,1-.194.086l-.057,0A15.118,15.118,0,0,0,4.1,3.733H4.067A2.561,2.561,0,0,0,1.83,5Q1.4,5.67.977,6.343c-.265.416-.536.825-.793,1.245A.871.871,0,0,0,.843,8.954c.817.062,1.635.111,2.452.155.148.008.211.048.225.2a3.317,3.317,0,0,0,.466,1.464,3.105,3.105,0,0,0,2.345,1.484c.38.051.369.054.4.446.054.785.112,1.572.186,2.355a.853.853,0,0,0,.844.8.921.921,0,0,0,.5-.155c.913-.6,1.835-1.185,2.72-1.823a2.53,2.53,0,0,0,1.078-2.455c-.045-.439-.082-.879-.126-1.318a.363.363,0,0,1,.125-.336,11.1,11.1,0,0,0,2.85-4.254A12.737,12.737,0,0,0,15.8,1.292c0-.042,0-.083,0-.123a4.311,4.311,0,0,0-.066-.745ZM10.89,7.233h-.017a2.37,2.37,0,0,1-2.3-2.317,2.334,2.334,0,0,1,2.374-2.362h.043a2.34,2.34,0,0,1-.1,4.679Z" transform="translate(22.26 21.97)"/></g><g class="g" transform="matrix(1, 0, 0, 1, -22.26, -21.97)"><path class="d" d="M36.842,661.133c-.426.431-.857.856-1.282,1.286a.474.474,0,0,1-.337.166.43.43,0,0,1-.157-.031.443.443,0,0,1-.308-.433c-.006-.132,0-.265-.006-.4,0-.157-.006-.214-.068-.214a.654.654,0,0,0-.163.043l-1.435.477a.685.685,0,0,1-.217.042.416.416,0,0,1-.2-.052.446.446,0,0,1-.2-.571c.159-.491.326-.981.488-1.472.071-.212.066-.217-.163-.222-.139,0-.277,0-.416-.006a.442.442,0,0,1-.42-.3.426.426,0,0,1,.109-.485q.667-.67,1.338-1.338a.4.4,0,0,1,.279-.129.2.2,0,0,1,.031,0,.451.451,0,0,1,.463.357,3.964,3.964,0,0,0,2.479,2.475A.455.455,0,0,1,36.842,661.133Z" transform="translate(-9.13 -625.34)"/></g></g></g></svg>