<svg xmlns="http://www.w3.org/2000/svg" xmlns:xlink="http://www.w3.org/1999/xlink" width="77.316" height="77.316" viewBox="0 0 77.316 77.316"><defs><style>.a{fill:url(#a);}.b{opacity:0.503;fill:url(#b);}.c{fill:rgba(255,255,255,0.57);stroke:#fff;stroke-width:0.5px;}.d{fill:#fff;}.e{stroke:none;}.f{fill:none;}.g{filter:url(#c);}</style><linearGradient id="a" x1="0.065" y1="0.083" x2="0.931" y2="0.91" gradientUnits="objectBoundingBox"><stop offset="0" stop-color="#cd91ff"/><stop offset="1" stop-color="#6464ff"/></linearGradient><linearGradient id="b" x1="0.065" y1="0.083" x2="0.931" y2="0.91" gradientUnits="objectBoundingBox"><stop offset="0" stop-color="#c37cff"/><stop offset="1" stop-color="#9575fa"/></linearGradient><filter id="c" x="15.707" y="20.158" width="34.901" height="32.301" filterUnits="userSpaceOnUse"><feOffset dy="3" input="SourceAlpha"/><feGaussianBlur stdDeviation="3" result="d"/><feFlood flood-color="#9377fc"/><feComposite operator="in" in2="d"/><feComposite in="SourceGraphic"/></filter></defs><g transform="translate(-269.842 -1537.842)"><g transform="translate(-407 342)"><path class="a" d="M415-316a2,2,0,0,1-2-2v-16a2,2,0,0,1,2-2h21a2,2,0,0,1,2,2v16a2,2,0,0,1-2,2Zm0-21a2,2,0,0,1-2-2v-1a2,2,0,0,1,2-2h21a2,2,0,0,1,2,2v1a2,2,0,0,1-2,2Z" transform="translate(272 1549)"/><rect class="b" width="39" height="39" rx="14" transform="translate(696 1215)"/><g class="c" transform="translate(694 1213)"><rect class="e" width="31" height="31" rx="9"/><rect class="f" x="0.25" y="0.25" width="30.5" height="30.5" rx="8.75"/></g></g><g transform="translate(294.549 1563.592)"><g transform="translate(-266 -94)"><g transform="translate(44 92.451)"><g transform="translate(216 0.549)"><g transform="translate(6)"><g class="g" transform="matrix(1, 0, 0, 1, -24.71, -24.75)"><path class="d" d="M11.522,13.007a5.254,5.254,0,0,1-3.133.979c-.147,0-.294-.01-.438-.023-.058-.006-.119-.015-.177-.023-.113-.015-.226-.031-.338-.054-.068-.013-.136-.031-.2-.048-.108-.025-.217-.052-.323-.084-.051-.015-.1-.034-.151-.052-.123-.042-.243-.084-.362-.134l-.079-.036c-.138-.061-.275-.126-.407-.2l-.017-.01A5.351,5.351,0,0,1,4.678,12.4l-.017-.019c-.111-.115-.219-.232-.319-.356L4.28,11.94A5.459,5.459,0,0,1,3.107,8.554H4.516L2.254,5.124,0,8.556H1.409a7.183,7.183,0,0,0,1.247,4.053l.026.05c.081.119.172.226.258.339l.1.126c.128.159.264.306.406.452l.04.042a6.973,6.973,0,0,0,1.583,1.2l.047.027c.168.092.338.174.513.251l.128.059c.149.063.3.117.456.169.072.025.145.052.219.075.134.04.272.075.411.107.092.021.183.046.277.063l.113.027c.13.023.262.036.392.052l.141.019c.234.023.47.038.7.038a6.927,6.927,0,0,0,4.027-1.3.866.866,0,0,0,.207-1.2.842.842,0,0,0-1.181-.211Zm3.973-4.451a7.181,7.181,0,0,0-1.241-4.043l-.032-.057c-.1-.14-.2-.272-.307-.4L13.876,4A6.982,6.982,0,0,0,11.248,2l-.083-.038c-.162-.069-.328-.128-.5-.184-.06-.021-.119-.042-.181-.061-.145-.044-.294-.08-.443-.115-.083-.019-.164-.04-.249-.057l-.121-.027c-.111-.019-.223-.029-.334-.042-.077-.01-.153-.023-.23-.031-.187-.017-.373-.025-.558-.029l-.1-.006-.019,0A6.918,6.918,0,0,0,4.412,2.7.866.866,0,0,0,4.2,3.9a.836.836,0,0,0,1.177.211A5.261,5.261,0,0,1,8.49,3.126c.158,0,.315.01.47.025L9.1,3.17c.126.015.253.034.377.059.055.011.109.025.162.038.123.029.243.057.362.094l.113.038c.136.046.27.094.4.149l.04.017A5.38,5.38,0,0,1,12.574,5.1l.009.013A5.474,5.474,0,0,1,13.8,8.558H12.391l2.254,3.432L16.9,8.556Z" transform="translate(24.71 24.75)"/></g></g></g></g></g></g></g></svg>