<svg xmlns="http://www.w3.org/2000/svg" xmlns:xlink="http://www.w3.org/1999/xlink" width="1920" height="2374" viewBox="0 0 1920 2374"><defs><style>.a,.h{fill:#fff;}.a{stroke:#707070;}.b{clip-path:url(#a);}.c{opacity:0.278;fill:url(#b);}.d{opacity:0.199;fill:url(#c);}.e{opacity:0.662;fill:url(#d);}.f{fill:#e5e3ff;opacity:0.698;}.g{opacity:0.802;fill:url(#e);}.i,.j,.k,.n{fill:none;}.i,.j,.k{stroke:#09f;}.i{opacity:0.2;}.j{opacity:0.145;}.k{opacity:0.3;}.l{fill:url(#h);}.m{fill:url(#i);}.n{stroke:rgba(255,151,105,0.21);}.o{filter:url(#f);}</style><clipPath id="a"><rect class="a" width="1920" height="2374" transform="translate(0 830)"/></clipPath><linearGradient id="b" x1="0.828" y1="-0.028" x2="0.131" y2="1.15" gradientUnits="objectBoundingBox"><stop offset="0" stop-color="#fffbf2"/><stop offset="0.472" stop-color="#fed9d9" stop-opacity="0.745"/><stop offset="1" stop-color="#ffefef"/></linearGradient><linearGradient id="c" x1="0.828" y1="-0.028" x2="0.131" y2="1.15" gradientUnits="objectBoundingBox"><stop offset="0" stop-color="#b16eff"/><stop offset="0.472" stop-color="#be72ff" stop-opacity="0.745"/><stop offset="1" stop-color="#ffdede"/></linearGradient><linearGradient id="d" x1="0.828" y1="-0.028" x2="0.131" y2="1.15" gradientUnits="objectBoundingBox"><stop offset="0" stop-color="#f7f7ff"/><stop offset="0.472" stop-color="#e1e0ff" stop-opacity="0.745"/><stop offset="1" stop-color="#ffe3e3"/></linearGradient><linearGradient id="e" x1="0.682" x2="0.375" y2="1" gradientUnits="objectBoundingBox"><stop offset="0" stop-color="#ffecce"/><stop offset="1" stop-color="#efebff"/></linearGradient><filter id="f" x="1735" y="217" width="58" height="58" filterUnits="userSpaceOnUse"><feOffset input="SourceAlpha"/><feGaussianBlur stdDeviation="4" result="g"/><feFlood flood-color="#fff" flood-opacity="0.161"/><feComposite operator="in" in2="g"/><feComposite in="SourceGraphic"/></filter><radialGradient id="h" cx="0.5" cy="0.5" r="0.571" gradientTransform="matrix(0.449, -0.893, 0.729, 0.367, -0.089, 0.763)" gradientUnits="objectBoundingBox"><stop offset="0" stop-color="#bfc2ff"/><stop offset="1" stop-color="#def2ff" stop-opacity="0.129"/></radialGradient><radialGradient id="i" cx="0.457" cy="0.551" r="0.5" gradientUnits="objectBoundingBox"><stop offset="0" stop-color="#ffc15f"/><stop offset="1" stop-color="#fffbf5"/></radialGradient></defs><g class="b" transform="translate(0 -830)"><ellipse class="c" cx="522.5" cy="249" rx="522.5" ry="249" transform="translate(-25 1223)"/><ellipse class="d" cx="337.5" cy="161" rx="337.5" ry="161" transform="translate(-182 1579)"/><ellipse class="e" cx="795" cy="256.5" rx="795" ry="256.5" transform="translate(266 1457)"/><ellipse class="f" cx="116" cy="61.5" rx="116" ry="61.5" transform="translate(1449 1064)"/><ellipse class="g" cx="206" cy="137.5" rx="206" ry="137.5" transform="translate(1529 905)"/><g class="o" transform="matrix(1, 0, 0, 1, 0, 830)"><circle class="h" cx="17" cy="17" r="17" transform="translate(1747 229)"/></g><g transform="translate(0 -88.907)"><path class="i" d="M3289.665,840.068c122.02,118.8,324.942,13.339,543.092,77.962s72.2-170.46,180.488-328.888,69.971-405.756-113.174-357.907-245.843,259.043-435.587,257.393S3167.645,721.272,3289.665,840.068Z" transform="translate(-2114.529 2303.805)"/><path class="j" d="M3296.443,920.317c137.946,134.3,367.351,15.079,613.973,88.137s81.618-192.708,204.044-371.812,79.1-458.712-127.944-404.619S3708.587,524.875,3494.078,523.01,3158.5,786.016,3296.443,920.317Z" transform="translate(-2328.857 2257.876)"/><path class="k" d="M3277.312,693.812c93,90.539,247.65,10.166,413.91,59.418s55.023-129.914,137.557-250.658,53.328-309.241-86.254-272.774-187.366,197.426-331.977,196.168S3184.316,603.273,3277.312,693.812Z" transform="translate(-1976.529 2403.511)"/><path class="l" d="M3269.6,602.556c74.886,72.908,199.424,8.186,333.307,47.847s44.308-104.615,110.77-201.846,42.943-249.021-69.458-219.655-150.878,158.98-267.329,157.967S3194.718,529.648,3269.6,602.556Z" transform="translate(-1897.029 2458.738)"/></g><path class="m" d="M375.094,2032.476s-13.667-154.648-135.225-92.341-89.216-16.084-133.183-27.429-137.459,31.845-92.064,92.5S-.1,2074,20.434,2113.825s108.739,42.74,158.325,19.53S375.094,2032.476,375.094,2032.476Z" transform="translate(193.018 252.938)"/><path class="n" d="M461.875,2063.687s-16.85-194.346-166.72-116.044-109.995-20.212-164.2-34.47-169.474,40.02-113.506,116.242-18.144,86.451,7.166,136.5,134.065,53.711,195.2,24.543S461.875,2063.687,461.875,2063.687Z" transform="translate(165.83 211.485)"/><path class="n" d="M627.822,2133.378S606.3,1854.644,401.81,1960.642s-150.08-27.362-224.043-46.663S-53.468,1968.154,22.9,2071.337s-24.756,117.031,9.778,184.788,182.923,72.71,266.337,33.224S627.822,2133.378,627.822,2133.378Z" transform="translate(115.703 138.76)"/><path class="n" d="M770.7,2224.667s-26.442-393.1-277.651-243.612-184.371-38.589-275.232-65.81-284.068,76.4-190.257,221.925-30.413,165.05,12.011,260.609,224.717,102.543,327.19,46.856S770.7,2224.667,770.7,2224.667Z" transform="translate(72.018 49.26)"/></g></svg>