<svg xmlns="http://www.w3.org/2000/svg" xmlns:xlink="http://www.w3.org/1999/xlink" width="1920" height="402" viewBox="0 0 1920 402"><defs><style>.a{fill:#fff;stroke:#707070;}.b{clip-path:url(#a);}.c{opacity:0.152;fill:url(#b);}.d{opacity:0.097;fill:url(#c);}.e,.f,.g{fill:none;stroke:#6548d1;}.e{opacity:0.198;}.f{opacity:0.402;}.g{opacity:0.192;}</style><clipPath id="a"><rect class="a" width="1920" height="402" transform="translate(2841 3197)"/></clipPath><linearGradient id="b" x1="0.5" y1="0.5" x2="0.5" y2="1" gradientUnits="objectBoundingBox"><stop offset="0" stop-color="#31ffcd"/><stop offset="1" stop-color="#fff"/></linearGradient><linearGradient id="c" x1="0.5" y1="0.529" x2="0.5" y2="1" gradientUnits="objectBoundingBox"><stop offset="0" stop-color="#0076ff"/><stop offset="1" stop-color="#fff"/></linearGradient></defs><g class="b" transform="translate(-2841 -3197)"><g transform="translate(2841 -68.567)"><path class="c" d="M1990,3263.388s296.729,152.593,956.183,166.258S3910,3471.78,3910,3471.78v171.95H1990Z" transform="translate(-1990 23.77)"/><path class="d" d="M1990,3359.173s419.753-141.848,987.916-71.681S3910,3207.97,3910,3207.97v313.413H1990Z" transform="translate(-1990 57.77)"/><g transform="translate(0 68.567)"><path class="e" d="M-6,3398s345.008-23.332,748.638,30.059,457.793-14.914,748.993-18.221,424,17.959,424,17.959" transform="translate(6 -68.567)"/><path class="f" d="M-6,3398s372.258-23.332,807.767,30.059,493.95-14.914,808.149-18.221S2067.4,3427.8,2067.4,3427.8" transform="translate(6 -48.567)"/><path class="g" d="M-6,3398s372.258-23.332,807.767,30.059,493.95-14.914,808.149-18.221S2067.4,3427.8,2067.4,3427.8" transform="translate(6 -31.567)"/></g></g></g></svg>