<svg xmlns="http://www.w3.org/2000/svg" xmlns:xlink="http://www.w3.org/1999/xlink" width="1045" height="191" viewBox="0 0 1045 191"><defs><style>.a{fill:#7759e6;stroke-width:4px;font-size:110px;font-family:Cookie-Regular, Cookie;}.a,.i{stroke:#7759e6;}.b,.c{fill:#6548d1;}.c{font-size:80px;font-family:CarterOne, Carter One;}.d{fill:#fd6a6a;}.e{fill:#a67dee;}.f{fill:url(#e);}.g{fill:#bf62e8;}.h,.i{fill:none;stroke-linecap:round;}.h{stroke:#fd6a6a;stroke-width:3px;}.i{stroke-width:2.5px;}.j{fill:#ffba00;}.k{fill:#ff7f00;}.l{filter:url(#n);}.m{filter:url(#l);}.n{filter:url(#i);}.o{filter:url(#f);}.p{filter:url(#c);}.q{filter:url(#a);}</style><filter id="a" x="4" y="0" width="599" height="191" filterUnits="userSpaceOnUse"><feOffset dy="8" input="SourceAlpha"/><feGaussianBlur stdDeviation="7.5" result="b"/><feFlood flood-color="#804cdb" flood-opacity="0.255"/><feComposite operator="in" in2="b"/><feComposite in="SourceGraphic"/></filter><filter id="c" x="817" y="0" width="210" height="175" filterUnits="userSpaceOnUse"><feOffset dy="8" input="SourceAlpha"/><feGaussianBlur stdDeviation="7.5" result="d"/><feFlood flood-color="#804cdb" flood-opacity="0.255"/><feComposite operator="in" in2="d"/><feComposite in="SourceGraphic"/></filter><linearGradient id="e" x2="0.5" y2="1" gradientUnits="objectBoundingBox"><stop offset="0" stop-color="#ff9090"/><stop offset="1" stop-color="#7759e6"/></linearGradient><filter id="f" x="0" y="23.307" width="27" height="27" filterUnits="userSpaceOnUse"><feOffset dx="8" dy="8" input="SourceAlpha"/><feGaussianBlur stdDeviation="2" result="g"/><feFlood flood-color="#9b68cf" flood-opacity="0.204"/><feComposite operator="in" in2="g"/><feComposite in="SourceGraphic"/></filter><filter id="i" x="1004" y="110.307" width="27" height="27" filterUnits="userSpaceOnUse"><feOffset dx="8" dy="8" input="SourceAlpha"/><feGaussianBlur stdDeviation="2" result="j"/><feFlood flood-color="#9b68cf" flood-opacity="0.204"/><feComposite operator="in" in2="j"/><feComposite in="SourceGraphic"/></filter><filter id="l" x="1024" y="103.307" width="21" height="21" filterUnits="userSpaceOnUse"><feOffset dx="8" dy="8" input="SourceAlpha"/><feGaussianBlur stdDeviation="2" result="m"/><feFlood flood-color="#9b68cf" flood-opacity="0.204"/><feComposite operator="in" in2="m"/><feComposite in="SourceGraphic"/></filter><filter id="n" x="6" y="44.307" width="21" height="21" filterUnits="userSpaceOnUse"><feOffset dx="8" dy="8" input="SourceAlpha"/><feGaussianBlur stdDeviation="2" result="o"/><feFlood flood-color="#9b68cf" flood-opacity="0.204"/><feComposite operator="in" in2="o"/><feComposite in="SourceGraphic"/></filter></defs><g transform="translate(-445 -95.693)"><g class="q" transform="matrix(1, 0, 0, 1, 445, 95.69)"><text class="a" transform="translate(30.5 18.5)"><tspan x="0" y="87">Special Sale For</tspan><tspan class="b" y="87"> </tspan></text></g><g class="p" transform="matrix(1, 0, 0, 1, 445, 95.69)"><text class="a" transform="translate(843.5 105.5)"><tspan x="0" y="0">Fans</tspan></text></g><g transform="translate(30.5 61.693)"><text class="c" transform="translate(995 145)"><tspan x="0" y="0"> </tspan><tspan class="d" y="0">IObit</tspan><tspan class="e" y="0"> </tspan></text><path class="d" d="M199.276,11.505v0A325.224,325.224,0,0,1,242.95,3.011a394.318,394.318,0,0,1,97.271,0A324.933,324.933,0,0,1,383.873,11.5c-14.147-2.538-29.042-4.492-44.271-5.8-15.662-1.351-31.817-2.036-48.017-2.036s-32.355.685-48.017,2.036C228.331,7.008,213.429,8.963,199.276,11.505Z" transform="translate(825 160.495)"/><path class="d" d="M1054.406,96.609l-8.7-16.513,8.7,3.114,4.534-19.04,7.7,15.926c0,.26,7.161-6.148,7.161-6.148v15.2Z"/><circle class="d" cx="2" cy="2" r="2" transform="translate(1057 62)"/><circle class="d" cx="2" cy="2" r="2" transform="translate(1072 71)"/><circle class="d" cx="2" cy="2" r="2" transform="translate(1043 78)"/></g><g class="o" transform="matrix(1, 0, 0, 1, 445, 95.69)"><circle class="f" cx="6.5" cy="6.5" r="6.5" transform="translate(0 23.31)"/></g><g class="n" transform="matrix(1, 0, 0, 1, 445, 95.69)"><circle class="f" cx="6.5" cy="6.5" r="6.5" transform="translate(1004 110.31)"/></g><g class="m" transform="matrix(1, 0, 0, 1, 445, 95.69)"><circle class="f" cx="3.5" cy="3.5" r="3.5" transform="translate(1024 103.31)"/></g><g class="l" transform="matrix(1, 0, 0, 1, 445, 95.69)"><circle class="g" cx="3.5" cy="3.5" r="3.5" transform="translate(6 44.31)"/></g><g transform="translate(30.5 61.693)"><path class="h" d="M1220.361,85.442V79.308" transform="matrix(0.875, 0.485, -0.485, 0.875, 190.865, -583.15)"/><path class="h" d="M1220.361,91.1V79.308" transform="matrix(0.602, 0.799, -0.799, 0.602, 560.391, -943.12)"/><path class="h" d="M1220.361,85.6V79.308" transform="translate(1076.316 -1122.657) rotate(79)"/></g><g transform="translate(-28.5 43.507)"><path class="i" d="M743.678,122.822c3.472-7.854,4.055-9.154,4.055-9.154" transform="translate(6)"/><path class="i" d="M743.678,122.822c3.472-7.854,1.252-2.889,1.252-2.889" transform="matrix(0.966, -0.259, 0.259, 0.966, -5.841, 195.418)"/><path class="i" d="M743.678,122.822c3.472-7.854,1.252-2.889,1.252-2.889" transform="matrix(0.899, 0.438, -0.438, 0.899, 139.232, -311.011)"/></g><g transform="translate(865.245 189.171)"><path class="j" d="M874.144,345.85a5.5,5.5,0,0,0-1.606,4.244,5.524,5.524,0,0,0,5.852-5.852A5.514,5.514,0,0,0,874.144,345.85Z" transform="translate(-861.069 -341.564)"/><path class="j" d="M877.354,348.817a5.5,5.5,0,0,0-4.48.732,5.523,5.523,0,0,0,7.994,2.142A5.521,5.521,0,0,0,877.354,348.817Z" transform="translate(-860.868 -339.011)"/><path class="j" d="M875.156,353.653a2.489,2.489,0,1,0-.73,4.478A5.5,5.5,0,0,0,875.156,353.653Z" transform="translate(-861.746 -338.133)"/><ellipse class="j" cx="4.138" cy="1.865" rx="4.138" ry="1.865" transform="translate(1.361 16) rotate(-45)"/><path class="j" d="M868.793,350.385a5.508,5.508,0,0,0,4.48-.73,5.523,5.523,0,0,0-7.994-2.142A5.513,5.513,0,0,0,868.793,350.385Z" transform="translate(-865.279 -340.193)"/><path class="j" d="M869.518,347.024a2.489,2.489,0,1,0,.73-4.48A5.507,5.507,0,0,0,869.518,347.024Z" transform="translate(-862.928 -342.544)"/><circle class="j" cx="1.049" cy="1.049" r="1.049" transform="translate(8.951 8.95)"/></g><g transform="translate(1451.5 114.193)"><path class="k" d="M875.268,346.976a9.33,9.33,0,0,0-2.723,7.2,9.367,9.367,0,0,0,9.923-9.923A9.35,9.35,0,0,0,875.268,346.976Z" transform="translate(-853.098 -339.707)"/><path class="k" d="M880.471,348.949a9.33,9.33,0,0,0-7.6,1.241,9.366,9.366,0,0,0,13.556,3.632A9.362,9.362,0,0,0,880.471,348.949Z" transform="translate(-852.515 -332.321)"/><path class="k" d="M877.795,356.1a9.325,9.325,0,0,0-4.871-5.959,9.364,9.364,0,0,0,3.632,13.553A9.34,9.34,0,0,0,877.795,356.1Z" transform="translate(-855.056 -329.78)"/><ellipse class="k" cx="7.016" cy="3.163" rx="7.016" ry="3.163" transform="translate(2.308 27.133) rotate(-45)"/><path class="k" d="M871.238,353.024a9.34,9.34,0,0,0,7.6-1.238,9.366,9.366,0,0,0-13.555-3.632A9.349,9.349,0,0,0,871.238,353.024Z" transform="translate(-865.279 -335.74)"/><path class="k" d="M869.65,350.141a9.337,9.337,0,0,0,4.87,5.959,9.366,9.366,0,0,0-3.632-13.555A9.336,9.336,0,0,0,869.65,350.141Z" transform="translate(-858.475 -342.544)"/><circle class="k" cx="1.779" cy="1.779" r="1.779" transform="translate(15.178 15.177)"/></g></g></svg>