<svg xmlns="http://www.w3.org/2000/svg" xmlns:xlink="http://www.w3.org/1999/xlink" width="570" height="416" viewBox="0 0 570 416"><defs><style>.a,.b,.d{fill:#fff;}.b,.d{stroke:#fff;}.b{stroke-width:12px;}.b,.c{font-size:72px;font-family:KaushanScript-Regular, Kaushan Script;}.c{fill:#ff2e2e;}.d{stroke-width:10px;}.d,.e{font-size:21px;font-family:LexendDeca-Bold, Lexend Deca;font-weight:700;}.e{fill:#8e20e0;}.f{fill:rgba(253,46,45,0.04);}.g{fill:rgba(255,182,181,0.6);}.h{fill:rgba(253,46,45,0.43);}.i{fill:rgba(253,46,45,0.09);}.j{fill:rgba(253,46,45,0.65);}.k{fill:#ffecec;}.l{filter:url(#a);}</style><filter id="a" x="0" y="48" width="570" height="368" filterUnits="userSpaceOnUse"><feOffset dy="8" input="SourceAlpha"/><feGaussianBlur stdDeviation="8" result="b"/><feFlood flood-opacity="0.161"/><feComposite operator="in" in2="b"/><feComposite in="SourceGraphic"/></filter></defs><g transform="translate(-675 -270)"><g class="l" transform="matrix(1, 0, 0, 1, 675, 270)"><rect class="a" width="522" height="320" rx="12" transform="translate(24 64)"/></g><text class="b" transform="translate(950 360)"><tspan x="-226.296" y="0">Congratulation!</tspan></text><text class="c" transform="translate(950 360)"><tspan x="-226.296" y="0">Congratulation!</tspan></text><text class="d" transform="translate(957 382)"><tspan x="-103.803" y="0">You Got a Surprise!</tspan></text><text class="e" transform="translate(957 382)"><tspan x="-103.803" y="0">You Got a Surprise!</tspan></text><path class="f" d="M132.63,6.265,0,11.352V0Z" transform="translate(736.004 506.151) rotate(8)"/><path class="f" d="M132.631,7.583,0,13.741V0Z" transform="matrix(0.788, 0.616, -0.616, 0.788, 764.545, 417.643)"/><path class="g" d="M60.281,7.583,0,13.741V0Z" transform="matrix(-0.616, 0.788, -0.788, -0.616, 1080.946, 452.231)"/><path class="h" d="M37.024,4.657,0,8.44V0Z" transform="translate(1077.169 490.07) rotate(141)"/><path class="i" d="M47.7,2.727,0,4.941V0Z" transform="translate(811.091 487.283) rotate(26)"/><path class="i" d="M116.127,6.265,0,11.352V0Z" transform="translate(1153.693 474.58) rotate(155)"/><path class="i" d="M64.813,3.706,0,6.715V0Z" transform="matrix(-0.985, 0.174, -0.174, -0.985, 1125.747, 520.88)"/><path class="i" d="M47.7,2.727,0,4.941V0Z" transform="translate(811.091 487.283) rotate(26)"/><path class="j" d="M70.1,4.362,0,7.9V0Z" transform="matrix(0.682, 0.731, -0.731, 0.682, 844.263, 456.713)"/><ellipse class="k" cx="87.085" cy="11.758" rx="87.085" ry="11.758" transform="translate(872.916 533.095)"/></g></svg>