<svg xmlns="http://www.w3.org/2000/svg" width="16" height="16" viewBox="0 0 16 16"><defs><style>.a{fill:#bebebe;}</style></defs><g transform="translate(-2.25 -2.25)"><path class="a" d="M10.25,2.25a8,8,0,1,0,8,8A7.951,7.951,0,0,0,10.25,2.25Zm0,14.857a6.857,6.857,0,1,1,6.857-6.857A6.877,6.877,0,0,1,10.25,17.107Z"/><path class="a" d="M17.211,18.125l-3.086-3.086-3.086,3.086-.914-.914,3.086-3.086-3.086-3.086.914-.914,3.086,3.086,3.086-3.086.914.914-3.086,3.086,3.086,3.086Z" transform="translate(-3.875 -3.875)"/></g></svg>