<svg xmlns="http://www.w3.org/2000/svg" xmlns:xlink="http://www.w3.org/1999/xlink" width="897" height="617" viewBox="0 0 897 617"><defs><style>.a{fill:#ff586f;}.b{fill:#a547eb;}.c{fill:url(#a);}.d{fill:url(#b);}</style><linearGradient id="a" x1="0.085" y1="-0.011" x2="0.841" y2="0.938" gradientUnits="objectBoundingBox"><stop offset="0" stop-color="#f85366" stop-opacity="0"/><stop offset="1" stop-color="#f74f67" stop-opacity="0.655"/></linearGradient><linearGradient id="b" x1="0.94" y1="0.914" x2="0.2" y2="0.093" gradientUnits="objectBoundingBox"><stop offset="0" stop-color="#c197ea" stop-opacity="0"/><stop offset="1" stop-color="#9120e5" stop-opacity="0.678"/></linearGradient></defs><g transform="translate(-186 -1005)"><g transform="translate(249 1108)"><circle class="a" cx="2" cy="2" r="2"/><circle class="a" cx="2" cy="2" r="2" transform="translate(0 8)"/><circle class="a" cx="2" cy="2" r="2" transform="translate(0 16)"/><circle class="a" cx="2" cy="2" r="2" transform="translate(0 24)"/><circle class="a" cx="2" cy="2" r="2" transform="translate(0 32)"/><circle class="a" cx="2" cy="2" r="2" transform="translate(0 40)"/><circle class="a" cx="2" cy="2" r="2" transform="translate(0 48)"/><circle class="a" cx="2" cy="2" r="2" transform="translate(0 56)"/><circle class="a" cx="2" cy="2" r="2" transform="translate(0 64)"/><circle class="a" cx="2" cy="2" r="2" transform="translate(0 72)"/><circle class="a" cx="2" cy="2" r="2" transform="translate(120)"/><circle class="a" cx="2" cy="2" r="2" transform="translate(120 8)"/><circle class="a" cx="2" cy="2" r="2" transform="translate(120 16)"/><circle class="a" cx="2" cy="2" r="2" transform="translate(120 24)"/><circle class="a" cx="2" cy="2" r="2" transform="translate(120 32)"/><circle class="a" cx="2" cy="2" r="2" transform="translate(120 40)"/><circle class="a" cx="2" cy="2" r="2" transform="translate(120 48)"/><circle class="a" cx="2" cy="2" r="2" transform="translate(120 56)"/><circle class="a" cx="2" cy="2" r="2" transform="translate(120 64)"/><circle class="a" cx="2" cy="2" r="2" transform="translate(120 72)"/><circle class="a" cx="2" cy="2" r="2" transform="translate(40)"/><circle class="a" cx="2" cy="2" r="2" transform="translate(40 8)"/><circle class="a" cx="2" cy="2" r="2" transform="translate(40 16)"/><circle class="a" cx="2" cy="2" r="2" transform="translate(40 24)"/><circle class="a" cx="2" cy="2" r="2" transform="translate(40 32)"/><circle class="a" cx="2" cy="2" r="2" transform="translate(40 40)"/><circle class="a" cx="2" cy="2" r="2" transform="translate(40 48)"/><circle class="a" cx="2" cy="2" r="2" transform="translate(40 56)"/><circle class="a" cx="2" cy="2" r="2" transform="translate(40 64)"/><circle class="a" cx="2" cy="2" r="2" transform="translate(40 72)"/><circle class="a" cx="2" cy="2" r="2" transform="translate(160)"/><circle class="a" cx="2" cy="2" r="2" transform="translate(160 8)"/><circle class="a" cx="2" cy="2" r="2" transform="translate(160 16)"/><circle class="a" cx="2" cy="2" r="2" transform="translate(160 24)"/><circle class="a" cx="2" cy="2" r="2" transform="translate(160 32)"/><circle class="a" cx="2" cy="2" r="2" transform="translate(160 40)"/><circle class="a" cx="2" cy="2" r="2" transform="translate(160 48)"/><circle class="a" cx="2" cy="2" r="2" transform="translate(160 56)"/><circle class="a" cx="2" cy="2" r="2" transform="translate(160 64)"/><circle class="a" cx="2" cy="2" r="2" transform="translate(160 72)"/><circle class="a" cx="2" cy="2" r="2" transform="translate(80)"/><circle class="a" cx="2" cy="2" r="2" transform="translate(80 8)"/><circle class="a" cx="2" cy="2" r="2" transform="translate(80 16)"/><circle class="a" cx="2" cy="2" r="2" transform="translate(80 24)"/><circle class="a" cx="2" cy="2" r="2" transform="translate(80 32)"/><circle class="a" cx="2" cy="2" r="2" transform="translate(80 40)"/><circle class="a" cx="2" cy="2" r="2" transform="translate(80 48)"/><circle class="a" cx="2" cy="2" r="2" transform="translate(80 56)"/><circle class="a" cx="2" cy="2" r="2" transform="translate(80 64)"/><circle class="a" cx="2" cy="2" r="2" transform="translate(80 72)"/><circle class="a" cx="2" cy="2" r="2" transform="translate(200)"/><circle class="a" cx="2" cy="2" r="2" transform="translate(200 8)"/><circle class="a" cx="2" cy="2" r="2" transform="translate(200 16)"/><circle class="a" cx="2" cy="2" r="2" transform="translate(200 24)"/><circle class="a" cx="2" cy="2" r="2" transform="translate(200 32)"/><circle class="a" cx="2" cy="2" r="2" transform="translate(200 40)"/><circle class="a" cx="2" cy="2" r="2" transform="translate(200 48)"/><circle class="a" cx="2" cy="2" r="2" transform="translate(200 56)"/><circle class="a" cx="2" cy="2" r="2" transform="translate(200 64)"/><circle class="a" cx="2" cy="2" r="2" transform="translate(200 72)"/><circle class="a" cx="2" cy="2" r="2" transform="translate(10)"/><circle class="a" cx="2" cy="2" r="2" transform="translate(10 8)"/><circle class="a" cx="2" cy="2" r="2" transform="translate(10 16)"/><circle class="a" cx="2" cy="2" r="2" transform="translate(10 24)"/><circle class="a" cx="2" cy="2" r="2" transform="translate(10 32)"/><circle class="a" cx="2" cy="2" r="2" transform="translate(10 40)"/><circle class="a" cx="2" cy="2" r="2" transform="translate(10 48)"/><circle class="a" cx="2" cy="2" r="2" transform="translate(10 56)"/><circle class="a" cx="2" cy="2" r="2" transform="translate(10 64)"/><circle class="a" cx="2" cy="2" r="2" transform="translate(10 72)"/><circle class="a" cx="2" cy="2" r="2" transform="translate(130)"/><circle class="a" cx="2" cy="2" r="2" transform="translate(130 8)"/><circle class="a" cx="2" cy="2" r="2" transform="translate(130 16)"/><circle class="a" cx="2" cy="2" r="2" transform="translate(130 24)"/><circle class="a" cx="2" cy="2" r="2" transform="translate(130 32)"/><circle class="a" cx="2" cy="2" r="2" transform="translate(130 40)"/><circle class="a" cx="2" cy="2" r="2" transform="translate(130 48)"/><circle class="a" cx="2" cy="2" r="2" transform="translate(130 56)"/><circle class="a" cx="2" cy="2" r="2" transform="translate(130 64)"/><circle class="a" cx="2" cy="2" r="2" transform="translate(130 72)"/><circle class="a" cx="2" cy="2" r="2" transform="translate(50)"/><circle class="a" cx="2" cy="2" r="2" transform="translate(50 8)"/><circle class="a" cx="2" cy="2" r="2" transform="translate(50 16)"/><circle class="a" cx="2" cy="2" r="2" transform="translate(50 24)"/><circle class="a" cx="2" cy="2" r="2" transform="translate(50 32)"/><circle class="a" cx="2" cy="2" r="2" transform="translate(50 40)"/><circle class="a" cx="2" cy="2" r="2" transform="translate(50 48)"/><circle class="a" cx="2" cy="2" r="2" transform="translate(50 56)"/><circle class="a" cx="2" cy="2" r="2" transform="translate(50 64)"/><circle class="a" cx="2" cy="2" r="2" transform="translate(50 72)"/><circle class="a" cx="2" cy="2" r="2" transform="translate(170)"/><circle class="a" cx="2" cy="2" r="2" transform="translate(170 8)"/><circle class="a" cx="2" cy="2" r="2" transform="translate(170 16)"/><circle class="a" cx="2" cy="2" r="2" transform="translate(170 24)"/><circle class="a" cx="2" cy="2" r="2" transform="translate(170 32)"/><circle class="a" cx="2" cy="2" r="2" transform="translate(170 40)"/><circle class="a" cx="2" cy="2" r="2" transform="translate(170 48)"/><circle class="a" cx="2" cy="2" r="2" transform="translate(170 56)"/><circle class="a" cx="2" cy="2" r="2" transform="translate(170 64)"/><circle class="a" cx="2" cy="2" r="2" transform="translate(170 72)"/><circle class="a" cx="2" cy="2" r="2" transform="translate(90)"/><circle class="a" cx="2" cy="2" r="2" transform="translate(90 8)"/><circle class="a" cx="2" cy="2" r="2" transform="translate(90 16)"/><circle class="a" cx="2" cy="2" r="2" transform="translate(90 24)"/><circle class="a" cx="2" cy="2" r="2" transform="translate(90 32)"/><circle class="a" cx="2" cy="2" r="2" transform="translate(90 40)"/><circle class="a" cx="2" cy="2" r="2" transform="translate(90 48)"/><circle class="a" cx="2" cy="2" r="2" transform="translate(90 56)"/><circle class="a" cx="2" cy="2" r="2" transform="translate(90 64)"/><circle class="a" cx="2" cy="2" r="2" transform="translate(90 72)"/><circle class="a" cx="2" cy="2" r="2" transform="translate(210)"/><circle class="a" cx="2" cy="2" r="2" transform="translate(210 8)"/><circle class="a" cx="2" cy="2" r="2" transform="translate(210 16)"/><circle class="a" cx="2" cy="2" r="2" transform="translate(210 24)"/><circle class="a" cx="2" cy="2" r="2" transform="translate(210 32)"/><circle class="a" cx="2" cy="2" r="2" transform="translate(210 40)"/><circle class="a" cx="2" cy="2" r="2" transform="translate(210 48)"/><circle class="a" cx="2" cy="2" r="2" transform="translate(210 56)"/><circle class="a" cx="2" cy="2" r="2" transform="translate(210 64)"/><circle class="a" cx="2" cy="2" r="2" transform="translate(210 72)"/><circle class="a" cx="2" cy="2" r="2" transform="translate(20)"/><circle class="a" cx="2" cy="2" r="2" transform="translate(20 8)"/><circle class="a" cx="2" cy="2" r="2" transform="translate(20 16)"/><circle class="a" cx="2" cy="2" r="2" transform="translate(20 24)"/><circle class="a" cx="2" cy="2" r="2" transform="translate(20 32)"/><circle class="a" cx="2" cy="2" r="2" transform="translate(20 40)"/><circle class="a" cx="2" cy="2" r="2" transform="translate(20 48)"/><circle class="a" cx="2" cy="2" r="2" transform="translate(20 56)"/><circle class="a" cx="2" cy="2" r="2" transform="translate(20 64)"/><circle class="a" cx="2" cy="2" r="2" transform="translate(20 72)"/><circle class="a" cx="2" cy="2" r="2" transform="translate(140)"/><circle class="a" cx="2" cy="2" r="2" transform="translate(140 8)"/><circle class="a" cx="2" cy="2" r="2" transform="translate(140 16)"/><circle class="a" cx="2" cy="2" r="2" transform="translate(140 24)"/><circle class="a" cx="2" cy="2" r="2" transform="translate(140 32)"/><circle class="a" cx="2" cy="2" r="2" transform="translate(140 40)"/><circle class="a" cx="2" cy="2" r="2" transform="translate(140 48)"/><circle class="a" cx="2" cy="2" r="2" transform="translate(140 56)"/><circle class="a" cx="2" cy="2" r="2" transform="translate(140 64)"/><circle class="a" cx="2" cy="2" r="2" transform="translate(140 72)"/><circle class="a" cx="2" cy="2" r="2" transform="translate(60)"/><circle class="a" cx="2" cy="2" r="2" transform="translate(60 8)"/><circle class="a" cx="2" cy="2" r="2" transform="translate(60 16)"/><circle class="a" cx="2" cy="2" r="2" transform="translate(60 24)"/><circle class="a" cx="2" cy="2" r="2" transform="translate(60 32)"/><circle class="a" cx="2" cy="2" r="2" transform="translate(60 40)"/><circle class="a" cx="2" cy="2" r="2" transform="translate(60 48)"/><circle class="a" cx="2" cy="2" r="2" transform="translate(60 56)"/><circle class="a" cx="2" cy="2" r="2" transform="translate(60 64)"/><circle class="a" cx="2" cy="2" r="2" transform="translate(60 72)"/><circle class="a" cx="2" cy="2" r="2" transform="translate(180)"/><circle class="a" cx="2" cy="2" r="2" transform="translate(180 8)"/><circle class="a" cx="2" cy="2" r="2" transform="translate(180 16)"/><circle class="a" cx="2" cy="2" r="2" transform="translate(180 24)"/><circle class="a" cx="2" cy="2" r="2" transform="translate(180 32)"/><circle class="a" cx="2" cy="2" r="2" transform="translate(180 40)"/><circle class="a" cx="2" cy="2" r="2" transform="translate(180 48)"/><circle class="a" cx="2" cy="2" r="2" transform="translate(180 56)"/><circle class="a" cx="2" cy="2" r="2" transform="translate(180 64)"/><circle class="a" cx="2" cy="2" r="2" transform="translate(180 72)"/><circle class="a" cx="2" cy="2" r="2" transform="translate(100)"/><circle class="a" cx="2" cy="2" r="2" transform="translate(100 8)"/><circle class="a" cx="2" cy="2" r="2" transform="translate(100 16)"/><circle class="a" cx="2" cy="2" r="2" transform="translate(100 24)"/><circle class="a" cx="2" cy="2" r="2" transform="translate(100 32)"/><circle class="a" cx="2" cy="2" r="2" transform="translate(100 40)"/><circle class="a" cx="2" cy="2" r="2" transform="translate(100 48)"/><circle class="a" cx="2" cy="2" r="2" transform="translate(100 56)"/><circle class="a" cx="2" cy="2" r="2" transform="translate(100 64)"/><circle class="a" cx="2" cy="2" r="2" transform="translate(100 72)"/><circle class="a" cx="2" cy="2" r="2" transform="translate(220)"/><circle class="a" cx="2" cy="2" r="2" transform="translate(220 8)"/><circle class="a" cx="2" cy="2" r="2" transform="translate(220 16)"/><circle class="a" cx="2" cy="2" r="2" transform="translate(220 24)"/><circle class="a" cx="2" cy="2" r="2" transform="translate(220 32)"/><circle class="a" cx="2" cy="2" r="2" transform="translate(220 40)"/><circle class="a" cx="2" cy="2" r="2" transform="translate(220 48)"/><circle class="a" cx="2" cy="2" r="2" transform="translate(220 56)"/><circle class="a" cx="2" cy="2" r="2" transform="translate(220 64)"/><circle class="a" cx="2" cy="2" r="2" transform="translate(220 72)"/><circle class="a" cx="2" cy="2" r="2" transform="translate(30)"/><circle class="a" cx="2" cy="2" r="2" transform="translate(30 8)"/><circle class="a" cx="2" cy="2" r="2" transform="translate(30 16)"/><circle class="a" cx="2" cy="2" r="2" transform="translate(30 24)"/><circle class="a" cx="2" cy="2" r="2" transform="translate(30 32)"/><circle class="a" cx="2" cy="2" r="2" transform="translate(30 40)"/><circle class="a" cx="2" cy="2" r="2" transform="translate(30 48)"/><circle class="a" cx="2" cy="2" r="2" transform="translate(30 56)"/><circle class="a" cx="2" cy="2" r="2" transform="translate(30 64)"/><circle class="a" cx="2" cy="2" r="2" transform="translate(30 72)"/><circle class="a" cx="2" cy="2" r="2" transform="translate(150)"/><circle class="a" cx="2" cy="2" r="2" transform="translate(150 8)"/><circle class="a" cx="2" cy="2" r="2" transform="translate(150 16)"/><circle class="a" cx="2" cy="2" r="2" transform="translate(150 24)"/><circle class="a" cx="2" cy="2" r="2" transform="translate(150 32)"/><circle class="a" cx="2" cy="2" r="2" transform="translate(150 40)"/><circle class="a" cx="2" cy="2" r="2" transform="translate(150 48)"/><circle class="a" cx="2" cy="2" r="2" transform="translate(150 56)"/><circle class="a" cx="2" cy="2" r="2" transform="translate(150 64)"/><circle class="a" cx="2" cy="2" r="2" transform="translate(150 72)"/><circle class="a" cx="2" cy="2" r="2" transform="translate(70)"/><circle class="a" cx="2" cy="2" r="2" transform="translate(70 8)"/><circle class="a" cx="2" cy="2" r="2" transform="translate(70 16)"/><circle class="a" cx="2" cy="2" r="2" transform="translate(70 24)"/><circle class="a" cx="2" cy="2" r="2" transform="translate(70 32)"/><circle class="a" cx="2" cy="2" r="2" transform="translate(70 40)"/><circle class="a" cx="2" cy="2" r="2" transform="translate(70 48)"/><circle class="a" cx="2" cy="2" r="2" transform="translate(70 56)"/><circle class="a" cx="2" cy="2" r="2" transform="translate(70 64)"/><circle class="a" cx="2" cy="2" r="2" transform="translate(70 72)"/><circle class="a" cx="2" cy="2" r="2" transform="translate(190)"/><circle class="a" cx="2" cy="2" r="2" transform="translate(190 8)"/><circle class="a" cx="2" cy="2" r="2" transform="translate(190 16)"/><circle class="a" cx="2" cy="2" r="2" transform="translate(190 24)"/><circle class="a" cx="2" cy="2" r="2" transform="translate(190 32)"/><circle class="a" cx="2" cy="2" r="2" transform="translate(190 40)"/><circle class="a" cx="2" cy="2" r="2" transform="translate(190 48)"/><circle class="a" cx="2" cy="2" r="2" transform="translate(190 56)"/><circle class="a" cx="2" cy="2" r="2" transform="translate(190 64)"/><circle class="a" cx="2" cy="2" r="2" transform="translate(190 72)"/><circle class="a" cx="2" cy="2" r="2" transform="translate(110)"/><circle class="a" cx="2" cy="2" r="2" transform="translate(110 8)"/><circle class="a" cx="2" cy="2" r="2" transform="translate(110 16)"/><circle class="a" cx="2" cy="2" r="2" transform="translate(110 24)"/><circle class="a" cx="2" cy="2" r="2" transform="translate(110 32)"/><circle class="a" cx="2" cy="2" r="2" transform="translate(110 40)"/><circle class="a" cx="2" cy="2" r="2" transform="translate(110 48)"/><circle class="a" cx="2" cy="2" r="2" transform="translate(110 56)"/><circle class="a" cx="2" cy="2" r="2" transform="translate(110 64)"/><circle class="a" cx="2" cy="2" r="2" transform="translate(110 72)"/><circle class="a" cx="2" cy="2" r="2" transform="translate(230)"/><circle class="a" cx="2" cy="2" r="2" transform="translate(230 8)"/><circle class="a" cx="2" cy="2" r="2" transform="translate(230 16)"/><circle class="a" cx="2" cy="2" r="2" transform="translate(230 24)"/><circle class="a" cx="2" cy="2" r="2" transform="translate(230 32)"/><circle class="a" cx="2" cy="2" r="2" transform="translate(230 40)"/><circle class="a" cx="2" cy="2" r="2" transform="translate(230 48)"/><circle class="a" cx="2" cy="2" r="2" transform="translate(230 56)"/><circle class="a" cx="2" cy="2" r="2" transform="translate(230 64)"/><circle class="a" cx="2" cy="2" r="2" transform="translate(230 72)"/></g><g transform="translate(908.702 1363) rotate(90)"><circle class="b" cx="2" cy="2" r="2"/><circle class="b" cx="2" cy="2" r="2" transform="translate(0 8)"/><circle class="b" cx="2" cy="2" r="2" transform="translate(0 16)"/><circle class="b" cx="2" cy="2" r="2" transform="translate(0 24)"/><circle class="b" cx="2" cy="2" r="2" transform="translate(0 32)"/><circle class="b" cx="2" cy="2" r="2" transform="translate(0 40)"/><circle class="b" cx="2" cy="2" r="2" transform="translate(0 48)"/><circle class="b" cx="2" cy="2" r="2" transform="translate(0 56)"/><circle class="b" cx="2" cy="2" r="2" transform="translate(0 64)"/><circle class="b" cx="2" cy="2" r="2" transform="translate(0 72)"/><circle class="b" cx="2" cy="2" r="2" transform="translate(120)"/><circle class="b" cx="2" cy="2" r="2" transform="translate(120 8)"/><circle class="b" cx="2" cy="2" r="2" transform="translate(120 16)"/><circle class="b" cx="2" cy="2" r="2" transform="translate(120 24)"/><circle class="b" cx="2" cy="2" r="2" transform="translate(120 32)"/><circle class="b" cx="2" cy="2" r="2" transform="translate(120 40)"/><circle class="b" cx="2" cy="2" r="2" transform="translate(120 48)"/><circle class="b" cx="2" cy="2" r="2" transform="translate(120 56)"/><circle class="b" cx="2" cy="2" r="2" transform="translate(120 64)"/><circle class="b" cx="2" cy="2" r="2" transform="translate(120 72)"/><circle class="b" cx="2" cy="2" r="2" transform="translate(40)"/><circle class="b" cx="2" cy="2" r="2" transform="translate(40 8)"/><circle class="b" cx="2" cy="2" r="2" transform="translate(40 16)"/><circle class="b" cx="2" cy="2" r="2" transform="translate(40 24)"/><circle class="b" cx="2" cy="2" r="2" transform="translate(40 32)"/><circle class="b" cx="2" cy="2" r="2" transform="translate(40 40)"/><circle class="b" cx="2" cy="2" r="2" transform="translate(40 48)"/><circle class="b" cx="2" cy="2" r="2" transform="translate(40 56)"/><circle class="b" cx="2" cy="2" r="2" transform="translate(40 64)"/><circle class="b" cx="2" cy="2" r="2" transform="translate(40 72)"/><circle class="b" cx="2" cy="2" r="2" transform="translate(160)"/><circle class="b" cx="2" cy="2" r="2" transform="translate(160 8)"/><circle class="b" cx="2" cy="2" r="2" transform="translate(160 16)"/><circle class="b" cx="2" cy="2" r="2" transform="translate(160 24)"/><circle class="b" cx="2" cy="2" r="2" transform="translate(160 32)"/><circle class="b" cx="2" cy="2" r="2" transform="translate(160 40)"/><circle class="b" cx="2" cy="2" r="2" transform="translate(160 48)"/><circle class="b" cx="2" cy="2" r="2" transform="translate(160 56)"/><circle class="b" cx="2" cy="2" r="2" transform="translate(160 64)"/><circle class="b" cx="2" cy="2" r="2" transform="translate(160 72)"/><circle class="b" cx="2" cy="2" r="2" transform="translate(80)"/><circle class="b" cx="2" cy="2" r="2" transform="translate(80 8)"/><circle class="b" cx="2" cy="2" r="2" transform="translate(80 16)"/><circle class="b" cx="2" cy="2" r="2" transform="translate(80 24)"/><circle class="b" cx="2" cy="2" r="2" transform="translate(80 32)"/><circle class="b" cx="2" cy="2" r="2" transform="translate(80 40)"/><circle class="b" cx="2" cy="2" r="2" transform="translate(80 48)"/><circle class="b" cx="2" cy="2" r="2" transform="translate(80 56)"/><circle class="b" cx="2" cy="2" r="2" transform="translate(80 64)"/><circle class="b" cx="2" cy="2" r="2" transform="translate(80 72)"/><circle class="b" cx="2" cy="2" r="2" transform="translate(200)"/><circle class="b" cx="2" cy="2" r="2" transform="translate(200 8)"/><circle class="b" cx="2" cy="2" r="2" transform="translate(200 16)"/><circle class="b" cx="2" cy="2" r="2" transform="translate(200 24)"/><circle class="b" cx="2" cy="2" r="2" transform="translate(200 32)"/><circle class="b" cx="2" cy="2" r="2" transform="translate(200 40)"/><circle class="b" cx="2" cy="2" r="2" transform="translate(200 48)"/><circle class="b" cx="2" cy="2" r="2" transform="translate(200 56)"/><circle class="b" cx="2" cy="2" r="2" transform="translate(200 64)"/><circle class="b" cx="2" cy="2" r="2" transform="translate(200 72)"/><circle class="b" cx="2" cy="2" r="2" transform="translate(10)"/><circle class="b" cx="2" cy="2" r="2" transform="translate(10 8)"/><circle class="b" cx="2" cy="2" r="2" transform="translate(10 16)"/><circle class="b" cx="2" cy="2" r="2" transform="translate(10 24)"/><circle class="b" cx="2" cy="2" r="2" transform="translate(10 32)"/><circle class="b" cx="2" cy="2" r="2" transform="translate(10 40)"/><circle class="b" cx="2" cy="2" r="2" transform="translate(10 48)"/><circle class="b" cx="2" cy="2" r="2" transform="translate(10 56)"/><circle class="b" cx="2" cy="2" r="2" transform="translate(10 64)"/><circle class="b" cx="2" cy="2" r="2" transform="translate(10 72)"/><circle class="b" cx="2" cy="2" r="2" transform="translate(130)"/><circle class="b" cx="2" cy="2" r="2" transform="translate(130 8)"/><circle class="b" cx="2" cy="2" r="2" transform="translate(130 16)"/><circle class="b" cx="2" cy="2" r="2" transform="translate(130 24)"/><circle class="b" cx="2" cy="2" r="2" transform="translate(130 32)"/><circle class="b" cx="2" cy="2" r="2" transform="translate(130 40)"/><circle class="b" cx="2" cy="2" r="2" transform="translate(130 48)"/><circle class="b" cx="2" cy="2" r="2" transform="translate(130 56)"/><circle class="b" cx="2" cy="2" r="2" transform="translate(130 64)"/><circle class="b" cx="2" cy="2" r="2" transform="translate(130 72)"/><circle class="b" cx="2" cy="2" r="2" transform="translate(50)"/><circle class="b" cx="2" cy="2" r="2" transform="translate(50 8)"/><circle class="b" cx="2" cy="2" r="2" transform="translate(50 16)"/><circle class="b" cx="2" cy="2" r="2" transform="translate(50 24)"/><circle class="b" cx="2" cy="2" r="2" transform="translate(50 32)"/><circle class="b" cx="2" cy="2" r="2" transform="translate(50 40)"/><circle class="b" cx="2" cy="2" r="2" transform="translate(50 48)"/><circle class="b" cx="2" cy="2" r="2" transform="translate(50 56)"/><circle class="b" cx="2" cy="2" r="2" transform="translate(50 64)"/><circle class="b" cx="2" cy="2" r="2" transform="translate(50 72)"/><circle class="b" cx="2" cy="2" r="2" transform="translate(170)"/><circle class="b" cx="2" cy="2" r="2" transform="translate(170 8)"/><circle class="b" cx="2" cy="2" r="2" transform="translate(170 16)"/><circle class="b" cx="2" cy="2" r="2" transform="translate(170 24)"/><circle class="b" cx="2" cy="2" r="2" transform="translate(170 32)"/><circle class="b" cx="2" cy="2" r="2" transform="translate(170 40)"/><circle class="b" cx="2" cy="2" r="2" transform="translate(170 48)"/><circle class="b" cx="2" cy="2" r="2" transform="translate(170 56)"/><circle class="b" cx="2" cy="2" r="2" transform="translate(170 64)"/><circle class="b" cx="2" cy="2" r="2" transform="translate(170 72)"/><circle class="b" cx="2" cy="2" r="2" transform="translate(90)"/><circle class="b" cx="2" cy="2" r="2" transform="translate(90 8)"/><circle class="b" cx="2" cy="2" r="2" transform="translate(90 16)"/><circle class="b" cx="2" cy="2" r="2" transform="translate(90 24)"/><circle class="b" cx="2" cy="2" r="2" transform="translate(90 32)"/><circle class="b" cx="2" cy="2" r="2" transform="translate(90 40)"/><circle class="b" cx="2" cy="2" r="2" transform="translate(90 48)"/><circle class="b" cx="2" cy="2" r="2" transform="translate(90 56)"/><circle class="b" cx="2" cy="2" r="2" transform="translate(90 64)"/><circle class="b" cx="2" cy="2" r="2" transform="translate(90 72)"/><circle class="b" cx="2" cy="2" r="2" transform="translate(210)"/><circle class="b" cx="2" cy="2" r="2" transform="translate(210 8)"/><circle class="b" cx="2" cy="2" r="2" transform="translate(210 16)"/><circle class="b" cx="2" cy="2" r="2" transform="translate(210 24)"/><circle class="b" cx="2" cy="2" r="2" transform="translate(210 32)"/><circle class="b" cx="2" cy="2" r="2" transform="translate(210 40)"/><circle class="b" cx="2" cy="2" r="2" transform="translate(210 48)"/><circle class="b" cx="2" cy="2" r="2" transform="translate(210 56)"/><circle class="b" cx="2" cy="2" r="2" transform="translate(210 64)"/><circle class="b" cx="2" cy="2" r="2" transform="translate(210 72)"/><circle class="b" cx="2" cy="2" r="2" transform="translate(20)"/><circle class="b" cx="2" cy="2" r="2" transform="translate(20 8)"/><circle class="b" cx="2" cy="2" r="2" transform="translate(20 16)"/><circle class="b" cx="2" cy="2" r="2" transform="translate(20 24)"/><circle class="b" cx="2" cy="2" r="2" transform="translate(20 32)"/><circle class="b" cx="2" cy="2" r="2" transform="translate(20 40)"/><circle class="b" cx="2" cy="2" r="2" transform="translate(20 48)"/><circle class="b" cx="2" cy="2" r="2" transform="translate(20 56)"/><circle class="b" cx="2" cy="2" r="2" transform="translate(20 64)"/><circle class="b" cx="2" cy="2" r="2" transform="translate(20 72)"/><circle class="b" cx="2" cy="2" r="2" transform="translate(140)"/><circle class="b" cx="2" cy="2" r="2" transform="translate(140 8)"/><circle class="b" cx="2" cy="2" r="2" transform="translate(140 16)"/><circle class="b" cx="2" cy="2" r="2" transform="translate(140 24)"/><circle class="b" cx="2" cy="2" r="2" transform="translate(140 32)"/><circle class="b" cx="2" cy="2" r="2" transform="translate(140 40)"/><circle class="b" cx="2" cy="2" r="2" transform="translate(140 48)"/><circle class="b" cx="2" cy="2" r="2" transform="translate(140 56)"/><circle class="b" cx="2" cy="2" r="2" transform="translate(140 64)"/><circle class="b" cx="2" cy="2" r="2" transform="translate(140 72)"/><circle class="b" cx="2" cy="2" r="2" transform="translate(60)"/><circle class="b" cx="2" cy="2" r="2" transform="translate(60 8)"/><circle class="b" cx="2" cy="2" r="2" transform="translate(60 16)"/><circle class="b" cx="2" cy="2" r="2" transform="translate(60 24)"/><circle class="b" cx="2" cy="2" r="2" transform="translate(60 32)"/><circle class="b" cx="2" cy="2" r="2" transform="translate(60 40)"/><circle class="b" cx="2" cy="2" r="2" transform="translate(60 48)"/><circle class="b" cx="2" cy="2" r="2" transform="translate(60 56)"/><circle class="b" cx="2" cy="2" r="2" transform="translate(60 64)"/><circle class="b" cx="2" cy="2" r="2" transform="translate(60 72)"/><circle class="b" cx="2" cy="2" r="2" transform="translate(180)"/><circle class="b" cx="2" cy="2" r="2" transform="translate(180 8)"/><circle class="b" cx="2" cy="2" r="2" transform="translate(180 16)"/><circle class="b" cx="2" cy="2" r="2" transform="translate(180 24)"/><circle class="b" cx="2" cy="2" r="2" transform="translate(180 32)"/><circle class="b" cx="2" cy="2" r="2" transform="translate(180 40)"/><circle class="b" cx="2" cy="2" r="2" transform="translate(180 48)"/><circle class="b" cx="2" cy="2" r="2" transform="translate(180 56)"/><circle class="b" cx="2" cy="2" r="2" transform="translate(180 64)"/><circle class="b" cx="2" cy="2" r="2" transform="translate(180 72)"/><circle class="b" cx="2" cy="2" r="2" transform="translate(100)"/><circle class="b" cx="2" cy="2" r="2" transform="translate(100 8)"/><circle class="b" cx="2" cy="2" r="2" transform="translate(100 16)"/><circle class="b" cx="2" cy="2" r="2" transform="translate(100 24)"/><circle class="b" cx="2" cy="2" r="2" transform="translate(100 32)"/><circle class="b" cx="2" cy="2" r="2" transform="translate(100 40)"/><circle class="b" cx="2" cy="2" r="2" transform="translate(100 48)"/><circle class="b" cx="2" cy="2" r="2" transform="translate(100 56)"/><circle class="b" cx="2" cy="2" r="2" transform="translate(100 64)"/><circle class="b" cx="2" cy="2" r="2" transform="translate(100 72)"/><circle class="b" cx="2" cy="2" r="2" transform="translate(220)"/><circle class="b" cx="2" cy="2" r="2" transform="translate(220 8)"/><circle class="b" cx="2" cy="2" r="2" transform="translate(220 16)"/><circle class="b" cx="2" cy="2" r="2" transform="translate(220 24)"/><circle class="b" cx="2" cy="2" r="2" transform="translate(220 32)"/><circle class="b" cx="2" cy="2" r="2" transform="translate(220 40)"/><circle class="b" cx="2" cy="2" r="2" transform="translate(220 48)"/><circle class="b" cx="2" cy="2" r="2" transform="translate(220 56)"/><circle class="b" cx="2" cy="2" r="2" transform="translate(220 64)"/><circle class="b" cx="2" cy="2" r="2" transform="translate(220 72)"/><circle class="b" cx="2" cy="2" r="2" transform="translate(30)"/><circle class="b" cx="2" cy="2" r="2" transform="translate(30 8)"/><circle class="b" cx="2" cy="2" r="2" transform="translate(30 16)"/><circle class="b" cx="2" cy="2" r="2" transform="translate(30 24)"/><circle class="b" cx="2" cy="2" r="2" transform="translate(30 32)"/><circle class="b" cx="2" cy="2" r="2" transform="translate(30 40)"/><circle class="b" cx="2" cy="2" r="2" transform="translate(30 48)"/><circle class="b" cx="2" cy="2" r="2" transform="translate(30 56)"/><circle class="b" cx="2" cy="2" r="2" transform="translate(30 64)"/><circle class="b" cx="2" cy="2" r="2" transform="translate(30 72)"/><circle class="b" cx="2" cy="2" r="2" transform="translate(150)"/><circle class="b" cx="2" cy="2" r="2" transform="translate(150 8)"/><circle class="b" cx="2" cy="2" r="2" transform="translate(150 16)"/><circle class="b" cx="2" cy="2" r="2" transform="translate(150 24)"/><circle class="b" cx="2" cy="2" r="2" transform="translate(150 32)"/><circle class="b" cx="2" cy="2" r="2" transform="translate(150 40)"/><circle class="b" cx="2" cy="2" r="2" transform="translate(150 48)"/><circle class="b" cx="2" cy="2" r="2" transform="translate(150 56)"/><circle class="b" cx="2" cy="2" r="2" transform="translate(150 64)"/><circle class="b" cx="2" cy="2" r="2" transform="translate(150 72)"/><circle class="b" cx="2" cy="2" r="2" transform="translate(70)"/><circle class="b" cx="2" cy="2" r="2" transform="translate(70 8)"/><circle class="b" cx="2" cy="2" r="2" transform="translate(70 16)"/><circle class="b" cx="2" cy="2" r="2" transform="translate(70 24)"/><circle class="b" cx="2" cy="2" r="2" transform="translate(70 32)"/><circle class="b" cx="2" cy="2" r="2" transform="translate(70 40)"/><circle class="b" cx="2" cy="2" r="2" transform="translate(70 48)"/><circle class="b" cx="2" cy="2" r="2" transform="translate(70 56)"/><circle class="b" cx="2" cy="2" r="2" transform="translate(70 64)"/><circle class="b" cx="2" cy="2" r="2" transform="translate(70 72)"/><circle class="b" cx="2" cy="2" r="2" transform="translate(190)"/><circle class="b" cx="2" cy="2" r="2" transform="translate(190 8)"/><circle class="b" cx="2" cy="2" r="2" transform="translate(190 16)"/><circle class="b" cx="2" cy="2" r="2" transform="translate(190 24)"/><circle class="b" cx="2" cy="2" r="2" transform="translate(190 32)"/><circle class="b" cx="2" cy="2" r="2" transform="translate(190 40)"/><circle class="b" cx="2" cy="2" r="2" transform="translate(190 48)"/><circle class="b" cx="2" cy="2" r="2" transform="translate(190 56)"/><circle class="b" cx="2" cy="2" r="2" transform="translate(190 64)"/><circle class="b" cx="2" cy="2" r="2" transform="translate(190 72)"/><circle class="b" cx="2" cy="2" r="2" transform="translate(110)"/><circle class="b" cx="2" cy="2" r="2" transform="translate(110 8)"/><circle class="b" cx="2" cy="2" r="2" transform="translate(110 16)"/><circle class="b" cx="2" cy="2" r="2" transform="translate(110 24)"/><circle class="b" cx="2" cy="2" r="2" transform="translate(110 32)"/><circle class="b" cx="2" cy="2" r="2" transform="translate(110 40)"/><circle class="b" cx="2" cy="2" r="2" transform="translate(110 48)"/><circle class="b" cx="2" cy="2" r="2" transform="translate(110 56)"/><circle class="b" cx="2" cy="2" r="2" transform="translate(110 64)"/><circle class="b" cx="2" cy="2" r="2" transform="translate(110 72)"/><circle class="b" cx="2" cy="2" r="2" transform="translate(230)"/><circle class="b" cx="2" cy="2" r="2" transform="translate(230 8)"/><circle class="b" cx="2" cy="2" r="2" transform="translate(230 16)"/><circle class="b" cx="2" cy="2" r="2" transform="translate(230 24)"/><circle class="b" cx="2" cy="2" r="2" transform="translate(230 32)"/><circle class="b" cx="2" cy="2" r="2" transform="translate(230 40)"/><circle class="b" cx="2" cy="2" r="2" transform="translate(230 48)"/><circle class="b" cx="2" cy="2" r="2" transform="translate(230 56)"/><circle class="b" cx="2" cy="2" r="2" transform="translate(230 64)"/><circle class="b" cx="2" cy="2" r="2" transform="translate(230 72)"/></g><rect class="c" width="472" height="256" rx="128" transform="translate(255 1074)"/><rect class="d" width="472" height="256" rx="128" transform="translate(554 1309)"/></g></svg>