<svg xmlns="http://www.w3.org/2000/svg" width="55.514" height="48.19" viewBox="0 0 55.514 48.19"><defs><style>.a{fill:#888;}</style></defs><path class="a" d="M49.447,112.271a3.47,3.47,0,0,1-3.472,3.469H2.6L8.677,87.114a3.464,3.464,0,0,1,3.462-3.47h39.91a3.467,3.467,0,0,1,3.466,3.47L49.447,112.27ZM9.54,81.04H48.577V77.633a3.472,3.472,0,0,0-3.469-3.47H24.291V71.018a3.47,3.47,0,0,0-3.469-3.469H3.469A3.47,3.47,0,0,0,0,71.018v41.253L6.069,84.512A3.473,3.473,0,0,1,9.54,81.041h0Z" transform="translate(-0.001 -67.549)"/></svg>