<svg xmlns="http://www.w3.org/2000/svg" xmlns:xlink="http://www.w3.org/1999/xlink" width="882.5" height="158.279" viewBox="0 0 882.5 158.279"><defs><style>.a,.d,.m{fill:#fff;}.a{stroke:#707070;}.b,.c{fill:#ffe0e5;}.b,.e,.r{stroke:#fff;stroke-width:2px;}.e{fill:none;}.f{opacity:0.798;fill:url(#f);}.g{clip-path:url(#g);}.h{fill:#ff8c29;}.i{opacity:0.1;}.j{opacity:0.15;}.k{fill:#ff9d00;}.l{fill:#fd9d27;}.m{opacity:0.3;}.n{fill:#37474f;}.o{fill:#263238;}.p{fill:#455a64;}.q{opacity:0.25;}.r,.s{fill:#fff1cb;}.t{fill:url(#m);}.u{fill:url(#n);}.v{fill:url(#p);}.w{fill:url(#s);}.x{filter:url(#j);}.y{filter:url(#h);}.z{filter:url(#c);}.aa{filter:url(#a);}</style><filter id="a" x="73.632" y="63.024" width="409.333" height="74.097" filterUnits="userSpaceOnUse"><feOffset dy="3" input="SourceAlpha"/><feGaussianBlur stdDeviation="3" result="b"/><feFlood flood-color="#d31e3c"/><feComposite operator="in" in2="b"/></filter><filter id="c" x="73.632" y="63.024" width="409.333" height="74.097" filterUnits="userSpaceOnUse"><feOffset dy="2" input="SourceAlpha"/><feGaussianBlur stdDeviation="1.5" result="d"/><feFlood flood-color="#f7546e" result="e"/><feComposite operator="out" in="SourceGraphic" in2="d"/><feComposite operator="in" in="e"/><feComposite operator="in" in2="SourceGraphic"/></filter><linearGradient id="f" x1="0.561" x2="0.544" y2="1" gradientUnits="objectBoundingBox"><stop offset="0" stop-color="#e84f64" stop-opacity="0"/><stop offset="1" stop-color="#db3e56"/></linearGradient><clipPath id="g"><rect class="a" width="117" height="112" transform="translate(-0.249 0.184)"/></clipPath><filter id="h" x="517.38" y="52.577" width="306.906" height="94.855" filterUnits="userSpaceOnUse"><feOffset dy="6" input="SourceAlpha"/><feGaussianBlur stdDeviation="8" result="i"/><feFlood flood-color="#d31e3c"/><feComposite operator="in" in2="i"/></filter><filter id="j" x="517.38" y="52.577" width="306.906" height="94.855" filterUnits="userSpaceOnUse"><feOffset dy="2" input="SourceAlpha"/><feGaussianBlur stdDeviation="1.5" result="k"/><feFlood flood-color="#ed8e18" result="l"/><feComposite operator="out" in="SourceGraphic" in2="k"/><feComposite operator="in" in="l"/><feComposite operator="in" in2="SourceGraphic"/></filter><linearGradient id="m" x1="0.139" y1="0.97" x2="0.691" y2="0.1" gradientUnits="objectBoundingBox"><stop offset="0" stop-color="#ff5a77"/><stop offset="1" stop-color="#ffb9b9"/></linearGradient><linearGradient id="n" x1="0.138" y1="0.935" x2="0.863" y2="0.158" gradientUnits="objectBoundingBox"><stop offset="0" stop-color="#25fcb3"/><stop offset="1" stop-color="#cefff2" stop-opacity="0.741"/></linearGradient><linearGradient id="p" x1="0.139" y1="0.97" x2="0.691" y2="0.1" gradientUnits="objectBoundingBox"><stop offset="0" stop-color="#ffd753"/><stop offset="1" stop-color="#fff1d8"/></linearGradient><linearGradient id="s" x1="0.926" x2="0.141" y2="0.885" gradientUnits="objectBoundingBox"><stop offset="0" stop-color="#fff" stop-opacity="0.259"/><stop offset="1" stop-color="#f1c9ff"/></linearGradient></defs><g transform="translate(-518.75 -0.033)"><g transform="translate(602.655 20.791)"><g data-type="innerShadowGroup"><g class="aa" transform="matrix(1, 0, 0, 1, -83.9, -20.76)"><path class="b" d="M27.652-42.624a3.765,3.765,0,0,1-1.019,1.034,2.255,2.255,0,0,1-1.225.325,2.471,2.471,0,0,1-1.358-.443q-.679-.443-1.521-.974a12.214,12.214,0,0,0-1.934-.974,6.813,6.813,0,0,0-2.569-.443,6.726,6.726,0,0,0-2.377.384,4.71,4.71,0,0,0-1.7,1.063,4.383,4.383,0,0,0-1.019,1.595,5.732,5.732,0,0,0-.34,2.008,2.986,2.986,0,0,0,.664,1.978,6.04,6.04,0,0,0,1.772,1.4,17.89,17.89,0,0,0,2.5,1.107q1.388.5,2.85,1.093a27.127,27.127,0,0,1,2.864,1.358,10.368,10.368,0,0,1,2.51,1.919,8.713,8.713,0,0,1,1.772,2.776,10.281,10.281,0,0,1,.664,3.9,16.607,16.607,0,0,1-1.122,6.113A14.772,14.772,0,0,1,23.843-12.4a15.3,15.3,0,0,1-5.094,3.4A17.32,17.32,0,0,1,12-7.75a17.305,17.305,0,0,1-3.735-.413,19.5,19.5,0,0,1-3.6-1.166,18.365,18.365,0,0,1-3.2-1.787,12.306,12.306,0,0,1-2.51-2.3l3.425-4.488a2.981,2.981,0,0,1,1-.827,2.652,2.652,0,0,1,1.24-.325,2.687,2.687,0,0,1,1.609.576l1.727,1.27a12.549,12.549,0,0,0,2.2,1.27,7.381,7.381,0,0,0,3.086.576,5.612,5.612,0,0,0,4.149-1.462,5.868,5.868,0,0,0,1.462-4.326,3.46,3.46,0,0,0-.664-2.185,5.526,5.526,0,0,0-1.742-1.447,14.737,14.737,0,0,0-2.466-1.048q-1.388-.458-2.835-.989a24.122,24.122,0,0,1-2.835-1.255,9,9,0,0,1-2.466-1.89A9,9,0,0,1,4.1-32.835a11.515,11.515,0,0,1-.664-4.178,14.448,14.448,0,0,1,1.078-5.507A14.3,14.3,0,0,1,7.6-47.2a14.881,14.881,0,0,1,4.872-3.248,16.386,16.386,0,0,1,6.437-1.211,16.354,16.354,0,0,1,3.558.384A16.6,16.6,0,0,1,25.7-50.213,14.476,14.476,0,0,1,28.45-48.6a11.107,11.107,0,0,1,2.1,2.023ZM29.217,1.492l4.9-40.337h4.725a3.36,3.36,0,0,1,2.215.664,2.675,2.675,0,0,1,.8,2.17v2.776a17.455,17.455,0,0,1,4.666-4.459,10.1,10.1,0,0,1,5.492-1.624,8.753,8.753,0,0,1,3.455.664,6.887,6.887,0,0,1,2.7,2.082,10.267,10.267,0,0,1,1.772,3.617,19.048,19.048,0,0,1,.635,5.241,23.628,23.628,0,0,1-1.225,7.633,22.49,22.49,0,0,1-3.292,6.364A16.6,16.6,0,0,1,51.29-9.36,10.891,10.891,0,0,1,45.636-7.75a8.93,8.93,0,0,1-3.425-.62,9.168,9.168,0,0,1-2.658-1.654L38.135,1.492Zm19.135-33.87a3.48,3.48,0,0,0-1.978.723,9.211,9.211,0,0,0-1.993,1.978,18.307,18.307,0,0,0-1.8,2.938,21.566,21.566,0,0,0-1.4,3.6l-.915,7.382a5.386,5.386,0,0,0,1.9.974,7.355,7.355,0,0,0,1.993.3A4.633,4.633,0,0,0,47.1-15.546a9.363,9.363,0,0,0,2.318-2.791,15.581,15.581,0,0,0,1.521-3.942,18.8,18.8,0,0,0,.546-4.518,8.091,8.091,0,0,0-.856-4.252A2.6,2.6,0,0,0,48.352-32.378ZM89.4-31.314a8.839,8.839,0,0,1-.827,3.839,7.74,7.74,0,0,1-2.879,3.086A19.544,19.544,0,0,1,80.17-22.1a55.076,55.076,0,0,1-8.726,1.476,6.875,6.875,0,0,0,1.373,4.577A4.982,4.982,0,0,0,76.7-14.6a9.323,9.323,0,0,0,2.1-.207,7.319,7.319,0,0,0,1.55-.532,10.356,10.356,0,0,0,1.2-.679l1.019-.679a5.288,5.288,0,0,1,1.019-.532,3.321,3.321,0,0,1,1.211-.207,1.791,1.791,0,0,1,.856.221,2.772,2.772,0,0,1,.738.576l2.362,2.746a32.208,32.208,0,0,1-3.174,2.761,17.367,17.367,0,0,1-3.189,1.919A15.157,15.157,0,0,1,78.9-8.1a21.406,21.406,0,0,1-4.031.354,13.058,13.058,0,0,1-4.99-.93,11.328,11.328,0,0,1-3.913-2.628,11.786,11.786,0,0,1-2.54-4.09,14.981,14.981,0,0,1-.9-5.315,20.91,20.91,0,0,1,.546-4.784,20.164,20.164,0,0,1,1.565-4.385,18.354,18.354,0,0,1,2.5-3.78,16.36,16.36,0,0,1,3.322-2.968A15.649,15.649,0,0,1,74.5-38.564a15.471,15.471,0,0,1,4.68-.694,12.438,12.438,0,0,1,4.356.709,10.221,10.221,0,0,1,3.2,1.846,7.962,7.962,0,0,1,1.978,2.554A6.511,6.511,0,0,1,89.4-31.314ZM78.649-33.086a5.322,5.322,0,0,0-3.986,1.816,11.5,11.5,0,0,0-2.569,4.976,42.758,42.758,0,0,0,4.636-.93,11.582,11.582,0,0,0,2.746-1.063,3.288,3.288,0,0,0,1.314-1.24,3.1,3.1,0,0,0,.34-1.432,2.173,2.173,0,0,0-.591-1.447A2.38,2.38,0,0,0,78.649-33.086Zm36.5,19.489a27.932,27.932,0,0,1-2.835,2.746,13.258,13.258,0,0,1-2.805,1.8,12.853,12.853,0,0,1-3.086.989,19.51,19.51,0,0,1-3.617.31,12.277,12.277,0,0,1-4.843-.915,10.325,10.325,0,0,1-3.676-2.6,11.689,11.689,0,0,1-2.348-4.075,16.384,16.384,0,0,1-.827-5.374,20.641,20.641,0,0,1,1.225-7.117,18.682,18.682,0,0,1,3.425-5.906,16.535,16.535,0,0,1,5.212-4.031,14.7,14.7,0,0,1,6.615-1.491,12.16,12.16,0,0,1,5.271,1.048,11.024,11.024,0,0,1,3.942,3.292l-2.953,3.4a3.9,3.9,0,0,1-.738.576,1.73,1.73,0,0,1-.915.251,1.823,1.823,0,0,1-.989-.251q-.4-.251-.871-.532a7.072,7.072,0,0,0-1.152-.532,5.206,5.206,0,0,0-1.772-.251,5.018,5.018,0,0,0-2.643.783,7.554,7.554,0,0,0-2.289,2.259,12.377,12.377,0,0,0-1.609,3.632,18.155,18.155,0,0,0-.605,4.9,9.014,9.014,0,0,0,.354,2.672,5.522,5.522,0,0,0,.974,1.89,4.1,4.1,0,0,0,1.447,1.137,4.156,4.156,0,0,0,1.772.384A5.552,5.552,0,0,0,107.1-15a8.824,8.824,0,0,0,1.521-.871q.65-.472,1.211-.871a2.284,2.284,0,0,1,1.358-.4,1.984,1.984,0,0,1,.871.207,2.14,2.14,0,0,1,.723.561Zm14.942-25.247L126.427-8.223h-9.036l3.662-30.622Zm1.713-8.386a4.584,4.584,0,0,1-.472,2.052,5.831,5.831,0,0,1-1.24,1.683,6.036,6.036,0,0,1-1.757,1.152,5.046,5.046,0,0,1-2.023.428,4.741,4.741,0,0,1-1.978-.428,5.618,5.618,0,0,1-1.668-1.152,5.788,5.788,0,0,1-1.166-1.683,4.838,4.838,0,0,1-.443-2.052A4.937,4.937,0,0,1,121.5-49.3a5.651,5.651,0,0,1,1.2-1.713,5.871,5.871,0,0,1,1.7-1.166,4.741,4.741,0,0,1,1.978-.428,5.165,5.165,0,0,1,2.038.413,5.531,5.531,0,0,1,1.727,1.152,5.874,5.874,0,0,1,1.211,1.713A4.87,4.87,0,0,1,131.8-47.231ZM158.2-8.223h-4.9a4.017,4.017,0,0,1-1.432-.221,2.294,2.294,0,0,1-.915-.605,2.141,2.141,0,0,1-.472-.915,4.74,4.74,0,0,1-.133-1.152V-13.3a15.752,15.752,0,0,1-4.193,4.075,9.22,9.22,0,0,1-5.079,1.476,7.951,7.951,0,0,1-3.189-.664,7.632,7.632,0,0,1-2.717-2.008,10,10,0,0,1-1.89-3.425,15.291,15.291,0,0,1-.709-4.917,20.747,20.747,0,0,1,1.521-7.9,20.182,20.182,0,0,1,4.252-6.541,20.465,20.465,0,0,1,6.482-4.459,20.2,20.2,0,0,1,8.239-1.654,33.927,33.927,0,0,1,4.429.3,21.983,21.983,0,0,1,4.429,1.063Zm-13.465-6.762a3.1,3.1,0,0,0,1.949-.753,8.5,8.5,0,0,0,1.787-2.052,18.232,18.232,0,0,0,1.55-3.042,28.406,28.406,0,0,0,1.211-3.721l1.063-8.475h-.532a8.418,8.418,0,0,0-4.09,1,10.013,10.013,0,0,0-3.174,2.731,12.894,12.894,0,0,0-2.052,4.016,16.123,16.123,0,0,0-.723,4.887,11.441,11.441,0,0,0,.236,2.51,5.422,5.422,0,0,0,.635,1.668,2.581,2.581,0,0,0,.945.93A2.475,2.475,0,0,0,144.735-14.985Zm19.489,6.762L169.6-52.428h9.036L173.261-8.223Zm53.3-34.4a3.765,3.765,0,0,1-1.019,1.034,2.255,2.255,0,0,1-1.225.325,2.471,2.471,0,0,1-1.358-.443q-.679-.443-1.521-.974a12.215,12.215,0,0,0-1.934-.974A6.813,6.813,0,0,0,207.9-44.1a6.726,6.726,0,0,0-2.377.384,4.71,4.71,0,0,0-1.7,1.063,4.382,4.382,0,0,0-1.019,1.595,5.732,5.732,0,0,0-.34,2.008,2.986,2.986,0,0,0,.664,1.978,6.04,6.04,0,0,0,1.772,1.4,17.889,17.889,0,0,0,2.5,1.107q1.388.5,2.85,1.093a27.129,27.129,0,0,1,2.864,1.358,10.368,10.368,0,0,1,2.51,1.919,8.713,8.713,0,0,1,1.772,2.776,10.281,10.281,0,0,1,.664,3.9,16.607,16.607,0,0,1-1.122,6.113,14.772,14.772,0,0,1-3.219,5.005,15.3,15.3,0,0,1-5.094,3.4,17.32,17.32,0,0,1-6.747,1.255,17.306,17.306,0,0,1-3.735-.413,19.5,19.5,0,0,1-3.6-1.166,18.365,18.365,0,0,1-3.2-1.787,12.305,12.305,0,0,1-2.51-2.3l3.425-4.488a2.982,2.982,0,0,1,1-.827,2.652,2.652,0,0,1,1.24-.325,2.687,2.687,0,0,1,1.609.576l1.727,1.27a12.548,12.548,0,0,0,2.2,1.27,7.381,7.381,0,0,0,3.086.576,5.612,5.612,0,0,0,4.149-1.462,5.868,5.868,0,0,0,1.462-4.326,3.46,3.46,0,0,0-.664-2.185,5.526,5.526,0,0,0-1.742-1.447,14.737,14.737,0,0,0-2.466-1.048q-1.388-.458-2.835-.989a24.122,24.122,0,0,1-2.835-1.255,9,9,0,0,1-2.466-1.89,9,9,0,0,1-1.742-2.864,11.516,11.516,0,0,1-.664-4.178,14.448,14.448,0,0,1,1.078-5.507,14.3,14.3,0,0,1,3.086-4.68,14.881,14.881,0,0,1,4.872-3.248,16.386,16.386,0,0,1,6.437-1.211,16.354,16.354,0,0,1,3.558.384,16.6,16.6,0,0,1,3.233,1.063,14.476,14.476,0,0,1,2.746,1.609,11.107,11.107,0,0,1,2.1,2.023Zm28.2,34.4h-4.9a4.017,4.017,0,0,1-1.432-.221,2.294,2.294,0,0,1-.915-.605A2.141,2.141,0,0,1,238-9.965a4.739,4.739,0,0,1-.133-1.152V-13.3a15.752,15.752,0,0,1-4.193,4.075A9.22,9.22,0,0,1,228.6-7.75a7.951,7.951,0,0,1-3.189-.664,7.632,7.632,0,0,1-2.717-2.008,10,10,0,0,1-1.89-3.425,15.29,15.29,0,0,1-.709-4.917,20.747,20.747,0,0,1,1.521-7.9,20.182,20.182,0,0,1,4.252-6.541,20.465,20.465,0,0,1,6.482-4.459,20.2,20.2,0,0,1,8.239-1.654,33.928,33.928,0,0,1,4.429.3,21.983,21.983,0,0,1,4.429,1.063ZM232.26-14.985a3.1,3.1,0,0,0,1.949-.753A8.5,8.5,0,0,0,236-17.79a18.233,18.233,0,0,0,1.55-3.042,28.411,28.411,0,0,0,1.211-3.721l1.063-8.475h-.532a8.418,8.418,0,0,0-4.09,1,10.013,10.013,0,0,0-3.174,2.731,12.894,12.894,0,0,0-2.052,4.016,16.123,16.123,0,0,0-.723,4.887,11.44,11.44,0,0,0,.236,2.51,5.423,5.423,0,0,0,.635,1.668,2.581,2.581,0,0,0,.945.93A2.475,2.475,0,0,0,232.26-14.985Zm19.489,6.762,5.374-44.205h9.036L260.785-8.223Zm42.168-23.092a8.839,8.839,0,0,1-.827,3.839,7.74,7.74,0,0,1-2.879,3.086,19.544,19.544,0,0,1-5.522,2.289,55.076,55.076,0,0,1-8.726,1.476,6.875,6.875,0,0,0,1.373,4.577,4.981,4.981,0,0,0,3.883,1.447,9.322,9.322,0,0,0,2.1-.207,7.319,7.319,0,0,0,1.55-.532,10.359,10.359,0,0,0,1.2-.679l1.019-.679a5.289,5.289,0,0,1,1.019-.532,3.322,3.322,0,0,1,1.211-.207,1.791,1.791,0,0,1,.856.221,2.772,2.772,0,0,1,.738.576l2.362,2.746a32.209,32.209,0,0,1-3.174,2.761A17.368,17.368,0,0,1,286.9-9.212,15.157,15.157,0,0,1,283.419-8.1a21.406,21.406,0,0,1-4.031.354,13.058,13.058,0,0,1-4.99-.93,11.327,11.327,0,0,1-3.913-2.628,11.786,11.786,0,0,1-2.54-4.09,14.981,14.981,0,0,1-.9-5.315,20.91,20.91,0,0,1,.546-4.784,20.165,20.165,0,0,1,1.565-4.385,18.355,18.355,0,0,1,2.5-3.78,16.359,16.359,0,0,1,3.322-2.968,15.65,15.65,0,0,1,4.046-1.934,15.471,15.471,0,0,1,4.68-.694,12.438,12.438,0,0,1,4.356.709,10.22,10.22,0,0,1,3.2,1.846,7.962,7.962,0,0,1,1.978,2.554A6.511,6.511,0,0,1,293.917-31.314Zm-10.749-1.772a5.322,5.322,0,0,0-3.986,1.816,11.5,11.5,0,0,0-2.569,4.976,42.758,42.758,0,0,0,4.636-.93,11.582,11.582,0,0,0,2.746-1.063,3.287,3.287,0,0,0,1.314-1.24,3.1,3.1,0,0,0,.34-1.432,2.173,2.173,0,0,0-.591-1.447A2.38,2.38,0,0,0,283.168-33.086Zm53.95-10.749H321.2L319.784-32.5H333.1l-1,7.412H318.869L316.8-8.223h-9.686l5.315-43.024h25.631Zm11.073,29.293a4.39,4.39,0,0,0,2.746-.93,7.54,7.54,0,0,0,2.052-2.54,14.707,14.707,0,0,0,1.3-3.75,21.79,21.79,0,0,0,.458-4.562,9.381,9.381,0,0,0-.9-4.769,3.206,3.206,0,0,0-2.938-1.432,4.39,4.39,0,0,0-2.746.93,7.577,7.577,0,0,0-2.052,2.525,14.445,14.445,0,0,0-1.3,3.75,22,22,0,0,0-.458,4.577,9.4,9.4,0,0,0,.9,4.739A3.186,3.186,0,0,0,348.191-14.542Zm-.827,6.792a13.268,13.268,0,0,1-4.8-.856,10.958,10.958,0,0,1-3.868-2.5,11.489,11.489,0,0,1-2.569-4.045,15.287,15.287,0,0,1-.93-5.537,20.251,20.251,0,0,1,1.344-7.486,18.828,18.828,0,0,1,3.617-5.891,16.493,16.493,0,0,1,5.271-3.868,14.83,14.83,0,0,1,6.3-1.388,13.15,13.15,0,0,1,4.784.856,10.986,10.986,0,0,1,3.854,2.5,11.659,11.659,0,0,1,2.584,4.045,15.074,15.074,0,0,1,.945,5.537,20.085,20.085,0,0,1-1.344,7.427,19.014,19.014,0,0,1-3.617,5.906,16.583,16.583,0,0,1-5.271,3.9A14.7,14.7,0,0,1,347.364-7.75Zm18.485-.472,3.721-30.622H374.3a3.36,3.36,0,0,1,2.215.664,2.675,2.675,0,0,1,.8,2.17v3.484a16.771,16.771,0,0,1,3.839-4.813,6.717,6.717,0,0,1,4.282-1.683,5.778,5.778,0,0,1,2.451.561l-1.654,8.475a7.236,7.236,0,0,0-2.864-.65,5.2,5.2,0,0,0-4.031,2.052,16.045,16.045,0,0,0-2.85,6.6L374.827-8.223Z" transform="translate(84.95 122.63)"/></g><path class="c" d="M27.652-42.624a3.765,3.765,0,0,1-1.019,1.034,2.255,2.255,0,0,1-1.225.325,2.471,2.471,0,0,1-1.358-.443q-.679-.443-1.521-.974a12.214,12.214,0,0,0-1.934-.974,6.813,6.813,0,0,0-2.569-.443,6.726,6.726,0,0,0-2.377.384,4.71,4.71,0,0,0-1.7,1.063,4.383,4.383,0,0,0-1.019,1.595,5.732,5.732,0,0,0-.34,2.008,2.986,2.986,0,0,0,.664,1.978,6.04,6.04,0,0,0,1.772,1.4,17.89,17.89,0,0,0,2.5,1.107q1.388.5,2.85,1.093a27.127,27.127,0,0,1,2.864,1.358,10.368,10.368,0,0,1,2.51,1.919,8.713,8.713,0,0,1,1.772,2.776,10.281,10.281,0,0,1,.664,3.9,16.607,16.607,0,0,1-1.122,6.113A14.772,14.772,0,0,1,23.843-12.4a15.3,15.3,0,0,1-5.094,3.4A17.32,17.32,0,0,1,12-7.75a17.305,17.305,0,0,1-3.735-.413,19.5,19.5,0,0,1-3.6-1.166,18.365,18.365,0,0,1-3.2-1.787,12.306,12.306,0,0,1-2.51-2.3l3.425-4.488a2.981,2.981,0,0,1,1-.827,2.652,2.652,0,0,1,1.24-.325,2.687,2.687,0,0,1,1.609.576l1.727,1.27a12.549,12.549,0,0,0,2.2,1.27,7.381,7.381,0,0,0,3.086.576,5.612,5.612,0,0,0,4.149-1.462,5.868,5.868,0,0,0,1.462-4.326,3.46,3.46,0,0,0-.664-2.185,5.526,5.526,0,0,0-1.742-1.447,14.737,14.737,0,0,0-2.466-1.048q-1.388-.458-2.835-.989a24.122,24.122,0,0,1-2.835-1.255,9,9,0,0,1-2.466-1.89A9,9,0,0,1,4.1-32.835a11.515,11.515,0,0,1-.664-4.178,14.448,14.448,0,0,1,1.078-5.507A14.3,14.3,0,0,1,7.6-47.2a14.881,14.881,0,0,1,4.872-3.248,16.386,16.386,0,0,1,6.437-1.211,16.354,16.354,0,0,1,3.558.384A16.6,16.6,0,0,1,25.7-50.213,14.476,14.476,0,0,1,28.45-48.6a11.107,11.107,0,0,1,2.1,2.023ZM29.217,1.492l4.9-40.337h4.725a3.36,3.36,0,0,1,2.215.664,2.675,2.675,0,0,1,.8,2.17v2.776a17.455,17.455,0,0,1,4.666-4.459,10.1,10.1,0,0,1,5.492-1.624,8.753,8.753,0,0,1,3.455.664,6.887,6.887,0,0,1,2.7,2.082,10.267,10.267,0,0,1,1.772,3.617,19.048,19.048,0,0,1,.635,5.241,23.628,23.628,0,0,1-1.225,7.633,22.49,22.49,0,0,1-3.292,6.364A16.6,16.6,0,0,1,51.29-9.36,10.891,10.891,0,0,1,45.636-7.75a8.93,8.93,0,0,1-3.425-.62,9.168,9.168,0,0,1-2.658-1.654L38.135,1.492Zm19.135-33.87a3.48,3.48,0,0,0-1.978.723,9.211,9.211,0,0,0-1.993,1.978,18.307,18.307,0,0,0-1.8,2.938,21.566,21.566,0,0,0-1.4,3.6l-.915,7.382a5.386,5.386,0,0,0,1.9.974,7.355,7.355,0,0,0,1.993.3A4.633,4.633,0,0,0,47.1-15.546a9.363,9.363,0,0,0,2.318-2.791,15.581,15.581,0,0,0,1.521-3.942,18.8,18.8,0,0,0,.546-4.518,8.091,8.091,0,0,0-.856-4.252A2.6,2.6,0,0,0,48.352-32.378ZM89.4-31.314a8.839,8.839,0,0,1-.827,3.839,7.74,7.74,0,0,1-2.879,3.086A19.544,19.544,0,0,1,80.17-22.1a55.076,55.076,0,0,1-8.726,1.476,6.875,6.875,0,0,0,1.373,4.577A4.982,4.982,0,0,0,76.7-14.6a9.323,9.323,0,0,0,2.1-.207,7.319,7.319,0,0,0,1.55-.532,10.356,10.356,0,0,0,1.2-.679l1.019-.679a5.288,5.288,0,0,1,1.019-.532,3.321,3.321,0,0,1,1.211-.207,1.791,1.791,0,0,1,.856.221,2.772,2.772,0,0,1,.738.576l2.362,2.746a32.208,32.208,0,0,1-3.174,2.761,17.367,17.367,0,0,1-3.189,1.919A15.157,15.157,0,0,1,78.9-8.1a21.406,21.406,0,0,1-4.031.354,13.058,13.058,0,0,1-4.99-.93,11.328,11.328,0,0,1-3.913-2.628,11.786,11.786,0,0,1-2.54-4.09,14.981,14.981,0,0,1-.9-5.315,20.91,20.91,0,0,1,.546-4.784,20.164,20.164,0,0,1,1.565-4.385,18.354,18.354,0,0,1,2.5-3.78,16.36,16.36,0,0,1,3.322-2.968A15.649,15.649,0,0,1,74.5-38.564a15.471,15.471,0,0,1,4.68-.694,12.438,12.438,0,0,1,4.356.709,10.221,10.221,0,0,1,3.2,1.846,7.962,7.962,0,0,1,1.978,2.554A6.511,6.511,0,0,1,89.4-31.314ZM78.649-33.086a5.322,5.322,0,0,0-3.986,1.816,11.5,11.5,0,0,0-2.569,4.976,42.758,42.758,0,0,0,4.636-.93,11.582,11.582,0,0,0,2.746-1.063,3.288,3.288,0,0,0,1.314-1.24,3.1,3.1,0,0,0,.34-1.432,2.173,2.173,0,0,0-.591-1.447A2.38,2.38,0,0,0,78.649-33.086Zm36.5,19.489a27.932,27.932,0,0,1-2.835,2.746,13.258,13.258,0,0,1-2.805,1.8,12.853,12.853,0,0,1-3.086.989,19.51,19.51,0,0,1-3.617.31,12.277,12.277,0,0,1-4.843-.915,10.325,10.325,0,0,1-3.676-2.6,11.689,11.689,0,0,1-2.348-4.075,16.384,16.384,0,0,1-.827-5.374,20.641,20.641,0,0,1,1.225-7.117,18.682,18.682,0,0,1,3.425-5.906,16.535,16.535,0,0,1,5.212-4.031,14.7,14.7,0,0,1,6.615-1.491,12.16,12.16,0,0,1,5.271,1.048,11.024,11.024,0,0,1,3.942,3.292l-2.953,3.4a3.9,3.9,0,0,1-.738.576,1.73,1.73,0,0,1-.915.251,1.823,1.823,0,0,1-.989-.251q-.4-.251-.871-.532a7.072,7.072,0,0,0-1.152-.532,5.206,5.206,0,0,0-1.772-.251,5.018,5.018,0,0,0-2.643.783,7.554,7.554,0,0,0-2.289,2.259,12.377,12.377,0,0,0-1.609,3.632,18.155,18.155,0,0,0-.605,4.9,9.014,9.014,0,0,0,.354,2.672,5.522,5.522,0,0,0,.974,1.89,4.1,4.1,0,0,0,1.447,1.137,4.156,4.156,0,0,0,1.772.384A5.552,5.552,0,0,0,107.1-15a8.824,8.824,0,0,0,1.521-.871q.65-.472,1.211-.871a2.284,2.284,0,0,1,1.358-.4,1.984,1.984,0,0,1,.871.207,2.14,2.14,0,0,1,.723.561Zm14.942-25.247L126.427-8.223h-9.036l3.662-30.622Zm1.713-8.386a4.584,4.584,0,0,1-.472,2.052,5.831,5.831,0,0,1-1.24,1.683,6.036,6.036,0,0,1-1.757,1.152,5.046,5.046,0,0,1-2.023.428,4.741,4.741,0,0,1-1.978-.428,5.618,5.618,0,0,1-1.668-1.152,5.788,5.788,0,0,1-1.166-1.683,4.838,4.838,0,0,1-.443-2.052A4.937,4.937,0,0,1,121.5-49.3a5.651,5.651,0,0,1,1.2-1.713,5.871,5.871,0,0,1,1.7-1.166,4.741,4.741,0,0,1,1.978-.428,5.165,5.165,0,0,1,2.038.413,5.531,5.531,0,0,1,1.727,1.152,5.874,5.874,0,0,1,1.211,1.713A4.87,4.87,0,0,1,131.8-47.231ZM158.2-8.223h-4.9a4.017,4.017,0,0,1-1.432-.221,2.294,2.294,0,0,1-.915-.605,2.141,2.141,0,0,1-.472-.915,4.74,4.74,0,0,1-.133-1.152V-13.3a15.752,15.752,0,0,1-4.193,4.075,9.22,9.22,0,0,1-5.079,1.476,7.951,7.951,0,0,1-3.189-.664,7.632,7.632,0,0,1-2.717-2.008,10,10,0,0,1-1.89-3.425,15.291,15.291,0,0,1-.709-4.917,20.747,20.747,0,0,1,1.521-7.9,20.182,20.182,0,0,1,4.252-6.541,20.465,20.465,0,0,1,6.482-4.459,20.2,20.2,0,0,1,8.239-1.654,33.927,33.927,0,0,1,4.429.3,21.983,21.983,0,0,1,4.429,1.063Zm-13.465-6.762a3.1,3.1,0,0,0,1.949-.753,8.5,8.5,0,0,0,1.787-2.052,18.232,18.232,0,0,0,1.55-3.042,28.406,28.406,0,0,0,1.211-3.721l1.063-8.475h-.532a8.418,8.418,0,0,0-4.09,1,10.013,10.013,0,0,0-3.174,2.731,12.894,12.894,0,0,0-2.052,4.016,16.123,16.123,0,0,0-.723,4.887,11.441,11.441,0,0,0,.236,2.51,5.422,5.422,0,0,0,.635,1.668,2.581,2.581,0,0,0,.945.93A2.475,2.475,0,0,0,144.735-14.985Zm19.489,6.762L169.6-52.428h9.036L173.261-8.223Zm53.3-34.4a3.765,3.765,0,0,1-1.019,1.034,2.255,2.255,0,0,1-1.225.325,2.471,2.471,0,0,1-1.358-.443q-.679-.443-1.521-.974a12.215,12.215,0,0,0-1.934-.974A6.813,6.813,0,0,0,207.9-44.1a6.726,6.726,0,0,0-2.377.384,4.71,4.71,0,0,0-1.7,1.063,4.382,4.382,0,0,0-1.019,1.595,5.732,5.732,0,0,0-.34,2.008,2.986,2.986,0,0,0,.664,1.978,6.04,6.04,0,0,0,1.772,1.4,17.889,17.889,0,0,0,2.5,1.107q1.388.5,2.85,1.093a27.129,27.129,0,0,1,2.864,1.358,10.368,10.368,0,0,1,2.51,1.919,8.713,8.713,0,0,1,1.772,2.776,10.281,10.281,0,0,1,.664,3.9,16.607,16.607,0,0,1-1.122,6.113,14.772,14.772,0,0,1-3.219,5.005,15.3,15.3,0,0,1-5.094,3.4,17.32,17.32,0,0,1-6.747,1.255,17.306,17.306,0,0,1-3.735-.413,19.5,19.5,0,0,1-3.6-1.166,18.365,18.365,0,0,1-3.2-1.787,12.305,12.305,0,0,1-2.51-2.3l3.425-4.488a2.982,2.982,0,0,1,1-.827,2.652,2.652,0,0,1,1.24-.325,2.687,2.687,0,0,1,1.609.576l1.727,1.27a12.548,12.548,0,0,0,2.2,1.27,7.381,7.381,0,0,0,3.086.576,5.612,5.612,0,0,0,4.149-1.462,5.868,5.868,0,0,0,1.462-4.326,3.46,3.46,0,0,0-.664-2.185,5.526,5.526,0,0,0-1.742-1.447,14.737,14.737,0,0,0-2.466-1.048q-1.388-.458-2.835-.989a24.122,24.122,0,0,1-2.835-1.255,9,9,0,0,1-2.466-1.89,9,9,0,0,1-1.742-2.864,11.516,11.516,0,0,1-.664-4.178,14.448,14.448,0,0,1,1.078-5.507,14.3,14.3,0,0,1,3.086-4.68,14.881,14.881,0,0,1,4.872-3.248,16.386,16.386,0,0,1,6.437-1.211,16.354,16.354,0,0,1,3.558.384,16.6,16.6,0,0,1,3.233,1.063,14.476,14.476,0,0,1,2.746,1.609,11.107,11.107,0,0,1,2.1,2.023Zm28.2,34.4h-4.9a4.017,4.017,0,0,1-1.432-.221,2.294,2.294,0,0,1-.915-.605A2.141,2.141,0,0,1,238-9.965a4.739,4.739,0,0,1-.133-1.152V-13.3a15.752,15.752,0,0,1-4.193,4.075A9.22,9.22,0,0,1,228.6-7.75a7.951,7.951,0,0,1-3.189-.664,7.632,7.632,0,0,1-2.717-2.008,10,10,0,0,1-1.89-3.425,15.29,15.29,0,0,1-.709-4.917,20.747,20.747,0,0,1,1.521-7.9,20.182,20.182,0,0,1,4.252-6.541,20.465,20.465,0,0,1,6.482-4.459,20.2,20.2,0,0,1,8.239-1.654,33.928,33.928,0,0,1,4.429.3,21.983,21.983,0,0,1,4.429,1.063ZM232.26-14.985a3.1,3.1,0,0,0,1.949-.753A8.5,8.5,0,0,0,236-17.79a18.233,18.233,0,0,0,1.55-3.042,28.411,28.411,0,0,0,1.211-3.721l1.063-8.475h-.532a8.418,8.418,0,0,0-4.09,1,10.013,10.013,0,0,0-3.174,2.731,12.894,12.894,0,0,0-2.052,4.016,16.123,16.123,0,0,0-.723,4.887,11.44,11.44,0,0,0,.236,2.51,5.423,5.423,0,0,0,.635,1.668,2.581,2.581,0,0,0,.945.93A2.475,2.475,0,0,0,232.26-14.985Zm19.489,6.762,5.374-44.205h9.036L260.785-8.223Zm42.168-23.092a8.839,8.839,0,0,1-.827,3.839,7.74,7.74,0,0,1-2.879,3.086,19.544,19.544,0,0,1-5.522,2.289,55.076,55.076,0,0,1-8.726,1.476,6.875,6.875,0,0,0,1.373,4.577,4.981,4.981,0,0,0,3.883,1.447,9.322,9.322,0,0,0,2.1-.207,7.319,7.319,0,0,0,1.55-.532,10.359,10.359,0,0,0,1.2-.679l1.019-.679a5.289,5.289,0,0,1,1.019-.532,3.322,3.322,0,0,1,1.211-.207,1.791,1.791,0,0,1,.856.221,2.772,2.772,0,0,1,.738.576l2.362,2.746a32.209,32.209,0,0,1-3.174,2.761A17.368,17.368,0,0,1,286.9-9.212,15.157,15.157,0,0,1,283.419-8.1a21.406,21.406,0,0,1-4.031.354,13.058,13.058,0,0,1-4.99-.93,11.327,11.327,0,0,1-3.913-2.628,11.786,11.786,0,0,1-2.54-4.09,14.981,14.981,0,0,1-.9-5.315,20.91,20.91,0,0,1,.546-4.784,20.165,20.165,0,0,1,1.565-4.385,18.355,18.355,0,0,1,2.5-3.78,16.359,16.359,0,0,1,3.322-2.968,15.65,15.65,0,0,1,4.046-1.934,15.471,15.471,0,0,1,4.68-.694,12.438,12.438,0,0,1,4.356.709,10.22,10.22,0,0,1,3.2,1.846,7.962,7.962,0,0,1,1.978,2.554A6.511,6.511,0,0,1,293.917-31.314Zm-10.749-1.772a5.322,5.322,0,0,0-3.986,1.816,11.5,11.5,0,0,0-2.569,4.976,42.758,42.758,0,0,0,4.636-.93,11.582,11.582,0,0,0,2.746-1.063,3.287,3.287,0,0,0,1.314-1.24,3.1,3.1,0,0,0,.34-1.432,2.173,2.173,0,0,0-.591-1.447A2.38,2.38,0,0,0,283.168-33.086Zm53.95-10.749H321.2L319.784-32.5H333.1l-1,7.412H318.869L316.8-8.223h-9.686l5.315-43.024h25.631Zm11.073,29.293a4.39,4.39,0,0,0,2.746-.93,7.54,7.54,0,0,0,2.052-2.54,14.707,14.707,0,0,0,1.3-3.75,21.79,21.79,0,0,0,.458-4.562,9.381,9.381,0,0,0-.9-4.769,3.206,3.206,0,0,0-2.938-1.432,4.39,4.39,0,0,0-2.746.93,7.577,7.577,0,0,0-2.052,2.525,14.445,14.445,0,0,0-1.3,3.75,22,22,0,0,0-.458,4.577,9.4,9.4,0,0,0,.9,4.739A3.186,3.186,0,0,0,348.191-14.542Zm-.827,6.792a13.268,13.268,0,0,1-4.8-.856,10.958,10.958,0,0,1-3.868-2.5,11.489,11.489,0,0,1-2.569-4.045,15.287,15.287,0,0,1-.93-5.537,20.251,20.251,0,0,1,1.344-7.486,18.828,18.828,0,0,1,3.617-5.891,16.493,16.493,0,0,1,5.271-3.868,14.83,14.83,0,0,1,6.3-1.388,13.15,13.15,0,0,1,4.784.856,10.986,10.986,0,0,1,3.854,2.5,11.659,11.659,0,0,1,2.584,4.045,15.074,15.074,0,0,1,.945,5.537,20.085,20.085,0,0,1-1.344,7.427,19.014,19.014,0,0,1-3.617,5.906,16.583,16.583,0,0,1-5.271,3.9A14.7,14.7,0,0,1,347.364-7.75Zm18.485-.472,3.721-30.622H374.3a3.36,3.36,0,0,1,2.215.664,2.675,2.675,0,0,1,.8,2.17v3.484a16.771,16.771,0,0,1,3.839-4.813,6.717,6.717,0,0,1,4.282-1.683,5.778,5.778,0,0,1,2.451.561l-1.654,8.475a7.236,7.236,0,0,0-2.864-.65,5.2,5.2,0,0,0-4.031,2.052,16.045,16.045,0,0,0-2.85,6.6L374.827-8.223Z" transform="translate(1.05 101.872)"/><g class="z" transform="matrix(1, 0, 0, 1, -83.9, -20.76)"><path class="d" d="M27.652-42.624a3.765,3.765,0,0,1-1.019,1.034,2.255,2.255,0,0,1-1.225.325,2.471,2.471,0,0,1-1.358-.443q-.679-.443-1.521-.974a12.214,12.214,0,0,0-1.934-.974,6.813,6.813,0,0,0-2.569-.443,6.726,6.726,0,0,0-2.377.384,4.71,4.71,0,0,0-1.7,1.063,4.383,4.383,0,0,0-1.019,1.595,5.732,5.732,0,0,0-.34,2.008,2.986,2.986,0,0,0,.664,1.978,6.04,6.04,0,0,0,1.772,1.4,17.89,17.89,0,0,0,2.5,1.107q1.388.5,2.85,1.093a27.127,27.127,0,0,1,2.864,1.358,10.368,10.368,0,0,1,2.51,1.919,8.713,8.713,0,0,1,1.772,2.776,10.281,10.281,0,0,1,.664,3.9,16.607,16.607,0,0,1-1.122,6.113A14.772,14.772,0,0,1,23.843-12.4a15.3,15.3,0,0,1-5.094,3.4A17.32,17.32,0,0,1,12-7.75a17.305,17.305,0,0,1-3.735-.413,19.5,19.5,0,0,1-3.6-1.166,18.365,18.365,0,0,1-3.2-1.787,12.306,12.306,0,0,1-2.51-2.3l3.425-4.488a2.981,2.981,0,0,1,1-.827,2.652,2.652,0,0,1,1.24-.325,2.687,2.687,0,0,1,1.609.576l1.727,1.27a12.549,12.549,0,0,0,2.2,1.27,7.381,7.381,0,0,0,3.086.576,5.612,5.612,0,0,0,4.149-1.462,5.868,5.868,0,0,0,1.462-4.326,3.46,3.46,0,0,0-.664-2.185,5.526,5.526,0,0,0-1.742-1.447,14.737,14.737,0,0,0-2.466-1.048q-1.388-.458-2.835-.989a24.122,24.122,0,0,1-2.835-1.255,9,9,0,0,1-2.466-1.89A9,9,0,0,1,4.1-32.835a11.515,11.515,0,0,1-.664-4.178,14.448,14.448,0,0,1,1.078-5.507A14.3,14.3,0,0,1,7.6-47.2a14.881,14.881,0,0,1,4.872-3.248,16.386,16.386,0,0,1,6.437-1.211,16.354,16.354,0,0,1,3.558.384A16.6,16.6,0,0,1,25.7-50.213,14.476,14.476,0,0,1,28.45-48.6a11.107,11.107,0,0,1,2.1,2.023ZM29.217,1.492l4.9-40.337h4.725a3.36,3.36,0,0,1,2.215.664,2.675,2.675,0,0,1,.8,2.17v2.776a17.455,17.455,0,0,1,4.666-4.459,10.1,10.1,0,0,1,5.492-1.624,8.753,8.753,0,0,1,3.455.664,6.887,6.887,0,0,1,2.7,2.082,10.267,10.267,0,0,1,1.772,3.617,19.048,19.048,0,0,1,.635,5.241,23.628,23.628,0,0,1-1.225,7.633,22.49,22.49,0,0,1-3.292,6.364A16.6,16.6,0,0,1,51.29-9.36,10.891,10.891,0,0,1,45.636-7.75a8.93,8.93,0,0,1-3.425-.62,9.168,9.168,0,0,1-2.658-1.654L38.135,1.492Zm19.135-33.87a3.48,3.48,0,0,0-1.978.723,9.211,9.211,0,0,0-1.993,1.978,18.307,18.307,0,0,0-1.8,2.938,21.566,21.566,0,0,0-1.4,3.6l-.915,7.382a5.386,5.386,0,0,0,1.9.974,7.355,7.355,0,0,0,1.993.3A4.633,4.633,0,0,0,47.1-15.546a9.363,9.363,0,0,0,2.318-2.791,15.581,15.581,0,0,0,1.521-3.942,18.8,18.8,0,0,0,.546-4.518,8.091,8.091,0,0,0-.856-4.252A2.6,2.6,0,0,0,48.352-32.378ZM89.4-31.314a8.839,8.839,0,0,1-.827,3.839,7.74,7.74,0,0,1-2.879,3.086A19.544,19.544,0,0,1,80.17-22.1a55.076,55.076,0,0,1-8.726,1.476,6.875,6.875,0,0,0,1.373,4.577A4.982,4.982,0,0,0,76.7-14.6a9.323,9.323,0,0,0,2.1-.207,7.319,7.319,0,0,0,1.55-.532,10.356,10.356,0,0,0,1.2-.679l1.019-.679a5.288,5.288,0,0,1,1.019-.532,3.321,3.321,0,0,1,1.211-.207,1.791,1.791,0,0,1,.856.221,2.772,2.772,0,0,1,.738.576l2.362,2.746a32.208,32.208,0,0,1-3.174,2.761,17.367,17.367,0,0,1-3.189,1.919A15.157,15.157,0,0,1,78.9-8.1a21.406,21.406,0,0,1-4.031.354,13.058,13.058,0,0,1-4.99-.93,11.328,11.328,0,0,1-3.913-2.628,11.786,11.786,0,0,1-2.54-4.09,14.981,14.981,0,0,1-.9-5.315,20.91,20.91,0,0,1,.546-4.784,20.164,20.164,0,0,1,1.565-4.385,18.354,18.354,0,0,1,2.5-3.78,16.36,16.36,0,0,1,3.322-2.968A15.649,15.649,0,0,1,74.5-38.564a15.471,15.471,0,0,1,4.68-.694,12.438,12.438,0,0,1,4.356.709,10.221,10.221,0,0,1,3.2,1.846,7.962,7.962,0,0,1,1.978,2.554A6.511,6.511,0,0,1,89.4-31.314ZM78.649-33.086a5.322,5.322,0,0,0-3.986,1.816,11.5,11.5,0,0,0-2.569,4.976,42.758,42.758,0,0,0,4.636-.93,11.582,11.582,0,0,0,2.746-1.063,3.288,3.288,0,0,0,1.314-1.24,3.1,3.1,0,0,0,.34-1.432,2.173,2.173,0,0,0-.591-1.447A2.38,2.38,0,0,0,78.649-33.086Zm36.5,19.489a27.932,27.932,0,0,1-2.835,2.746,13.258,13.258,0,0,1-2.805,1.8,12.853,12.853,0,0,1-3.086.989,19.51,19.51,0,0,1-3.617.31,12.277,12.277,0,0,1-4.843-.915,10.325,10.325,0,0,1-3.676-2.6,11.689,11.689,0,0,1-2.348-4.075,16.384,16.384,0,0,1-.827-5.374,20.641,20.641,0,0,1,1.225-7.117,18.682,18.682,0,0,1,3.425-5.906,16.535,16.535,0,0,1,5.212-4.031,14.7,14.7,0,0,1,6.615-1.491,12.16,12.16,0,0,1,5.271,1.048,11.024,11.024,0,0,1,3.942,3.292l-2.953,3.4a3.9,3.9,0,0,1-.738.576,1.73,1.73,0,0,1-.915.251,1.823,1.823,0,0,1-.989-.251q-.4-.251-.871-.532a7.072,7.072,0,0,0-1.152-.532,5.206,5.206,0,0,0-1.772-.251,5.018,5.018,0,0,0-2.643.783,7.554,7.554,0,0,0-2.289,2.259,12.377,12.377,0,0,0-1.609,3.632,18.155,18.155,0,0,0-.605,4.9,9.014,9.014,0,0,0,.354,2.672,5.522,5.522,0,0,0,.974,1.89,4.1,4.1,0,0,0,1.447,1.137,4.156,4.156,0,0,0,1.772.384A5.552,5.552,0,0,0,107.1-15a8.824,8.824,0,0,0,1.521-.871q.65-.472,1.211-.871a2.284,2.284,0,0,1,1.358-.4,1.984,1.984,0,0,1,.871.207,2.14,2.14,0,0,1,.723.561Zm14.942-25.247L126.427-8.223h-9.036l3.662-30.622Zm1.713-8.386a4.584,4.584,0,0,1-.472,2.052,5.831,5.831,0,0,1-1.24,1.683,6.036,6.036,0,0,1-1.757,1.152,5.046,5.046,0,0,1-2.023.428,4.741,4.741,0,0,1-1.978-.428,5.618,5.618,0,0,1-1.668-1.152,5.788,5.788,0,0,1-1.166-1.683,4.838,4.838,0,0,1-.443-2.052A4.937,4.937,0,0,1,121.5-49.3a5.651,5.651,0,0,1,1.2-1.713,5.871,5.871,0,0,1,1.7-1.166,4.741,4.741,0,0,1,1.978-.428,5.165,5.165,0,0,1,2.038.413,5.531,5.531,0,0,1,1.727,1.152,5.874,5.874,0,0,1,1.211,1.713A4.87,4.87,0,0,1,131.8-47.231ZM158.2-8.223h-4.9a4.017,4.017,0,0,1-1.432-.221,2.294,2.294,0,0,1-.915-.605,2.141,2.141,0,0,1-.472-.915,4.74,4.74,0,0,1-.133-1.152V-13.3a15.752,15.752,0,0,1-4.193,4.075,9.22,9.22,0,0,1-5.079,1.476,7.951,7.951,0,0,1-3.189-.664,7.632,7.632,0,0,1-2.717-2.008,10,10,0,0,1-1.89-3.425,15.291,15.291,0,0,1-.709-4.917,20.747,20.747,0,0,1,1.521-7.9,20.182,20.182,0,0,1,4.252-6.541,20.465,20.465,0,0,1,6.482-4.459,20.2,20.2,0,0,1,8.239-1.654,33.927,33.927,0,0,1,4.429.3,21.983,21.983,0,0,1,4.429,1.063Zm-13.465-6.762a3.1,3.1,0,0,0,1.949-.753,8.5,8.5,0,0,0,1.787-2.052,18.232,18.232,0,0,0,1.55-3.042,28.406,28.406,0,0,0,1.211-3.721l1.063-8.475h-.532a8.418,8.418,0,0,0-4.09,1,10.013,10.013,0,0,0-3.174,2.731,12.894,12.894,0,0,0-2.052,4.016,16.123,16.123,0,0,0-.723,4.887,11.441,11.441,0,0,0,.236,2.51,5.422,5.422,0,0,0,.635,1.668,2.581,2.581,0,0,0,.945.93A2.475,2.475,0,0,0,144.735-14.985Zm19.489,6.762L169.6-52.428h9.036L173.261-8.223Zm53.3-34.4a3.765,3.765,0,0,1-1.019,1.034,2.255,2.255,0,0,1-1.225.325,2.471,2.471,0,0,1-1.358-.443q-.679-.443-1.521-.974a12.215,12.215,0,0,0-1.934-.974A6.813,6.813,0,0,0,207.9-44.1a6.726,6.726,0,0,0-2.377.384,4.71,4.71,0,0,0-1.7,1.063,4.382,4.382,0,0,0-1.019,1.595,5.732,5.732,0,0,0-.34,2.008,2.986,2.986,0,0,0,.664,1.978,6.04,6.04,0,0,0,1.772,1.4,17.889,17.889,0,0,0,2.5,1.107q1.388.5,2.85,1.093a27.129,27.129,0,0,1,2.864,1.358,10.368,10.368,0,0,1,2.51,1.919,8.713,8.713,0,0,1,1.772,2.776,10.281,10.281,0,0,1,.664,3.9,16.607,16.607,0,0,1-1.122,6.113,14.772,14.772,0,0,1-3.219,5.005,15.3,15.3,0,0,1-5.094,3.4,17.32,17.32,0,0,1-6.747,1.255,17.306,17.306,0,0,1-3.735-.413,19.5,19.5,0,0,1-3.6-1.166,18.365,18.365,0,0,1-3.2-1.787,12.305,12.305,0,0,1-2.51-2.3l3.425-4.488a2.982,2.982,0,0,1,1-.827,2.652,2.652,0,0,1,1.24-.325,2.687,2.687,0,0,1,1.609.576l1.727,1.27a12.548,12.548,0,0,0,2.2,1.27,7.381,7.381,0,0,0,3.086.576,5.612,5.612,0,0,0,4.149-1.462,5.868,5.868,0,0,0,1.462-4.326,3.46,3.46,0,0,0-.664-2.185,5.526,5.526,0,0,0-1.742-1.447,14.737,14.737,0,0,0-2.466-1.048q-1.388-.458-2.835-.989a24.122,24.122,0,0,1-2.835-1.255,9,9,0,0,1-2.466-1.89,9,9,0,0,1-1.742-2.864,11.516,11.516,0,0,1-.664-4.178,14.448,14.448,0,0,1,1.078-5.507,14.3,14.3,0,0,1,3.086-4.68,14.881,14.881,0,0,1,4.872-3.248,16.386,16.386,0,0,1,6.437-1.211,16.354,16.354,0,0,1,3.558.384,16.6,16.6,0,0,1,3.233,1.063,14.476,14.476,0,0,1,2.746,1.609,11.107,11.107,0,0,1,2.1,2.023Zm28.2,34.4h-4.9a4.017,4.017,0,0,1-1.432-.221,2.294,2.294,0,0,1-.915-.605A2.141,2.141,0,0,1,238-9.965a4.739,4.739,0,0,1-.133-1.152V-13.3a15.752,15.752,0,0,1-4.193,4.075A9.22,9.22,0,0,1,228.6-7.75a7.951,7.951,0,0,1-3.189-.664,7.632,7.632,0,0,1-2.717-2.008,10,10,0,0,1-1.89-3.425,15.29,15.29,0,0,1-.709-4.917,20.747,20.747,0,0,1,1.521-7.9,20.182,20.182,0,0,1,4.252-6.541,20.465,20.465,0,0,1,6.482-4.459,20.2,20.2,0,0,1,8.239-1.654,33.928,33.928,0,0,1,4.429.3,21.983,21.983,0,0,1,4.429,1.063ZM232.26-14.985a3.1,3.1,0,0,0,1.949-.753A8.5,8.5,0,0,0,236-17.79a18.233,18.233,0,0,0,1.55-3.042,28.411,28.411,0,0,0,1.211-3.721l1.063-8.475h-.532a8.418,8.418,0,0,0-4.09,1,10.013,10.013,0,0,0-3.174,2.731,12.894,12.894,0,0,0-2.052,4.016,16.123,16.123,0,0,0-.723,4.887,11.44,11.44,0,0,0,.236,2.51,5.423,5.423,0,0,0,.635,1.668,2.581,2.581,0,0,0,.945.93A2.475,2.475,0,0,0,232.26-14.985Zm19.489,6.762,5.374-44.205h9.036L260.785-8.223Zm42.168-23.092a8.839,8.839,0,0,1-.827,3.839,7.74,7.74,0,0,1-2.879,3.086,19.544,19.544,0,0,1-5.522,2.289,55.076,55.076,0,0,1-8.726,1.476,6.875,6.875,0,0,0,1.373,4.577,4.981,4.981,0,0,0,3.883,1.447,9.322,9.322,0,0,0,2.1-.207,7.319,7.319,0,0,0,1.55-.532,10.359,10.359,0,0,0,1.2-.679l1.019-.679a5.289,5.289,0,0,1,1.019-.532,3.322,3.322,0,0,1,1.211-.207,1.791,1.791,0,0,1,.856.221,2.772,2.772,0,0,1,.738.576l2.362,2.746a32.209,32.209,0,0,1-3.174,2.761A17.368,17.368,0,0,1,286.9-9.212,15.157,15.157,0,0,1,283.419-8.1a21.406,21.406,0,0,1-4.031.354,13.058,13.058,0,0,1-4.99-.93,11.327,11.327,0,0,1-3.913-2.628,11.786,11.786,0,0,1-2.54-4.09,14.981,14.981,0,0,1-.9-5.315,20.91,20.91,0,0,1,.546-4.784,20.165,20.165,0,0,1,1.565-4.385,18.355,18.355,0,0,1,2.5-3.78,16.359,16.359,0,0,1,3.322-2.968,15.65,15.65,0,0,1,4.046-1.934,15.471,15.471,0,0,1,4.68-.694,12.438,12.438,0,0,1,4.356.709,10.22,10.22,0,0,1,3.2,1.846,7.962,7.962,0,0,1,1.978,2.554A6.511,6.511,0,0,1,293.917-31.314Zm-10.749-1.772a5.322,5.322,0,0,0-3.986,1.816,11.5,11.5,0,0,0-2.569,4.976,42.758,42.758,0,0,0,4.636-.93,11.582,11.582,0,0,0,2.746-1.063,3.287,3.287,0,0,0,1.314-1.24,3.1,3.1,0,0,0,.34-1.432,2.173,2.173,0,0,0-.591-1.447A2.38,2.38,0,0,0,283.168-33.086Zm53.95-10.749H321.2L319.784-32.5H333.1l-1,7.412H318.869L316.8-8.223h-9.686l5.315-43.024h25.631Zm11.073,29.293a4.39,4.39,0,0,0,2.746-.93,7.54,7.54,0,0,0,2.052-2.54,14.707,14.707,0,0,0,1.3-3.75,21.79,21.79,0,0,0,.458-4.562,9.381,9.381,0,0,0-.9-4.769,3.206,3.206,0,0,0-2.938-1.432,4.39,4.39,0,0,0-2.746.93,7.577,7.577,0,0,0-2.052,2.525,14.445,14.445,0,0,0-1.3,3.75,22,22,0,0,0-.458,4.577,9.4,9.4,0,0,0,.9,4.739A3.186,3.186,0,0,0,348.191-14.542Zm-.827,6.792a13.268,13.268,0,0,1-4.8-.856,10.958,10.958,0,0,1-3.868-2.5,11.489,11.489,0,0,1-2.569-4.045,15.287,15.287,0,0,1-.93-5.537,20.251,20.251,0,0,1,1.344-7.486,18.828,18.828,0,0,1,3.617-5.891,16.493,16.493,0,0,1,5.271-3.868,14.83,14.83,0,0,1,6.3-1.388,13.15,13.15,0,0,1,4.784.856,10.986,10.986,0,0,1,3.854,2.5,11.659,11.659,0,0,1,2.584,4.045,15.074,15.074,0,0,1,.945,5.537,20.085,20.085,0,0,1-1.344,7.427,19.014,19.014,0,0,1-3.617,5.906,16.583,16.583,0,0,1-5.271,3.9A14.7,14.7,0,0,1,347.364-7.75Zm18.485-.472,3.721-30.622H374.3a3.36,3.36,0,0,1,2.215.664,2.675,2.675,0,0,1,.8,2.17v3.484a16.771,16.771,0,0,1,3.839-4.813,6.717,6.717,0,0,1,4.282-1.683,5.778,5.778,0,0,1,2.451.561l-1.654,8.475a7.236,7.236,0,0,0-2.864-.65,5.2,5.2,0,0,0-4.031,2.052,16.045,16.045,0,0,0-2.85,6.6L374.827-8.223Z" transform="translate(84.95 122.63)"/></g><path class="e" d="M27.652-42.624a3.765,3.765,0,0,1-1.019,1.034,2.255,2.255,0,0,1-1.225.325,2.471,2.471,0,0,1-1.358-.443q-.679-.443-1.521-.974a12.214,12.214,0,0,0-1.934-.974,6.813,6.813,0,0,0-2.569-.443,6.726,6.726,0,0,0-2.377.384,4.71,4.71,0,0,0-1.7,1.063,4.383,4.383,0,0,0-1.019,1.595,5.732,5.732,0,0,0-.34,2.008,2.986,2.986,0,0,0,.664,1.978,6.04,6.04,0,0,0,1.772,1.4,17.89,17.89,0,0,0,2.5,1.107q1.388.5,2.85,1.093a27.127,27.127,0,0,1,2.864,1.358,10.368,10.368,0,0,1,2.51,1.919,8.713,8.713,0,0,1,1.772,2.776,10.281,10.281,0,0,1,.664,3.9,16.607,16.607,0,0,1-1.122,6.113A14.772,14.772,0,0,1,23.843-12.4a15.3,15.3,0,0,1-5.094,3.4A17.32,17.32,0,0,1,12-7.75a17.305,17.305,0,0,1-3.735-.413,19.5,19.5,0,0,1-3.6-1.166,18.365,18.365,0,0,1-3.2-1.787,12.306,12.306,0,0,1-2.51-2.3l3.425-4.488a2.981,2.981,0,0,1,1-.827,2.652,2.652,0,0,1,1.24-.325,2.687,2.687,0,0,1,1.609.576l1.727,1.27a12.549,12.549,0,0,0,2.2,1.27,7.381,7.381,0,0,0,3.086.576,5.612,5.612,0,0,0,4.149-1.462,5.868,5.868,0,0,0,1.462-4.326,3.46,3.46,0,0,0-.664-2.185,5.526,5.526,0,0,0-1.742-1.447,14.737,14.737,0,0,0-2.466-1.048q-1.388-.458-2.835-.989a24.122,24.122,0,0,1-2.835-1.255,9,9,0,0,1-2.466-1.89A9,9,0,0,1,4.1-32.835a11.515,11.515,0,0,1-.664-4.178,14.448,14.448,0,0,1,1.078-5.507A14.3,14.3,0,0,1,7.6-47.2a14.881,14.881,0,0,1,4.872-3.248,16.386,16.386,0,0,1,6.437-1.211,16.354,16.354,0,0,1,3.558.384A16.6,16.6,0,0,1,25.7-50.213,14.476,14.476,0,0,1,28.45-48.6a11.107,11.107,0,0,1,2.1,2.023ZM29.217,1.492l4.9-40.337h4.725a3.36,3.36,0,0,1,2.215.664,2.675,2.675,0,0,1,.8,2.17v2.776a17.455,17.455,0,0,1,4.666-4.459,10.1,10.1,0,0,1,5.492-1.624,8.753,8.753,0,0,1,3.455.664,6.887,6.887,0,0,1,2.7,2.082,10.267,10.267,0,0,1,1.772,3.617,19.048,19.048,0,0,1,.635,5.241,23.628,23.628,0,0,1-1.225,7.633,22.49,22.49,0,0,1-3.292,6.364A16.6,16.6,0,0,1,51.29-9.36,10.891,10.891,0,0,1,45.636-7.75a8.93,8.93,0,0,1-3.425-.62,9.168,9.168,0,0,1-2.658-1.654L38.135,1.492Zm19.135-33.87a3.48,3.48,0,0,0-1.978.723,9.211,9.211,0,0,0-1.993,1.978,18.307,18.307,0,0,0-1.8,2.938,21.566,21.566,0,0,0-1.4,3.6l-.915,7.382a5.386,5.386,0,0,0,1.9.974,7.355,7.355,0,0,0,1.993.3A4.633,4.633,0,0,0,47.1-15.546a9.363,9.363,0,0,0,2.318-2.791,15.581,15.581,0,0,0,1.521-3.942,18.8,18.8,0,0,0,.546-4.518,8.091,8.091,0,0,0-.856-4.252A2.6,2.6,0,0,0,48.352-32.378ZM89.4-31.314a8.839,8.839,0,0,1-.827,3.839,7.74,7.74,0,0,1-2.879,3.086A19.544,19.544,0,0,1,80.17-22.1a55.076,55.076,0,0,1-8.726,1.476,6.875,6.875,0,0,0,1.373,4.577A4.982,4.982,0,0,0,76.7-14.6a9.323,9.323,0,0,0,2.1-.207,7.319,7.319,0,0,0,1.55-.532,10.356,10.356,0,0,0,1.2-.679l1.019-.679a5.288,5.288,0,0,1,1.019-.532,3.321,3.321,0,0,1,1.211-.207,1.791,1.791,0,0,1,.856.221,2.772,2.772,0,0,1,.738.576l2.362,2.746a32.208,32.208,0,0,1-3.174,2.761,17.367,17.367,0,0,1-3.189,1.919A15.157,15.157,0,0,1,78.9-8.1a21.406,21.406,0,0,1-4.031.354,13.058,13.058,0,0,1-4.99-.93,11.328,11.328,0,0,1-3.913-2.628,11.786,11.786,0,0,1-2.54-4.09,14.981,14.981,0,0,1-.9-5.315,20.91,20.91,0,0,1,.546-4.784,20.164,20.164,0,0,1,1.565-4.385,18.354,18.354,0,0,1,2.5-3.78,16.36,16.36,0,0,1,3.322-2.968A15.649,15.649,0,0,1,74.5-38.564a15.471,15.471,0,0,1,4.68-.694,12.438,12.438,0,0,1,4.356.709,10.221,10.221,0,0,1,3.2,1.846,7.962,7.962,0,0,1,1.978,2.554A6.511,6.511,0,0,1,89.4-31.314ZM78.649-33.086a5.322,5.322,0,0,0-3.986,1.816,11.5,11.5,0,0,0-2.569,4.976,42.758,42.758,0,0,0,4.636-.93,11.582,11.582,0,0,0,2.746-1.063,3.288,3.288,0,0,0,1.314-1.24,3.1,3.1,0,0,0,.34-1.432,2.173,2.173,0,0,0-.591-1.447A2.38,2.38,0,0,0,78.649-33.086Zm36.5,19.489a27.932,27.932,0,0,1-2.835,2.746,13.258,13.258,0,0,1-2.805,1.8,12.853,12.853,0,0,1-3.086.989,19.51,19.51,0,0,1-3.617.31,12.277,12.277,0,0,1-4.843-.915,10.325,10.325,0,0,1-3.676-2.6,11.689,11.689,0,0,1-2.348-4.075,16.384,16.384,0,0,1-.827-5.374,20.641,20.641,0,0,1,1.225-7.117,18.682,18.682,0,0,1,3.425-5.906,16.535,16.535,0,0,1,5.212-4.031,14.7,14.7,0,0,1,6.615-1.491,12.16,12.16,0,0,1,5.271,1.048,11.024,11.024,0,0,1,3.942,3.292l-2.953,3.4a3.9,3.9,0,0,1-.738.576,1.73,1.73,0,0,1-.915.251,1.823,1.823,0,0,1-.989-.251q-.4-.251-.871-.532a7.072,7.072,0,0,0-1.152-.532,5.206,5.206,0,0,0-1.772-.251,5.018,5.018,0,0,0-2.643.783,7.554,7.554,0,0,0-2.289,2.259,12.377,12.377,0,0,0-1.609,3.632,18.155,18.155,0,0,0-.605,4.9,9.014,9.014,0,0,0,.354,2.672,5.522,5.522,0,0,0,.974,1.89,4.1,4.1,0,0,0,1.447,1.137,4.156,4.156,0,0,0,1.772.384A5.552,5.552,0,0,0,107.1-15a8.824,8.824,0,0,0,1.521-.871q.65-.472,1.211-.871a2.284,2.284,0,0,1,1.358-.4,1.984,1.984,0,0,1,.871.207,2.14,2.14,0,0,1,.723.561Zm14.942-25.247L126.427-8.223h-9.036l3.662-30.622Zm1.713-8.386a4.584,4.584,0,0,1-.472,2.052,5.831,5.831,0,0,1-1.24,1.683,6.036,6.036,0,0,1-1.757,1.152,5.046,5.046,0,0,1-2.023.428,4.741,4.741,0,0,1-1.978-.428,5.618,5.618,0,0,1-1.668-1.152,5.788,5.788,0,0,1-1.166-1.683,4.838,4.838,0,0,1-.443-2.052A4.937,4.937,0,0,1,121.5-49.3a5.651,5.651,0,0,1,1.2-1.713,5.871,5.871,0,0,1,1.7-1.166,4.741,4.741,0,0,1,1.978-.428,5.165,5.165,0,0,1,2.038.413,5.531,5.531,0,0,1,1.727,1.152,5.874,5.874,0,0,1,1.211,1.713A4.87,4.87,0,0,1,131.8-47.231ZM158.2-8.223h-4.9a4.017,4.017,0,0,1-1.432-.221,2.294,2.294,0,0,1-.915-.605,2.141,2.141,0,0,1-.472-.915,4.74,4.74,0,0,1-.133-1.152V-13.3a15.752,15.752,0,0,1-4.193,4.075,9.22,9.22,0,0,1-5.079,1.476,7.951,7.951,0,0,1-3.189-.664,7.632,7.632,0,0,1-2.717-2.008,10,10,0,0,1-1.89-3.425,15.291,15.291,0,0,1-.709-4.917,20.747,20.747,0,0,1,1.521-7.9,20.182,20.182,0,0,1,4.252-6.541,20.465,20.465,0,0,1,6.482-4.459,20.2,20.2,0,0,1,8.239-1.654,33.927,33.927,0,0,1,4.429.3,21.983,21.983,0,0,1,4.429,1.063Zm-13.465-6.762a3.1,3.1,0,0,0,1.949-.753,8.5,8.5,0,0,0,1.787-2.052,18.232,18.232,0,0,0,1.55-3.042,28.406,28.406,0,0,0,1.211-3.721l1.063-8.475h-.532a8.418,8.418,0,0,0-4.09,1,10.013,10.013,0,0,0-3.174,2.731,12.894,12.894,0,0,0-2.052,4.016,16.123,16.123,0,0,0-.723,4.887,11.441,11.441,0,0,0,.236,2.51,5.422,5.422,0,0,0,.635,1.668,2.581,2.581,0,0,0,.945.93A2.475,2.475,0,0,0,144.735-14.985Zm19.489,6.762L169.6-52.428h9.036L173.261-8.223Zm53.3-34.4a3.765,3.765,0,0,1-1.019,1.034,2.255,2.255,0,0,1-1.225.325,2.471,2.471,0,0,1-1.358-.443q-.679-.443-1.521-.974a12.215,12.215,0,0,0-1.934-.974A6.813,6.813,0,0,0,207.9-44.1a6.726,6.726,0,0,0-2.377.384,4.71,4.71,0,0,0-1.7,1.063,4.382,4.382,0,0,0-1.019,1.595,5.732,5.732,0,0,0-.34,2.008,2.986,2.986,0,0,0,.664,1.978,6.04,6.04,0,0,0,1.772,1.4,17.889,17.889,0,0,0,2.5,1.107q1.388.5,2.85,1.093a27.129,27.129,0,0,1,2.864,1.358,10.368,10.368,0,0,1,2.51,1.919,8.713,8.713,0,0,1,1.772,2.776,10.281,10.281,0,0,1,.664,3.9,16.607,16.607,0,0,1-1.122,6.113,14.772,14.772,0,0,1-3.219,5.005,15.3,15.3,0,0,1-5.094,3.4,17.32,17.32,0,0,1-6.747,1.255,17.306,17.306,0,0,1-3.735-.413,19.5,19.5,0,0,1-3.6-1.166,18.365,18.365,0,0,1-3.2-1.787,12.305,12.305,0,0,1-2.51-2.3l3.425-4.488a2.982,2.982,0,0,1,1-.827,2.652,2.652,0,0,1,1.24-.325,2.687,2.687,0,0,1,1.609.576l1.727,1.27a12.548,12.548,0,0,0,2.2,1.27,7.381,7.381,0,0,0,3.086.576,5.612,5.612,0,0,0,4.149-1.462,5.868,5.868,0,0,0,1.462-4.326,3.46,3.46,0,0,0-.664-2.185,5.526,5.526,0,0,0-1.742-1.447,14.737,14.737,0,0,0-2.466-1.048q-1.388-.458-2.835-.989a24.122,24.122,0,0,1-2.835-1.255,9,9,0,0,1-2.466-1.89,9,9,0,0,1-1.742-2.864,11.516,11.516,0,0,1-.664-4.178,14.448,14.448,0,0,1,1.078-5.507,14.3,14.3,0,0,1,3.086-4.68,14.881,14.881,0,0,1,4.872-3.248,16.386,16.386,0,0,1,6.437-1.211,16.354,16.354,0,0,1,3.558.384,16.6,16.6,0,0,1,3.233,1.063,14.476,14.476,0,0,1,2.746,1.609,11.107,11.107,0,0,1,2.1,2.023Zm28.2,34.4h-4.9a4.017,4.017,0,0,1-1.432-.221,2.294,2.294,0,0,1-.915-.605A2.141,2.141,0,0,1,238-9.965a4.739,4.739,0,0,1-.133-1.152V-13.3a15.752,15.752,0,0,1-4.193,4.075A9.22,9.22,0,0,1,228.6-7.75a7.951,7.951,0,0,1-3.189-.664,7.632,7.632,0,0,1-2.717-2.008,10,10,0,0,1-1.89-3.425,15.29,15.29,0,0,1-.709-4.917,20.747,20.747,0,0,1,1.521-7.9,20.182,20.182,0,0,1,4.252-6.541,20.465,20.465,0,0,1,6.482-4.459,20.2,20.2,0,0,1,8.239-1.654,33.928,33.928,0,0,1,4.429.3,21.983,21.983,0,0,1,4.429,1.063ZM232.26-14.985a3.1,3.1,0,0,0,1.949-.753A8.5,8.5,0,0,0,236-17.79a18.233,18.233,0,0,0,1.55-3.042,28.411,28.411,0,0,0,1.211-3.721l1.063-8.475h-.532a8.418,8.418,0,0,0-4.09,1,10.013,10.013,0,0,0-3.174,2.731,12.894,12.894,0,0,0-2.052,4.016,16.123,16.123,0,0,0-.723,4.887,11.44,11.44,0,0,0,.236,2.51,5.423,5.423,0,0,0,.635,1.668,2.581,2.581,0,0,0,.945.93A2.475,2.475,0,0,0,232.26-14.985Zm19.489,6.762,5.374-44.205h9.036L260.785-8.223Zm42.168-23.092a8.839,8.839,0,0,1-.827,3.839,7.74,7.74,0,0,1-2.879,3.086,19.544,19.544,0,0,1-5.522,2.289,55.076,55.076,0,0,1-8.726,1.476,6.875,6.875,0,0,0,1.373,4.577,4.981,4.981,0,0,0,3.883,1.447,9.322,9.322,0,0,0,2.1-.207,7.319,7.319,0,0,0,1.55-.532,10.359,10.359,0,0,0,1.2-.679l1.019-.679a5.289,5.289,0,0,1,1.019-.532,3.322,3.322,0,0,1,1.211-.207,1.791,1.791,0,0,1,.856.221,2.772,2.772,0,0,1,.738.576l2.362,2.746a32.209,32.209,0,0,1-3.174,2.761A17.368,17.368,0,0,1,286.9-9.212,15.157,15.157,0,0,1,283.419-8.1a21.406,21.406,0,0,1-4.031.354,13.058,13.058,0,0,1-4.99-.93,11.327,11.327,0,0,1-3.913-2.628,11.786,11.786,0,0,1-2.54-4.09,14.981,14.981,0,0,1-.9-5.315,20.91,20.91,0,0,1,.546-4.784,20.165,20.165,0,0,1,1.565-4.385,18.355,18.355,0,0,1,2.5-3.78,16.359,16.359,0,0,1,3.322-2.968,15.65,15.65,0,0,1,4.046-1.934,15.471,15.471,0,0,1,4.68-.694,12.438,12.438,0,0,1,4.356.709,10.22,10.22,0,0,1,3.2,1.846,7.962,7.962,0,0,1,1.978,2.554A6.511,6.511,0,0,1,293.917-31.314Zm-10.749-1.772a5.322,5.322,0,0,0-3.986,1.816,11.5,11.5,0,0,0-2.569,4.976,42.758,42.758,0,0,0,4.636-.93,11.582,11.582,0,0,0,2.746-1.063,3.287,3.287,0,0,0,1.314-1.24,3.1,3.1,0,0,0,.34-1.432,2.173,2.173,0,0,0-.591-1.447A2.38,2.38,0,0,0,283.168-33.086Zm53.95-10.749H321.2L319.784-32.5H333.1l-1,7.412H318.869L316.8-8.223h-9.686l5.315-43.024h25.631Zm11.073,29.293a4.39,4.39,0,0,0,2.746-.93,7.54,7.54,0,0,0,2.052-2.54,14.707,14.707,0,0,0,1.3-3.75,21.79,21.79,0,0,0,.458-4.562,9.381,9.381,0,0,0-.9-4.769,3.206,3.206,0,0,0-2.938-1.432,4.39,4.39,0,0,0-2.746.93,7.577,7.577,0,0,0-2.052,2.525,14.445,14.445,0,0,0-1.3,3.75,22,22,0,0,0-.458,4.577,9.4,9.4,0,0,0,.9,4.739A3.186,3.186,0,0,0,348.191-14.542Zm-.827,6.792a13.268,13.268,0,0,1-4.8-.856,10.958,10.958,0,0,1-3.868-2.5,11.489,11.489,0,0,1-2.569-4.045,15.287,15.287,0,0,1-.93-5.537,20.251,20.251,0,0,1,1.344-7.486,18.828,18.828,0,0,1,3.617-5.891,16.493,16.493,0,0,1,5.271-3.868,14.83,14.83,0,0,1,6.3-1.388,13.15,13.15,0,0,1,4.784.856,10.986,10.986,0,0,1,3.854,2.5,11.659,11.659,0,0,1,2.584,4.045,15.074,15.074,0,0,1,.945,5.537,20.085,20.085,0,0,1-1.344,7.427,19.014,19.014,0,0,1-3.617,5.906,16.583,16.583,0,0,1-5.271,3.9A14.7,14.7,0,0,1,347.364-7.75Zm18.485-.472,3.721-30.622H374.3a3.36,3.36,0,0,1,2.215.664,2.675,2.675,0,0,1,.8,2.17v3.484a16.771,16.771,0,0,1,3.839-4.813,6.717,6.717,0,0,1,4.282-1.683,5.778,5.778,0,0,1,2.451.561l-1.654,8.475a7.236,7.236,0,0,0-2.864-.65,5.2,5.2,0,0,0-4.031,2.052,16.045,16.045,0,0,0-2.85,6.6L374.827-8.223Z" transform="translate(1.05 101.872)"/></g><ellipse class="f" cx="54" cy="8.5" rx="54" ry="8.5" transform="translate(396.345 110.184)"/><g class="g" transform="translate(377.593)"><g transform="translate(20.485 -47.562) rotate(25)"><g transform="translate(0 73.04) rotate(-45)"><path class="h" d="M52.1,87.965,1.516,58.729,1.071,15.523,0,14.909V0L51.655,29.818Z" transform="translate(0 30.385)"/><path class="i" d="M52.045,88.153,1.461,58.917,1.071,15.523,0,14.909V0L51.655,29.818Z" transform="translate(0 30.385)"/><path class="j" d="M50.568,29.2,31.22,18.026,0,0V2.141L50.568,31.33Z" transform="translate(1.071 45.908)"/><path class="k" d="M.415,87.88,50.731,58.864,50.3,15.681l1.338-.771V0L0,29.818Z" transform="translate(51.655 30.385)"/><path class="i" d="M50.316,0,0,29.047v2.125L50.316,2.157Z" transform="translate(51.639 46.066)"/><path class="l" d="M103.294,29.818,51.655,0,0,29.818,51.655,59.637Z" transform="translate(0 0.567)"/><path class="m" d="M103.294,29.818,51.655,0,0,29.818,51.655,59.637Z" transform="translate(0 0.567)"/><path class="n" d="M.23,63.161,0,4.833,8.391,0l.23,58.328Z" transform="translate(72.625 43.248)"/><path class="o" d="M8.391,62.555,8.4,4.833.007,0,0,57.722Z" transform="translate(22.271 43.248)"/><path class="p" d="M60.046,29.818,8.391,0,0,4.849l51.655,29.8Z" transform="translate(20.97 13.429)"/><path class="q" d="M8.391,9.682l8.391-4.833L8.391,0,0,4.849Z" transform="translate(43.94 26.685)"/><path class="p" d="M8.391,34.652l51.655-29.8L51.655,0,0,29.818Z" transform="translate(22.277 13.429)"/><path class="o" d="M30.81,9.934A17.224,17.224,0,0,1,19.9,21.348,92.052,92.052,0,0,1,0,25.8L20.262,0Z" transform="translate(52.93 7.478)"/><path class="n" d="M.017,25.8a26.386,26.386,0,0,1,3.4-13.949C7.291,5.778,20.279,0,20.279,0A55.685,55.685,0,0,1,30.828,9.934,40.713,40.713,0,0,0,1.781,25.473Z" transform="translate(52.912 7.478)"/><path class="p" d="M15.744,8.328A41.2,41.2,0,0,0,6.6,13.051L0,6.927A33.988,33.988,0,0,1,8.706,0Z" transform="translate(57.086 11.446)"/><path class="o" d="M0,3.117a19,19,0,0,0,8.911,7.872c6.423,2.865,17,2.362,17,2.362L26.5,0A13.351,13.351,0,0,1,15.476,6.3a19.585,19.585,0,0,1-13.1-4.361Z" transform="translate(52.93 30.165)"/><path class="n" d="M0,7.118C6.408.16,12.595-.754,18.278.443c6.3,1.259,8.218,3.5,8.218,3.5l-.583,13.351A21.789,21.789,0,0,0,13.319,8.252C4.141,5.623,0,7.118,0,7.118Z" transform="translate(52.93 26.164)"/><path class="p" d="M14.909,1.939C13.445,4.206,11.115,7.89,9.635,10.22a24.191,24.191,0,0,0-4.8-2A47.046,47.046,0,0,0,0,7.118L5.542,0A19.74,19.74,0,0,1,9.855.412,25.19,25.19,0,0,1,14.909,1.939Z" transform="translate(61.353 26.195)"/><path class="o" d="M24.4,31.771A29.692,29.692,0,0,1,8.344,24.009,34.085,34.085,0,0,1,0,7.714L11.493,0a21.868,21.868,0,0,0,2.661,18.042c4.408,6.99,10.233,8.265,10.233,8.265Z" transform="translate(28.905 0.016)"/><path class="n" d="M24.355,31.786l-1.732-.315a30.1,30.1,0,0,0-9.745-17.318C4.093,6.6,0,7.714,0,7.714A34.777,34.777,0,0,1,11.493,0s7.384,4.015,10.8,9.918C26.323,17.035,25.394,27.74,24.355,31.786Z" transform="translate(28.952)"/><path class="p" d="M0,6.408,9.7,0c.488.378.976.771,1.48,1.212l-9.446,6.2C1.1,7.037.535,6.738,0,6.408Z" transform="translate(35.234 3.117)"/><path class="p" d="M0,5.857,9.446,0a22.763,22.763,0,0,1,2.566,3.038l.079.094c.252.362.488.74.724,1.134a5.879,5.879,0,0,1,.331.724L5.274,10.3c-.6-.614-1.228-1.212-1.9-1.795C2.157,7.462,1.039,6.6,0,5.857Z" transform="translate(38.43 5.683)"/><path class="o" d="M29.629,11.052S26.7,14.2,19.7,15.917,3.826,16.61,0,12.406L.787,0s5.9,7.95,14.468,9.289C21.789,10.328,29.6,7.714,29.6,7.714Z" transform="translate(23.363 22.198)"/><path class="n" d="M30.826,8.883s-6.8-7.1-14.169-8.218c-9.918-1.5-15.145,0-15.145,0A18.373,18.373,0,0,0,.724,13.071S5.007,8.458,15.067,8.08a34.289,34.289,0,0,1,15.287,3.637Z" transform="translate(22.592 21.534)"/><path class="p" d="M.2,11.469A22.89,22.89,0,0,1,7.163,8.761L8.454.086a42.607,42.607,0,0,0-7.4.173A29.094,29.094,0,0,0,.2,11.469Z" transform="translate(25.253 21.546)"/></g></g></g><g data-type="innerShadowGroup"><g class="y" transform="matrix(1, 0, 0, 1, -83.9, -20.76)"><path class="r" d="M12.206-8.223H2.52L7.776-51.247h9.686ZM61.224-32.5a26.945,26.945,0,0,1-.812,6.674,25.639,25.639,0,0,1-2.3,5.935,23.876,23.876,0,0,1-3.6,4.99,22.138,22.138,0,0,1-4.739,3.824,23.4,23.4,0,0,1-5.7,2.451A23.589,23.589,0,0,1,37.6-7.75a18.728,18.728,0,0,1-7.633-1.491,16.929,16.929,0,0,1-5.743-4.075A17.814,17.814,0,0,1,20.607-19.4a22.187,22.187,0,0,1-1.255-7.545,27.122,27.122,0,0,1,.812-6.688,25.583,25.583,0,0,1,2.3-5.95,23.59,23.59,0,0,1,3.617-4.99A22.466,22.466,0,0,1,30.838-48.4a23.4,23.4,0,0,1,5.7-2.451,23.7,23.7,0,0,1,6.5-.871,18.652,18.652,0,0,1,7.6,1.491,16.68,16.68,0,0,1,5.729,4.09,18.073,18.073,0,0,1,3.6,6.113A22.224,22.224,0,0,1,61.224-32.5Zm-9.863.236a17.167,17.167,0,0,0-.635-4.828,10.828,10.828,0,0,0-1.86-3.721,8.329,8.329,0,0,0-3-2.392,9.248,9.248,0,0,0-4.016-.842,11.193,11.193,0,0,0-5.286,1.225,11.633,11.633,0,0,0-3.972,3.44,16.2,16.2,0,0,0-2.51,5.33,25.567,25.567,0,0,0-.871,6.9,17.392,17.392,0,0,0,.62,4.813,10.789,10.789,0,0,0,1.816,3.691,8.131,8.131,0,0,0,2.968,2.377,9.32,9.32,0,0,0,4.045.842,11.394,11.394,0,0,0,5.3-1.211,11.442,11.442,0,0,0,3.986-3.425,16.435,16.435,0,0,0,2.525-5.315A25.006,25.006,0,0,0,51.361-32.259ZM62.376-8.223,67.75-52.428h8.977l-2.274,18.4A16.624,16.624,0,0,1,78.9-37.914a9.96,9.96,0,0,1,5.094-1.4,8.753,8.753,0,0,1,3.455.664,6.887,6.887,0,0,1,2.7,2.082,10.267,10.267,0,0,1,1.772,3.617,19.048,19.048,0,0,1,.635,5.241,23.628,23.628,0,0,1-1.225,7.633,22.49,22.49,0,0,1-3.293,6.364A16.6,16.6,0,0,1,83.267-9.36,10.891,10.891,0,0,1,77.613-7.75a8.773,8.773,0,0,1-4-.871,9.358,9.358,0,0,1-2.938-2.289l-.089.3A4.125,4.125,0,0,1,69.522-8.8a3.175,3.175,0,0,1-2.126.576ZM80.329-32.378a3.535,3.535,0,0,0-2.023.738,9.354,9.354,0,0,0-2.023,2.023A18.066,18.066,0,0,0,74.468-26.6a22.739,22.739,0,0,0-1.4,3.676l-.886,7.146a5.134,5.134,0,0,0,1.919,1,7.609,7.609,0,0,0,2.038.3,4.633,4.633,0,0,0,2.938-1.063,9.363,9.363,0,0,0,2.318-2.791,15.581,15.581,0,0,0,1.521-3.942,18.8,18.8,0,0,0,.546-4.518,8.091,8.091,0,0,0-.856-4.252A2.6,2.6,0,0,0,80.329-32.378Zm27.58-6.467L104.248-8.223H95.212l3.662-30.622Zm1.713-8.386a4.585,4.585,0,0,1-.472,2.052,5.831,5.831,0,0,1-1.24,1.683,6.036,6.036,0,0,1-1.757,1.152,5.046,5.046,0,0,1-2.023.428,4.741,4.741,0,0,1-1.978-.428,5.617,5.617,0,0,1-1.668-1.152,5.788,5.788,0,0,1-1.166-1.683,4.838,4.838,0,0,1-.443-2.052,4.937,4.937,0,0,1,.443-2.067,5.651,5.651,0,0,1,1.2-1.713,5.87,5.87,0,0,1,1.7-1.166,4.741,4.741,0,0,1,1.978-.428,5.165,5.165,0,0,1,2.038.413,5.532,5.532,0,0,1,1.727,1.152,5.874,5.874,0,0,1,1.211,1.713A4.87,4.87,0,0,1,109.622-47.231Zm3.9,32.393v-.5q0-.3.044-.842t.148-1.447q.1-.9.281-2.377l1.565-12.52h-2.451a1.311,1.311,0,0,1-.945-.369A1.469,1.469,0,0,1,111.778-34q0-.03.059-.517t.118-1.034q.059-.546.118-1.019t.059-.532l.089-.8,4.636-.945,2.569-7.471a1.9,1.9,0,0,1,2.008-1.417h4.961l-1.122,8.947h6.851l-.768,6.26H124.5l-1.476,12.018q-.148,1.211-.221,1.9t-.118,1.063q-.044.369-.059.5t-.015.162a2.457,2.457,0,0,0,.4,1.432,1.419,1.419,0,0,0,1.255.576,2.512,2.512,0,0,0,.783-.1,3.14,3.14,0,0,0,.546-.236q.236-.133.443-.236a1.042,1.042,0,0,1,.472-.1.883.883,0,0,1,.62.192,1.783,1.783,0,0,1,.384.605l2.008,4.341A13.7,13.7,0,0,1,125.6-8.415a13.9,13.9,0,0,1-4.223.664,9.774,9.774,0,0,1-3.189-.487,6.879,6.879,0,0,1-2.436-1.417,6.6,6.6,0,0,1-1.595-2.229A7.929,7.929,0,0,1,113.52-14.837Zm60.269-29H157.873L156.455-32.5h13.318l-1,7.412H155.54L153.473-8.223h-9.686L149.1-51.247h25.631ZM197.442-8.223h-4.9a4.017,4.017,0,0,1-1.432-.221,2.294,2.294,0,0,1-.915-.605,2.141,2.141,0,0,1-.472-.915,4.74,4.74,0,0,1-.133-1.152V-13.3a15.752,15.752,0,0,1-4.193,4.075,9.22,9.22,0,0,1-5.079,1.476,7.95,7.95,0,0,1-3.189-.664,7.632,7.632,0,0,1-2.717-2.008,10,10,0,0,1-1.89-3.425,15.29,15.29,0,0,1-.709-4.917,20.747,20.747,0,0,1,1.521-7.9,20.182,20.182,0,0,1,4.252-6.541,20.465,20.465,0,0,1,6.482-4.459,20.2,20.2,0,0,1,8.239-1.654,33.927,33.927,0,0,1,4.429.3,21.983,21.983,0,0,1,4.429,1.063Zm-13.465-6.762a3.1,3.1,0,0,0,1.949-.753,8.5,8.5,0,0,0,1.787-2.052,18.233,18.233,0,0,0,1.55-3.042,28.411,28.411,0,0,0,1.211-3.721l1.063-8.475H191a8.418,8.418,0,0,0-4.09,1,10.013,10.013,0,0,0-3.174,2.731,12.9,12.9,0,0,0-2.052,4.016,16.123,16.123,0,0,0-.723,4.887,11.441,11.441,0,0,0,.236,2.51,5.422,5.422,0,0,0,.635,1.668,2.581,2.581,0,0,0,.945.93A2.475,2.475,0,0,0,183.977-14.985Zm37.148,6.762,2.3-19.46q.059-.472.089-.871t.03-.753a3.276,3.276,0,0,0-.546-2.17,2.1,2.1,0,0,0-1.639-.605,4.253,4.253,0,0,0-2.1.62,8.2,8.2,0,0,0-2.082,1.742,13.3,13.3,0,0,0-1.816,2.731,16.013,16.013,0,0,0-1.3,3.558L212.384-8.223H203.23l3.662-30.622h4.725a3.36,3.36,0,0,1,2.215.664,2.675,2.675,0,0,1,.8,2.17v2.451a14.975,14.975,0,0,1,4.843-4.356,11.4,11.4,0,0,1,5.433-1.4,7.831,7.831,0,0,1,3.145.62,6.785,6.785,0,0,1,2.466,1.816,8.711,8.711,0,0,1,1.624,2.938,12.5,12.5,0,0,1,.591,4.016q0,.532-.044,1.093t-.1,1.152l-2.3,19.46Zm35.494-24.184a3.5,3.5,0,0,1-.768.768,1.679,1.679,0,0,1-.945.236,2.759,2.759,0,0,1-1.166-.266q-.576-.266-1.24-.605a9.787,9.787,0,0,0-1.506-.605,6.425,6.425,0,0,0-1.934-.266,4.323,4.323,0,0,0-2.909.783,2.594,2.594,0,0,0-.871,2.023,2,2,0,0,0,.487,1.358,4.7,4.7,0,0,0,1.285,1,12.533,12.533,0,0,0,1.816.812q1.019.369,2.082.827a19.615,19.615,0,0,1,2.082,1.048,7.838,7.838,0,0,1,1.816,1.447,6.711,6.711,0,0,1,1.285,2.038A7.334,7.334,0,0,1,256.618-19a10.572,10.572,0,0,1-.915,4.356,10.4,10.4,0,0,1-2.628,3.573,12.916,12.916,0,0,1-4.149,2.421,15.71,15.71,0,0,1-5.478.9,14.007,14.007,0,0,1-2.864-.3,15.93,15.93,0,0,1-2.672-.8,12.255,12.255,0,0,1-2.288-1.2,7.641,7.641,0,0,1-1.683-1.491l2.244-3.366a3.306,3.306,0,0,1,.96-.93,2.5,2.5,0,0,1,1.344-.34,2.236,2.236,0,0,1,1.27.354l1.152.768a8.574,8.574,0,0,0,1.476.768,5.954,5.954,0,0,0,2.244.354,4.153,4.153,0,0,0,2.894-.871,2.705,2.705,0,0,0,.945-2.052,2.288,2.288,0,0,0-.487-1.506A4.233,4.233,0,0,0,246.7-19.37a11.8,11.8,0,0,0-1.8-.768q-1-.34-2.067-.753a17.88,17.88,0,0,1-2.067-.96,7.405,7.405,0,0,1-1.8-1.373,6.263,6.263,0,0,1-1.285-2.038,7.832,7.832,0,0,1-.487-2.923,11.292,11.292,0,0,1,.783-4.134,10.247,10.247,0,0,1,2.333-3.558,11.589,11.589,0,0,1,3.854-2.5,14.09,14.09,0,0,1,5.374-.945,13.429,13.429,0,0,1,5.478,1.063,13.234,13.234,0,0,1,3.972,2.6Z" transform="translate(539.99 124.18)"/></g><path class="s" d="M12.206-8.223H2.52L7.776-51.247h9.686ZM61.224-32.5a26.945,26.945,0,0,1-.812,6.674,25.639,25.639,0,0,1-2.3,5.935,23.876,23.876,0,0,1-3.6,4.99,22.138,22.138,0,0,1-4.739,3.824,23.4,23.4,0,0,1-5.7,2.451A23.589,23.589,0,0,1,37.6-7.75a18.728,18.728,0,0,1-7.633-1.491,16.929,16.929,0,0,1-5.743-4.075A17.814,17.814,0,0,1,20.607-19.4a22.187,22.187,0,0,1-1.255-7.545,27.122,27.122,0,0,1,.812-6.688,25.583,25.583,0,0,1,2.3-5.95,23.59,23.59,0,0,1,3.617-4.99A22.466,22.466,0,0,1,30.838-48.4a23.4,23.4,0,0,1,5.7-2.451,23.7,23.7,0,0,1,6.5-.871,18.652,18.652,0,0,1,7.6,1.491,16.68,16.68,0,0,1,5.729,4.09,18.073,18.073,0,0,1,3.6,6.113A22.224,22.224,0,0,1,61.224-32.5Zm-9.863.236a17.167,17.167,0,0,0-.635-4.828,10.828,10.828,0,0,0-1.86-3.721,8.329,8.329,0,0,0-3-2.392,9.248,9.248,0,0,0-4.016-.842,11.193,11.193,0,0,0-5.286,1.225,11.633,11.633,0,0,0-3.972,3.44,16.2,16.2,0,0,0-2.51,5.33,25.567,25.567,0,0,0-.871,6.9,17.392,17.392,0,0,0,.62,4.813,10.789,10.789,0,0,0,1.816,3.691,8.131,8.131,0,0,0,2.968,2.377,9.32,9.32,0,0,0,4.045.842,11.394,11.394,0,0,0,5.3-1.211,11.442,11.442,0,0,0,3.986-3.425,16.435,16.435,0,0,0,2.525-5.315A25.006,25.006,0,0,0,51.361-32.259ZM62.376-8.223,67.75-52.428h8.977l-2.274,18.4A16.624,16.624,0,0,1,78.9-37.914a9.96,9.96,0,0,1,5.094-1.4,8.753,8.753,0,0,1,3.455.664,6.887,6.887,0,0,1,2.7,2.082,10.267,10.267,0,0,1,1.772,3.617,19.048,19.048,0,0,1,.635,5.241,23.628,23.628,0,0,1-1.225,7.633,22.49,22.49,0,0,1-3.293,6.364A16.6,16.6,0,0,1,83.267-9.36,10.891,10.891,0,0,1,77.613-7.75a8.773,8.773,0,0,1-4-.871,9.358,9.358,0,0,1-2.938-2.289l-.089.3A4.125,4.125,0,0,1,69.522-8.8a3.175,3.175,0,0,1-2.126.576ZM80.329-32.378a3.535,3.535,0,0,0-2.023.738,9.354,9.354,0,0,0-2.023,2.023A18.066,18.066,0,0,0,74.468-26.6a22.739,22.739,0,0,0-1.4,3.676l-.886,7.146a5.134,5.134,0,0,0,1.919,1,7.609,7.609,0,0,0,2.038.3,4.633,4.633,0,0,0,2.938-1.063,9.363,9.363,0,0,0,2.318-2.791,15.581,15.581,0,0,0,1.521-3.942,18.8,18.8,0,0,0,.546-4.518,8.091,8.091,0,0,0-.856-4.252A2.6,2.6,0,0,0,80.329-32.378Zm27.58-6.467L104.248-8.223H95.212l3.662-30.622Zm1.713-8.386a4.585,4.585,0,0,1-.472,2.052,5.831,5.831,0,0,1-1.24,1.683,6.036,6.036,0,0,1-1.757,1.152,5.046,5.046,0,0,1-2.023.428,4.741,4.741,0,0,1-1.978-.428,5.617,5.617,0,0,1-1.668-1.152,5.788,5.788,0,0,1-1.166-1.683,4.838,4.838,0,0,1-.443-2.052,4.937,4.937,0,0,1,.443-2.067,5.651,5.651,0,0,1,1.2-1.713,5.87,5.87,0,0,1,1.7-1.166,4.741,4.741,0,0,1,1.978-.428,5.165,5.165,0,0,1,2.038.413,5.532,5.532,0,0,1,1.727,1.152,5.874,5.874,0,0,1,1.211,1.713A4.87,4.87,0,0,1,109.622-47.231Zm3.9,32.393v-.5q0-.3.044-.842t.148-1.447q.1-.9.281-2.377l1.565-12.52h-2.451a1.311,1.311,0,0,1-.945-.369A1.469,1.469,0,0,1,111.778-34q0-.03.059-.517t.118-1.034q.059-.546.118-1.019t.059-.532l.089-.8,4.636-.945,2.569-7.471a1.9,1.9,0,0,1,2.008-1.417h4.961l-1.122,8.947h6.851l-.768,6.26H124.5l-1.476,12.018q-.148,1.211-.221,1.9t-.118,1.063q-.044.369-.059.5t-.015.162a2.457,2.457,0,0,0,.4,1.432,1.419,1.419,0,0,0,1.255.576,2.512,2.512,0,0,0,.783-.1,3.14,3.14,0,0,0,.546-.236q.236-.133.443-.236a1.042,1.042,0,0,1,.472-.1.883.883,0,0,1,.62.192,1.783,1.783,0,0,1,.384.605l2.008,4.341A13.7,13.7,0,0,1,125.6-8.415a13.9,13.9,0,0,1-4.223.664,9.774,9.774,0,0,1-3.189-.487,6.879,6.879,0,0,1-2.436-1.417,6.6,6.6,0,0,1-1.595-2.229A7.929,7.929,0,0,1,113.52-14.837Zm60.269-29H157.873L156.455-32.5h13.318l-1,7.412H155.54L153.473-8.223h-9.686L149.1-51.247h25.631ZM197.442-8.223h-4.9a4.017,4.017,0,0,1-1.432-.221,2.294,2.294,0,0,1-.915-.605,2.141,2.141,0,0,1-.472-.915,4.74,4.74,0,0,1-.133-1.152V-13.3a15.752,15.752,0,0,1-4.193,4.075,9.22,9.22,0,0,1-5.079,1.476,7.95,7.95,0,0,1-3.189-.664,7.632,7.632,0,0,1-2.717-2.008,10,10,0,0,1-1.89-3.425,15.29,15.29,0,0,1-.709-4.917,20.747,20.747,0,0,1,1.521-7.9,20.182,20.182,0,0,1,4.252-6.541,20.465,20.465,0,0,1,6.482-4.459,20.2,20.2,0,0,1,8.239-1.654,33.927,33.927,0,0,1,4.429.3,21.983,21.983,0,0,1,4.429,1.063Zm-13.465-6.762a3.1,3.1,0,0,0,1.949-.753,8.5,8.5,0,0,0,1.787-2.052,18.233,18.233,0,0,0,1.55-3.042,28.411,28.411,0,0,0,1.211-3.721l1.063-8.475H191a8.418,8.418,0,0,0-4.09,1,10.013,10.013,0,0,0-3.174,2.731,12.9,12.9,0,0,0-2.052,4.016,16.123,16.123,0,0,0-.723,4.887,11.441,11.441,0,0,0,.236,2.51,5.422,5.422,0,0,0,.635,1.668,2.581,2.581,0,0,0,.945.93A2.475,2.475,0,0,0,183.977-14.985Zm37.148,6.762,2.3-19.46q.059-.472.089-.871t.03-.753a3.276,3.276,0,0,0-.546-2.17,2.1,2.1,0,0,0-1.639-.605,4.253,4.253,0,0,0-2.1.62,8.2,8.2,0,0,0-2.082,1.742,13.3,13.3,0,0,0-1.816,2.731,16.013,16.013,0,0,0-1.3,3.558L212.384-8.223H203.23l3.662-30.622h4.725a3.36,3.36,0,0,1,2.215.664,2.675,2.675,0,0,1,.8,2.17v2.451a14.975,14.975,0,0,1,4.843-4.356,11.4,11.4,0,0,1,5.433-1.4,7.831,7.831,0,0,1,3.145.62,6.785,6.785,0,0,1,2.466,1.816,8.711,8.711,0,0,1,1.624,2.938,12.5,12.5,0,0,1,.591,4.016q0,.532-.044,1.093t-.1,1.152l-2.3,19.46Zm35.494-24.184a3.5,3.5,0,0,1-.768.768,1.679,1.679,0,0,1-.945.236,2.759,2.759,0,0,1-1.166-.266q-.576-.266-1.24-.605a9.787,9.787,0,0,0-1.506-.605,6.425,6.425,0,0,0-1.934-.266,4.323,4.323,0,0,0-2.909.783,2.594,2.594,0,0,0-.871,2.023,2,2,0,0,0,.487,1.358,4.7,4.7,0,0,0,1.285,1,12.533,12.533,0,0,0,1.816.812q1.019.369,2.082.827a19.615,19.615,0,0,1,2.082,1.048,7.838,7.838,0,0,1,1.816,1.447,6.711,6.711,0,0,1,1.285,2.038A7.334,7.334,0,0,1,256.618-19a10.572,10.572,0,0,1-.915,4.356,10.4,10.4,0,0,1-2.628,3.573,12.916,12.916,0,0,1-4.149,2.421,15.71,15.71,0,0,1-5.478.9,14.007,14.007,0,0,1-2.864-.3,15.93,15.93,0,0,1-2.672-.8,12.255,12.255,0,0,1-2.288-1.2,7.641,7.641,0,0,1-1.683-1.491l2.244-3.366a3.306,3.306,0,0,1,.96-.93,2.5,2.5,0,0,1,1.344-.34,2.236,2.236,0,0,1,1.27.354l1.152.768a8.574,8.574,0,0,0,1.476.768,5.954,5.954,0,0,0,2.244.354,4.153,4.153,0,0,0,2.894-.871,2.705,2.705,0,0,0,.945-2.052,2.288,2.288,0,0,0-.487-1.506A4.233,4.233,0,0,0,246.7-19.37a11.8,11.8,0,0,0-1.8-.768q-1-.34-2.067-.753a17.88,17.88,0,0,1-2.067-.96,7.405,7.405,0,0,1-1.8-1.373,6.263,6.263,0,0,1-1.285-2.038,7.832,7.832,0,0,1-.487-2.923,11.292,11.292,0,0,1,.783-4.134,10.247,10.247,0,0,1,2.333-3.558,11.589,11.589,0,0,1,3.854-2.5,14.09,14.09,0,0,1,5.374-.945,13.429,13.429,0,0,1,5.478,1.063,13.234,13.234,0,0,1,3.972,2.6Z" transform="translate(456.085 103.425)"/><g class="x" transform="matrix(1, 0, 0, 1, -83.9, -20.76)"><path class="d" d="M12.206-8.223H2.52L7.776-51.247h9.686ZM61.224-32.5a26.945,26.945,0,0,1-.812,6.674,25.639,25.639,0,0,1-2.3,5.935,23.876,23.876,0,0,1-3.6,4.99,22.138,22.138,0,0,1-4.739,3.824,23.4,23.4,0,0,1-5.7,2.451A23.589,23.589,0,0,1,37.6-7.75a18.728,18.728,0,0,1-7.633-1.491,16.929,16.929,0,0,1-5.743-4.075A17.814,17.814,0,0,1,20.607-19.4a22.187,22.187,0,0,1-1.255-7.545,27.122,27.122,0,0,1,.812-6.688,25.583,25.583,0,0,1,2.3-5.95,23.59,23.59,0,0,1,3.617-4.99A22.466,22.466,0,0,1,30.838-48.4a23.4,23.4,0,0,1,5.7-2.451,23.7,23.7,0,0,1,6.5-.871,18.652,18.652,0,0,1,7.6,1.491,16.68,16.68,0,0,1,5.729,4.09,18.073,18.073,0,0,1,3.6,6.113A22.224,22.224,0,0,1,61.224-32.5Zm-9.863.236a17.167,17.167,0,0,0-.635-4.828,10.828,10.828,0,0,0-1.86-3.721,8.329,8.329,0,0,0-3-2.392,9.248,9.248,0,0,0-4.016-.842,11.193,11.193,0,0,0-5.286,1.225,11.633,11.633,0,0,0-3.972,3.44,16.2,16.2,0,0,0-2.51,5.33,25.567,25.567,0,0,0-.871,6.9,17.392,17.392,0,0,0,.62,4.813,10.789,10.789,0,0,0,1.816,3.691,8.131,8.131,0,0,0,2.968,2.377,9.32,9.32,0,0,0,4.045.842,11.394,11.394,0,0,0,5.3-1.211,11.442,11.442,0,0,0,3.986-3.425,16.435,16.435,0,0,0,2.525-5.315A25.006,25.006,0,0,0,51.361-32.259ZM62.376-8.223,67.75-52.428h8.977l-2.274,18.4A16.624,16.624,0,0,1,78.9-37.914a9.96,9.96,0,0,1,5.094-1.4,8.753,8.753,0,0,1,3.455.664,6.887,6.887,0,0,1,2.7,2.082,10.267,10.267,0,0,1,1.772,3.617,19.048,19.048,0,0,1,.635,5.241,23.628,23.628,0,0,1-1.225,7.633,22.49,22.49,0,0,1-3.293,6.364A16.6,16.6,0,0,1,83.267-9.36,10.891,10.891,0,0,1,77.613-7.75a8.773,8.773,0,0,1-4-.871,9.358,9.358,0,0,1-2.938-2.289l-.089.3A4.125,4.125,0,0,1,69.522-8.8a3.175,3.175,0,0,1-2.126.576ZM80.329-32.378a3.535,3.535,0,0,0-2.023.738,9.354,9.354,0,0,0-2.023,2.023A18.066,18.066,0,0,0,74.468-26.6a22.739,22.739,0,0,0-1.4,3.676l-.886,7.146a5.134,5.134,0,0,0,1.919,1,7.609,7.609,0,0,0,2.038.3,4.633,4.633,0,0,0,2.938-1.063,9.363,9.363,0,0,0,2.318-2.791,15.581,15.581,0,0,0,1.521-3.942,18.8,18.8,0,0,0,.546-4.518,8.091,8.091,0,0,0-.856-4.252A2.6,2.6,0,0,0,80.329-32.378Zm27.58-6.467L104.248-8.223H95.212l3.662-30.622Zm1.713-8.386a4.585,4.585,0,0,1-.472,2.052,5.831,5.831,0,0,1-1.24,1.683,6.036,6.036,0,0,1-1.757,1.152,5.046,5.046,0,0,1-2.023.428,4.741,4.741,0,0,1-1.978-.428,5.617,5.617,0,0,1-1.668-1.152,5.788,5.788,0,0,1-1.166-1.683,4.838,4.838,0,0,1-.443-2.052,4.937,4.937,0,0,1,.443-2.067,5.651,5.651,0,0,1,1.2-1.713,5.87,5.87,0,0,1,1.7-1.166,4.741,4.741,0,0,1,1.978-.428,5.165,5.165,0,0,1,2.038.413,5.532,5.532,0,0,1,1.727,1.152,5.874,5.874,0,0,1,1.211,1.713A4.87,4.87,0,0,1,109.622-47.231Zm3.9,32.393v-.5q0-.3.044-.842t.148-1.447q.1-.9.281-2.377l1.565-12.52h-2.451a1.311,1.311,0,0,1-.945-.369A1.469,1.469,0,0,1,111.778-34q0-.03.059-.517t.118-1.034q.059-.546.118-1.019t.059-.532l.089-.8,4.636-.945,2.569-7.471a1.9,1.9,0,0,1,2.008-1.417h4.961l-1.122,8.947h6.851l-.768,6.26H124.5l-1.476,12.018q-.148,1.211-.221,1.9t-.118,1.063q-.044.369-.059.5t-.015.162a2.457,2.457,0,0,0,.4,1.432,1.419,1.419,0,0,0,1.255.576,2.512,2.512,0,0,0,.783-.1,3.14,3.14,0,0,0,.546-.236q.236-.133.443-.236a1.042,1.042,0,0,1,.472-.1.883.883,0,0,1,.62.192,1.783,1.783,0,0,1,.384.605l2.008,4.341A13.7,13.7,0,0,1,125.6-8.415a13.9,13.9,0,0,1-4.223.664,9.774,9.774,0,0,1-3.189-.487,6.879,6.879,0,0,1-2.436-1.417,6.6,6.6,0,0,1-1.595-2.229A7.929,7.929,0,0,1,113.52-14.837Zm60.269-29H157.873L156.455-32.5h13.318l-1,7.412H155.54L153.473-8.223h-9.686L149.1-51.247h25.631ZM197.442-8.223h-4.9a4.017,4.017,0,0,1-1.432-.221,2.294,2.294,0,0,1-.915-.605,2.141,2.141,0,0,1-.472-.915,4.74,4.74,0,0,1-.133-1.152V-13.3a15.752,15.752,0,0,1-4.193,4.075,9.22,9.22,0,0,1-5.079,1.476,7.95,7.95,0,0,1-3.189-.664,7.632,7.632,0,0,1-2.717-2.008,10,10,0,0,1-1.89-3.425,15.29,15.29,0,0,1-.709-4.917,20.747,20.747,0,0,1,1.521-7.9,20.182,20.182,0,0,1,4.252-6.541,20.465,20.465,0,0,1,6.482-4.459,20.2,20.2,0,0,1,8.239-1.654,33.927,33.927,0,0,1,4.429.3,21.983,21.983,0,0,1,4.429,1.063Zm-13.465-6.762a3.1,3.1,0,0,0,1.949-.753,8.5,8.5,0,0,0,1.787-2.052,18.233,18.233,0,0,0,1.55-3.042,28.411,28.411,0,0,0,1.211-3.721l1.063-8.475H191a8.418,8.418,0,0,0-4.09,1,10.013,10.013,0,0,0-3.174,2.731,12.9,12.9,0,0,0-2.052,4.016,16.123,16.123,0,0,0-.723,4.887,11.441,11.441,0,0,0,.236,2.51,5.422,5.422,0,0,0,.635,1.668,2.581,2.581,0,0,0,.945.93A2.475,2.475,0,0,0,183.977-14.985Zm37.148,6.762,2.3-19.46q.059-.472.089-.871t.03-.753a3.276,3.276,0,0,0-.546-2.17,2.1,2.1,0,0,0-1.639-.605,4.253,4.253,0,0,0-2.1.62,8.2,8.2,0,0,0-2.082,1.742,13.3,13.3,0,0,0-1.816,2.731,16.013,16.013,0,0,0-1.3,3.558L212.384-8.223H203.23l3.662-30.622h4.725a3.36,3.36,0,0,1,2.215.664,2.675,2.675,0,0,1,.8,2.17v2.451a14.975,14.975,0,0,1,4.843-4.356,11.4,11.4,0,0,1,5.433-1.4,7.831,7.831,0,0,1,3.145.62,6.785,6.785,0,0,1,2.466,1.816,8.711,8.711,0,0,1,1.624,2.938,12.5,12.5,0,0,1,.591,4.016q0,.532-.044,1.093t-.1,1.152l-2.3,19.46Zm35.494-24.184a3.5,3.5,0,0,1-.768.768,1.679,1.679,0,0,1-.945.236,2.759,2.759,0,0,1-1.166-.266q-.576-.266-1.24-.605a9.787,9.787,0,0,0-1.506-.605,6.425,6.425,0,0,0-1.934-.266,4.323,4.323,0,0,0-2.909.783,2.594,2.594,0,0,0-.871,2.023,2,2,0,0,0,.487,1.358,4.7,4.7,0,0,0,1.285,1,12.533,12.533,0,0,0,1.816.812q1.019.369,2.082.827a19.615,19.615,0,0,1,2.082,1.048,7.838,7.838,0,0,1,1.816,1.447,6.711,6.711,0,0,1,1.285,2.038A7.334,7.334,0,0,1,256.618-19a10.572,10.572,0,0,1-.915,4.356,10.4,10.4,0,0,1-2.628,3.573,12.916,12.916,0,0,1-4.149,2.421,15.71,15.71,0,0,1-5.478.9,14.007,14.007,0,0,1-2.864-.3,15.93,15.93,0,0,1-2.672-.8,12.255,12.255,0,0,1-2.288-1.2,7.641,7.641,0,0,1-1.683-1.491l2.244-3.366a3.306,3.306,0,0,1,.96-.93,2.5,2.5,0,0,1,1.344-.34,2.236,2.236,0,0,1,1.27.354l1.152.768a8.574,8.574,0,0,0,1.476.768,5.954,5.954,0,0,0,2.244.354,4.153,4.153,0,0,0,2.894-.871,2.705,2.705,0,0,0,.945-2.052,2.288,2.288,0,0,0-.487-1.506A4.233,4.233,0,0,0,246.7-19.37a11.8,11.8,0,0,0-1.8-.768q-1-.34-2.067-.753a17.88,17.88,0,0,1-2.067-.96,7.405,7.405,0,0,1-1.8-1.373,6.263,6.263,0,0,1-1.285-2.038,7.832,7.832,0,0,1-.487-2.923,11.292,11.292,0,0,1,.783-4.134,10.247,10.247,0,0,1,2.333-3.558,11.589,11.589,0,0,1,3.854-2.5,14.09,14.09,0,0,1,5.374-.945,13.429,13.429,0,0,1,5.478,1.063,13.234,13.234,0,0,1,3.972,2.6Z" transform="translate(539.99 124.18)"/></g><path class="e" d="M12.206-8.223H2.52L7.776-51.247h9.686ZM61.224-32.5a26.945,26.945,0,0,1-.812,6.674,25.639,25.639,0,0,1-2.3,5.935,23.876,23.876,0,0,1-3.6,4.99,22.138,22.138,0,0,1-4.739,3.824,23.4,23.4,0,0,1-5.7,2.451A23.589,23.589,0,0,1,37.6-7.75a18.728,18.728,0,0,1-7.633-1.491,16.929,16.929,0,0,1-5.743-4.075A17.814,17.814,0,0,1,20.607-19.4a22.187,22.187,0,0,1-1.255-7.545,27.122,27.122,0,0,1,.812-6.688,25.583,25.583,0,0,1,2.3-5.95,23.59,23.59,0,0,1,3.617-4.99A22.466,22.466,0,0,1,30.838-48.4a23.4,23.4,0,0,1,5.7-2.451,23.7,23.7,0,0,1,6.5-.871,18.652,18.652,0,0,1,7.6,1.491,16.68,16.68,0,0,1,5.729,4.09,18.073,18.073,0,0,1,3.6,6.113A22.224,22.224,0,0,1,61.224-32.5Zm-9.863.236a17.167,17.167,0,0,0-.635-4.828,10.828,10.828,0,0,0-1.86-3.721,8.329,8.329,0,0,0-3-2.392,9.248,9.248,0,0,0-4.016-.842,11.193,11.193,0,0,0-5.286,1.225,11.633,11.633,0,0,0-3.972,3.44,16.2,16.2,0,0,0-2.51,5.33,25.567,25.567,0,0,0-.871,6.9,17.392,17.392,0,0,0,.62,4.813,10.789,10.789,0,0,0,1.816,3.691,8.131,8.131,0,0,0,2.968,2.377,9.32,9.32,0,0,0,4.045.842,11.394,11.394,0,0,0,5.3-1.211,11.442,11.442,0,0,0,3.986-3.425,16.435,16.435,0,0,0,2.525-5.315A25.006,25.006,0,0,0,51.361-32.259ZM62.376-8.223,67.75-52.428h8.977l-2.274,18.4A16.624,16.624,0,0,1,78.9-37.914a9.96,9.96,0,0,1,5.094-1.4,8.753,8.753,0,0,1,3.455.664,6.887,6.887,0,0,1,2.7,2.082,10.267,10.267,0,0,1,1.772,3.617,19.048,19.048,0,0,1,.635,5.241,23.628,23.628,0,0,1-1.225,7.633,22.49,22.49,0,0,1-3.293,6.364A16.6,16.6,0,0,1,83.267-9.36,10.891,10.891,0,0,1,77.613-7.75a8.773,8.773,0,0,1-4-.871,9.358,9.358,0,0,1-2.938-2.289l-.089.3A4.125,4.125,0,0,1,69.522-8.8a3.175,3.175,0,0,1-2.126.576ZM80.329-32.378a3.535,3.535,0,0,0-2.023.738,9.354,9.354,0,0,0-2.023,2.023A18.066,18.066,0,0,0,74.468-26.6a22.739,22.739,0,0,0-1.4,3.676l-.886,7.146a5.134,5.134,0,0,0,1.919,1,7.609,7.609,0,0,0,2.038.3,4.633,4.633,0,0,0,2.938-1.063,9.363,9.363,0,0,0,2.318-2.791,15.581,15.581,0,0,0,1.521-3.942,18.8,18.8,0,0,0,.546-4.518,8.091,8.091,0,0,0-.856-4.252A2.6,2.6,0,0,0,80.329-32.378Zm27.58-6.467L104.248-8.223H95.212l3.662-30.622Zm1.713-8.386a4.585,4.585,0,0,1-.472,2.052,5.831,5.831,0,0,1-1.24,1.683,6.036,6.036,0,0,1-1.757,1.152,5.046,5.046,0,0,1-2.023.428,4.741,4.741,0,0,1-1.978-.428,5.617,5.617,0,0,1-1.668-1.152,5.788,5.788,0,0,1-1.166-1.683,4.838,4.838,0,0,1-.443-2.052,4.937,4.937,0,0,1,.443-2.067,5.651,5.651,0,0,1,1.2-1.713,5.87,5.87,0,0,1,1.7-1.166,4.741,4.741,0,0,1,1.978-.428,5.165,5.165,0,0,1,2.038.413,5.532,5.532,0,0,1,1.727,1.152,5.874,5.874,0,0,1,1.211,1.713A4.87,4.87,0,0,1,109.622-47.231Zm3.9,32.393v-.5q0-.3.044-.842t.148-1.447q.1-.9.281-2.377l1.565-12.52h-2.451a1.311,1.311,0,0,1-.945-.369A1.469,1.469,0,0,1,111.778-34q0-.03.059-.517t.118-1.034q.059-.546.118-1.019t.059-.532l.089-.8,4.636-.945,2.569-7.471a1.9,1.9,0,0,1,2.008-1.417h4.961l-1.122,8.947h6.851l-.768,6.26H124.5l-1.476,12.018q-.148,1.211-.221,1.9t-.118,1.063q-.044.369-.059.5t-.015.162a2.457,2.457,0,0,0,.4,1.432,1.419,1.419,0,0,0,1.255.576,2.512,2.512,0,0,0,.783-.1,3.14,3.14,0,0,0,.546-.236q.236-.133.443-.236a1.042,1.042,0,0,1,.472-.1.883.883,0,0,1,.62.192,1.783,1.783,0,0,1,.384.605l2.008,4.341A13.7,13.7,0,0,1,125.6-8.415a13.9,13.9,0,0,1-4.223.664,9.774,9.774,0,0,1-3.189-.487,6.879,6.879,0,0,1-2.436-1.417,6.6,6.6,0,0,1-1.595-2.229A7.929,7.929,0,0,1,113.52-14.837Zm60.269-29H157.873L156.455-32.5h13.318l-1,7.412H155.54L153.473-8.223h-9.686L149.1-51.247h25.631ZM197.442-8.223h-4.9a4.017,4.017,0,0,1-1.432-.221,2.294,2.294,0,0,1-.915-.605,2.141,2.141,0,0,1-.472-.915,4.74,4.74,0,0,1-.133-1.152V-13.3a15.752,15.752,0,0,1-4.193,4.075,9.22,9.22,0,0,1-5.079,1.476,7.95,7.95,0,0,1-3.189-.664,7.632,7.632,0,0,1-2.717-2.008,10,10,0,0,1-1.89-3.425,15.29,15.29,0,0,1-.709-4.917,20.747,20.747,0,0,1,1.521-7.9,20.182,20.182,0,0,1,4.252-6.541,20.465,20.465,0,0,1,6.482-4.459,20.2,20.2,0,0,1,8.239-1.654,33.927,33.927,0,0,1,4.429.3,21.983,21.983,0,0,1,4.429,1.063Zm-13.465-6.762a3.1,3.1,0,0,0,1.949-.753,8.5,8.5,0,0,0,1.787-2.052,18.233,18.233,0,0,0,1.55-3.042,28.411,28.411,0,0,0,1.211-3.721l1.063-8.475H191a8.418,8.418,0,0,0-4.09,1,10.013,10.013,0,0,0-3.174,2.731,12.9,12.9,0,0,0-2.052,4.016,16.123,16.123,0,0,0-.723,4.887,11.441,11.441,0,0,0,.236,2.51,5.422,5.422,0,0,0,.635,1.668,2.581,2.581,0,0,0,.945.93A2.475,2.475,0,0,0,183.977-14.985Zm37.148,6.762,2.3-19.46q.059-.472.089-.871t.03-.753a3.276,3.276,0,0,0-.546-2.17,2.1,2.1,0,0,0-1.639-.605,4.253,4.253,0,0,0-2.1.62,8.2,8.2,0,0,0-2.082,1.742,13.3,13.3,0,0,0-1.816,2.731,16.013,16.013,0,0,0-1.3,3.558L212.384-8.223H203.23l3.662-30.622h4.725a3.36,3.36,0,0,1,2.215.664,2.675,2.675,0,0,1,.8,2.17v2.451a14.975,14.975,0,0,1,4.843-4.356,11.4,11.4,0,0,1,5.433-1.4,7.831,7.831,0,0,1,3.145.62,6.785,6.785,0,0,1,2.466,1.816,8.711,8.711,0,0,1,1.624,2.938,12.5,12.5,0,0,1,.591,4.016q0,.532-.044,1.093t-.1,1.152l-2.3,19.46Zm35.494-24.184a3.5,3.5,0,0,1-.768.768,1.679,1.679,0,0,1-.945.236,2.759,2.759,0,0,1-1.166-.266q-.576-.266-1.24-.605a9.787,9.787,0,0,0-1.506-.605,6.425,6.425,0,0,0-1.934-.266,4.323,4.323,0,0,0-2.909.783,2.594,2.594,0,0,0-.871,2.023,2,2,0,0,0,.487,1.358,4.7,4.7,0,0,0,1.285,1,12.533,12.533,0,0,0,1.816.812q1.019.369,2.082.827a19.615,19.615,0,0,1,2.082,1.048,7.838,7.838,0,0,1,1.816,1.447,6.711,6.711,0,0,1,1.285,2.038A7.334,7.334,0,0,1,256.618-19a10.572,10.572,0,0,1-.915,4.356,10.4,10.4,0,0,1-2.628,3.573,12.916,12.916,0,0,1-4.149,2.421,15.71,15.71,0,0,1-5.478.9,14.007,14.007,0,0,1-2.864-.3,15.93,15.93,0,0,1-2.672-.8,12.255,12.255,0,0,1-2.288-1.2,7.641,7.641,0,0,1-1.683-1.491l2.244-3.366a3.306,3.306,0,0,1,.96-.93,2.5,2.5,0,0,1,1.344-.34,2.236,2.236,0,0,1,1.27.354l1.152.768a8.574,8.574,0,0,0,1.476.768,5.954,5.954,0,0,0,2.244.354,4.153,4.153,0,0,0,2.894-.871,2.705,2.705,0,0,0,.945-2.052,2.288,2.288,0,0,0-.487-1.506A4.233,4.233,0,0,0,246.7-19.37a11.8,11.8,0,0,0-1.8-.768q-1-.34-2.067-.753a17.88,17.88,0,0,1-2.067-.96,7.405,7.405,0,0,1-1.8-1.373,6.263,6.263,0,0,1-1.285-2.038,7.832,7.832,0,0,1-.487-2.923,11.292,11.292,0,0,1,.783-4.134,10.247,10.247,0,0,1,2.333-3.558,11.589,11.589,0,0,1,3.854-2.5,14.09,14.09,0,0,1,5.374-.945,13.429,13.429,0,0,1,5.478,1.063,13.234,13.234,0,0,1,3.972,2.6Z" transform="translate(456.085 103.425)"/></g></g><g transform="translate(518.75 0.033)"><path class="t" d="M387.7,104.4a27.575,27.575,0,0,1-9.865-1.216,6.9,6.9,0,0,0-.273,4.754,36.287,36.287,0,0,0,10.025,1.853C386.512,107.4,386.383,106.024,387.7,104.4Z" transform="translate(339.171 30.102)"/><path class="u" d="M336.123,124.251A11,11,0,0,0,338.1,131.6a14.622,14.622,0,0,1,8.161-2.665,16.5,16.5,0,0,0-.636-7.257A27.567,27.567,0,0,1,336.123,124.251Z" transform="translate(269.18 3.266)"/><path class="t" d="M402.38,158.442a2.558,2.558,0,0,1,1.757,1.089,18.524,18.524,0,0,0,3.049-4.641,4.9,4.9,0,0,0-2.14-1.372A10.389,10.389,0,0,1,402.38,158.442Z" transform="translate(374.766 -1.252)"/><path class="v" d="M403.161,102.95a10.467,10.467,0,0,0,4.55,5.086,11.549,11.549,0,0,1,5.313-4.894,15.288,15.288,0,0,0-3.464-5.472A21.878,21.878,0,0,1,403.161,102.95Z" transform="translate(469.476 -51.486)"/><path class="u" d="M30.458,158.8a10.96,10.96,0,0,0,5.178-4.745c-3.12-1.3-4.667-2.6-5.948-4.455a17.333,17.333,0,0,0-5.718,3.768A22.268,22.268,0,0,1,30.458,158.8Z" transform="translate(245.254 -4.7)"/><path class="u" d="M234.73,114.559a3.963,3.963,0,0,1-.5,2.12,28.955,28.955,0,0,1,7.513,3.415,4.287,4.287,0,0,0,.124-3.921A33.505,33.505,0,0,1,234.73,114.559Z" transform="translate(210.645 -29.168)"/><path class="w" d="M329.439,93.519a9.1,9.1,0,0,1-4.277.162,42.824,42.824,0,0,1-3.12,13.611c3.087.325,4.811.181,7.549-1.579A47.3,47.3,0,0,1,329.439,93.519Z" transform="translate(345.187 -56.973)"/><path class="v" d="M291.669,106.532a16.739,16.739,0,0,1-3.094,6.4A4.945,4.945,0,0,0,292.832,115a6.532,6.532,0,0,0,2.236-3.858C293.409,109.945,292.687,108.724,291.669,106.532Z" transform="translate(307.651 -46.525)"/><path class="t" d="M41.393,110.407a12.01,12.01,0,0,1,3.059-3.677,4.155,4.155,0,0,0-2.213-1.3,16.133,16.133,0,0,0-3.4,3.58C40.25,109.172,40.944,109.464,41.393,110.407Z" transform="translate(63.485 -49.813)"/><path class="u" d="M426.83,144.222c-1-.715-1.385-1.228-1.261-2.131a12.1,12.1,0,0,1-4.153,1.532,3.256,3.256,0,0,0,1.043,1.915A16.156,16.156,0,0,0,426.83,144.222Z" transform="translate(77.618 -8.951)"/><path class="t" d="M181.827,79.574a46.473,46.473,0,0,0-11.334,6.1,9.671,9.671,0,0,0,2.59,4.766c3.355-3.642,6.262-5.151,10.919-7.027A5.079,5.079,0,0,1,181.827,79.574Z" transform="translate(120.533 -79.574)"/><path class="v" d="M352.95,96.464A10.368,10.368,0,0,0,348.7,100c4.677,1.95,7.022,4.084,10.217,7.642a5.411,5.411,0,0,1,3.4-2.927A43.515,43.515,0,0,0,352.95,96.464Z" transform="translate(386.03 -53.082)"/><path class="w" d="M125.376,82.458a12.505,12.505,0,0,0,1.281,8.411c5.135,1.008,8.283,1.226,13.246.153-1.735-2.363-2.064-4.116-2.208-7.512C135.061,84.575,131.952,84.645,125.376,82.458Z" transform="translate(73.734 -15.702)"/><path class="u" d="M10.847,106.088c-1.742-3.208-2.1-5.372-1.773-7.863a21.479,21.479,0,0,0-8.017-.432,22.081,22.081,0,0,1,1.486,9.084A14.054,14.054,0,0,0,10.847,106.088Z" transform="translate(362.269 -29.141)"/><path class="t" d="M418.779,81.337a6.739,6.739,0,0,1-3.725,1.978,33.8,33.8,0,0,0,9.607,10.807c1.507-.327,2.3-1.177,3.548-2.6C424.714,89.142,421.772,85.66,418.779,81.337Z" transform="translate(230.004 -8.731)"/><path class="w" d="M53.019,134.4a15.146,15.146,0,0,0-4.087,4.782c.385.973,1.177,1.488,2.628,2a12.685,12.685,0,0,1,3.877-4.411A4.884,4.884,0,0,1,53.019,134.4Z" transform="translate(-48.932 -6.026)"/><path class="w" d="M396.322,121.828a35.671,35.671,0,0,0-.5,9.321,12.43,12.43,0,0,1,4.781.912,30.232,30.232,0,0,1,.2-8.9A6.885,6.885,0,0,0,396.322,121.828Z" transform="translate(415.665 -43.131)"/><path class="t" d="M12.476,107a7.123,7.123,0,0,0,3.811-2.426c-.851-1.711-.881-3.067-.7-5.379A18.275,18.275,0,0,1,9.8,103.472,4.332,4.332,0,0,0,12.476,107Z" transform="translate(382.059 24.894)"/><path class="t" d="M271.363,86.885c1.945.694,2.606,1.869,3.122,4.55,2.737-2.131,5.951-3.348,10.321-4.961-2.3-1.486-4.953-2.9-8.2-2.865A20.93,20.93,0,0,1,271.363,86.885Z" transform="translate(267.538 -70.07)"/><path class="t" d="M18.734,132.178a5.591,5.591,0,0,0,.967,3.749,7.456,7.456,0,0,1,4.173-1.319,8.377,8.377,0,0,0-.286-3.7A14.088,14.088,0,0,1,18.734,132.178Z" transform="translate(237.199 -33.231)"/></g></g></svg>