<svg xmlns="http://www.w3.org/2000/svg" xmlns:xlink="http://www.w3.org/1999/xlink" width="1920.462" height="284" viewBox="0 0 1920.462 284"><defs><style>.a{fill:#f5f5ff;}.b{opacity:0.036;fill:url(#a);}.c{opacity:0.024;fill:url(#b);}.d{stroke:rgba(141,83,235,0.53);opacity:0.4;fill:url(#c);}.e{stroke:rgba(48,222,180,0.66);opacity:0.6;fill:url(#d);}.f{stroke:rgba(0,84,255,0.38);opacity:0.2;fill:url(#e);}</style><linearGradient id="a" x1="0.5" y1="0.5" x2="0.5" y2="1" gradientUnits="objectBoundingBox"><stop offset="0" stop-color="#9b5dff"/><stop offset="1" stop-color="#fff"/></linearGradient><linearGradient id="b" x1="0.5" y1="0.529" x2="0.5" y2="1" gradientUnits="objectBoundingBox"><stop offset="0" stop-color="#0054ff"/><stop offset="1" stop-color="#fff"/></linearGradient><linearGradient id="c" x1="0.5" y1="2.183" x2="0.5" gradientUnits="objectBoundingBox"><stop offset="0" stop-color="#8d53eb"/><stop offset="1" stop-color="#fff" stop-opacity="0.031"/></linearGradient><linearGradient id="d" x1="0.479" y1="1.86" x2="0.495" y2="0.255" gradientUnits="objectBoundingBox"><stop offset="0" stop-color="#30deb4"/><stop offset="1" stop-color="#fff" stop-opacity="0.031"/></linearGradient><linearGradient id="e" x1="0.5" y1="1.612" x2="0.5" gradientUnits="objectBoundingBox"><stop offset="0" stop-color="#0054ff"/><stop offset="1" stop-color="#fff" stop-opacity="0.031"/></linearGradient></defs><g transform="translate(0.169 -4941)"><rect class="a" width="1920" height="284" transform="translate(0 4941)"/><g transform="translate(0 4797.695)"><path class="b" d="M1990,3584.089s468.007-93.417,1036.366-84.98S3910,3538.787,3910,3538.787v107H1990Z" transform="translate(-1990 -3259.587)"/><path class="c" d="M1990,3446.181s373.744,84.134,964.282,0S3910,3416.86,3910,3416.86v205.292H1990Z" transform="translate(-1990 -3225.429)"/><g transform="translate(0 177.936)"><path class="d" d="M-2310,313.865s-468.152,339.826-965,201.723S-4061,393-4230,388.348" transform="translate(4230 -323.865)"/><path class="e" d="M-2316.214,259.848s-610.114,235.115-1029.977,181.68-664.783-126.464-890.023-156.744" transform="translate(4236.214 -247.269)"/><path class="f" d="M-2309.5,314.644s-387.719.251-855.79,94.729S-4229.5,289.887-4229.5,289.887" transform="translate(4229.5 -239.784)"/></g></g></g></svg>