<svg xmlns="http://www.w3.org/2000/svg" width="16.024" height="16.024" viewBox="0 0 16.024 16.024"><defs><style>.a{fill:#8e20e0;}</style></defs><path class="a" d="M11.387,3.375A8.012,8.012,0,1,0,19.4,11.387,8.011,8.011,0,0,0,11.387,3.375Zm4.1,5.8-5.15,5.173h0a.7.7,0,0,1-.447.212.675.675,0,0,1-.451-.22L7.281,12.18a.153.153,0,0,1,0-.22l.686-.686a.15.15,0,0,1,.216,0l1.71,1.71,4.7-4.734a.153.153,0,0,1,.108-.046.14.14,0,0,1,.108.046l.674.7A.152.152,0,0,1,15.489,9.172Z" transform="translate(-3.375 -3.375)"/></svg>