<svg xmlns="http://www.w3.org/2000/svg" width="1831" height="605" viewBox="0 0 1831 605">
  <defs>
    <style>
      .cls-1 {
        fill: #fdd27f;
        fill-rule: evenodd;
      }
    </style>
  </defs>
  <path id="LOGO" class="cls-1" d="M573.362,0.007C406.029,0.007,270.369,135.12,270.369,301.8c0,166.651,135.66,301.772,302.993,301.772,167.349,0,303-135.121,303-301.772C876.363,135.12,740.711.007,573.362,0.007Zm0,502.726C461.933,502.733,371.6,412.768,371.6,301.8c0-111,90.33-200.962,201.759-200.962S775.145,190.791,775.145,301.8C775.145,412.768,684.8,502.733,573.362,502.733ZM0,100.605H64.936V502.961H0v100.59H230.858V502.961H165.926V100.605h64.932V0.007H0v100.6ZM1149.57,169.611c-38.35,0-83.46,10.186-110.3,27.942V0.007H938.046V411.5c0,118.756,103.994,193.5,215.264,193.5,119.04,0,213.67-97.465,213.67-217.689S1268.63,169.611,1149.57,169.611Zm3.12,331.637c-62.29,0-112.81-51.021-112.81-113.94s50.52-113.949,112.81-113.949c62.31,0,112.82,51.03,112.82,113.949S1215,501.248,1152.69,501.248Zm678.3-235.389V165.033H1766.2V75.412H1664.98v89.621H1600.2V265.859H1665l0.03,241.6c0,79.033,50.81,96.318,98.43,96.318h67.53V502.961H1766.2v-237.1h64.79ZM1433.34,100.833h101.22V0.007H1433.34V100.833Zm0,502.946h101.22V165.033H1433.34V603.779Z"/>
</svg>
