<svg xmlns="http://www.w3.org/2000/svg" width="54.12" height="22.139" viewBox="0 0 54.12 22.139"><path d="M-729.449,11025.141h-31.982a11.083,11.083,0,0,1-11.07-11.07,11.082,11.082,0,0,1,11.07-11.068h31.982a11.08,11.08,0,0,1,11.067,11.068A11.081,11.081,0,0,1-729.449,11025.141Zm-4.967-17.319a5.887,5.887,0,0,0-2.392.49,6.093,6.093,0,0,0-1.956,1.354,6.315,6.315,0,0,0-1.317,2.01,6.325,6.325,0,0,0-.476,2.464,6.336,6.336,0,0,0,.476,2.462,6.375,6.375,0,0,0,1.317,2.014,6.047,6.047,0,0,0,1.956,1.354,5.936,5.936,0,0,0,2.392.486,5.929,5.929,0,0,0,2.388-.486,6.046,6.046,0,0,0,1.956-1.354,6.47,6.47,0,0,0,1.32-2.014,6.4,6.4,0,0,0,.473-2.462,6.384,6.384,0,0,0-.473-2.464,6.385,6.385,0,0,0-1.32-2.01,6.091,6.091,0,0,0-1.956-1.354A5.88,5.88,0,0,0-734.415,11007.821Zm-14.207,7.617h.864l3.644,4.783h2.449l-4.008-5a3.891,3.891,0,0,0,1.568-.681,3.193,3.193,0,0,0,1-1.228,3.878,3.878,0,0,0,.354-1.677,3.647,3.647,0,0,0-.493-1.933,3.216,3.216,0,0,0-1.395-1.234,4.918,4.918,0,0,0-2.13-.431h-3.793v12.18h1.936v-4.783Zm-12.258-7.4v12.18h1.932v-4.84h1.861a4.664,4.664,0,0,0,2.092-.456,3.433,3.433,0,0,0,1.412-1.291,3.769,3.769,0,0,0,.51-2,3.609,3.609,0,0,0-.51-1.972,3.249,3.249,0,0,0-1.412-1.21,5.014,5.014,0,0,0-2.092-.416Zm26.464,10.553a3.836,3.836,0,0,1-1.606-.332,3.946,3.946,0,0,1-1.293-.938,4.267,4.267,0,0,1-.85-1.413,5,5,0,0,1-.3-1.771,5,5,0,0,1,.3-1.77,4.281,4.281,0,0,1,.85-1.415,3.857,3.857,0,0,1,1.293-.934,3.844,3.844,0,0,1,1.606-.339,3.885,3.885,0,0,1,1.613.339,3.905,3.905,0,0,1,1.289.934,4.273,4.273,0,0,1,.854,1.415,5.082,5.082,0,0,1,.3,1.77,5.081,5.081,0,0,1-.3,1.771,4.308,4.308,0,0,1-.854,1.413,4,4,0,0,1-1.289.938A3.876,3.876,0,0,1-734.415,11018.595Zm-12.918-4.777h-1.289v-4.223h1.289a2.929,2.929,0,0,1,1.895.553,1.891,1.891,0,0,1,.674,1.543,2.057,2.057,0,0,1-.306,1.138,1.912,1.912,0,0,1-.881.731A3.377,3.377,0,0,1-747.333,11013.817Zm-10.322,0h-1.293v-4.223h1.293a3.615,3.615,0,0,1,1.31.225,2.012,2.012,0,0,1,.919.69,1.967,1.967,0,0,1,.337,1.181,1.985,1.985,0,0,1-.337,1.185,2.062,2.062,0,0,1-.919.7A3.417,3.417,0,0,1-757.655,11013.817Z" transform="translate(772.501 -11003.002)"/></svg>