<svg xmlns="http://www.w3.org/2000/svg" xmlns:xlink="http://www.w3.org/1999/xlink" width="187.693" height="45.281" viewBox="0 0 187.693 45.281"><defs><style>.a{fill:#23253b;stroke:#1e1c2c;stroke-width:3px;}.a,.d{stroke-linecap:round;stroke-linejoin:round;}.b{fill:url(#a);}.c{fill:#fff;}.d{fill:none;stroke:#ffff8a;}.e{fill:url(#e);}.f{filter:url(#f);}.g{filter:url(#b);}</style><linearGradient id="a" x1="0.523" x2="0.589" y2="1.207" gradientUnits="objectBoundingBox"><stop offset="0" stop-color="#ffe600"/><stop offset="0.264" stop-color="#ffd447"/><stop offset="0.423" stop-color="#ffef0f"/><stop offset="1" stop-color="#f60"/></linearGradient><filter id="b"><feOffset dy="3" input="SourceAlpha"/><feGaussianBlur stdDeviation="3" result="c"/><feFlood flood-color="#fff" flood-opacity="0.71" result="d"/><feComposite operator="out" in="SourceGraphic" in2="c"/><feComposite operator="in" in="d"/><feComposite operator="in" in2="SourceGraphic"/></filter><linearGradient id="e" x1="0.5" x2="0.5" y2="1" gradientUnits="objectBoundingBox"><stop offset="0" stop-color="#fff01c"/><stop offset="1" stop-color="#ffb300"/></linearGradient><filter id="f"><feOffset dy="3" input="SourceAlpha"/><feGaussianBlur stdDeviation="3" result="g"/><feFlood flood-color="#fff" flood-opacity="0.71" result="h"/><feComposite operator="out" in="SourceGraphic" in2="g"/><feComposite operator="in" in="h"/><feComposite operator="in" in2="SourceGraphic"/></filter></defs><g transform="translate(-959.885 -531.014)"><path class="a" d="M132.877,3.463q-.66-.356-1.193-.635t-1.041-.508q-.508-.228-1.04-.432t-1.168-.381q-.686-.177-.686-.584A1.03,1.03,0,0,1,128,.314,23.1,23.1,0,0,0,129.449-2q.686-1.245,1.257-2.564t1.041-2.615q.47-1.295.8-2.438a22.563,22.563,0,0,1-2.666.61,16.377,16.377,0,0,1-2.691.228A10.361,10.361,0,0,1,122.606-9.8a12.03,12.03,0,0,1-3.681-2.742,12.843,12.843,0,0,1-2.451-3.961,12.564,12.564,0,0,1-.888-4.659,14.023,14.023,0,0,1,.724-4.558,14.169,14.169,0,0,1,2.006-3.859,16.141,16.141,0,0,1,3.021-3.11,18.644,18.644,0,0,1,3.745-2.3,21.064,21.064,0,0,1,4.189-1.422,19.788,19.788,0,0,1,4.393-.495,10.86,10.86,0,0,1,5.369,1.333,13.7,13.7,0,0,1,4.1,3.466,16.13,16.13,0,0,1,2.628,4.8,16.158,16.158,0,0,1,.926,5.332,20.214,20.214,0,0,1-.584,4.875,28.086,28.086,0,0,1-1.574,4.608,36.1,36.1,0,0,1-2.285,4.355q-1.295,2.107-2.742,4.088T136.571-.231q-1.485,1.84-2.857,3.567a1.219,1.219,0,0,1-.191.153.516.516,0,0,1-.292.076A.712.712,0,0,1,132.877,3.463ZM129.2-29.558a5.132,5.132,0,0,0-1.5,1.765,7.827,7.827,0,0,0-.775,2.348,14.721,14.721,0,0,0-.215,2.425,10.569,10.569,0,0,0,.3,2.552,6.565,6.565,0,0,0,.952,2.171,4.859,4.859,0,0,0,1.688,1.511,5.157,5.157,0,0,0,2.514.571,4.621,4.621,0,0,0,.965-.088,10.026,10.026,0,0,0,1.066-.318q.279-1.142.457-1.955t.266-1.524q.089-.711.127-1.435t.038-1.663q0-.559-.038-1.308a14.122,14.122,0,0,0-.165-1.536,12.094,12.094,0,0,0-.356-1.548,4.928,4.928,0,0,0-.622-1.346,3.351,3.351,0,0,0-.965-.952,2.509,2.509,0,0,0-1.384-.368A3.853,3.853,0,0,0,129.2-29.558ZM99.209,3.463q-.66-.356-1.193-.635t-1.04-.508q-.509-.228-1.041-.432t-1.168-.381q-.686-.177-.686-.584a1.027,1.027,0,0,1,.255-.609A23.43,23.43,0,0,0,95.782-2q.684-1.245,1.256-2.564t1.041-2.615q.47-1.295.8-2.438A22.563,22.563,0,0,1,96.213-9a16.369,16.369,0,0,1-2.691.228A10.354,10.354,0,0,1,88.939-9.8a12.023,12.023,0,0,1-3.682-2.742,12.843,12.843,0,0,1-2.451-3.961,12.564,12.564,0,0,1-.888-4.659,14.023,14.023,0,0,1,.724-4.558,14.169,14.169,0,0,1,2.006-3.859,16.194,16.194,0,0,1,3.021-3.11,18.644,18.644,0,0,1,3.745-2.3A21.064,21.064,0,0,1,95.6-36.413,19.793,19.793,0,0,1,100-36.908a10.866,10.866,0,0,1,5.37,1.333,13.7,13.7,0,0,1,4.1,3.466,16.13,16.13,0,0,1,2.628,4.8,16.158,16.158,0,0,1,.926,5.332,20.258,20.258,0,0,1-.583,4.875,28.175,28.175,0,0,1-1.575,4.608,35.973,35.973,0,0,1-2.285,4.355q-1.295,2.107-2.742,4.088T102.9-.231q-1.485,1.84-2.857,3.567a1.252,1.252,0,0,1-.19.153.521.521,0,0,1-.293.076A.715.715,0,0,1,99.209,3.463ZM95.527-29.558a5.142,5.142,0,0,0-1.5,1.765,7.8,7.8,0,0,0-.774,2.348,14.629,14.629,0,0,0-.216,2.425,10.613,10.613,0,0,0,.3,2.552A6.584,6.584,0,0,0,94.3-18.3a4.859,4.859,0,0,0,1.688,1.511,5.157,5.157,0,0,0,2.514.571,4.621,4.621,0,0,0,.965-.088,10.026,10.026,0,0,0,1.067-.318q.279-1.142.457-1.955t.266-1.524q.089-.711.127-1.435t.039-1.663q0-.559-.039-1.308a14.124,14.124,0,0,0-.165-1.536,12.093,12.093,0,0,0-.355-1.548,4.928,4.928,0,0,0-.622-1.346,3.351,3.351,0,0,0-.965-.952,2.507,2.507,0,0,0-1.384-.368A3.853,3.853,0,0,0,95.527-29.558ZM56.452,3.463q-.66-.356-1.193-.635T54.217,2.32q-.508-.228-1.041-.432t-1.168-.381q-.684-.177-.685-.584a1.03,1.03,0,0,1,.254-.609A23.431,23.431,0,0,0,53.024-2q.686-1.245,1.256-2.564t1.041-2.615q.47-1.295.8-2.438A22.6,22.6,0,0,1,53.456-9a16.388,16.388,0,0,1-2.692.228A10.357,10.357,0,0,1,46.181-9.8,12.033,12.033,0,0,1,42.5-12.546a12.824,12.824,0,0,1-2.45-3.961,12.547,12.547,0,0,1-.889-4.659,14.023,14.023,0,0,1,.724-4.558,14.169,14.169,0,0,1,2.006-3.859,16.194,16.194,0,0,1,3.021-3.11,18.694,18.694,0,0,1,3.745-2.3,21.064,21.064,0,0,1,4.19-1.422,19.8,19.8,0,0,1,4.393-.495,10.862,10.862,0,0,1,5.37,1.333,13.7,13.7,0,0,1,4.1,3.466,16.11,16.11,0,0,1,2.628,4.8,16.159,16.159,0,0,1,.927,5.332A20.259,20.259,0,0,1,69.68-17.1,28.257,28.257,0,0,1,68.106-12.5,36.231,36.231,0,0,1,65.821-8.14q-1.3,2.107-2.742,4.088T60.145-.231Q58.66,1.609,57.29,3.335a1.263,1.263,0,0,1-.191.153.521.521,0,0,1-.292.076A.709.709,0,0,1,56.452,3.463ZM52.77-29.558a5.135,5.135,0,0,0-1.5,1.765,7.851,7.851,0,0,0-.774,2.348,14.629,14.629,0,0,0-.216,2.425,10.569,10.569,0,0,0,.305,2.552,6.547,6.547,0,0,0,.952,2.171,4.843,4.843,0,0,0,1.688,1.511,5.157,5.157,0,0,0,2.514.571,4.627,4.627,0,0,0,.965-.088,10.026,10.026,0,0,0,1.066-.318q.278-1.142.456-1.955T58.5-20.1q.088-.711.127-1.435T58.66-23.2q0-.559-.038-1.308a14.357,14.357,0,0,0-.166-1.536,11.943,11.943,0,0,0-.355-1.548,4.9,4.9,0,0,0-.622-1.346,3.34,3.34,0,0,0-.965-.952,2.506,2.506,0,0,0-1.383-.368A3.851,3.851,0,0,0,52.77-29.558ZM70.988,2.219c-.042-.017-.064-.067-.064-.152v-.1Q70.975.771,71,.073t.038-1.079c.009-.254.013-.431.013-.533v-.293c0-.093,0-.207.013-.342s.022-.36.039-.673.042-.745.076-1.3.076-1.282.127-2.2a4.768,4.768,0,0,1,.166-1.156.654.654,0,0,1,.572-.393q2.234,0,4.672-.013t4.6-.039a.571.571,0,0,1,.381.128.607.607,0,0,1,.152.482L81.131.645a9.008,9.008,0,0,1-.19,1.156q-.089.317-.572.368l-4.431.05q-2.272.026-4.735.025A.64.64,0,0,1,70.988,2.219ZM32.666-.364,32.2-.346c-.137.008-.285.014-.445.021s-.314.006-.463,0q.088-.458.193-.887t.205-.888a5.317,5.317,0,0,0,.752-.12,3.453,3.453,0,0,0,.639-.211,1.566,1.566,0,0,0,.443-.283.466.466,0,0,0,.164-.334.648.648,0,0,0-.044-.226.9.9,0,0,0-.179-.273,2.881,2.881,0,0,0-.383-.348,7.247,7.247,0,0,0-.665-.454,2.144,2.144,0,0,1-.738-.685,1.538,1.538,0,0,1-.223-.809,1.278,1.278,0,0,1,.158-.595,2.363,2.363,0,0,1,.408-.556,2.567,2.567,0,0,1,.563-.437,1.948,1.948,0,0,1,.63-.24l.181-1.12c.008-.05.013-.094.015-.129A.771.771,0,0,1,33.422-9a.1.1,0,0,1,.023-.05.116.116,0,0,1,.065-.023q.41-.028.852-.068t.865-.1c.023,0,.038,0,.043.012a.042.042,0,0,1,.009.029c0,.008-.007.052-.023.132s-.036.178-.061.3-.052.245-.079.382-.053.266-.076.386q.423.03.735.058c.21.02.371.038.483.053l.158,1.723c-.007,0-.048,0-.12-.014s-.158-.02-.255-.03l-.3-.029c-.1-.01-.186-.015-.252-.015-.083,0-.189.007-.319.021a1.912,1.912,0,0,0-.387.082.948.948,0,0,0-.325.176.374.374,0,0,0-.135.3.654.654,0,0,0,.144.413,2.316,2.316,0,0,0,.36.364c.145.119.3.242.469.369a3.6,3.6,0,0,1,.469.425,2.168,2.168,0,0,1,.36.53,1.549,1.549,0,0,1,.143.682,1.412,1.412,0,0,1-.134.613,2.02,2.02,0,0,1-.369.527,2.96,2.96,0,0,1-.543.439,4.572,4.572,0,0,1-.647.343c0,.067-.011.164-.021.293s-.021.273-.032.431-.023.321-.035.489-.022.325-.029.469L34,.691c-.05,0-.131,0-.243.009s-.234.013-.369.023-.272.018-.41.023-.263.009-.372.009Z" transform="translate(960 571.23)"/><g data-type="innerShadowGroup"><path class="b" d="M132.877,2.463q-.66-.356-1.193-.635t-1.041-.508q-.508-.228-1.04-.432T128.434.508q-.686-.177-.686-.584A1.03,1.03,0,0,1,128-.686,23.1,23.1,0,0,0,129.449-3q.686-1.245,1.257-2.564t1.041-2.615q.47-1.295.8-2.438a22.563,22.563,0,0,1-2.666.61,16.377,16.377,0,0,1-2.691.228,10.361,10.361,0,0,1-4.584-1.028,12.03,12.03,0,0,1-3.681-2.742,12.843,12.843,0,0,1-2.451-3.961,12.564,12.564,0,0,1-.888-4.659,14.023,14.023,0,0,1,.724-4.558,14.169,14.169,0,0,1,2.006-3.859,16.141,16.141,0,0,1,3.021-3.11,18.644,18.644,0,0,1,3.745-2.3,21.064,21.064,0,0,1,4.189-1.422,19.788,19.788,0,0,1,4.393-.495,10.86,10.86,0,0,1,5.369,1.333,13.7,13.7,0,0,1,4.1,3.466,16.13,16.13,0,0,1,2.628,4.8,16.158,16.158,0,0,1,.926,5.332,20.214,20.214,0,0,1-.584,4.875,28.086,28.086,0,0,1-1.574,4.608,36.1,36.1,0,0,1-2.285,4.355q-1.295,2.107-2.742,4.088t-2.932,3.821q-1.485,1.84-2.857,3.567a1.219,1.219,0,0,1-.191.153.516.516,0,0,1-.292.076A.712.712,0,0,1,132.877,2.463ZM129.2-30.558a5.132,5.132,0,0,0-1.5,1.765,7.827,7.827,0,0,0-.775,2.348,14.721,14.721,0,0,0-.215,2.425,10.569,10.569,0,0,0,.3,2.552,6.565,6.565,0,0,0,.952,2.171,4.859,4.859,0,0,0,1.688,1.511,5.157,5.157,0,0,0,2.514.571,4.621,4.621,0,0,0,.965-.088,10.026,10.026,0,0,0,1.066-.318q.279-1.142.457-1.955t.266-1.524q.089-.711.127-1.435t.038-1.663q0-.559-.038-1.308a14.122,14.122,0,0,0-.165-1.536,12.094,12.094,0,0,0-.356-1.548,4.928,4.928,0,0,0-.622-1.346,3.351,3.351,0,0,0-.965-.952,2.509,2.509,0,0,0-1.384-.368A3.853,3.853,0,0,0,129.2-30.558ZM99.209,2.463q-.66-.356-1.193-.635t-1.04-.508q-.509-.228-1.041-.432T94.766.508Q94.08.331,94.08-.076a1.027,1.027,0,0,1,.255-.609A23.43,23.43,0,0,0,95.782-3q.684-1.245,1.256-2.564t1.041-2.615q.47-1.295.8-2.438a22.563,22.563,0,0,1-2.666.61,16.369,16.369,0,0,1-2.691.228A10.354,10.354,0,0,1,88.939-10.8a12.023,12.023,0,0,1-3.682-2.742,12.843,12.843,0,0,1-2.451-3.961,12.564,12.564,0,0,1-.888-4.659,14.023,14.023,0,0,1,.724-4.558,14.169,14.169,0,0,1,2.006-3.859,16.194,16.194,0,0,1,3.021-3.11,18.644,18.644,0,0,1,3.745-2.3A21.064,21.064,0,0,1,95.6-37.413,19.793,19.793,0,0,1,100-37.908a10.866,10.866,0,0,1,5.37,1.333,13.7,13.7,0,0,1,4.1,3.466,16.13,16.13,0,0,1,2.628,4.8,16.158,16.158,0,0,1,.926,5.332,20.258,20.258,0,0,1-.583,4.875,28.175,28.175,0,0,1-1.575,4.608,35.973,35.973,0,0,1-2.285,4.355q-1.295,2.107-2.742,4.088T102.9-1.231q-1.485,1.84-2.857,3.567a1.252,1.252,0,0,1-.19.153.521.521,0,0,1-.293.076A.715.715,0,0,1,99.209,2.463ZM95.527-30.558a5.142,5.142,0,0,0-1.5,1.765,7.8,7.8,0,0,0-.774,2.348,14.629,14.629,0,0,0-.216,2.425,10.613,10.613,0,0,0,.3,2.552A6.584,6.584,0,0,0,94.3-19.3a4.859,4.859,0,0,0,1.688,1.511,5.157,5.157,0,0,0,2.514.571,4.621,4.621,0,0,0,.965-.088,10.026,10.026,0,0,0,1.067-.318q.279-1.142.457-1.955t.266-1.524q.089-.711.127-1.435t.039-1.663q0-.559-.039-1.308a14.124,14.124,0,0,0-.165-1.536,12.093,12.093,0,0,0-.355-1.548,4.928,4.928,0,0,0-.622-1.346,3.351,3.351,0,0,0-.965-.952,2.507,2.507,0,0,0-1.384-.368A3.853,3.853,0,0,0,95.527-30.558ZM56.452,2.463q-.66-.356-1.193-.635T54.217,1.32q-.508-.228-1.041-.432T52.007.508q-.684-.177-.685-.584a1.03,1.03,0,0,1,.254-.609A23.431,23.431,0,0,0,53.024-3q.686-1.245,1.256-2.564t1.041-2.615q.47-1.295.8-2.438a22.6,22.6,0,0,1-2.666.61,16.388,16.388,0,0,1-2.692.228A10.357,10.357,0,0,1,46.181-10.8,12.033,12.033,0,0,1,42.5-13.546a12.824,12.824,0,0,1-2.45-3.961,12.547,12.547,0,0,1-.889-4.659,14.023,14.023,0,0,1,.724-4.558,14.169,14.169,0,0,1,2.006-3.859,16.194,16.194,0,0,1,3.021-3.11,18.694,18.694,0,0,1,3.745-2.3,21.064,21.064,0,0,1,4.19-1.422,19.8,19.8,0,0,1,4.393-.495,10.862,10.862,0,0,1,5.37,1.333,13.7,13.7,0,0,1,4.1,3.466,16.11,16.11,0,0,1,2.628,4.8,16.159,16.159,0,0,1,.927,5.332A20.259,20.259,0,0,1,69.68-18.1,28.257,28.257,0,0,1,68.106-13.5,36.231,36.231,0,0,1,65.821-9.14q-1.3,2.107-2.742,4.088T60.145-1.231Q58.66.609,57.29,2.336a1.263,1.263,0,0,1-.191.153.521.521,0,0,1-.292.076A.709.709,0,0,1,56.452,2.463ZM52.77-30.558a5.135,5.135,0,0,0-1.5,1.765,7.851,7.851,0,0,0-.774,2.348,14.629,14.629,0,0,0-.216,2.425,10.569,10.569,0,0,0,.305,2.552,6.547,6.547,0,0,0,.952,2.171,4.843,4.843,0,0,0,1.688,1.511,5.157,5.157,0,0,0,2.514.571,4.627,4.627,0,0,0,.965-.088,10.026,10.026,0,0,0,1.066-.318q.278-1.142.456-1.955T58.5-21.1q.088-.711.127-1.435T58.66-24.2q0-.559-.038-1.308a14.357,14.357,0,0,0-.166-1.536,11.943,11.943,0,0,0-.355-1.548,4.9,4.9,0,0,0-.622-1.346,3.34,3.34,0,0,0-.965-.952,2.506,2.506,0,0,0-1.383-.368A3.851,3.851,0,0,0,52.77-30.558ZM70.988,1.219c-.042-.017-.064-.067-.064-.152v-.1Q70.975-.229,71-.927t.038-1.079c.009-.254.013-.431.013-.533v-.293c0-.093,0-.207.013-.342s.022-.36.039-.673.042-.745.076-1.3.076-1.282.127-2.2a4.768,4.768,0,0,1,.166-1.156.654.654,0,0,1,.572-.393q2.234,0,4.672-.013t4.6-.039a.571.571,0,0,1,.381.128.607.607,0,0,1,.152.482L81.131-.356A9.008,9.008,0,0,1,80.941.8q-.089.317-.572.368l-4.431.05q-2.272.026-4.735.025A.64.64,0,0,1,70.988,1.219Z" transform="translate(959 569.422)"/><g class="g" transform="matrix(1, 0, 0, 1, 959.88, 531.01)"><path class="c" d="M132.877,2.463q-.66-.356-1.193-.635t-1.041-.508q-.508-.228-1.04-.432T128.434.508q-.686-.177-.686-.584A1.03,1.03,0,0,1,128-.686,23.1,23.1,0,0,0,129.449-3q.686-1.245,1.257-2.564t1.041-2.615q.47-1.295.8-2.438a22.563,22.563,0,0,1-2.666.61,16.377,16.377,0,0,1-2.691.228,10.361,10.361,0,0,1-4.584-1.028,12.03,12.03,0,0,1-3.681-2.742,12.843,12.843,0,0,1-2.451-3.961,12.564,12.564,0,0,1-.888-4.659,14.023,14.023,0,0,1,.724-4.558,14.169,14.169,0,0,1,2.006-3.859,16.141,16.141,0,0,1,3.021-3.11,18.644,18.644,0,0,1,3.745-2.3,21.064,21.064,0,0,1,4.189-1.422,19.788,19.788,0,0,1,4.393-.495,10.86,10.86,0,0,1,5.369,1.333,13.7,13.7,0,0,1,4.1,3.466,16.13,16.13,0,0,1,2.628,4.8,16.158,16.158,0,0,1,.926,5.332,20.214,20.214,0,0,1-.584,4.875,28.086,28.086,0,0,1-1.574,4.608,36.1,36.1,0,0,1-2.285,4.355q-1.295,2.107-2.742,4.088t-2.932,3.821q-1.485,1.84-2.857,3.567a1.219,1.219,0,0,1-.191.153.516.516,0,0,1-.292.076A.712.712,0,0,1,132.877,2.463ZM129.2-30.558a5.132,5.132,0,0,0-1.5,1.765,7.827,7.827,0,0,0-.775,2.348,14.721,14.721,0,0,0-.215,2.425,10.569,10.569,0,0,0,.3,2.552,6.565,6.565,0,0,0,.952,2.171,4.859,4.859,0,0,0,1.688,1.511,5.157,5.157,0,0,0,2.514.571,4.621,4.621,0,0,0,.965-.088,10.026,10.026,0,0,0,1.066-.318q.279-1.142.457-1.955t.266-1.524q.089-.711.127-1.435t.038-1.663q0-.559-.038-1.308a14.122,14.122,0,0,0-.165-1.536,12.094,12.094,0,0,0-.356-1.548,4.928,4.928,0,0,0-.622-1.346,3.351,3.351,0,0,0-.965-.952,2.509,2.509,0,0,0-1.384-.368A3.853,3.853,0,0,0,129.2-30.558ZM99.209,2.463q-.66-.356-1.193-.635t-1.04-.508q-.509-.228-1.041-.432T94.766.508Q94.08.331,94.08-.076a1.027,1.027,0,0,1,.255-.609A23.43,23.43,0,0,0,95.782-3q.684-1.245,1.256-2.564t1.041-2.615q.47-1.295.8-2.438a22.563,22.563,0,0,1-2.666.61,16.369,16.369,0,0,1-2.691.228A10.354,10.354,0,0,1,88.939-10.8a12.023,12.023,0,0,1-3.682-2.742,12.843,12.843,0,0,1-2.451-3.961,12.564,12.564,0,0,1-.888-4.659,14.023,14.023,0,0,1,.724-4.558,14.169,14.169,0,0,1,2.006-3.859,16.194,16.194,0,0,1,3.021-3.11,18.644,18.644,0,0,1,3.745-2.3A21.064,21.064,0,0,1,95.6-37.413,19.793,19.793,0,0,1,100-37.908a10.866,10.866,0,0,1,5.37,1.333,13.7,13.7,0,0,1,4.1,3.466,16.13,16.13,0,0,1,2.628,4.8,16.158,16.158,0,0,1,.926,5.332,20.258,20.258,0,0,1-.583,4.875,28.175,28.175,0,0,1-1.575,4.608,35.973,35.973,0,0,1-2.285,4.355q-1.295,2.107-2.742,4.088T102.9-1.231q-1.485,1.84-2.857,3.567a1.252,1.252,0,0,1-.19.153.521.521,0,0,1-.293.076A.715.715,0,0,1,99.209,2.463ZM95.527-30.558a5.142,5.142,0,0,0-1.5,1.765,7.8,7.8,0,0,0-.774,2.348,14.629,14.629,0,0,0-.216,2.425,10.613,10.613,0,0,0,.3,2.552A6.584,6.584,0,0,0,94.3-19.3a4.859,4.859,0,0,0,1.688,1.511,5.157,5.157,0,0,0,2.514.571,4.621,4.621,0,0,0,.965-.088,10.026,10.026,0,0,0,1.067-.318q.279-1.142.457-1.955t.266-1.524q.089-.711.127-1.435t.039-1.663q0-.559-.039-1.308a14.124,14.124,0,0,0-.165-1.536,12.093,12.093,0,0,0-.355-1.548,4.928,4.928,0,0,0-.622-1.346,3.351,3.351,0,0,0-.965-.952,2.507,2.507,0,0,0-1.384-.368A3.853,3.853,0,0,0,95.527-30.558ZM56.452,2.463q-.66-.356-1.193-.635T54.217,1.32q-.508-.228-1.041-.432T52.007.508q-.684-.177-.685-.584a1.03,1.03,0,0,1,.254-.609A23.431,23.431,0,0,0,53.024-3q.686-1.245,1.256-2.564t1.041-2.615q.47-1.295.8-2.438a22.6,22.6,0,0,1-2.666.61,16.388,16.388,0,0,1-2.692.228A10.357,10.357,0,0,1,46.181-10.8,12.033,12.033,0,0,1,42.5-13.546a12.824,12.824,0,0,1-2.45-3.961,12.547,12.547,0,0,1-.889-4.659,14.023,14.023,0,0,1,.724-4.558,14.169,14.169,0,0,1,2.006-3.859,16.194,16.194,0,0,1,3.021-3.11,18.694,18.694,0,0,1,3.745-2.3,21.064,21.064,0,0,1,4.19-1.422,19.8,19.8,0,0,1,4.393-.495,10.862,10.862,0,0,1,5.37,1.333,13.7,13.7,0,0,1,4.1,3.466,16.11,16.11,0,0,1,2.628,4.8,16.159,16.159,0,0,1,.927,5.332A20.259,20.259,0,0,1,69.68-18.1,28.257,28.257,0,0,1,68.106-13.5,36.231,36.231,0,0,1,65.821-9.14q-1.3,2.107-2.742,4.088T60.145-1.231Q58.66.609,57.29,2.336a1.263,1.263,0,0,1-.191.153.521.521,0,0,1-.292.076A.709.709,0,0,1,56.452,2.463ZM52.77-30.558a5.135,5.135,0,0,0-1.5,1.765,7.851,7.851,0,0,0-.774,2.348,14.629,14.629,0,0,0-.216,2.425,10.569,10.569,0,0,0,.305,2.552,6.547,6.547,0,0,0,.952,2.171,4.843,4.843,0,0,0,1.688,1.511,5.157,5.157,0,0,0,2.514.571,4.627,4.627,0,0,0,.965-.088,10.026,10.026,0,0,0,1.066-.318q.278-1.142.456-1.955T58.5-21.1q.088-.711.127-1.435T58.66-24.2q0-.559-.038-1.308a14.357,14.357,0,0,0-.166-1.536,11.943,11.943,0,0,0-.355-1.548,4.9,4.9,0,0,0-.622-1.346,3.34,3.34,0,0,0-.965-.952,2.506,2.506,0,0,0-1.383-.368A3.851,3.851,0,0,0,52.77-30.558ZM70.988,1.219c-.042-.017-.064-.067-.064-.152v-.1Q70.975-.229,71-.927t.038-1.079c.009-.254.013-.431.013-.533v-.293c0-.093,0-.207.013-.342s.022-.36.039-.673.042-.745.076-1.3.076-1.282.127-2.2a4.768,4.768,0,0,1,.166-1.156.654.654,0,0,1,.572-.393q2.234,0,4.672-.013t4.6-.039a.571.571,0,0,1,.381.128.607.607,0,0,1,.152.482L81.131-.356A9.008,9.008,0,0,1,80.941.8q-.089.317-.572.368l-4.431.05q-2.272.026-4.735.025A.64.64,0,0,1,70.988,1.219Z" transform="translate(-0.88 38.41)"/></g><path class="d" d="M132.877,2.463q-.66-.356-1.193-.635t-1.041-.508q-.508-.228-1.04-.432T128.434.508q-.686-.177-.686-.584A1.03,1.03,0,0,1,128-.686,23.1,23.1,0,0,0,129.449-3q.686-1.245,1.257-2.564t1.041-2.615q.47-1.295.8-2.438a22.563,22.563,0,0,1-2.666.61,16.377,16.377,0,0,1-2.691.228,10.361,10.361,0,0,1-4.584-1.028,12.03,12.03,0,0,1-3.681-2.742,12.843,12.843,0,0,1-2.451-3.961,12.564,12.564,0,0,1-.888-4.659,14.023,14.023,0,0,1,.724-4.558,14.169,14.169,0,0,1,2.006-3.859,16.141,16.141,0,0,1,3.021-3.11,18.644,18.644,0,0,1,3.745-2.3,21.064,21.064,0,0,1,4.189-1.422,19.788,19.788,0,0,1,4.393-.495,10.86,10.86,0,0,1,5.369,1.333,13.7,13.7,0,0,1,4.1,3.466,16.13,16.13,0,0,1,2.628,4.8,16.158,16.158,0,0,1,.926,5.332,20.214,20.214,0,0,1-.584,4.875,28.086,28.086,0,0,1-1.574,4.608,36.1,36.1,0,0,1-2.285,4.355q-1.295,2.107-2.742,4.088t-2.932,3.821q-1.485,1.84-2.857,3.567a1.219,1.219,0,0,1-.191.153.516.516,0,0,1-.292.076A.712.712,0,0,1,132.877,2.463ZM129.2-30.558a5.132,5.132,0,0,0-1.5,1.765,7.827,7.827,0,0,0-.775,2.348,14.721,14.721,0,0,0-.215,2.425,10.569,10.569,0,0,0,.3,2.552,6.565,6.565,0,0,0,.952,2.171,4.859,4.859,0,0,0,1.688,1.511,5.157,5.157,0,0,0,2.514.571,4.621,4.621,0,0,0,.965-.088,10.026,10.026,0,0,0,1.066-.318q.279-1.142.457-1.955t.266-1.524q.089-.711.127-1.435t.038-1.663q0-.559-.038-1.308a14.122,14.122,0,0,0-.165-1.536,12.094,12.094,0,0,0-.356-1.548,4.928,4.928,0,0,0-.622-1.346,3.351,3.351,0,0,0-.965-.952,2.509,2.509,0,0,0-1.384-.368A3.853,3.853,0,0,0,129.2-30.558ZM99.209,2.463q-.66-.356-1.193-.635t-1.04-.508q-.509-.228-1.041-.432T94.766.508Q94.08.331,94.08-.076a1.027,1.027,0,0,1,.255-.609A23.43,23.43,0,0,0,95.782-3q.684-1.245,1.256-2.564t1.041-2.615q.47-1.295.8-2.438a22.563,22.563,0,0,1-2.666.61,16.369,16.369,0,0,1-2.691.228A10.354,10.354,0,0,1,88.939-10.8a12.023,12.023,0,0,1-3.682-2.742,12.843,12.843,0,0,1-2.451-3.961,12.564,12.564,0,0,1-.888-4.659,14.023,14.023,0,0,1,.724-4.558,14.169,14.169,0,0,1,2.006-3.859,16.194,16.194,0,0,1,3.021-3.11,18.644,18.644,0,0,1,3.745-2.3A21.064,21.064,0,0,1,95.6-37.413,19.793,19.793,0,0,1,100-37.908a10.866,10.866,0,0,1,5.37,1.333,13.7,13.7,0,0,1,4.1,3.466,16.13,16.13,0,0,1,2.628,4.8,16.158,16.158,0,0,1,.926,5.332,20.258,20.258,0,0,1-.583,4.875,28.175,28.175,0,0,1-1.575,4.608,35.973,35.973,0,0,1-2.285,4.355q-1.295,2.107-2.742,4.088T102.9-1.231q-1.485,1.84-2.857,3.567a1.252,1.252,0,0,1-.19.153.521.521,0,0,1-.293.076A.715.715,0,0,1,99.209,2.463ZM95.527-30.558a5.142,5.142,0,0,0-1.5,1.765,7.8,7.8,0,0,0-.774,2.348,14.629,14.629,0,0,0-.216,2.425,10.613,10.613,0,0,0,.3,2.552A6.584,6.584,0,0,0,94.3-19.3a4.859,4.859,0,0,0,1.688,1.511,5.157,5.157,0,0,0,2.514.571,4.621,4.621,0,0,0,.965-.088,10.026,10.026,0,0,0,1.067-.318q.279-1.142.457-1.955t.266-1.524q.089-.711.127-1.435t.039-1.663q0-.559-.039-1.308a14.124,14.124,0,0,0-.165-1.536,12.093,12.093,0,0,0-.355-1.548,4.928,4.928,0,0,0-.622-1.346,3.351,3.351,0,0,0-.965-.952,2.507,2.507,0,0,0-1.384-.368A3.853,3.853,0,0,0,95.527-30.558ZM56.452,2.463q-.66-.356-1.193-.635T54.217,1.32q-.508-.228-1.041-.432T52.007.508q-.684-.177-.685-.584a1.03,1.03,0,0,1,.254-.609A23.431,23.431,0,0,0,53.024-3q.686-1.245,1.256-2.564t1.041-2.615q.47-1.295.8-2.438a22.6,22.6,0,0,1-2.666.61,16.388,16.388,0,0,1-2.692.228A10.357,10.357,0,0,1,46.181-10.8,12.033,12.033,0,0,1,42.5-13.546a12.824,12.824,0,0,1-2.45-3.961,12.547,12.547,0,0,1-.889-4.659,14.023,14.023,0,0,1,.724-4.558,14.169,14.169,0,0,1,2.006-3.859,16.194,16.194,0,0,1,3.021-3.11,18.694,18.694,0,0,1,3.745-2.3,21.064,21.064,0,0,1,4.19-1.422,19.8,19.8,0,0,1,4.393-.495,10.862,10.862,0,0,1,5.37,1.333,13.7,13.7,0,0,1,4.1,3.466,16.11,16.11,0,0,1,2.628,4.8,16.159,16.159,0,0,1,.927,5.332A20.259,20.259,0,0,1,69.68-18.1,28.257,28.257,0,0,1,68.106-13.5,36.231,36.231,0,0,1,65.821-9.14q-1.3,2.107-2.742,4.088T60.145-1.231Q58.66.609,57.29,2.336a1.263,1.263,0,0,1-.191.153.521.521,0,0,1-.292.076A.709.709,0,0,1,56.452,2.463ZM52.77-30.558a5.135,5.135,0,0,0-1.5,1.765,7.851,7.851,0,0,0-.774,2.348,14.629,14.629,0,0,0-.216,2.425,10.569,10.569,0,0,0,.305,2.552,6.547,6.547,0,0,0,.952,2.171,4.843,4.843,0,0,0,1.688,1.511,5.157,5.157,0,0,0,2.514.571,4.627,4.627,0,0,0,.965-.088,10.026,10.026,0,0,0,1.066-.318q.278-1.142.456-1.955T58.5-21.1q.088-.711.127-1.435T58.66-24.2q0-.559-.038-1.308a14.357,14.357,0,0,0-.166-1.536,11.943,11.943,0,0,0-.355-1.548,4.9,4.9,0,0,0-.622-1.346,3.34,3.34,0,0,0-.965-.952,2.506,2.506,0,0,0-1.383-.368A3.851,3.851,0,0,0,52.77-30.558ZM70.988,1.219c-.042-.017-.064-.067-.064-.152v-.1Q70.975-.229,71-.927t.038-1.079c.009-.254.013-.431.013-.533v-.293c0-.093,0-.207.013-.342s.022-.36.039-.673.042-.745.076-1.3.076-1.282.127-2.2a4.768,4.768,0,0,1,.166-1.156.654.654,0,0,1,.572-.393q2.234,0,4.672-.013t4.6-.039a.571.571,0,0,1,.381.128.607.607,0,0,1,.152.482L81.131-.356A9.008,9.008,0,0,1,80.941.8q-.089.317-.572.368l-4.431.05q-2.272.026-4.735.025A.64.64,0,0,1,70.988,1.219Z" transform="translate(959 569.422)"/></g><g data-type="innerShadowGroup"><path class="e" d="M32.666-.364,32.2-.346c-.137.008-.285.014-.445.021s-.314.006-.463,0q.088-.458.193-.887t.205-.888a5.317,5.317,0,0,0,.752-.12,3.453,3.453,0,0,0,.639-.211,1.566,1.566,0,0,0,.443-.283.466.466,0,0,0,.164-.334.648.648,0,0,0-.044-.226.9.9,0,0,0-.179-.273,2.881,2.881,0,0,0-.383-.348,7.247,7.247,0,0,0-.665-.454,2.144,2.144,0,0,1-.738-.685,1.538,1.538,0,0,1-.223-.809,1.278,1.278,0,0,1,.158-.595,2.363,2.363,0,0,1,.408-.556,2.567,2.567,0,0,1,.563-.437,1.948,1.948,0,0,1,.63-.24l.181-1.12c.008-.05.013-.094.015-.129A.771.771,0,0,1,33.422-9a.1.1,0,0,1,.023-.05.116.116,0,0,1,.065-.023q.41-.028.852-.068t.865-.1c.023,0,.038,0,.043.012a.042.042,0,0,1,.009.029c0,.008-.007.052-.023.132s-.036.178-.061.3-.052.245-.079.382-.053.266-.076.386q.423.03.735.058c.21.02.371.038.483.053l.158,1.723c-.007,0-.048,0-.12-.014s-.158-.02-.255-.03l-.3-.029c-.1-.01-.186-.015-.252-.015-.083,0-.189.007-.319.021a1.912,1.912,0,0,0-.387.082.948.948,0,0,0-.325.176.374.374,0,0,0-.135.3.654.654,0,0,0,.144.413,2.316,2.316,0,0,0,.36.364c.145.119.3.242.469.369a3.6,3.6,0,0,1,.469.425,2.168,2.168,0,0,1,.36.53,1.549,1.549,0,0,1,.143.682,1.412,1.412,0,0,1-.134.613,2.02,2.02,0,0,1-.369.527,2.96,2.96,0,0,1-.543.439,4.572,4.572,0,0,1-.647.343c0,.067-.011.164-.021.293s-.021.273-.032.431-.023.321-.035.489-.022.325-.029.469L34,.691c-.05,0-.131,0-.243.009s-.234.013-.369.023-.272.018-.41.023-.263.009-.372.009Z" transform="translate(959 569.422)"/><g class="f" transform="matrix(1, 0, 0, 1, 959.88, 531.01)"><path class="c" d="M32.666-.364,32.2-.346c-.137.008-.285.014-.445.021s-.314.006-.463,0q.088-.458.193-.887t.205-.888a5.317,5.317,0,0,0,.752-.12,3.453,3.453,0,0,0,.639-.211,1.566,1.566,0,0,0,.443-.283.466.466,0,0,0,.164-.334.648.648,0,0,0-.044-.226.9.9,0,0,0-.179-.273,2.881,2.881,0,0,0-.383-.348,7.247,7.247,0,0,0-.665-.454,2.144,2.144,0,0,1-.738-.685,1.538,1.538,0,0,1-.223-.809,1.278,1.278,0,0,1,.158-.595,2.363,2.363,0,0,1,.408-.556,2.567,2.567,0,0,1,.563-.437,1.948,1.948,0,0,1,.63-.24l.181-1.12c.008-.05.013-.094.015-.129A.771.771,0,0,1,33.422-9a.1.1,0,0,1,.023-.05.116.116,0,0,1,.065-.023q.41-.028.852-.068t.865-.1c.023,0,.038,0,.043.012a.042.042,0,0,1,.009.029c0,.008-.007.052-.023.132s-.036.178-.061.3-.052.245-.079.382-.053.266-.076.386q.423.03.735.058c.21.02.371.038.483.053l.158,1.723c-.007,0-.048,0-.12-.014s-.158-.02-.255-.03l-.3-.029c-.1-.01-.186-.015-.252-.015-.083,0-.189.007-.319.021a1.912,1.912,0,0,0-.387.082.948.948,0,0,0-.325.176.374.374,0,0,0-.135.3.654.654,0,0,0,.144.413,2.316,2.316,0,0,0,.36.364c.145.119.3.242.469.369a3.6,3.6,0,0,1,.469.425,2.168,2.168,0,0,1,.36.53,1.549,1.549,0,0,1,.143.682,1.412,1.412,0,0,1-.134.613,2.02,2.02,0,0,1-.369.527,2.96,2.96,0,0,1-.543.439,4.572,4.572,0,0,1-.647.343c0,.067-.011.164-.021.293s-.021.273-.032.431-.023.321-.035.489-.022.325-.029.469L34,.691c-.05,0-.131,0-.243.009s-.234.013-.369.023-.272.018-.41.023-.263.009-.372.009Z" transform="translate(-0.88 38.41)"/></g></g><path d="M3.123-3.779,2.877-.352a.761.761,0,0,1-.021.1.131.131,0,0,1-.079.082c-.035.016-.1.041-.182.074l-.3.114L1.931.149c-.127.045-.247.086-.36.123s-.214.067-.3.091A.867.867,0,0,1,1.09.4.233.233,0,0,1,.943.352.21.21,0,0,1,.885.182q.058-.733.135-1.6t.147-1.773Q1.237-4.1,1.3-5T1.4-6.72a.632.632,0,0,0-.073-.156c-.049-.088-.1-.184-.165-.287s-.115-.2-.164-.293a.58.58,0,0,1-.073-.173A.1.1,0,0,1,.969-7.7,1.312,1.312,0,0,1,1.113-7.8l1.564-.885a.359.359,0,0,0,.05-.006.331.331,0,0,1,.055-.005.289.289,0,0,1,.1.014.181.181,0,0,1,.079.091L5.807-3.463V-7.852a2.326,2.326,0,0,1,.082-.281.2.2,0,0,1,.152-.118l1.517-.357a.5.5,0,0,1,.153-.023.124.124,0,0,1,.111.053.391.391,0,0,1,.035.2,2.984,2.984,0,0,0-.059.431c-.015.193-.027.405-.035.635s-.013.462-.017.694-.006.435-.006.607v.322q0,.363-.005.791c0,.285-.009.574-.015.868s-.013.582-.02.867-.016.553-.023.8l-.035,1a.228.228,0,0,0-.006.052v.135c0,.067,0,.122,0,.166s0,.086,0,.121a.621.621,0,0,1-.009.105.213.213,0,0,1-.044.091.559.559,0,0,1-.1.091c-.041.032-.1.07-.167.117-.039.028-.1.067-.194.121s-.189.112-.3.178L6.493.023c-.118.07-.225.134-.323.191L5.933.352,5.842.4ZM21.545.4A.059.059,0,0,1,21.5.378.111.111,0,0,1,21.475.34q-.065-.252-.147-.627t-.176-.832q-.094-.458-.2-.979T20.736-3.17L19.993-.551a1.092,1.092,0,0,1-.062.173.349.349,0,0,1-.073.105.275.275,0,0,1-.088.056.736.736,0,0,1-.105.03q-.446.088-.9.2T17.813.3a.044.044,0,0,0-.018,0,.029.029,0,0,1-.012,0h-.041a.069.069,0,0,1-.05-.021.059.059,0,0,1-.021-.039c-.054-.172-.117-.39-.187-.653s-.146-.559-.226-.886-.163-.674-.248-1.046-.174-.748-.264-1.13-.179-.763-.266-1.139-.174-.735-.256-1.076a.569.569,0,0,1-.047-.156q-.005-.061-.005-.1c0-.054.031-.089.094-.105l.949-.208a6.377,6.377,0,0,0,.931-.278.181.181,0,0,1,.052-.006c.051,0,.078.02.082.058l.657,4.055.92-3.54a.118.118,0,0,1,.1-.082l.973-.217a7.786,7.786,0,0,0,.955-.275c.055,0,.083.02.083.058l.6,4,1.119-4a.087.087,0,0,1,.088-.058.048.048,0,0,1,.023,0,.064.064,0,0,0,.023,0,6.744,6.744,0,0,0,.9.278q.463.108.921.208a.122.122,0,0,1,.111.129.661.661,0,0,1-.07.235L23.8-.457c-.031.067-.059.122-.082.167a.484.484,0,0,1-.07.105.284.284,0,0,1-.076.059.407.407,0,0,1-.1.032q-.445.093-.9.205t-.949.281A.047.047,0,0,0,21.6.4a.018.018,0,0,1-.012,0ZM10.462.035A3.115,3.115,0,0,1,9.416-.682a2.958,2.958,0,0,1-.633-1.031,3.536,3.536,0,0,1-.211-1.211,3.471,3.471,0,0,1,.205-1.192A3.408,3.408,0,0,1,9.352-5.13a3.268,3.268,0,0,1,.885-.75,3.325,3.325,0,0,1,1.137-.408c.062,0,.094-.017.094-.04a.515.515,0,0,0-.014-.121.384.384,0,0,1-.015-.1.128.128,0,0,1,.023-.088.075.075,0,0,1,.053-.023,6.241,6.241,0,0,1,1.9.255,3.52,3.52,0,0,1,1.277.695A2.574,2.574,0,0,1,15.41-4.67a3.646,3.646,0,0,1,.223,1.283,3.933,3.933,0,0,1-.293,1.559,3.4,3.4,0,0,1-.8,1.16,3.476,3.476,0,0,1-1.184.724,4.156,4.156,0,0,1-1.444.249A3.631,3.631,0,0,1,10.462.035Zm1.022-4.773a1.524,1.524,0,0,0-.383.513,2.7,2.7,0,0,0-.208.642,3.192,3.192,0,0,0-.065.595,2.94,2.94,0,0,0,.068.626,1.761,1.761,0,0,0,.223.563,1.224,1.224,0,0,0,.407.408,1.177,1.177,0,0,0,.627.155,1.083,1.083,0,0,0,.472-.12,1.188,1.188,0,0,0,.348-.282,1.58,1.58,0,0,0,.243-.39,2.58,2.58,0,0,0,.153-.448,3.471,3.471,0,0,0,.078-.454,3.743,3.743,0,0,0,.023-.4,2.013,2.013,0,0,0-.09-.6,1.569,1.569,0,0,0-.267-.516,1.354,1.354,0,0,0-.436-.361,1.265,1.265,0,0,0-.6-.138A.874.874,0,0,0,11.484-4.738Z" transform="translate(959 569.422)"/><path d="M151.156-.364l-.463.018c-.137.008-.285.014-.445.021s-.314.006-.463,0q.067-.347.144-.678h-.864V-2h1.1l.022-.1a5.36,5.36,0,0,0,.752-.12,3.453,3.453,0,0,0,.639-.211,1.547,1.547,0,0,0,.442-.283.464.464,0,0,0,.165-.334.669.669,0,0,0-.044-.226.915.915,0,0,0-.179-.273,3,3,0,0,0-.383-.348,7.375,7.375,0,0,0-.665-.454,2.144,2.144,0,0,1-.738-.685,1.538,1.538,0,0,1-.223-.809,1.278,1.278,0,0,1,.158-.595,2.384,2.384,0,0,1,.407-.556,2.61,2.61,0,0,1,.563-.437,1.963,1.963,0,0,1,.63-.24l.182-1.12a1.216,1.216,0,0,0,.014-.129c0-.035.005-.063.009-.085a.1.1,0,0,1,.023-.05A.116.116,0,0,1,152-9.076c.274-.019.557-.041.852-.068s.583-.059.864-.1c.023,0,.039,0,.044.012a.042.042,0,0,1,.009.029c0,.008-.008.052-.023.132s-.036.178-.061.3-.052.245-.079.382-.053.266-.076.386q.423.03.735.058c.209.02.37.038.483.053l.158,1.723c-.008,0-.048,0-.12-.014s-.158-.02-.256-.03l-.3-.029c-.1-.01-.185-.015-.252-.015-.082,0-.188.007-.319.021a1.912,1.912,0,0,0-.387.082.94.94,0,0,0-.325.176.374.374,0,0,0-.135.3.658.658,0,0,0,.143.413,2.365,2.365,0,0,0,.361.364q.216.178.469.369a3.537,3.537,0,0,1,.468.425,2.172,2.172,0,0,1,.361.53,1.549,1.549,0,0,1,.143.682,1.425,1.425,0,0,1-.134.613,1.9,1.9,0,0,1-.17.288h1.089q0-.082,0-.168a2.456,2.456,0,0,1,.109-.759,2.653,2.653,0,0,1,.3-.627,3.842,3.842,0,0,1,.436-.551q.25-.261.525-.524a1.874,1.874,0,0,1-.639-.718,2.118,2.118,0,0,1-.2-.929,2.212,2.212,0,0,1,.132-.785,2.1,2.1,0,0,1,.365-.627,2.374,2.374,0,0,1,.554-.474,3.5,3.5,0,0,1,.691-.331,4.362,4.362,0,0,1,.782-.2,5.327,5.327,0,0,1,.833-.065,2.765,2.765,0,0,1,.864.144,2.522,2.522,0,0,1,.785.418,2.2,2.2,0,0,1,.569.674,1.848,1.848,0,0,1,.22.908,1.956,1.956,0,0,1-.073.542,2.621,2.621,0,0,1-.191.481,2.584,2.584,0,0,1-.27.417,4.636,4.636,0,0,1-.311.354,3.852,3.852,0,0,1,.466.393,2.306,2.306,0,0,1,.381.495,2.528,2.528,0,0,1,.255.63,3.069,3.069,0,0,1,.094.8,2.438,2.438,0,0,1-.05.5h4.628q.083-.236.144-.449a5.192,5.192,0,0,1-.616.14,3.772,3.772,0,0,1-.621.052,2.389,2.389,0,0,1-1.057-.237,2.785,2.785,0,0,1-.85-.633,2.963,2.963,0,0,1-.565-.914,2.9,2.9,0,0,1-.205-1.076,3.225,3.225,0,0,1,.167-1.051,3.261,3.261,0,0,1,.463-.891,3.7,3.7,0,0,1,.7-.717,4.3,4.3,0,0,1,.864-.531,4.911,4.911,0,0,1,.967-.328,4.551,4.551,0,0,1,1.013-.114,2.506,2.506,0,0,1,1.239.308,3.166,3.166,0,0,1,.947.8,3.732,3.732,0,0,1,.607,1.108A3.735,3.735,0,0,1,170.2-5.3a4.661,4.661,0,0,1-.135,1.125,6.448,6.448,0,0,1-.363,1.064,8.343,8.343,0,0,1-.527,1l-.068.11h1.4a.182.182,0,0,1,.108-.051l1.078,0q.563,0,1.06-.009a.132.132,0,0,1,.088.03.084.084,0,0,1,.023.033h3.8q.083-.236.144-.449a5.218,5.218,0,0,1-.615.14,3.78,3.78,0,0,1-.621.052,2.386,2.386,0,0,1-1.057-.237,2.775,2.775,0,0,1-.85-.633,2.965,2.965,0,0,1-.566-.914,2.9,2.9,0,0,1-.2-1.076,3.225,3.225,0,0,1,.167-1.051,3.286,3.286,0,0,1,.463-.891,3.757,3.757,0,0,1,.7-.717,4.329,4.329,0,0,1,.864-.531,4.9,4.9,0,0,1,.968-.328,4.545,4.545,0,0,1,1.013-.114,2.506,2.506,0,0,1,1.239.308,3.163,3.163,0,0,1,.946.8,3.711,3.711,0,0,1,.607,1.108,3.713,3.713,0,0,1,.214,1.23,4.661,4.661,0,0,1-.135,1.125,6.452,6.452,0,0,1-.364,1.064,8.217,8.217,0,0,1-.527,1l-.068.11h1.865a4.482,4.482,0,0,1-.138-1.123,3.911,3.911,0,0,1,.14-1.055,5.311,5.311,0,0,1,.378-.973,7.275,7.275,0,0,1,.551-.911q.313-.443.651-.868t.682-.834q.346-.41.651-.821c.031-.039.063-.081.1-.126a.888.888,0,0,1,.109-.122.7.7,0,0,1,.122-.094.285.285,0,0,1,.147-.038H185.7a.681.681,0,0,1,.252.041.137.137,0,0,1,.105.129.322.322,0,0,1-.094.193,11.128,11.128,0,0,0-.941,1.274q-.424.671-.794,1.408a2.873,2.873,0,0,1,.4-.082,3.5,3.5,0,0,1,.41-.023,2.379,2.379,0,0,1,1.122.252,2.426,2.426,0,0,1,.791.653,2.8,2.8,0,0,1,.469.9,3.358,3.358,0,0,1,.155,1A4.357,4.357,0,0,1,187.416-2h.151v1h-.635a2.861,2.861,0,0,1-.284.329A3.176,3.176,0,0,1,185.5.044,4.565,4.565,0,0,1,183.9.3,3.427,3.427,0,0,1,182.495.03a2.822,2.822,0,0,1-1-.736A2.937,2.937,0,0,1,181.271-1h-2.986q-.274.369-.554.716-.343.425-.659.824a.27.27,0,0,1-.044.035.117.117,0,0,1-.067.018.167.167,0,0,1-.082-.023c-.1-.055-.193-.1-.275-.147s-.162-.082-.24-.117-.158-.068-.24-.1-.172-.06-.269-.088S175.7.045,175.7-.018a.242.242,0,0,1,.059-.14,5.436,5.436,0,0,0,.334-.533q.083-.152.16-.309h-3.459l-.082.918a2.225,2.225,0,0,1-.044.266c-.014.049-.058.077-.132.085l-1.022.012q-.524.007-1.093.006a.131.131,0,0,1-.049-.006c-.01,0-.014-.015-.014-.035V.222c.007-.184.014-.329.017-.437s.007-.19.009-.248,0-.1,0-.123V-.653c0-.022,0-.048,0-.079s.005-.083.009-.155q0-.048.006-.113h-1.98q-.274.369-.554.716-.343.425-.66.824a.3.3,0,0,1-.043.035.121.121,0,0,1-.067.018.164.164,0,0,1-.082-.023c-.1-.055-.193-.1-.275-.147s-.163-.082-.24-.117-.158-.068-.24-.1-.172-.06-.27-.088-.158-.072-.158-.135a.238.238,0,0,1,.059-.14,5.612,5.612,0,0,0,.334-.533q.083-.152.16-.309h-4.706l-.048.057a2.919,2.919,0,0,1-.633.545,4.151,4.151,0,0,1-.767.39,4.731,4.731,0,0,1-.835.235,4.7,4.7,0,0,1-.841.079,4.223,4.223,0,0,1-.718-.062,3.591,3.591,0,0,1-.694-.19,3.083,3.083,0,0,1-.627-.329A2.284,2.284,0,0,1,156-.75a2.068,2.068,0,0,1-.168-.25h-2.718l-.049.022c0,.067-.011.164-.021.293s-.021.273-.032.431-.023.321-.035.489-.022.325-.029.469l-.464-.012c-.05,0-.131,0-.243.009s-.234.013-.369.023-.272.018-.41.023-.263.009-.372.009Zm7.424-.594a.605.605,0,0,0,.434.155.412.412,0,0,0,.273-.1.783.783,0,0,0,.1-.1h-.846ZM184.852-2a1.282,1.282,0,0,0,.089-.212,2.734,2.734,0,0,0,.1-.4,3.427,3.427,0,0,0,.044-.413c.005-.137.009-.26.009-.369,0-.133-.006-.271-.018-.413a1.193,1.193,0,0,0-.091-.383.7.7,0,0,0-.217-.282.631.631,0,0,0-.4-.112.766.766,0,0,0-.534.182,1.194,1.194,0,0,0-.3.451,2.226,2.226,0,0,0-.138.581,5.518,5.518,0,0,0-.032.569,2.935,2.935,0,0,0,.03.389,1.581,1.581,0,0,0,.114.418ZM159.718-2q.015-.115.022-.22c.008-.11.012-.2.012-.264a2.375,2.375,0,0,0-.047-.446,2.018,2.018,0,0,0-.147-.464,1.121,1.121,0,0,0-.257-.363.531.531,0,0,0-.375-.147.5.5,0,0,0-.29.082.711.711,0,0,0-.2.214,1.23,1.23,0,0,0-.131.3,3,3,0,0,0-.079.346,2.9,2.9,0,0,0-.038.343c-.006.112-.009.21-.009.3s0,.206.014.32Zm16.311-5.052a1.183,1.183,0,0,0-.346.407,1.819,1.819,0,0,0-.179.542,3.478,3.478,0,0,0-.049.56,2.44,2.44,0,0,0,.07.589,1.527,1.527,0,0,0,.22.5,1.111,1.111,0,0,0,.39.348,1.188,1.188,0,0,0,.581.132,1.061,1.061,0,0,0,.222-.021,2.228,2.228,0,0,0,.247-.073q.063-.265.105-.452c.027-.124.048-.242.061-.351s.023-.22.03-.331.009-.239.009-.383c0-.086,0-.187-.009-.3a3.331,3.331,0,0,0-.039-.355,2.7,2.7,0,0,0-.082-.357,1.145,1.145,0,0,0-.143-.31.763.763,0,0,0-.223-.22.574.574,0,0,0-.319-.085A.887.887,0,0,0,176.029-7.052Zm-9.867,0a1.186,1.186,0,0,0-.346.407,1.818,1.818,0,0,0-.178.542,3.378,3.378,0,0,0-.049.56,2.44,2.44,0,0,0,.07.589,1.508,1.508,0,0,0,.22.5,1.1,1.1,0,0,0,.39.348,1.186,1.186,0,0,0,.58.132,1.071,1.071,0,0,0,.223-.021,2.281,2.281,0,0,0,.246-.073q.065-.265.105-.452c.028-.124.048-.242.062-.351s.023-.22.029-.331.009-.239.009-.383c0-.086,0-.187-.009-.3a3.1,3.1,0,0,0-.038-.355,2.852,2.852,0,0,0-.082-.357,1.121,1.121,0,0,0-.144-.31.76.76,0,0,0-.222-.22.577.577,0,0,0-.32-.085A.882.882,0,0,0,166.163-7.052Zm-7.538-.387a.806.806,0,0,0-.217.287,1.437,1.437,0,0,0-.112.372,2.314,2.314,0,0,0-.032.37,1.758,1.758,0,0,0,.043.369,1.363,1.363,0,0,0,.141.372.906.906,0,0,0,.246.287.583.583,0,0,0,.366.114.418.418,0,0,0,.334-.143.933.933,0,0,0,.182-.346,2.015,2.015,0,0,0,.073-.419c.01-.145.015-.264.015-.357a1.778,1.778,0,0,0-.036-.343,1.183,1.183,0,0,0-.114-.328.727.727,0,0,0-.213-.248.546.546,0,0,0-.334-.1A.517.517,0,0,0,158.624-7.439Z" transform="translate(960 571.23)"/></g></svg>