<svg xmlns="http://www.w3.org/2000/svg" width="244.017" height="30.146" viewBox="0 0 244.017 30.146"><defs><style>.a{fill:#85c5d5;}</style></defs><path class="a" d="M951.99,331.847l4.186-1.815a31.563,31.563,0,0,1-.749-11.877l-12.95-.469,13.071-1.88c.469-3.091,1.377-4.562,2.768-7.653-12.84,1.01-229.77,1.041-244.017,0a38.472,38.472,0,0,1,1.43,3.661l12.31-1.3-11.13,3.408c1.6,5.135,1.19,7.487.248,12.622l5.187,2.185-5.576-.107a36.357,36.357,0,0,1-2.47,7.5c13.541,2.891,230.476,2.891,244.017,0a37.531,37.531,0,0,1-1.908-5.227Z" transform="translate(-714.3 -308.152)"/></svg>