<svg xmlns="http://www.w3.org/2000/svg" xmlns:xlink="http://www.w3.org/1999/xlink" width="230" height="375" viewBox="0 0 230 375"><defs><style>.a{fill:none;}.b{clip-path:url(#a);}.c{fill:#706d6d;}</style><clipPath id="a"><rect class="a" width="230" height="375"/></clipPath></defs><g class="b"><g transform="translate(-419.5 -2821)"><path class="c" d="M0,0H514V1H0Z" transform="translate(419.5 2821)"/></g><g transform="translate(-419.5 -2767)"><path class="c" d="M0,0H514V1H0Z" transform="translate(419.5 2821)"/></g><g transform="translate(-419.5 -2713)"><path class="c" d="M0,0H514V1H0Z" transform="translate(419.5 2821)"/></g><g transform="translate(-419.5 -2659)"><path class="c" d="M0,0H514V1H0Z" transform="translate(419.5 2821)"/></g><g transform="translate(-419.5 -2605)"><path class="c" d="M0,0H514V1H0Z" transform="translate(419.5 2821)"/></g><g transform="translate(-419.5 -2551)"><path class="c" d="M0,0H514V1H0Z" transform="translate(419.5 2821)"/></g><g transform="translate(-419.5 -2497)"><path class="c" d="M0,0H514V1H0Z" transform="translate(419.5 2821)"/></g></g></svg>