<svg xmlns="http://www.w3.org/2000/svg" width="1164" height="14" viewBox="0 0 1164 14"><defs><style>.a{fill:none;stroke:#5b5b5b;stroke-linecap:square;stroke-miterlimit:10;}.b{fill:#01dc64;}</style></defs><g transform="translate(-376.081 -3449)"><path class="a" d="M1149.5.5H.5" transform="translate(383.081 3455)"/><path class="b" d="M6,13V8H1A1,1,0,0,1,1,6H6V1A1,1,0,0,1,8,1V6h5a1,1,0,1,1,0,2H8v5a1,1,0,1,1-2,0Z" transform="translate(376.081 3449)"/><path class="b" d="M6,13V8H1A1,1,0,0,1,1,6H6V1A1,1,0,0,1,8,1V6h5a1,1,0,1,1,0,2H8v5a1,1,0,1,1-2,0Z" transform="translate(1526.081 3449)"/></g></svg>